<?xml version="1.0" encoding="UTF-8" standalone="no"?>
<svg
   xmlns:dc="http://purl.org/dc/elements/1.1/"
   xmlns:cc="http://creativecommons.org/ns#"
   xmlns:rdf="http://www.w3.org/1999/02/22-rdf-syntax-ns#"
   xmlns:svg="http://www.w3.org/2000/svg"
   xmlns="http://www.w3.org/2000/svg"
   viewBox="0 0 201.83601 224.49874"
   height="224.49873"
   width="201.836"
   xml:space="preserve"
   id="svg2"
   version="1.1"><metadata
     id="metadata8"><rdf:RDF><cc:Work
         rdf:about=""><dc:format>image/svg+xml</dc:format><dc:type
           rdf:resource="http://purl.org/dc/dcmitype/StillImage" /><dc:title></dc:title></cc:Work></rdf:RDF></metadata><defs
     id="defs6"><clipPath
       id="clipPath18"
       clipPathUnits="userSpaceOnUse"><path
         id="path16"
         d="M 36.189,36.922 10.773,36.919 c -9.645,0 -11.778,6.133 -10.183,11.137 L 0.43,47.562 C -0.754,43.223 0.742,41.039 2.079,38.465 6.477,30.026 20.294,4.707 20.294,4.707 22.024,1.679 24.402,0 28.338,0 36.089,0 48.543,8.017 48.543,8.017 l 46.466,28.905 h -58.82" /></clipPath><linearGradient
       id="linearGradient34"
       spreadMethod="pad"
       gradientTransform="matrix(77.8166,29.3219,29.3219,-77.8166,11.1939,22.196)"
       gradientUnits="userSpaceOnUse"
       y2="0"
       x2="1"
       y1="0"
       x1="0"><stop
         id="stop28"
         offset="0"
         style="stop-opacity:1;stop-color:#409f8b" /><stop
         id="stop30"
         offset="0.350401"
         style="stop-opacity:1;stop-color:#70ceb9" /><stop
         id="stop32"
         offset="1"
         style="stop-opacity:1;stop-color:#70ceb9" /></linearGradient><clipPath
       id="clipPath44"
       clipPathUnits="userSpaceOnUse"><path
         id="path42"
         d="m 45.588,143.745 h -0.089 c -5.092,0 -6.245,-3.233 -6.498,-3.834 L 0.862,48.819 c -2.075,-5.12 -0.231,-11.9 9.911,-11.9 l 25.416,0.003 29.513,69.818 c -7.873,18.64 -13.604,32.229 -13.646,32.328 -0.372,0.91 -2.028,4.677 -6.468,4.677" /></clipPath><linearGradient
       id="linearGradient66"
       spreadMethod="pad"
       gradientTransform="matrix(45.9802,104.107,104.107,-45.9802,13.6046,34.105)"
       gradientUnits="userSpaceOnUse"
       y2="0"
       x2="1"
       y1="0"
       x1="0"><stop
         id="stop54"
         offset="0"
         style="stop-opacity:1;stop-color:#cce310" /><stop
         id="stop56"
         offset="0.39089632"
         style="stop-opacity:1;stop-color:#72bf2d" /><stop
         id="stop58"
         offset="0.403405"
         style="stop-opacity:1;stop-color:#72bf2d" /><stop
         id="stop60"
         offset="0.69981973"
         style="stop-opacity:1;stop-color:#72bf2d" /><stop
         id="stop62"
         offset="0.978405"
         style="stop-opacity:1;stop-color:#1f9642" /><stop
         id="stop64"
         offset="1"
         style="stop-opacity:1;stop-color:#1f9642" /></linearGradient><clipPath
       id="clipPath76"
       clipPathUnits="userSpaceOnUse"><path
         id="path74"
         d="m 92.187,140.176 c -0.355,0.852 -1.909,3.83 -6.206,3.918 0.047,0 -0.183,0.005 -0.183,0.005 L 45.5,144.094 c -4.217,0 -5.824,-2.752 -6.143,-3.419 0,0 1.416,3.07 6.142,3.07 h 0.089 c 4.44,0 6.096,-3.767 6.468,-4.677 0.042,-0.099 5.773,-13.688 13.646,-32.328 C 83.041,65.654 110.752,0 110.752,0 h 40.625 c 0,0 -58.824,139.316 -59.19,140.176" /></clipPath><linearGradient
       id="linearGradient90"
       spreadMethod="pad"
       gradientTransform="matrix(59.0103,-144.309,-144.309,-59.0103,65.2582,143.9682)"
       gradientUnits="userSpaceOnUse"
       y2="0"
       x2="1"
       y1="0"
       x1="0"><stop
         id="stop86"
         offset="0"
         style="stop-opacity:1;stop-color:#67c5f0" /><stop
         id="stop88"
         offset="1"
         style="stop-opacity:1;stop-color:#127bca" /></linearGradient></defs><g
     transform="matrix(1.3333333,0,0,-1.3333333,5.7557334e-7,192.132)"
     id="g10"><g
       id="g936"><g
         id="g12"><g
           id="g14"
           clip-path="url(#clipPath18)"><g
             id="g20"><g
               id="g26"><path
                 d="M 0,144.099 H 864 V 0.06 H 0 Z"
                 style="fill:url(#linearGradient34);stroke:none"
                 id="path36" /></g></g></g></g><g
         id="g38"><g
           id="g40"
           clip-path="url(#clipPath44)"><g
             id="g46"><g
               id="g52"><path
                 d="M 0,144.099 H 864 V 0.06 H 0 Z"
                 style="fill:url(#linearGradient66);stroke:none"
                 id="path68" /></g></g></g></g><g
         id="g70"><g
           id="g72"
           clip-path="url(#clipPath76)"><g
             id="g78"><g
               id="g84"><path
                 d="M 0,144.099 H 864 V 0.06 H 0 Z"
                 style="fill:url(#linearGradient90);stroke:none"
                 id="path92" /></g></g></g></g></g><g
       transform="matrix(0.22100704,0,0,0.22100704,-39.573079,-32.116829)"
       id="g949"><path
         d="M 222.309,103.42 208.011,70.042 h 28.719 z m 43.733,-66.496 h -15.488 l -8.465,20.13 h -39.443 l -8.588,-20.13 h -15 l 36.7,84.011 h 13.578 l 36.706,-84.011"
         style="fill:#231f20;fill-opacity:1;fill-rule:nonzero;stroke:none"
         id="path94" /><path
         d="M 401.278,36.924 H 386.5 v 69.833 h -26.458 v 13.584 h 68.88 l -5.685,-13.584 H 401.278 V 36.924"
         style="fill:#231f20;fill-opacity:1;fill-rule:nonzero;stroke:none"
         id="path96" /><path
         d="M 681.894,106.757 H 637.23 V 85.536 h 28.607 V 72.422 H 637.23 V 50.256 h 44.682 V 36.924 h -59.451 v 83.417 h 59.433 v -13.584"
         style="fill:#231f20;fill-opacity:1;fill-rule:nonzero;stroke:none"
         id="path98" /><path
         d="m 772.651,120.341 h 13.986 V 36.924 h -13.986 z"
         style="fill:#231f20;fill-opacity:1;fill-rule:nonzero;stroke:none"
         id="path100" /><path
         d="m 727.198,108.305 c -8.522,0 -15.76,-2.573 -15.8,-8.235 -0.042,-6.623 4.113,-8.919 19.801,-14.019 17.337,-5.708 26.549,-11.503 26.458,-25.605 -0.099,-15.895 -12.381,-24.958 -30.327,-24.958 -12.697,0 -24.081,4.115 -32.762,11.753 l 5.401,13.082 c 7.874,-6.605 17.426,-11.28 27.746,-11.329 9.016,-0.04 15.444,4.348 15.444,10.859 0,5.438 -3.142,9.056 -18.358,13.877 -17.456,5.722 -27.999,11.695 -27.916,25.909 0.106,14.138 13.37,22.179 30.047,22.096 16.677,-0.081 26.066,-6.176 27.486,-7.001 l -5.234,-11.895 c -3.411,1.835 -10.879,5.466 -21.986,5.466"
         style="fill:#231f20;fill-opacity:1;fill-rule:nonzero;stroke:none"
         id="path102" /><path
         d="m 804.651,79.96 37.345,40.381 h -17.89 L 786.637,79.96 827.81,36.913 h 18.126 L 804.651,79.96"
         style="fill:#231f20;fill-opacity:1;fill-rule:nonzero;stroke:none"
         id="path104" /><path
         d="m 474.097,48.948 c -16.393,0 -28.358,13.287 -28.358,29.68 0,16.388 11.965,29.677 28.358,29.677 16.392,0 28.372,-13.289 28.372,-29.677 0,-16.393 -11.98,-29.68 -28.372,-29.68 z m 0,72.824 c -23.824,0 -43.138,-19.32 -43.138,-43.144 0,-23.835 19.314,-43.146 43.138,-43.146 23.824,0 43.151,19.311 43.151,43.146 0,23.824 -19.327,43.144 -43.151,43.144"
         style="fill:#231f20;fill-opacity:1;fill-rule:nonzero;stroke:none"
         id="path106" /><path
         d="m 564.327,50.273 -16.85,-0.017 v 56.487 h 16.916 c 16.389,0 28.293,-11.611 28.293,-28 0,-16.386 -11.976,-28.47 -28.359,-28.47 z m 0,70.068 h -31.64 V 36.924 l 31.64,0.007 c 23.821,0 43.132,17.987 43.132,41.812 0,23.833 -19.311,41.598 -43.132,41.598"
         style="fill:#231f20;fill-opacity:1;fill-rule:nonzero;stroke:none"
         id="path108" /><path
         d="m 343.93,73.886 c 0,-24.866 -14.595,-38.277 -35.757,-38.277 -21.156,0 -35.748,13.411 -35.748,38.277 v 46.455 h 14.777 V 72.123 c 0,-14.586 8.563,-23.154 20.978,-23.154 12.412,0 20.976,8.568 20.976,23.154 v 48.218 H 343.93 V 73.886"
         style="fill:#231f20;fill-opacity:1;fill-rule:nonzero;stroke:none"
         id="path110" /><path
         d="m 863.17,42.503 c 0,-2.785 -2.015,-4.786 -4.741,-4.786 -2.702,0 -4.731,2.001 -4.731,4.786 0,2.781 2.029,4.791 4.731,4.791 2.726,0 4.741,-2.01 4.741,-4.791 z m 0.83,0 c 0,3.074 -2.497,5.572 -5.571,5.572 -3.049,0 -5.554,-2.498 -5.554,-5.572 0,-3.07 2.505,-5.56 5.554,-5.56 3.074,0 5.571,2.49 5.571,5.56"
         style="fill:#231f20;fill-opacity:1;fill-rule:nonzero;stroke:none"
         id="path112" /><path
         d="m 859.459,43.802 c 0,-0.822 -0.681,-0.907 -1.336,-0.907 h -0.584 v 1.822 h 0.855 c 0.783,0 1.065,-0.379 1.065,-0.915 z m 1.379,-4.14 -1.342,1.894 c -0.235,0.338 -0.412,0.564 -0.669,0.76 0.962,0.125 1.529,0.648 1.529,1.486 0,0.856 -0.597,1.624 -1.765,1.624 h -1.888 v -5.764 h 0.836 v 2.584 c 0.445,0 0.621,-0.136 0.908,-0.561 l 1.388,-2.023 h 1.003"
         style="fill:#231f20;fill-opacity:1;fill-rule:nonzero;stroke:none"
         id="path114" /></g></g></svg>