<?xml version="1.0" encoding="UTF-8" standalone="no"?>
<svg
   xmlns:dc="http://purl.org/dc/elements/1.1/"
   xmlns:cc="http://creativecommons.org/ns#"
   xmlns:rdf="http://www.w3.org/1999/02/22-rdf-syntax-ns#"
   xmlns:svg="http://www.w3.org/2000/svg"
   xmlns="http://www.w3.org/2000/svg"
   height="4769.6533"
   width="3314.0459"
   version="1.1"
   id="svg">
  <metadata
     id="metadata9">
    <rdf:RDF>
      <cc:Work
         rdf:about="">
        <dc:format>image/svg+xml</dc:format>
        <dc:type
           rdf:resource="http://purl.org/dc/dcmitype/StillImage" />
        <dc:title></dc:title>
      </cc:Work>
    </rdf:RDF>
  </metadata>
  <defs
     id="defs7" />
  <path
     d="m 213.2672,4250.4633 c 5.347,1.116 10.481,2.455 11.41,2.975 0.928,0.519 3.263,1.643 5.188,2.497 5.742,2.545 8.041,4.089 14.305,9.603 7.454,6.561 13.953,16.497 17.407,26.612 2.379,6.966 2.665,9.305 2.723,22.283 0.059,13.269 -0.162,15.137 -2.607,22 -5.126,14.391 -9.566,21.154 -18.864,28.731 -10.892,8.877 -22.041,13.403 -37.464,15.209 -13.229,1.55 -113.733,1.427 -115.3,-0.14 -1.734,-1.734 -1.734,-128.866 0,-130.6 0.905,-0.905 15.009,-1.2 57.341,-1.2 52.557,0 56.761,0.13 65.861,2.03 m 1882.766,-67.615 c 18.818,3.054 35.92,15.461 43.536,31.585 3.805,8.054 4.625,10.365 7.099,20 2.309,8.99 2.464,11.414 2.886,45.141 0.441,35.261 0.161,40.356 -3.084,56.223 -2.057,10.055 -7.879,23.426 -13.061,29.995 -3.519,4.461 -13.238,12.348 -19.044,15.454 -10.546,5.641 -20.134,7.527 -35.152,6.915 -10.507,-0.429 -18.245,-2.283 -24.348,-5.834 -0.825,-0.48 -3.099,-1.742 -5.052,-2.803 -5.381,-2.924 -13.573,-10.687 -17.468,-16.555 -1.914,-2.884 -3.48,-5.669 -3.48,-6.19 0,-0.52 -0.508,-1.454 -1.13,-2.076 -1.868,-1.868 -4.786,-11.086 -7.342,-23.192 -1.954,-9.251 -2.533,-15.713 -3.048,-34 -1.582,-56.189 4.779,-83.312 23.506,-100.221 3.567,-3.222 6.907,-5.857 7.421,-5.857 0.515,0 1.646,-0.626 2.514,-1.392 2.719,-2.396 14.296,-6.485 21.079,-7.443 9.637,-1.361 14.557,-1.311 24.168,0.25 m -1205.168,-0.073 c 4.675,0.714 9.94,2.055 11.7,2.978 1.761,0.924 3.65,1.68 4.2,1.68 0.55,0 2.935,1.316 5.3,2.925 13.661,9.293 21.964,25.132 26.512,50.575 2.605,14.569 2.586,62.611 -0.03,77 -2.041,11.228 -5.781,23.814 -8.884,29.897 -5.903,11.57 -15.807,20.548 -28.298,25.651 -5.601,2.289 -7.163,2.449 -23.5,2.403 -16.464,-0.045 -17.904,-0.205 -24.33,-2.689 -16.564,-6.406 -28.642,-21.396 -34.457,-42.762 -2.79,-10.253 -6.486,-53.2 -5.034,-58.493 0.451,-1.647 0.821,-5.935 0.821,-9.53 0,-9.304 2.72,-30.064 4.497,-34.315 0.827,-1.979 1.503,-4.637 1.503,-5.907 0,-1.271 0.614,-3.198 1.365,-4.282 0.751,-1.085 1.714,-3.098 2.141,-4.473 2.506,-8.082 19.55,-26 24.731,-26 0.725,0 2.331,-0.71 3.569,-1.577 2.666,-1.867 15.239,-4.138 23.694,-4.279 3.3,-0.056 9.825,0.484 14.5,1.198 m 2302.5,-3.823 c 9.492,0.982 21.703,6.288 30.392,13.206 10.246,8.158 19.206,22.282 23.33,36.775 2.051,7.209 4.303,26.689 3.368,29.127 -0.727,1.894 -135.499,2.064 -137.39,0.173 -2.007,-2.007 -1.625,-7.666 1.712,-25.3 2.451,-12.954 9.384,-25.729 19.515,-35.958 3.99,-4.029 8.788,-8.106 10.664,-9.059 1.875,-0.953 4,-2.206 4.723,-2.783 4.386,-3.507 25.82,-7.992 34.186,-7.153 1.925,0.193 6.2,0.63 9.5,0.972 m -930.853,-50.25 c -1.633,1.194 -1.713,7.94 -1.355,114.75 0.264,78.886 0.717,114.7 1.488,117.481 0.61,2.2 1.79,6.984 2.624,10.632 0.834,3.647 2.266,8.372 3.183,10.5 3.596,8.34 5.837,12.973 7.434,15.368 0.916,1.375 2.871,4.337 4.343,6.583 4.306,6.5689 16.669,18.5489 24.185,23.4369 9.658,6.281 10.618,6.851 13.451,7.989 1.375,0.553 3.694,1.677 5.154,2.498 1.46,0.821 3.371,1.493 4.246,1.493 0.876,0 4.238,0.916 7.471,2.035 12.627,4.369 35.387,5.914 51.499,3.495 13.814,-2.074 32.533,-7.802 36.709,-11.233 0.868,-0.713 1.96,-1.297 2.426,-1.297 1.536,0 14.891,-9.342 20.326,-14.218 2.931,-2.63 5.744,-4.782 6.25,-4.782 0.514,0 0.919,6.073 0.919,13.8 0,9.4 0.383,14.183 1.2,15 0.878,0.878 8.926,1.2 29.965,1.2 27.415,0 28.813,-0.091 29.8,-1.934 0.701,-1.31 1.035,-51.8439 1.035,-156.4289 0,-139.116 -0.156,-154.651 -1.571,-156.066 -1.356,-1.355 -5.518,-1.571 -30.309,-1.571 -21.435,0 -29.161,0.318 -30.404,1.25 -1.533,1.15 -1.691,9.569 -1.968,105.25 l -0.302,104 -3.095,8.129 c -8.419,22.116 -18.224,31.96 -39.851,40.01 -4.126,1.536 -7.798,1.855 -21,1.827 -15.228,-0.031 -16.338,-0.17 -23,-2.873 -18.123,-7.352 -28.591,-18.682 -35.654,-38.593 l -2.306,-6.5 -0.294,-105 c -0.271,-96.626 -0.428,-105.1 -1.962,-106.25 -2.412,-1.809 -58.161,-1.792 -60.637,0.019 m -1629.447,-0.069 c -1.745,1.745 -1.745,311.8549 0,313.5999 1.714,1.714 59.886,1.714 61.6,0 0.923,-0.923 1.2,-37.1479 1.2,-156.9649 0,-152.976 -0.035,-155.783 -1.934,-156.8 -2.899,-1.551 -59.303,-1.398 -60.866,0.165 m 2534.8,-4.244 c -1.925,0.415 -7.325,1.312 -12,1.994 -9.163,1.336 -19.04,4.09 -25.61,7.141 -2.26,1.05 -4.787,1.909 -5.615,1.909 -0.828,0 -2.578,0.794 -3.89,1.765 -1.312,0.971 -4.41,2.839 -6.885,4.15 -6.496,3.442 -21.972,16.166 -27.424,22.547 -12.17,14.245 -22.393,32.956 -28.158,51.538 -8.157,26.287 -10.73,51.412 -9.012,88 0.845,17.994 4.493,41.846 7.219,47.2 0.756,1.486 1.375,3.753 1.375,5.039 0,1.286 0.9,4.103 2,6.261 1.1,2.158 2,4.399 2,4.98 0,1.844 9.2,19.825 12.669,24.76 1.832,2.607 3.331,5.171 3.331,5.697 0,1.987 20.788,21.7669 27.5,26.1679 24.053,15.768 48.862,22.26 85,22.244 35.071,-0.016 57.504,-5.553 83.021,-20.495 12.46,-7.295 34.043,-26.2219 33,-28.9379 -0.902,-2.352 -37.522,-36.369 -39.527,-36.719 -0.965,-0.168 -3.46,1.405 -5.615,3.542 -14.967,14.834 -30.209,22.728 -50.254,26.029 -36.125,5.95 -67.445,-4.696 -83.76,-28.471 -4.339,-6.323 -9.365,-16.311 -9.365,-18.613 0,-0.792 -0.703,-3.121 -1.561,-5.177 -1.48,-3.54 -2.872,-11.909 -4.121,-24.759 -0.375,-3.861 -0.15,-6.246 0.684,-7.25 1.089,-1.312 13.634,-1.498 101.12,-1.498 79.204,0 99.89,-0.259 99.938,-1.25 0.446,-9.272 -0.438,-54.391 -1.132,-57.75 -0.511,-2.475 -1.583,-8.1 -2.383,-12.5 -0.8,-4.4 -2.13,-9.8 -2.956,-12 -0.826,-2.2 -1.521,-5.014 -1.545,-6.254 -0.024,-1.239 -0.944,-3.932 -2.044,-5.985 -1.1,-2.052 -2,-4.344 -2,-5.092 0,-0.748 -0.672,-2.555 -1.493,-4.015 -0.821,-1.46 -1.97,-3.779 -2.552,-5.154 -0.582,-1.375 -2.142,-4.3 -3.467,-6.5 -1.325,-2.2 -3.163,-5.35 -4.085,-7 -6.118,-10.947 -25.856,-30.678 -36.903,-36.892 -1.65,-0.928 -4.8,-2.773 -7,-4.1 -4.429,-2.671 -4.854,-2.864 -12,-5.427 -11.433,-4.102 -18.489,-5.958 -27,-7.1 -4.95,-0.664 -10.575,-1.604 -12.5,-2.089 -4.166,-1.048 -22.037,-1.007 -27,0.064 m -253.029,-0.609 c -0.259,0.25 -5.871,1.203 -12.471,2.117 -6.6,0.915 -14.675,2.535 -17.944,3.6 -3.269,1.065 -6.8,1.936 -7.846,1.936 -1.046,0 -3.096,0.645 -4.556,1.432 -3.649,1.969 -13.895,6.568 -14.633,6.568 -0.331,0 -1.821,0.839 -3.311,1.865 -1.491,1.026 -5.304,3.53 -8.475,5.563 -7.761,4.979 -17.192,13.488 -25.018,22.572 -6.172,7.164 -18.71,27.365 -18.724,30.168 0,0.732 -0.9,2.682 -1.993,4.332 -1.093,1.65 -1.99,3.789 -1.993,4.754 0,0.964 -0.907,3.432 -2.007,5.485 -1.1,2.052 -2,4.919 -2,6.37 0,1.452 -0.705,4.609 -1.567,7.015 -1.64,4.576 -3.779,16.456 -5.562,30.876 -1.543,12.484 -0.589,52.042 1.579,65.5 1.778,11.029 4.208,21.093 7.124,29.5 0.858,2.475 1.923,5.916 2.365,7.648 0.442,1.731 1.537,4.193 2.433,5.472 0.895,1.279 1.628,3.064 1.628,3.968 0,0.903 0.9,2.786 2,4.185 1.1,1.398 2,3.118 2,3.821 0,2.906 13.46,21.044 21.992,29.6349 8.671,8.73 26.951,22.224 32.25,23.805 1.242,0.371 3.158,1.22 4.258,1.888 5.679,3.446 25.414,9.043 38,10.777 11.236,1.548 36.244,1.543 47.5,-0.01 9.783,-1.35 22.666,-4.661 28.566,-7.342 2.236,-1.016 4.559,-1.847 5.162,-1.847 1.149,0 13.451,-6.868 19.012,-10.615 5.877,-3.959 11.614,-8.786 19.238,-16.189 l 7.522,-7.3049 -20.5,-20.001 c -11.275,-11.001 -21.281,-20.439 -22.236,-20.974 -1.382,-0.773 -2.638,-0.097 -6.145,3.306 -10.316,10.011 -18.731,16.714 -21.04,16.76 -0.507,0.01 -1.632,0.625 -2.5,1.366 -2.077,1.773 -10.204,4.542 -17.079,5.818 -9.275,1.722 -29.233,0.356 -38.318,-2.622 -8.228,-2.697 -18.087,-8.579 -25.778,-15.38 -8.678,-7.672 -20,-27.603 -21.408,-37.684 -0.382,-2.739 -1.431,-7.455 -2.332,-10.48 -2.541,-8.54 -2.409,-62.071 0.183,-74 4.768,-21.945 9.588,-31.736 22.072,-44.83 15.243,-15.989 37.543,-23.31 61.811,-20.293 5.649,0.703 11.845,1.977 13.77,2.833 10.038,4.461 12.554,5.882 17.794,10.054 3.138,2.499 8.244,6.999 11.347,10 4.426,4.282 6,5.256 7.31,4.524 0.918,-0.514 10.87,-9.827 22.116,-20.695 l 20.447,-19.76 -1.629,-2.667 c -2.276,-3.725 -14.995,-14.617 -24.719,-21.167 -16.538,-11.14 -30.615,-16.496 -51.666,-19.659 -10.892,-1.636 -35.017,-2.971 -36.029,-1.993 m -215.966,2.255 c -6.872,1.331 -14.522,3.151 -17,4.044 -5.721,2.063 -13.062,5.215 -15.005,6.444 -0.825,0.521 -2.625,1.507 -4,2.191 -5.5,2.734 -11.478,7.146 -17.279,12.753 -8.213,7.938 -8.721,7.407 -8.721,-9.121 0,-11.762 -0.166,-12.932 -1.974,-13.899 -3.09,-1.654 -58.553,-1.289 -59.95,0.394 -0.769,0.927 -1.009,46.632 -0.829,157.698 l 0.253,156.3939 31.227,0.264 31.228,0.264 0.526,-2.264 c 0.289,-1.245 0.647,-47.2639 0.796,-102.2639 l 0.271,-100 2.354,-8.5 c 1.294,-4.675 2.971,-9.388 3.726,-10.473 0.754,-1.084 1.372,-2.549 1.372,-3.254 0,-1.501 8.113,-13.501 11.894,-17.594 2.425,-2.625 15.316,-11.679 16.629,-11.679 0.323,0 2.475,-0.843 4.782,-1.873 7.661,-3.42 19.393,-4.654 30.438,-3.202 12.543,1.65 18.721,4.534 30.594,14.282 3.211,2.636 6.365,4.793 7.009,4.793 2.151,0 46.658,-45.375 46.599,-47.508 -0.077,-2.768 -14.111,-13.67 -23.723,-18.429 -13.303,-6.586 -15.38,-7.273 -29.222,-9.669 -16.846,-2.914 -26.105,-2.869 -41.995,0.208 m -628.171,-2.103 c -0.358,0.359 -5.98,1.482 -12.493,2.497 -25.009,3.896 -46.345,14.123 -64.677,31.004 -6.721,6.189 -19.664,22.585 -19.664,24.91 0,0.451 -0.838,1.893 -1.862,3.205 -1.025,1.312 -2.205,3.51 -2.623,4.885 -0.418,1.375 -1.234,3.091 -1.813,3.814 -1.322,1.65 -4.387,10.106 -6.07,16.749 -0.705,2.784 -1.621,5.611 -2.036,6.281 -0.414,0.671 -1.386,5.143 -2.16,9.938 -0.773,4.795 -1.814,10.743 -2.312,13.218 -1.446,7.177 -2.183,49.84 -1.201,69.5 1.173,23.485 5.811,49.148 10.482,58 0.87,1.65 1.585,3.468 1.589,4.039 0.01,1.748 6.92,14.555 11.848,21.961 7.557,11.357 26.409,29.2919 36.264,34.4999 13.514,7.142 19.066,9.513 28.394,12.126 30.1,8.431 66.877,7.012 93,-3.589 40.155,-16.295 65.634,-48.0839 74.569,-93.0369 3.493,-17.571 3.95,-24.307 4.001,-59 0.051,-34.58 -0.032,-36.181 -2.707,-52 -6.717,-39.731 -23.506,-67.804 -52.208,-87.297 -5.238,-3.557 -17.213,-10.203 -18.385,-10.203 -0.578,0 -2.9,-0.84 -5.16,-1.866 -7.148,-3.247 -17.748,-6.094 -29.11,-7.82 -11.567,-1.757 -34.554,-2.927 -35.666,-1.815 m -1220.057,0.058 c -0.306,0.306 -5.219,1.208 -10.917,2.005 -24.777,3.465 -45.384,14.507 -60.495,32.418 -3.49,4.136 -6.349,8.027 -6.355,8.648 -0.01,0.62 -0.641,1.65 -1.411,2.29 -1.296,1.075 -4.206,6.705 -8.571,16.582 -5.046,11.418 -8.657,27.646 -10.57,47.5 -1.841,19.102 -1.836,71.586 0.01,91.5 2.233,24.112 7.491,43.399 15.949,58.5 1.386,2.475 3.266,5.85 4.177,7.5 2.365,4.281 8.042,11.124 14.344,17.2869 5.752,5.626 18.448,14.594 22.282,15.739 1.255,0.375 3.182,1.227 4.282,1.893 3.585,2.171 14.769,5.388 26.092,7.506 25.743,4.815 52.372,1.036 74.164,-10.524 7.089,-3.761 19.956,-13.872 23.086,-18.1409 3.949,-5.385 4.385,-2.534 3.966,25.8879 -0.407,27.651 -0.568,28.828 -5.982,43.852 -3.786,10.505 -7.958,17.26 -15.046,24.364 -4.775,4.786 -16.025,12.413 -19.61,13.295 -1.468,0.362 -3.57,1.206 -4.67,1.877 -3.645,2.222 -23.91,4.8 -32.285,4.106 -25.745,-2.132 -38.375,-7.157 -56.286,-22.392 -2.747,-2.337 -5.65,-4.25 -6.449,-4.25 -2.076,0 -39.48,37.828 -39.48,39.926 0,1.86 13.36,13.061 23.566,19.756 16.208,10.634 36.75,17.79 59.79,20.831 7.286,0.962 44.418,0.719 50.144,-0.328 12.909,-2.36 22.236,-4.554 24.7,-5.809 1.486,-0.757 3.456,-1.376 4.379,-1.376 2.407,0 20.015,-8.761 25.921,-12.897 12.244,-8.575 20.96,-16.7 29.074,-27.103 5.082,-6.516 14.426,-22.014 14.426,-23.927 0,-0.561 0.846,-2.944 1.879,-5.296 2.343,-5.33 5.454,-15.816 7.798,-26.277 1.677,-7.485 1.811,-18.644 2.081,-173.3699 0.214,-123.14 0,-165.722 -0.858,-166.75 -0.923,-1.113 -6.549,-1.38 -29.088,-1.38 -17.35,0 -28.677,0.392 -29.878,1.035 -1.765,0.945 -1.934,2.211 -1.934,14.5 0,11.503 -0.226,13.465 -1.552,13.465 -0.854,0 -4.791,-3.065 -8.75,-6.811 -11.985,-11.341 -29.237,-20.591 -42.198,-22.627 -2.2,-0.346 -7.825,-1.281 -12.5,-2.078 -8.33,-1.42 -26.124,-2.026 -27.223,-0.927 m -330.876,-0.127 c -0.236,0.237 -5.824,1.325 -12.416,2.418 -6.593,1.094 -13.337,2.698 -14.987,3.564 -1.65,0.867 -3.811,1.578 -4.802,1.582 -1.54,0.01 -5.645,1.822 -11.698,5.179 -0.825,0.457 -2.423,1.236 -3.551,1.729 -3.692,1.615 -10.947,6.876 -17.295,12.539 -3.426,3.058 -6.663,5.559 -7.192,5.559 -0.565,0 -0.962,-5.161 -0.962,-12.5 0,-17.89 2.722,-16.5 -32.3,-16.5 -20.678,0 -28.623,0.323 -29.5,1.2 -1.745,1.745 -1.745,311.8549 0,313.5999 1.714,1.714 59.886,1.714 61.6,0 0.917,-0.917 1.202,-24.775 1.208,-101.2499 0.01,-96.669 0.399,-111.327 3.05,-114 0.518,-0.523 0.942,-1.669 0.942,-2.548 0,-2.114 6.366,-14.476 9.761,-18.956 3.57,-4.709 12.001,-12.778 15.187,-14.532 8.399,-4.626 14.577,-6.893 22.552,-8.276 7.618,-1.322 10.499,-1.375 18.764,-0.347 13.028,1.62 21.475,5.643 32.272,15.371 5.943,5.356 6.418,5.246 14.055,-3.262 2.715,-3.025 12.468,-13.05 21.673,-22.279 9.205,-9.228 16.736,-17.43 16.736,-18.226 0,-3.816 -22.902,-19.575 -34.5,-23.739 -11.279,-4.05 -46.313,-8.61 -48.597,-6.326 m -306.903,-58.536 c 7.587,2.303 14.026,5.137 19.5,8.583 5.449,3.429 15.301,14.174 18.011,19.643 1.466,2.959 3.276,6.533 4.022,7.942 1.489,2.81 3.711,17.105 3.644,23.438 -0.18,16.837 -5.803,31.66 -15.902,41.922 -9.067,9.213 -17.245,13.792 -31.775,17.793 -7.708,2.123 -9.985,2.216 -62.459,2.55 -29.953,0.191 -55.491,0.088 -56.75,-0.228 l -2.291,-0.575 v -60.781 c 0,-47.288 0.277,-61.06 1.25,-62.037 0.982,-0.987 13.449,-1.178 58.25,-0.891 55.917,0.357 57.143,0.408 64.5,2.641 m 1187.133,-25.555 c -0.768,0.926 -1.192,14.6 -1.372,44.25 l -0.261,42.911 -16.788,0.5 c -13.446,0.4 -16.977,0.799 -17.735,2 -0.521,0.825 -0.953,11.255 -0.962,23.179 -0.013,18.388 0.223,21.917 1.556,23.25 1.292,1.291 4.297,1.571 16.878,1.571 11.538,0 15.579,0.328 16.413,1.334 0.786,0.946 1.216,28.029 1.483,93.25 0.224,54.913 0.791,95.137 1.407,99.916 2.224,17.255 10.786,34.8889 22.915,47.1989 5.52,5.603 15.93,13.301 17.987,13.301 0.52,0 1.454,0.508 2.076,1.13 2.571,2.571 21.16,7.668 31.27,8.575 2.475,0.222 13.762,0.629 25.081,0.905 16.458,0.401 20.805,0.233 21.694,-0.839 1.247,-1.502 1.975,-52.3519 0.767,-53.5649 -0.387,-0.388 -8.655,-0.957 -18.373,-1.263 -14.036,-0.443 -18.491,-0.93 -21.669,-2.367 -6.097,-2.757 -11.077,-7.136 -14.053,-12.355 -5.343,-9.373 -5.445,-11.331 -5.446,-105.4 0,-77.466 0.166,-86.845 1.57,-88.25 1.352,-1.351 5.381,-1.571 28.8,-1.571 19.845,0 27.554,-0.325 28.429,-1.2 0.863,-0.863 1.2,-7.592 1.2,-23.965 0,-21.483 -0.109,-22.823 -1.934,-23.8 -1.196,-0.64 -12.217,-1.035 -28.878,-1.035 -21.761,0 -27.165,-0.267 -28.095,-1.388 -0.832,-1.003 -1.126,-13.113 -1.06,-43.653 0.073,-33.863 -0.17,-42.43 -1.221,-43.096 -0.722,-0.458 -14.644,-0.839 -30.94,-0.848 -23.551,-0.012 -29.855,0.26 -30.739,1.324 m -326.91,-37.782 -2.223,1.556 v 218.909 c 0,215.4039 0.031,218.9239 1.934,219.9429 1.202,0.643 12.587,1.035 30.066,1.035 17.479,0 28.864,-0.392 30.066,-1.035 1.892,-1.013 1.934,-3.198 1.951,-100.7499 0.019,-104.666 0.245,-110.737 4.499,-120.761 4.878,-11.496 11.438,-20.911 17.752,-25.48 6.678,-4.832 11.733,-7.974 12.831,-7.974 0.556,0 2.899,-0.852 5.206,-1.893 7.286,-3.288 21.105,-4.584 33.459,-3.138 5.905,0.691 11.861,1.846 13.236,2.566 1.375,0.721 4.616,2.275 7.203,3.454 6.37,2.904 13.963,9.103 18.131,14.803 4.448,6.083 9.662,15.77 9.679,17.981 0.01,0.95 0.907,4.58 2,8.066 1.929,6.153 1.987,9.355 1.987,109.128 0,85.8259 0.226,102.9759 1.37,103.9249 0.974,0.808 10.168,1.061 31.75,0.873 l 30.38,-0.265 -0.01,-112.9999 c -0.01,-111.15 -0.04,-113.156 -2.108,-122.5 -5.349,-24.166 -13.074,-38.925 -28.29,-54.042 -8.863,-8.806 -15.342,-13.27 -28.498,-19.635 -9.794,-4.738 -30.194,-9.149 -46.331,-10.018 -10.209,-0.549 -27.093,1.981 -39.768,5.961 -12.364,3.883 -29.434,13.618 -37.679,21.49 -7.222,6.894 -6.821,11.165 -6.821,-72.57 0,-71.269 -0.088,-74.956 -1.829,-76.531 -1.61,-1.457 -5.174,-1.655 -29.777,-1.655 -23.678,0 -28.289,0.238 -30.171,1.557 m -1050.636,0 c -1.433,1.433 -1.582,22.189 -1.582,220.388 0,184.1449 0.217,218.9859 1.371,219.9439 1.012,0.84 25.346,1.024 92.75,0.705 50.259,-0.239 94.304,-0.663 97.879,-0.943 10.02,-0.785 27.6,-3.289 28.951,-4.125 0.666,-0.411 3.537,-1.346 6.38,-2.076 25.094,-6.448 50.579,-24.077 63.891,-44.1969 4.541,-6.864 11.035,-19.71 12.262,-24.257 0.371,-1.375 1.295,-3.876 2.052,-5.559 0.757,-1.682 1.823,-5.507 2.369,-8.5 0.545,-2.992 1.457,-7.466 2.025,-9.941 1.607,-6.997 2.36,-32.606 1.205,-41 -1.467,-10.666 -3.893,-21.059 -5.638,-24.154 -0.824,-1.46 -1.499,-3.485 -1.501,-4.5 0,-1.015 -0.846,-3.227 -1.875,-4.915 -1.029,-1.688 -2.187,-4.065 -2.574,-5.282 -2.212,-6.97 -19.264,-27.48 -27.974,-33.649 -1.553,-1.1 -4.07,-3.013 -5.593,-4.25 -1.523,-1.237 -3.206,-2.25 -3.739,-2.25 -0.534,0 -2.08,-0.872 -3.435,-1.938 -1.355,-1.066 -3.633,-2.232 -5.063,-2.59 -1.429,-0.359 -2.846,-1.297 -3.148,-2.085 -0.635,-1.654 2.719,-5.387 4.839,-5.387 1.578,0 15.282,-10.495 20.114,-15.403 6.279,-6.379 16.452,-20.154 16.452,-22.278 0,-0.591 0.663,-1.624 1.474,-2.297 0.81,-0.673 1.757,-2.737 2.104,-4.587 0.347,-1.85 1.259,-3.885 2.027,-4.522 0.767,-0.637 1.395,-2.001 1.395,-3.031 0,-1.031 1.013,-4.688 2.25,-8.128 2.107,-5.855 2.25,-7.848 2.25,-31.254 0,-20.916 -0.273,-25.735 -1.674,-29.5 -0.92,-2.475 -1.979,-6.009 -2.352,-7.854 -1.764,-8.717 -11.221,-26.982 -18.973,-36.643 -6.755,-8.417 -19.928,-20.584 -25.001,-23.091 -1.65,-0.815 -4.8,-2.581 -7,-3.924 -2.2,-1.342 -5.125,-2.924 -6.5,-3.516 -1.375,-0.592 -4.33,-1.952 -6.566,-3.024 -2.236,-1.071 -4.583,-1.948 -5.216,-1.948 -0.632,0 -2.628,-0.637 -4.434,-1.416 -5.507,-2.374 -20.678,-5.536 -32.284,-6.729 -6.968,-0.717 -43.87,-1.268 -100.668,-1.504 -80.754,-0.335 -89.825,-0.215 -91.25,1.21 m 609.418,-2.688 -2.5,0.717 -0.265,32.455 c -0.242,29.624 -0.117,32.564 1.441,33.705 2.4,1.758 63.369,1.805 65.124,0.05 1.762,-1.762 1.714,-65.133 -0.05,-66.58 -1.437,-1.179 -59.743,-1.496 -63.75,-0.347 m 1126,-1.917 c -0.825,0.557 -5.775,1.035 -11,1.061 -17.798,0.09 -41.299,4.852 -54.61,11.065 -2.26,1.055 -4.529,1.918 -5.043,1.918 -0.514,0 -3.39,1.327 -6.391,2.95 -3.001,1.622 -6.581,3.515 -7.956,4.206 -10.164,5.109 -29.797,22.88 -36.451,32.994 -1.574,2.392 -3.65,5.514 -4.614,6.936 -5.387,7.951 -12.978,27.617 -14.914,38.642 -0.558,3.174 -1.506,8.619 -2.108,12.099 -1.456,8.422 -0.608,33.344 1.52,44.673 1.733,9.23 5.018,20.831 6.653,23.5 0.505,0.825 1.371,2.625 1.923,4 3.304,8.222 9.925,17.739 18.227,26.2 7.959,8.11 16.978,15.8 18.53,15.8 0.544,0 1.464,0.572 2.045,1.272 1.122,1.352 17.483,9.596 22.939,11.559 11.225,4.038 21.669,7.19 23.79,7.179 1.122,0 4.634,0.666 7.806,1.492 3.171,0.826 10.128,1.976 15.46,2.556 5.332,0.58 11.269,1.454 13.194,1.942 1.925,0.488 8,1.366 13.5,1.952 5.5,0.586 12.25,1.513 15,2.059 2.75,0.547 8.825,1.658 13.5,2.47 10.834,1.882 19.951,4.371 22.473,6.138 1.084,0.759 2.538,1.381 3.23,1.381 4.842,0 21.421,15.229 25.04,23 5.716,12.272 5.757,12.491 5.757,30.466 0,15.675 -0.196,17.552 -2.463,23.534 -3.567,9.413 -6.657,14.513 -12.438,20.53 -5.1,5.308 -17.705,14.464 -19.927,14.476 -0.645,0 -2.522,0.727 -4.172,1.607 -9.045,4.828 -30.873,8.387 -51.432,8.387 -20.155,0 -45.602,-3.534 -54.568,-7.578 -1.65,-0.744 -4.35,-1.662 -6,-2.04 -6.383,-1.463 -29.426,-13.902 -33,-17.815 -0.55,-0.602 -2.149,-1.829 -3.554,-2.726 -1.405,-0.897 -5.112,-3.968 -8.237,-6.824 -3.125,-2.856 -6.025,-5.034 -6.445,-4.839 -0.42,0.194 -10.102,9.81 -21.514,21.368 -13.187,13.355 -20.75,21.75 -20.75,23.031 0,1.237 2.783,4.507 7.208,8.469 7.581,6.788 23.239,18.7959 25.792,19.7789 0.825,0.318 3.075,1.648 5,2.956 3.097,2.104 7.927,4.529 22.566,11.33 2.236,1.039 4.583,1.889 5.216,1.889 0.632,0 2.628,0.643 4.434,1.428 16.813,7.31 48.812,11.989 81.784,11.96 32.131,-0.029 56.68,-3.96 78.5,-12.573 6.764,-2.669 21.198,-9.791 25.5,-12.581 1.925,-1.249 4.347,-2.825 5.381,-3.502 15.426,-10.1 31.557,-28.3389 38.678,-43.7319 0.636,-1.375 1.602,-3.353 2.148,-4.395 1.672,-3.196 4.902,-12.809 6.251,-18.605 0.704,-3.025 1.798,-7.3 2.431,-9.5 1.743,-6.055 2.503,-31.706 1.229,-41.5 -1.885,-14.496 -6.62,-32.742 -10.019,-38.605 -0.604,-1.042 -1.547,-3.02 -2.096,-4.395 -1.124,-2.816 -1.705,-3.797 -7.816,-13.196 -7.661,-11.784 -24.146,-26.605 -36.187,-32.535 -1.375,-0.677 -3.175,-1.624 -4,-2.104 -5.732,-3.333 -18.627,-7.754 -32,-10.97 -11.906,-2.863 -30.033,-6.195 -33.7,-6.195 -1.694,0 -7.292,-0.846 -12.44,-1.88 -5.148,-1.035 -12.51,-2.171 -16.36,-2.525 -3.85,-0.355 -9.925,-1.269 -13.5,-2.031 -3.575,-0.763 -8.75,-1.844 -11.5,-2.402 -11.114,-2.257 -17.225,-4.546 -28.572,-10.704 -1.414,-0.768 -5.574,-4.147 -9.243,-7.51 -5.117,-4.688 -7.539,-7.902 -10.388,-13.781 l -3.716,-7.667 -0.387,-16.551 c -0.373,-15.903 -0.282,-16.863 2.327,-24.5 1.493,-4.372 3.261,-8.624 3.928,-9.449 0.667,-0.825 2.409,-3.598 3.872,-6.161 6.587,-11.546 25.652,-23.725 42.179,-26.943 5.306,-1.034 22.64,-2.967 26,-2.9 21.092,0.42 45.674,4.435 56.066,9.157 2.236,1.016 4.558,1.847 5.16,1.847 2.865,0 21.513,11.767 30.605,19.312 l 4.83,4.009 20.92,-20.901 c 11.505,-11.496 20.919,-21.295 20.919,-21.776 0,-1.99 -24.313,-21.288 -32.5,-25.796 -17.779,-9.789 -37.143,-17.364 -50.5,-19.754 -3.025,-0.542 -7.75,-1.483 -10.5,-2.092 -2.75,-0.609 -12.65,-1.519 -22,-2.023 -9.35,-0.503 -18.35,-1.167 -20,-1.475 -1.65,-0.309 -3.675,-0.105 -4.5,0.452"
     style="fill:#5f6062;fill-opacity:1"
     id="path866" />
  <path
     d="m 1698.8067,2227.9588 c -1.085,1.082 -1.9718,380.8744 -1.9718,843.9833 v 842.0114 h 359.1732 c 197.5453,0 359.1733,-0.5025 359.1733,-1.1174 0,-1.4811 -8.1354,-21.7367 -13.2053,-32.8784 -2.22,-4.8777 -7.5736,-17.5153 -11.8985,-28.0835 -8.558,-20.9119 -13.01,-31.3915 -20.093,-47.2986 -2.5334,-5.6906 -8.1471,-18.9933 -12.475,-29.5615 -4.3248,-10.5683 -10.2756,-24.5362 -13.2199,-31.0397 -2.9443,-6.5036 -8.2713,-19.1411 -11.8365,-28.0835 -3.565,-8.9424 -9.0251,-21.1779 -12.132,-27.1908 -3.1069,-6.0128 -5.6492,-13.0662 -5.6492,-15.6735 0,-2.6073 -2.6606,-9.9918 -5.9124,-16.4126 -3.2517,-6.4178 -8.5728,-16.924 -11.8246,-23.3418 -3.2517,-6.4208 -5.9123,-13.2584 -5.9123,-15.1976 0,-1.9363 -2.8055,-9.6548 -6.2345,-17.1487 -11.7803,-25.7541 -16.8147,-37.3126 -23.3271,-53.536 -3.5888,-8.9424 -8.9098,-21.58 -11.8246,-28.0835 -2.9148,-6.5036 -8.2359,-19.1412 -11.8247,-28.0835 -3.5887,-8.9424 -8.9364,-21.58 -11.8808,-28.0835 -2.9443,-6.5036 -8.8862,-20.4714 -13.2021,-31.0397 -4.3161,-10.5683 -8.9927,-21.8756 -10.3909,-25.1273 -1.3983,-3.2518 -6.0542,-14.5591 -10.3466,-25.1274 -4.2924,-10.5683 -10.3703,-24.1341 -13.5097,-30.1469 -3.1365,-6.0128 -5.7054,-12.4129 -5.7054,-14.225 0,-1.8121 -3.4409,-10.858 -7.6475,-20.1078 -10.8048,-23.7616 -14.4971,-32.3167 -21.917,-50.8105 -3.5858,-8.9423 -8.9069,-21.5799 -11.8216,-28.0835 -2.9148,-6.5035 -8.2359,-19.1411 -11.8246,-28.0835 -7.9847,-19.892 -16.6374,-39.2814 -24.01,-53.7961 -3.0537,-6.0129 -5.5517,-13.0663 -5.5517,-15.6736 0,-2.6073 -2.5423,-9.6607 -5.6492,-15.6735 -3.1069,-6.0129 -8.5669,-18.2484 -12.132,-27.1908 -6.4415,-16.1613 -11.3606,-27.4686 -23.2827,-53.536 -3.4292,-7.4939 -6.2346,-14.6626 -6.2346,-15.9337 0,-1.2712 -2.8054,-8.4398 -6.2316,-15.9337 -8.9926,-19.6673 -13.0248,-28.9733 -21.9258,-50.5799 -4.3515,-10.5682 -10.4411,-24.6809 -13.5274,-31.3648 -3.0892,-6.6809 -5.6137,-13.7343 -5.6137,-15.6706 0,-1.9392 -2.5423,-8.4458 -5.6493,-14.4586 -3.1069,-6.0128 -8.5669,-18.2483 -12.1321,-27.1907 -7.8308,-19.6407 -16.4805,-39.0627 -23.9655,-53.7962 -3.0538,-6.0128 -5.5517,-13.0662 -5.5517,-15.6735 0,-2.6074 -2.4979,-9.6608 -5.5516,-15.6736 -7.3727,-14.5147 -16.0254,-33.9042 -24.0099,-53.7962 -3.5888,-8.9423 -8.9099,-21.5799 -11.8247,-28.0835 -2.9147,-6.5035 -8.2565,-19.1411 -11.872,-28.0835 -3.6153,-8.9424 -9.0753,-21.7248 -12.132,-28.4087 -3.0566,-6.6809 -5.5546,-13.3323 -5.5487,-14.7808 0,-1.4455 -2.8498,-8.6171 -6.3439,-15.9337 -8.2477,-17.2758 -15.1503,-33.0853 -23.2266,-53.2109 -3.5888,-8.9423 -8.9099,-21.5799 -11.8246,-28.0834 -2.9148,-6.5036 -8.3127,-19.1411 -11.9931,-28.0836 -7.2633,-17.6452 -10.2815,-24.805 -29.266,-69.4697 -6.9086,-16.2588 -15.2242,-36.2129 -18.4759,-44.3424 -3.2519,-8.1293 -8.298,-20.1018 -11.2128,-26.6054 -2.9148,-6.5035 -8.2359,-19.141 -11.8246,-28.0834 -6.3913,-15.9219 -10.8905,-26.4341 -22.7832,-53.2109 -3.2488,-7.3164 -8.8684,-21.2843 -12.4868,-31.0397 -12.3094,-33.1858 -13.2938,-34.6994 -18.9252,-29.0679 m -117.2827,-5.8827 c 0,2.965 -2.6605,9.3799 -5.8917,14.2575 -3.231,4.8777 -5.8827,10.6126 -5.8915,12.7469 0,2.1315 -3.4617,11.4434 -7.6683,20.6932 -4.2067,9.2469 -9.3326,20.8054 -11.396,25.6831 -2.0634,4.8777 -6.607,14.8547 -10.0983,22.1711 -3.4912,7.3166 -6.3439,15.3336 -6.3409,17.8168 0,2.4862 -1.8181,7.1421 -4.0529,10.3466 -2.2349,3.2074 -7.7067,15.1444 -12.1616,26.5256 -4.455,11.3813 -10.4737,26.0142 -13.3767,32.5177 -2.8999,6.5036 -8.8389,20.4714 -13.1904,31.0397 -11.6295,28.2372 -14.7955,35.5271 -21.8253,50.2547 -3.4912,7.3165 -6.3438,14.4881 -6.3409,15.9337 0,2.5423 -6.2286,16.9772 -18.0208,41.7113 -3.098,6.5036 -5.6403,13.155 -5.6462,14.7809 0,1.6259 -2.0782,6.9233 -4.6057,11.7714 -2.5275,4.8481 -7.9934,17.4857 -12.1439,28.0835 -4.1504,10.5979 -9.9209,24.5893 -12.8238,31.0929 -2.9,6.5035 -8.8389,20.4714 -13.1904,31.0397 -10.5298,25.5678 -15.9278,37.7058 -22.6028,50.84 -3.0537,6.0128 -5.5546,12.5193 -5.5546,14.4586 0,3.3434 -5.4275,16.1672 -18.0296,42.6012 -3.098,6.5035 -5.6315,12.9036 -5.6285,14.225 0,2.5571 -12.1439,30.478 -19.3245,44.3985 -2.3737,4.6028 -4.3159,9.779 -4.3159,11.5024 0,2.9887 -5.7557,16.4629 -18.0296,42.2081 -3.0981,6.5035 -5.6315,13.01 -5.6286,14.4556 0,1.4485 -2.7965,8.765 -6.2256,16.2589 -13.4033,29.3014 -17.1901,37.96 -24.7224,56.4921 -4.2952,10.5683 -9.7287,22.7447 -12.0759,27.0607 -2.3472,4.316 -4.2746,9.6371 -4.2835,11.8247 0,2.1875 -2.087,7.9461 -4.6145,12.7942 -2.5276,4.8481 -8.0142,17.4857 -12.1912,28.0835 -7.7482,19.6614 -17.53,42.2169 -27.7288,63.9358 -3.1365,6.6809 -5.7024,13.5569 -5.7024,15.2774 0,1.7235 -1.9304,6.8997 -4.2894,11.5024 -2.359,4.6028 -6.8022,14.3551 -9.8706,21.6716 -3.0715,7.3165 -8.6705,20.6192 -12.4454,29.5616 -3.7751,8.9424 -9.377,22.2451 -12.4485,29.5616 -3.0714,7.3165 -8.1826,18.6238 -11.3575,25.1274 -3.1749,6.5035 -5.7675,13.1755 -5.7645,14.8251 0,1.6495 -2.4743,7.6357 -5.5103,13.3027 -3.033,5.6669 -6.4444,14.5325 -7.5796,19.7057 -1.1351,5.1704 -3.9731,10.9881 -6.3054,12.9244 -2.3355,1.9392 -4.2451,5.7408 -4.2451,8.4487 0,2.7078 -2.6606,10.1426 -5.9123,16.5219 -3.2518,6.3794 -5.9123,12.7293 -5.9123,14.1098 0,1.3835 -3.3967,10.0805 -7.5472,19.3303 -13.1104,29.2157 -15.2242,34.1023 -23.2294,53.7666 -4.3042,10.5683 -9.7819,22.9812 -12.1735,27.5839 -2.3915,4.6028 -4.3485,9.6726 -4.3485,11.2659 0,1.5934 -5.1555,13.8497 -11.4551,27.2351 -6.3025,13.3885 -12.3745,28.5122 -13.4948,33.6115 -1.1205,5.0994 -3.9465,10.858 -6.2789,12.7943 -2.3354,1.9392 -4.254,5.6876 -4.2628,8.3334 0,2.6487 -2.1048,8.8034 -4.6559,13.6811 -2.5513,4.8777 -8.7562,19.5107 -13.7876,32.5177 -5.0343,13.0071 -10.2549,24.9145 -11.6029,26.4577 -4.1209,4.715 -2.7344,15.6676 2.223,17.5684 2.5719,0.9874 134.6797,1.7944 293.5732,1.7944 226.492,0 289.9695,-0.7982 293.8746,-3.6952 4.6412,-3.4469 4.9871,-51.1534 5.1112,-705.7828 0.1183,-629.4253 -0.3399,-702.1852 -4.4136,-703.0424 -2.7728,-0.5854 -4.5553,1.144 -4.5672,4.4342 m 222.8411,-30.1883 c -1.5165,3.9524 5.2709,20.8172 19.9097,49.4654 3.0744,6.0128 5.5842,12.6642 5.5784,14.7808 0,2.1166 2.5806,9.1699 5.7437,15.6735 3.1631,6.5035 11.2038,25.1274 17.87,41.3862 6.6662,16.259 13.956,33.5524 16.2027,38.4301 2.2467,4.8777 7.6239,17.5152 11.9488,28.0835 4.3249,10.5683 9.646,23.2058 11.8246,28.0835 2.1787,4.8777 7.4791,17.5152 11.7833,28.0835 4.3012,10.5683 10.3879,24.1341 13.5273,30.1469 3.1365,6.0128 5.7054,13.4978 5.7054,16.6372 0,3.1365 1.9097,7.287 4.2451,9.2263 2.3325,1.9362 5.1614,7.7539 6.2819,12.9242 1.1203,5.1734 4.4135,14.0595 7.3164,19.7502 2.906,5.6905 8.2714,17.663 11.931,26.6054 3.6569,8.9423 9.0962,21.6686 12.0878,28.2786 2.9887,6.61 5.4334,13.2613 5.4275,14.7808 0,1.5194 2.8498,8.7473 6.341,16.0637 3.4912,7.3166 8.0348,17.2936 10.0982,22.1712 2.0634,4.8777 7.1894,16.4363 11.3961,25.6832 4.2065,9.2498 7.6475,18.2956 7.6475,20.1077 0,1.8122 2.5364,8.2123 5.6345,14.2251 8.3126,16.1229 18.0148,37.8684 18.0148,40.3693 0,2.2408 2.554,8.2595 15.9691,37.6319 4.2244,9.2498 7.6801,18.2957 7.6801,20.1078 0,1.8121 2.5424,8.2122 5.6492,14.225 3.1069,6.0128 8.567,18.2484 12.1321,27.1908 3.5652,8.9423 8.8655,21.5799 11.7803,28.0835 2.9148,6.5035 8.2358,19.1411 11.8246,28.0835 3.5888,8.9423 8.9099,21.5799 11.8246,28.0835 2.9148,6.5035 8.2892,19.1411 11.9459,28.0835 7.1303,17.4443 13.3855,31.8526 23.2443,53.536 3.4085,7.4939 6.1961,15.2124 6.1961,17.1487 0,1.9392 2.5423,8.4457 5.6492,14.4586 3.107,6.0128 8.567,18.2483 12.132,27.1907 6.4416,16.1613 11.3606,27.4686 23.2827,53.536 3.4292,7.4939 6.2346,14.6626 6.2346,15.9337 0,1.2712 2.8055,8.4398 6.2316,15.9337 8.9926,19.6673 13.0248,28.9733 21.9258,50.5799 4.3515,10.5683 10.4411,24.681 13.5274,31.3648 3.0892,6.6809 5.6108,13.3323 5.6049,14.7808 0,1.4456 2.5364,7.9521 5.6433,14.4556 3.1069,6.5036 8.626,19.1412 12.2592,28.0835 7.0268,17.2817 13.1726,31.4595 23.2088,53.5361 3.4084,7.4938 6.1961,14.6625 6.1961,15.9336 0,2.1285 2.965,8.972 17.9232,41.3863 3.0005,6.5035 9.0103,21.1365 13.3559,32.5177 4.3426,11.3812 9.7229,23.3182 11.9576,26.5256 2.2349,3.2045 4.0618,8.2625 4.0618,11.2364 0,2.9768 2.5364,10.3288 5.6345,16.3416 10.5061,20.3768 18.0148,38.167 18.0148,42.6722 0,2.4683 1.9097,6.0719 4.245,8.0111 2.3324,1.9363 5.1615,7.7541 6.2818,12.9244 1.1205,5.1733 4.4136,14.0595 7.3166,19.7501 2.9058,5.6906 8.1944,17.663 11.7596,26.6054 3.5651,8.9424 8.2358,20.2497 10.385,25.1273 2.1461,4.8777 7.476,17.5153 11.8394,28.0835 15.3129,37.0821 31.6249,75.4974 37.1707,87.5319 3.0803,6.6809 5.5989,14.1659 5.5989,16.6343 0,2.4684 1.9097,6.0719 4.2451,8.0112 2.3324,1.9363 5.1614,7.754 6.2819,12.9243 1.1203,5.1733 4.4135,14.0595 7.3164,19.7501 2.906,5.6906 8.1974,17.663 11.7626,26.6054 3.5651,8.9424 8.8655,21.58 11.7803,28.0835 2.9148,6.5036 8.2447,19.1412 11.8424,28.0835 3.6006,8.9424 9.3917,22.5585 12.8711,30.2534 l 6.3262,13.9974 382.0834,0.044 382.0834,0.047 v -118.3498 c 0,-102.9867 -0.6089,-119.2781 -4.6796,-125.4949 -7.8634,-11.999 -1475.9773,-1482.5518 -1480.0952,-1482.5518 -1.2977,0 -3.1069,1.9481 -4.0204,4.3308 m -824.8125,489.4275 c -272.7854,273.1963 -496.8149,498.0801 -497.8466,499.7474 -1.0287,1.6673 -63.0785,64.5418 -137.89,139.7199 -74.8086,75.181 -137.5442,139.5395 -139.4065,143.0248 -2.294,4.2864 -3.3907,30.6169 -3.3907,81.451 0,69.0204 0.4375,75.5151 5.4068,80.0114 4.9604,4.4904 32.3995,4.8925 334.1789,4.8925 h 328.775 l 7.2545,-7.2574 c 3.9907,-3.9908 7.2573,-9.439 7.2573,-12.1055 0,-2.6694 1.9068,-8.3836 4.2333,-12.6996 7.3608,-13.6398 19.416,-41.3478 19.416,-44.6262 0,-1.7323 2.6605,-8.1117 5.9123,-14.1807 3.2518,-6.066 5.9123,-13.214 5.9123,-15.8864 0,-2.6694 1.9097,-6.4385 4.2451,-8.3777 2.3324,-1.9363 5.1614,-7.754 6.2818,-12.9244 1.1204,-5.1732 4.4136,-14.0594 7.3165,-19.7501 2.9059,-5.6906 8.2181,-17.663 11.8099,-26.6054 3.5916,-8.9423 9.0311,-21.7248 12.0877,-28.4086 3.0567,-6.681 5.5576,-13.1993 5.5576,-14.4852 0,-1.286 3.4646,-9.7879 7.7008,-18.8899 9.232,-19.8447 10.5387,-22.9013 20.4004,-47.5941 4.2214,-10.5683 9.5307,-23.2059 11.801,-28.0835 12.4957,-26.8479 19.221,-42.8673 19.221,-45.7909 0,-1.8121 2.5363,-8.2122 5.6344,-14.2251 9.7493,-18.9105 18.0148,-38.0487 18.0148,-41.7084 0,-1.9392 2.5364,-8.4457 5.6345,-14.4586 8.3127,-16.1229 18.0148,-37.8684 18.0148,-40.3693 0,-1.2031 1.8801,-6.3794 4.177,-11.5024 2.2969,-5.123 7.7836,-17.9616 12.1942,-28.5299 4.4105,-10.5682 10.3908,-24.5361 13.2909,-31.0396 2.9,-6.5036 8.2477,-19.1411 11.8808,-28.0835 7.0268,-17.2817 13.1726,-31.4595 23.2087,-53.536 3.4085,-7.4939 6.1961,-15.2124 6.1961,-17.1487 0,-1.9393 2.5364,-8.4458 5.6345,-14.4586 9.7494,-18.9105 18.0148,-38.0487 18.0148,-41.7084 0,-1.9393 2.5364,-8.4458 5.6344,-14.4586 8.8774,-17.2196 18.0149,-37.9364 18.006,-40.8186 0,-1.4456 2.5808,-7.9521 5.7439,-14.4557 3.1631,-6.5035 11.2038,-25.1273 17.87,-41.3862 6.6661,-16.2588 13.956,-33.5524 16.2027,-38.43 2.2466,-4.8777 7.6239,-17.5153 11.9488,-28.0835 4.3248,-10.5683 9.6458,-23.2059 11.8246,-28.0835 2.1786,-4.8777 7.5234,-17.5153 11.8748,-28.0835 4.3515,-10.5683 10.4412,-24.681 13.5274,-31.3649 3.0893,-6.6809 5.6138,-13.7343 5.6138,-15.6705 0,-1.9393 2.5364,-8.4459 5.6344,-14.4586 8.4693,-16.4304 18.0148,-37.8862 18.0148,-40.4935 0,-2.6073 9.5454,-24.0631 18.0149,-40.4935 3.098,-6.0128 5.6344,-13.0662 5.6344,-15.6736 0,-2.6072 2.501,-9.6607 5.5546,-15.6734 3.0566,-6.0129 7.5973,-15.5879 10.0894,-21.2785 2.495,-5.6906 7.9758,-17.9143 12.1823,-27.1612 4.2067,-9.2498 7.6476,-18.2956 7.6476,-20.1077 0,-1.8122 2.5867,-8.2123 5.7498,-14.2251 5.058,-9.6105 12.3863,-26.83 36.1124,-84.8358 3.3256,-8.1294 7.816,-18.7717 9.9829,-23.6493 2.1668,-4.8776 8.1028,-18.8455 13.1904,-31.0397 10.0568,-24.0985 13.8289,-32.7571 23.33,-53.536 3.4261,-7.4939 6.2315,-15.5109 6.2315,-17.8168 0,-2.3058 1.9364,-6.9558 4.3012,-10.3317 4.656,-6.6485 13.3235,-29.8306 13.3914,-35.8227 0.029,-2.031 -1.1972,-3.6952 -2.7107,-3.6952 -1.5165,0 -225.9451,223.521 -498.7276,496.7144 m 900.5641,-570.8637 c 0,3.1157 1.2327,6.1074 2.7374,6.6513 4.4963,1.6171 5.4068,2.5275 715.3577,713.2087 428.4863,428.9297 685.8495,684.4689 688.7849,683.9042 4.2451,-0.8188 4.7565,-38.8794 5.4364,-405.0735 l 0.7479,-404.1689 -12.3242,-7.7806 c -6.7784,-4.2805 -18.0887,-9.7465 -25.1362,-12.1469 -7.0445,-2.4004 -13.554,-5.5694 -14.4644,-7.0445 -0.9106,-1.4722 -3.8164,-2.6783 -6.4593,-2.6783 -2.6428,0 -10.2135,-2.5127 -16.8234,-5.5812 -36.2041,-16.8146 -45.924,-21.0242 -48.5491,-21.0242 -1.5963,0 -6.6661,-1.957 -11.2688,-4.3485 -4.6028,-2.3915 -17.0157,-7.9018 -27.5839,-12.2444 -22.3575,-9.1848 -39.2431,-16.519 -57.1012,-24.7933 -7.015,-3.2517 -14.0004,-5.9094 -15.5198,-5.9034 -1.5195,0 -8.0822,-2.5896 -14.5857,-5.7646 -6.5036,-3.1749 -18.476,-8.5639 -26.6054,-11.9784 -8.1295,-3.4113 -18.547,-8.1352 -23.1497,-10.4943 -4.6028,-2.359 -9.779,-4.2893 -11.5025,-4.2893 -1.7204,0 -8.5965,-2.566 -15.2774,-5.7025 -30.0877,-14.1275 -46.0362,-20.903 -49.2022,-20.903 -1.8802,0 -6.9529,-1.9067 -11.2689,-4.2332 -12.2208,-6.5952 -41.2089,-19.4161 -43.8754,-19.4071 -1.3213,0 -7.7214,-2.5542 -14.225,-5.6848 -6.5035,-3.1305 -25.1273,-11.3102 -41.3862,-18.1774 -16.2588,-6.8701 -34.8826,-14.7394 -41.3862,-17.4916 -6.5035,-2.7522 -19.1412,-8.0614 -28.0835,-11.7951 -19.0701,-7.9668 -28.0184,-11.8571 -50.8104,-22.0854 -9.2498,-4.1504 -17.8966,-7.5442 -19.2151,-7.5382 -1.3214,0 -7.7214,-2.5305 -14.225,-5.6286 -24.7342,-11.7921 -39.1691,-18.0295 -41.7114,-18.0207 -1.4456,0 -8.6172,-2.8497 -15.9337,-6.3439 -17.2906,-8.2566 -33.1001,-15.1562 -53.2108,-23.2235 -17.2936,-6.9382 -24.4327,-9.9978 -50.2548,-21.5328 -8.9424,-3.9967 -24.9292,-10.6806 -35.5271,-14.8576 -10.5978,-4.1771 -23.2354,-9.6637 -28.0834,-12.1912 -4.8482,-2.5275 -10.9792,-4.6027 -13.6279,-4.6146 -2.6458,-0.01 -6.3942,-1.9274 -8.3334,-4.2627 -1.9363,-2.3325 -7.754,-5.1704 -12.9243,-6.3056 -5.1734,-1.1351 -14.0389,-4.5465 -19.7058,-7.5795 -5.667,-3.036 -11.6532,-5.5162 -13.3027,-5.5103 -1.6496,0 -8.9867,-2.8497 -16.3033,-6.3439 -17.2758,-8.2477 -33.0853,-15.1503 -53.2108,-23.2265 -8.9423,-3.5888 -21.58,-8.9365 -28.0835,-11.8809 -6.5036,-2.9442 -20.4714,-8.8861 -31.0397,-13.2022 -10.5682,-4.3159 -21.8755,-8.9423 -25.1273,-10.2815 -3.2518,-1.339 -13.2289,-5.732 -22.1712,-9.7612 -8.9424,-4.0322 -23.5754,-10.2963 -32.5178,-13.9265 -16.3475,-6.6306 -28.3436,-11.8778 -53.536,-23.3979 -7.4939,-3.4292 -15.4755,-6.2434 -17.737,-6.2553 -2.2584,-0.01 -8.0998,-2.6605 -12.9775,-5.8916 -4.8776,-3.2311 -11.3191,-5.8828 -14.3137,-5.8916 -2.9976,-0.012 -8.83,-2.6812 -12.9627,-5.9331 -4.1357,-3.2517 -9.6667,-5.9093 -12.2918,-5.9034 -2.625,0 -10.0952,-2.5364 -16.5988,-5.6433 -6.5035,-3.1069 -19.1411,-8.5699 -28.0835,-12.141 -8.9424,-3.568 -21.5799,-8.8891 -28.0835,-11.8275 -35.202,-15.8953 -68.438,-29.603 -71.6868,-29.5645 -2.0309,0.024 -3.6952,2.5925 -3.6952,5.7113 m -493.439,-1.5225 c -1.889,2.2792 -7.0416,5.0314 -11.4463,6.1163 -4.4047,1.0849 -13.9944,4.6855 -21.3109,8.0024 -28.3141,12.8297 -37.5048,16.8176 -53.2109,23.0845 -8.9423,3.5711 -21.5799,8.836 -28.0834,11.7064 -6.5036,2.8675 -19.1412,8.1857 -28.0836,11.8158 -8.9423,3.6332 -21.1779,9.1463 -27.1907,12.2533 -6.0129,3.1069 -12.5193,5.6492 -14.4586,5.6492 -1.9362,0 -9.6548,2.8054 -17.1486,6.2346 -25.754,11.7802 -37.3127,16.8146 -53.5361,23.327 -19.8919,7.9846 -39.2813,16.6373 -53.7961,24.0099 -6.0129,3.0537 -12.5193,5.5517 -14.4586,5.5517 -1.9363,0 -9.6548,2.8053 -17.1487,6.2345 -7.4968,3.4262 -18.949,8.5552 -25.4525,11.3931 -6.5036,2.8378 -17.8109,8.0171 -25.1274,11.5112 -7.3164,3.4942 -15.1178,6.3469 -17.3349,6.344 -2.2171,-0.01 -8.8685,2.424 -14.7807,5.3979 -25.284,12.7145 -37.5433,18.2573 -40.3546,18.2513 -1.6495,-0.01 -7.6357,2.4655 -13.3027,5.4896 -5.6669,3.0241 -13.6279,6.474 -17.6926,7.6653 -7.2722,2.1285 -29.5468,11.529 -38.64,16.3033 -2.5511,1.342 -13.8584,6.0748 -25.1273,10.518 -11.2659,4.446 -27.7997,11.3486 -36.7421,15.3453 -25.822,11.535 -32.9612,14.5946 -50.2546,21.5328 -20.1108,8.0673 -35.9204,14.9669 -53.2109,23.2235 -7.3165,3.4942 -14.4882,6.3469 -15.9337,6.3439 -2.5423,-0.01 -16.9772,6.2286 -41.7114,18.0207 -6.5035,3.0981 -12.9036,5.6316 -14.225,5.6286 -1.3185,-0.01 -9.3001,3.0951 -17.737,6.8878 -8.4339,3.7928 -22.6531,9.9919 -31.5954,13.7787 -28.4412,12.0375 -39.6303,16.8471 -50.7011,21.7958 -5.936,2.6546 -11.6739,4.8273 -12.747,4.8273 -1.073,0 -9.5188,3.4411 -18.7686,7.6476 -9.2469,4.2067 -20.8054,9.3326 -25.683,11.3961 -4.8778,2.0633 -14.8548,6.6069 -22.1712,10.0982 -7.3166,3.4912 -14.3818,6.3439 -15.7032,6.341 -2.6665,-0.01 -31.6546,12.8119 -43.8753,19.4071 -4.3159,2.3265 -9.3888,4.2332 -11.2688,4.2332 -3.3996,0 -29.3931,11.062 -45.4214,19.3333 -4.6027,2.3738 -9.779,4.3159 -11.5025,4.3159 -1.7204,0 -8.5964,2.5689 -15.2773,5.7054 -25.9877,12.209 -47.0236,20.9001 -50.5741,20.9001 -2.0455,0 -5.2382,1.8358 -7.1006,4.0765 -1.8624,2.2438 -7.6151,4.925 -12.7824,5.9596 -5.1703,1.0348 -12.4573,4.7506 -16.1939,8.2625 l -6.7932,6.3824 v 342.397 342.4 h 6.8848 c 5.2176,0 150.7937,-144.1896 601.6197,-595.8817 327.1018,-327.7345 593.972,-597.1144 593.0408,-598.622 -2.5512,-4.1268 -11.9872,-3.2902 -15.8864,1.4041 m 530.2698,-107.412 c -1.0731,1.7323 -1.1766,3.9228 -0.2336,4.8688 1.6762,1.6732 23.9834,10.0717 41.741,15.709 4.8776,1.5491 13.5244,5.0048 19.215,7.6801 5.6907,2.6753 16.3328,7.5057 23.6493,10.7338 7.3164,3.2311 18.2218,8.3719 24.2346,11.4256 6.0128,3.0537 13.0662,5.5516 15.6736,5.5516 2.6072,0 9.6607,2.498 15.6734,5.5517 14.7336,7.485 34.1555,16.1347 53.7963,23.9656 8.9423,3.5651 20.9147,8.83 26.6053,11.7004 5.6907,2.8704 14.3375,6.1814 19.2151,7.3579 4.8776,1.1766 10.8639,3.8519 13.3027,5.9478 2.4388,2.093 8.2861,4.724 12.9953,5.8444 4.7062,1.1233 18.2158,6.6217 30.0168,12.2237 11.801,5.599 22.4343,10.181 23.6316,10.181 2.1373,0 17.7694,6.8317 41.256,18.0296 6.5036,3.098 13.0101,5.6315 14.4557,5.6285 2.7788,-0.01 22.8423,8.7857 40.2333,17.6335 5.6906,2.897 14.5768,6.1843 19.7501,7.3047 5.1703,1.1204 10.988,3.9494 12.9243,6.2819 1.9393,2.3353 6.0897,4.2449 9.2262,4.2449 3.1394,0 10.6244,2.5689 16.6373,5.7054 6.0128,3.1395 19.5786,9.2587 30.1468,13.6013 27.3563,11.2423 44.5464,18.7598 54.1894,23.7025 4.6028,2.359 9.6725,4.2894 11.2689,4.2894 2.6132,0 21.509,8.02 45.3977,19.2682 4.8776,2.2969 12.472,5.0196 16.8767,6.0483 4.4047,1.0288 9.5572,3.7337 11.4462,6.0128 1.892,2.2793 5.5191,4.1445 8.0585,4.1445 2.5393,0 10.6895,2.7286 18.1124,6.0602 7.423,3.3346 18.8189,8.4428 25.3225,11.3516 6.5035,2.9089 17.8108,7.9847 25.1273,11.2808 7.3195,3.2931 17.5359,6.9173 22.7063,8.0525 5.1733,1.1352 10.988,3.976 12.9242,6.3085 1.9393,2.3353 5.6878,4.2539 8.3335,4.2627 2.6488,0.012 8.7798,2.0871 13.6279,4.6146 4.8481,2.5275 17.4856,8.0141 28.0835,12.1912 19.6614,7.7481 42.2168,17.53 63.9358,27.7288 6.6809,3.1364 13.5569,5.7024 15.2775,5.7024 1.7233,0 6.8996,1.9303 11.5023,4.2894 4.6027,2.359 15.0202,7.083 23.1497,10.4944 8.1295,3.4143 20.1018,8.8034 26.6054,11.9783 6.5035,3.1749 13.0662,5.7675 14.5857,5.7645 1.5195,-0.01 8.5049,2.6517 15.5198,5.9034 7.018,3.2519 19.0791,8.6616 26.8005,12.0198 7.7216,3.3611 19.3629,8.5019 25.8665,11.4285 6.5065,2.9266 16.0578,6.2494 21.2281,7.3845 5.1733,1.1351 10.988,3.9761 12.9244,6.3085 1.9392,2.3353 5.4393,4.245 7.7776,4.245 4.0913,0 28.7959,10.3259 46.255,19.3333 4.6027,2.3738 9.779,4.3159 11.5024,4.3159 1.7205,0 8.5965,2.566 15.2774,5.7025 28.9053,13.5717 45.9772,20.9029 48.6791,20.9029 1.5964,0 6.6661,1.9305 11.2688,4.2895 4.6029,2.359 14.3552,6.8671 21.6717,10.0154 7.3164,3.1513 20.8705,9.2026 30.1174,13.4476 9.2498,4.248 18.3547,7.7215 20.2378,7.7215 1.8801,0 6.9529,1.8919 11.2689,4.2066 4.3159,2.3117 13.8318,6.7784 21.1483,9.9268 7.3165,3.1453 21.4499,9.235 31.4092,13.5303 20.6014,8.8862 32.1807,9.9297 34.7881,3.1335 0.9873,-2.5718 1.7943,-132.0072 1.7943,-287.6342 0,-216.1365 -0.8366,-283.7941 -3.5473,-286.5049 -4.8097,-4.8097 -1369.6946,-5.2029 -1372.6655,-0.3932 M 204.714,2000.317 c -2.9148,1.1796 -3.6952,53.3054 -3.6952,246.7032 0,271.804 -1.3363,254.4957 18.8632,244.2112 5.0698,-2.5836 12.5459,-5.6107 16.6107,-6.7281 4.0647,-1.1146 9.3858,-3.7189 11.8246,-5.7852 2.4388,-2.0665 9.0902,-4.7181 14.7808,-5.8917 5.6906,-1.1736 12.3419,-3.8253 14.7808,-5.8916 2.4388,-2.0664 7.7599,-4.7003 11.8247,-5.8562 7.1272,-2.0279 18.2246,-6.7548 45.2764,-19.2919 7.015,-3.2517 14.2251,-5.9123 16.0194,-5.9123 1.7915,0 7.0268,-1.9303 11.6295,-4.2893 10.8166,-5.5459 30.1086,-13.9886 54.1894,-23.7203 10.5683,-4.2717 23.2059,-9.6222 28.0835,-11.8926 25.9876,-12.0966 42.814,-19.2209 45.3978,-19.2209 1.5963,0 6.6661,-1.9422 11.2688,-4.3161 17.4591,-9.0074 42.1637,-19.3332 46.255,-19.3332 2.3384,0 5.9094,-1.9955 7.9343,-4.4343 2.025,-2.4388 5.8444,-4.446 8.4901,-4.4608 2.6487,-0.015 11.464,-3.2991 19.5935,-7.2988 8.1294,-3.9997 16.111,-7.3076 17.7369,-7.3549 1.6259,-0.047 8.9424,-2.9886 16.2589,-6.536 7.3165,-3.5475 17.2935,-8.1383 22.1712,-10.1988 4.8777,-2.0605 16.4362,-7.1421 25.6831,-11.2925 9.2498,-4.1505 18.2956,-7.5471 20.1078,-7.5471 1.8121,0 8.2122,-2.563 14.225,-5.6965 6.0128,-3.1336 24.2346,-11.1418 40.4935,-17.7931 16.2588,-6.6514 34.4806,-14.7306 40.4935,-17.9498 6.0127,-3.2222 12.8887,-5.8591 15.2803,-5.8591 2.3915,0 8.1147,-1.9304 12.7174,-4.2894 4.6027,-2.359 14.3551,-6.8672 21.6715,-10.0154 7.3166,-3.1513 20.8705,-9.2026 30.1174,-13.4477 9.2498,-4.248 18.5618,-7.7303 20.6931,-7.7421 2.1343,-0.01 7.8693,-2.6605 12.747,-5.8916 4.8776,-3.2311 10.8639,-5.8798 13.3027,-5.8858 2.4388,-0.01 10.4205,-2.9147 17.737,-6.4622 7.3164,-3.5473 17.2935,-8.1382 22.1712,-10.1987 4.8776,-2.0604 16.4361,-7.1421 25.683,-11.2924 9.2498,-4.1505 18.2957,-7.5471 20.1078,-7.5471 1.8122,0 8.2123,-2.501 14.2251,-5.5547 13.1342,-6.675 25.2722,-12.0729 50.84,-22.6028 10.5682,-4.3515 24.681,-10.4411 31.3648,-13.5273 6.6809,-3.0892 13.3323,-5.6108 14.7808,-5.6049 2.4802,0.01 15.4282,-5.9035 39.985,-18.2513 5.9123,-2.9739 12.5637,-5.4039 14.7808,-5.398 2.2171,0 10.0184,-2.8497 17.3349,-6.3439 17.2758,-8.2476 33.0854,-15.1503 53.2109,-23.2265 16.2234,-6.5124 27.7819,-11.5468 53.536,-23.3271 7.4939,-3.4291 14.6625,-6.2346 15.9337,-6.2346 1.2711,0 7.7746,-2.5097 14.4555,-5.5753 22.4314,-10.2962 29.8307,-13.3381 40.2334,-16.5485 5.6906,-1.756 10.3466,-5.1467 10.3466,-7.5323 0,-3.7987 -72.0239,-4.4017 -577.9289,-4.8481 -317.861,-0.2808 -579.5904,0.1625 -581.6242,0.9844 m 2884.4714,-612.4007 c -2.025,2.4388 -5.596,4.4343 -7.9343,4.4343 -2.3413,0 -11.1565,3.1039 -19.5934,6.8967 -14.4113,6.4798 -29.7981,13.0809 -61.1571,26.2417 -7.3164,3.0686 -17.0688,7.5117 -21.6715,9.8707 -4.6027,2.3589 -9.7908,4.2894 -11.529,4.2894 -1.7383,0 -10.6097,3.4912 -19.7146,7.757 -22.591,10.5859 -31.1402,14.3195 -53.5065,23.3565 -10.5683,4.2716 -24.6248,10.3259 -31.2348,13.4535 -6.61,3.1277 -14.095,5.6876 -16.6342,5.6876 -2.5394,0 -6.2021,1.9097 -8.1413,4.2451 -1.9363,2.3325 -7.754,5.1467 -12.9243,6.2523 -5.1734,1.1055 -12.7293,3.7484 -16.7941,5.8739 -12.5518,6.5626 -34.2677,16.1465 -36.5913,16.1465 -1.212,0 -9.1049,3.104 -17.5417,6.8967 -8.434,3.7928 -22.6531,9.9622 -31.5955,13.7077 -19.2505,8.0644 -28.2875,11.9961 -50.8105,22.1032 -9.2498,4.1505 -17.8966,7.5441 -19.2149,7.5382 -1.3214,0 -8.3867,2.8497 -15.7032,6.3409 -7.3165,3.4913 -17.2935,8.035 -22.1712,10.0983 -4.8776,2.0634 -16.4362,7.1894 -25.6831,11.396 -9.2498,4.2066 -17.9469,7.6476 -19.3303,7.6476 -1.3805,0 -7.7304,2.6606 -14.1097,5.9123 -6.3794,3.2518 -13.8141,5.9123 -16.522,5.9123 -2.7079,0 -6.5094,1.9097 -8.4487,4.245 -1.9363,2.3325 -7.754,5.1615 -12.9243,6.2819 -5.1733,1.1204 -14.0595,4.4077 -19.7501,7.3047 -18.3873,9.3562 -37.5196,17.6423 -40.7299,17.6423 -1.7235,0 -6.8998,1.9304 -11.5025,4.2894 -4.6027,2.359 -14.3551,6.8879 -21.6716,10.0657 -56.974,24.7342 -77.0996,32.9434 -80.7652,32.9434 -2.3324,0 -5.8236,1.9097 -7.7628,4.2451 -1.9364,2.3324 -7.7541,5.1467 -12.9244,6.2523 -5.1732,1.1056 -12.7292,3.7602 -16.7939,5.9034 -16.0933,8.4753 -41.2473,19.0731 -45.2766,19.0731 -2.3383,0 -5.8797,1.96 -7.8693,4.3574 -1.9894,2.3945 -8.4694,5.2236 -14.4023,6.2848 -5.936,1.0613 -12.7854,3.6006 -15.2242,5.6403 -2.4388,2.0428 -7.76,4.6353 -11.8246,5.7646 -4.0648,1.1292 -13.3767,4.8037 -20.6932,8.1679 -15.8687,7.2958 -24.7607,11.1062 -50.2547,21.5444 -10.5682,4.3249 -24.5361,10.32 -31.0396,13.3205 -6.5036,3.0005 -25.1274,10.9052 -41.3863,17.5685 -16.2589,6.6601 -34.4806,14.7364 -40.4934,17.9438 -6.0128,3.2045 -13.0662,5.8296 -15.6736,5.8296 -2.6073,0 -9.6607,2.4979 -15.6735,5.5516 -11.2896,5.7349 -29.532,14.0448 -48.3243,22.0116 -5.9331,2.5156 -15.644,5.4866 -21.58,6.5981 -7.7925,1.4633 -10.5357,3.3642 -9.8647,6.8435 0.8513,4.4313 48.4484,4.8156 596.5528,4.8156 h 595.6245 l 0.7568,-253.4906 0.7538,-253.4905 h -8.5227 c -4.6884,0 -10.178,1.9954 -12.203,4.4342 M 0,1599.0895 v 292.8636 l 683.6116,-0.7449 c 563.6241,-0.6149 683.6116,-1.4308 683.6116,-4.6442 0,-3.4291 -13.01,-9.235 -40.934,-18.2601 -4.6293,-1.4958 -9.9504,-3.9554 -11.8246,-5.466 -1.8741,-1.5106 -12.7203,-6.3735 -24.1015,-10.8077 -24.9293,-9.711 -43.5383,-17.8286 -58.2304,-25.4022 -6.0128,-3.0981 -12.5194,-5.6345 -14.4586,-5.6345 -1.9363,0 -9.6548,-2.8054 -17.1486,-6.2345 -7.4969,-3.4262 -19.6142,-8.9099 -26.9306,-12.1824 -7.3166,-3.2754 -18.2218,-8.4516 -24.2347,-11.5053 -6.0128,-3.0537 -13.0662,-5.5518 -15.6735,-5.5518 -2.6074,0 -9.6607,-2.486 -15.6736,-5.525 -21.7337,-10.9821 -37.5905,-18.139 -40.1682,-18.133 -2.4211,0.01 -7.6979,-2.2408 -41.7114,-17.7872 -6.5035,-2.971 -15.1503,-6.3321 -19.215,-7.4673 -4.0648,-1.1381 -8.7207,-3.0832 -10.3466,-4.3278 -1.6259,-1.2416 -12.2681,-5.8857 -23.6493,-10.32 -24.9292,-9.7109 -43.5383,-17.8285 -58.2304,-25.4022 -6.0128,-3.0981 -12.4129,-5.6345 -14.225,-5.6345 -1.8121,0 -10.858,-3.4409 -20.1078,-7.6476 -9.2469,-4.2066 -21.4706,-9.6873 -27.1612,-12.1823 -5.6906,-2.492 -15.2656,-7.0327 -21.2784,-10.0893 -6.0128,-3.0537 -13.0662,-5.5547 -15.6736,-5.5547 -2.6073,0 -9.6607,-2.4861 -15.6735,-5.525 -12.138,-6.1341 -29.3015,-13.8171 -53.7962,-24.0839 -8.9423,-3.7483 -21.58,-9.1847 -28.0835,-12.0788 -6.5036,-2.8941 -15.4282,-6.137 -19.8329,-7.2042 -4.4047,-1.0701 -9.5572,-3.8076 -11.4462,-6.0867 -1.8919,-2.2792 -5.4393,-4.1445 -7.8811,-4.1445 -4.6323,0 -39.7189,-14.5266 -78.5422,-32.5178 -7.0149,-3.2518 -13.9116,-5.9123 -15.3247,-5.9123 -1.413,0 -8.3098,-2.6606 -15.3247,-5.9123 -7.0179,-3.2518 -19.0761,-8.6764 -26.8006,-12.0523 -7.7214,-3.3789 -17.5713,-8.0348 -21.8874,-10.3465 -4.316,-2.3147 -9.3887,-4.2067 -11.2689,-4.2067 -3.095,0 -9.6399,-2.7551 -48.877,-20.5659 -6.5036,-2.9502 -20.4951,-8.762 -31.0929,-12.9125 -10.5979,-4.1504 -23.2354,-9.6165 -28.0836,-12.1439 -4.848,-2.5275 -10.9791,-4.6028 -13.6279,-4.6146 -2.6456,-0.01 -6.3941,-1.9274 -8.3334,-4.2627 -1.9362,-2.3325 -7.754,-5.1468 -12.9243,-6.2524 -5.1732,-1.1055 -12.7291,-3.7483 -16.7939,-5.8739 -14.2132,-7.4318 -34.0638,-15.8154 -42.004,-17.7399 -4.4047,-1.07 -9.5573,-3.8075 -11.4462,-6.0867 -1.892,-2.2792 -5.605,-4.1564 -8.2508,-4.1711 -2.6486,-0.015 -11.4639,-3.2991 -19.5933,-7.2988 -8.1295,-3.9997 -16.9448,-7.3135 -19.5935,-7.3637 -2.6458,-0.05 -6.4651,-2.0872 -8.4901,-4.526 -2.025,-2.4388 -5.865,-4.4342 -8.5343,-4.4342 -2.6724,0 -9.4923,-2.4832 -15.1593,-5.5191 -5.6669,-3.033 -14.5324,-6.4444 -19.7057,-7.5796 -5.1703,-1.1352 -10.988,-3.9731 -12.9244,-6.3055 -1.9391,-2.3354 -5.6876,-4.254 -8.3334,-4.2628 -2.6487,-0.012 -8.8033,-2.1136 -13.6811,-4.6707 -4.8776,-2.56 -20.6044,-9.2528 -34.9476,-14.8725 -14.3434,-5.6196 -28.3112,-11.4166 -31.0397,-12.8829 -11.7508,-6.3113 -38.8735,-17.8109 -42.013,-17.8109 -1.88,0 -6.9528,-1.9066 -11.2688,-4.2331 -10.9851,-5.9301 -39.0538,-18.3105 -47.0147,-20.7404 L 0,1306.2229 v 292.8666 m 2489.8539,-431.7351 c -335.32,335.926 -609.6899,612.4391 -609.7076,614.47 -0.044,5.2945 7.4672,4.5643 20.0782,-1.954 6.0128,-3.1069 18.2483,-8.567 27.1908,-12.1321 16.1612,-6.4414 27.4685,-11.3605 53.5359,-23.2827 7.4939,-3.4292 14.6626,-6.2346 15.9338,-6.2346 1.2711,0 8.4398,-2.8053 15.9336,-6.2345 26.0674,-11.9222 37.3747,-16.8412 53.5361,-23.2827 8.9423,-3.5651 20.9148,-8.8567 26.6054,-11.7625 5.6906,-2.903 14.5768,-6.1961 19.7501,-7.3166 5.1703,-1.1203 10.988,-3.9494 12.9243,-6.2818 1.9393,-2.3353 5.5428,-4.245 8.0112,-4.245 4.5052,0 22.2954,-7.5087 42.6721,-18.0148 6.0129,-3.0981 12.4129,-5.6345 14.225,-5.6345 1.8122,0 10.858,-3.3966 20.1079,-7.5471 32.6211,-14.6418 32.9404,-14.7748 78.894,-33.7356 3.2517,-1.3421 13.3618,-5.9065 22.4667,-10.1396 9.102,-4.2362 18.1509,-7.7008 20.1078,-7.7008 1.954,0 8.4723,-2.5423 14.4852,-5.6493 6.0128,-3.1069 18.2484,-8.5462 27.1907,-12.0877 8.9424,-3.5415 20.9149,-8.8123 26.6054,-11.7182 5.6907,-2.903 14.5768,-6.1962 19.7501,-7.3165 5.1704,-1.1203 10.9881,-3.9494 12.9243,-6.2818 1.9393,-2.3354 5.4394,-4.2451 7.7777,-4.2451 4.183,0 30.3036,-11.0914 45.7318,-19.416 4.316,-2.3265 9.3887,-4.2333 11.2689,-4.2333 3.0389,0 18.8218,-6.6069 45.9209,-19.2209 4.8777,-2.2704 17.5153,-7.5884 28.0836,-11.8187 19.6997,-7.8841 27.1168,-11.0295 50.2546,-21.3169 7.3165,-3.2517 20.6192,-8.9039 29.5616,-12.5577 18.7687,-7.6712 34.389,-14.4586 53.2108,-23.1142 7.3166,-3.3671 16.6284,-7.0652 20.6931,-8.2211 4.0648,-1.1559 10.0155,-3.9169 13.2229,-6.137 3.2045,-2.22 7.6122,-4.0351 9.7879,-4.0351 2.1787,0 11.5261,-3.4735 20.7759,-7.7215 9.2469,-4.2451 22.8008,-10.2964 30.1174,-13.4476 7.3164,-3.1483 17.0688,-7.6564 21.6715,-10.0155 4.6027,-2.359 9.8381,-4.2893 11.6295,-4.2893 1.7944,0 9.0045,-2.6606 16.0194,-5.9124 13.8999,-6.4414 28.9734,-13.0248 54.1451,-23.6492 25.1717,-10.6244 40.2451,-17.2078 54.1449,-23.6493 7.0151,-3.2517 13.8556,-5.9123 15.1947,-5.9123 2.3679,0 17.3083,-6.4888 41.5163,-18.0296 6.5036,-3.0981 13.1549,-5.6729 14.7808,-5.7202 1.6259,-0.047 9.6075,-3.3552 17.7369,-7.3549 8.1295,-3.9997 17.0305,-7.2839 19.7797,-7.2988 2.7492,-0.015 5.7615,-1.2592 6.6927,-2.7669 0.9312,-1.5077 6.6632,-4.3308 12.7381,-6.2759 6.075,-1.9452 14.0388,-6.2642 17.6956,-9.5987 l 6.6513,-6.0661 V 908.5043 c 0,-334.1346 -0.2719,-352.7259 -5.1732,-352.3357 -2.8468,0.2276 -279.5284,275.2597 -614.8514,611.1858 M 0.0473,782.6429 c -0.047,400.7427 0.1005,411.645 5.5043,411.645 3.0508,0 7.1333,1.9097 9.0725,4.2451 1.9363,2.3323 7.7541,5.1466 12.9244,6.2522 5.1732,1.1056 12.7292,3.7485 16.7939,5.874 14.2131,7.4317 34.0638,15.8153 42.004,17.7399 4.4047,1.07 9.5573,3.8074 11.4462,6.0867 1.892,2.2792 5.605,4.1563 8.2508,4.1711 2.6487,0.015 11.4639,3.2991 19.5933,7.2988 8.1295,3.9997 16.9447,7.3135 19.5935,7.3637 2.6457,0.05 6.4651,2.0871 8.4901,4.526 2.0249,2.4388 5.865,4.4342 8.5343,4.4342 2.6724,0 9.4922,2.4831 15.1592,5.5191 5.667,3.0331 14.5325,6.4444 19.7058,7.5796 5.1703,1.1352 10.988,3.9731 12.9244,6.3055 1.9391,2.3353 5.6019,4.245 8.1412,4.245 2.5394,0 10.0243,2.5601 16.6343,5.6876 6.6099,3.1277 20.6665,9.2174 31.2348,13.5275 10.5682,4.31 24.6248,10.3997 31.2347,13.5273 6.6099,3.1277 14.095,5.6877 16.6343,5.6877 2.5393,0 6.2021,1.9097 8.1413,4.245 1.9363,2.3325 7.754,5.1467 12.9243,6.2524 5.1733,1.1055 12.7292,3.7602 16.7939,5.9034 16.0933,8.4752 41.2474,19.0731 45.2766,19.0731 2.3383,0 5.8384,1.9097 7.7776,4.245 1.9363,2.3324 7.754,5.1467 12.9243,6.2523 5.1734,1.1056 12.7293,3.7484 16.7939,5.8739 4.0648,2.1255 13.3767,6.4385 20.6932,9.5868 7.3165,3.1453 21.4499,9.2351 31.4092,13.5303 9.9592,4.2953 20.1048,7.8102 22.5495,7.8102 2.4418,0 5.9892,1.8653 7.8811,4.1446 1.889,2.2792 7.0416,4.9841 11.4463,6.0128 4.4047,1.0287 11.999,3.7514 16.8767,6.0483 22.5555,10.6185 42.7135,19.2682 44.8981,19.2594 1.3214,0 7.7216,2.5304 14.225,5.6285 23.5104,11.2098 39.1219,18.0296 41.2621,18.0296 1.2032,0 7.0446,2.1728 12.9805,4.8274 5.936,2.6516 16.114,7.1598 22.6176,10.0155 6.5035,2.8556 19.3924,8.6645 28.6393,12.9095 9.2498,4.248 18.3548,7.7215 20.2378,7.7215 1.8802,0 6.9529,1.892 11.2689,4.2066 19.2091,10.2934 69.7712,31.2672 75.385,31.2672 2.291,0 5.7113,1.8654 7.6032,4.1447 1.889,2.2791 7.0416,4.9958 11.4462,6.0364 4.4047,1.0405 13.3294,4.3692 19.833,7.3963 28.9053,13.4564 39.2547,17.8966 41.7113,17.8877 1.4456,0 8.6172,2.8497 15.9337,6.344 17.2758,8.2477 33.0854,15.1503 53.2109,23.2265 19.892,7.9846 39.2814,16.6373 53.7962,24.0098 6.0128,3.0538 13.0662,5.5518 15.6735,5.5518 2.6074,0 9.6607,2.5008 15.6736,5.5546 6.0127,3.0566 15.5877,7.5855 21.2784,10.0627 5.6906,2.4773 16.3328,7.1717 23.6492,10.4294 7.3165,3.2576 16.6284,6.8642 20.6932,8.0111 4.0647,1.15 11.5378,4.5998 16.6077,7.6654 5.0697,3.0655 11.056,5.5724 13.3027,5.5665 2.2467,0 9.4065,2.5304 15.91,5.6285 24.7342,11.7921 39.1691,18.0295 41.7114,18.0207 1.4455,0 8.6172,2.8498 15.9337,6.3439 18.0296,8.6083 33.3159,15.3247 56.167,24.678 21.3583,8.7444 30.543,12.7174 50.5798,21.8785 7.494,3.4262 15.2125,6.2316 17.1488,6.2316 1.9391,0 8.7768,2.6605 15.1976,5.9124 6.4178,3.2517 16.9239,8.5728 23.3418,11.8246 13.7786,6.9795 17.8906,7.3904 17.8906,1.7855 0,-3.7041 -245.4291,-250.9601 -1124.0318,-1132.4067 L 0.0945,370.9978 0.0475,782.6429 M 2422.8734,234.1367 c -2.0426,1.141 -6.0601,7.7924 -8.9334,14.7807 -5.2295,12.7293 -10.4472,24.5332 -22.0855,49.9798 -3.4292,7.4938 -6.2345,15.2123 -6.2345,17.1486 0,1.9393 -2.498,8.4457 -5.5517,14.4586 -7.485,14.7334 -16.1347,34.1555 -23.9656,53.7961 -3.5651,8.9425 -9.0252,21.1779 -12.1321,27.1908 -3.1069,6.0128 -5.6492,12.5194 -5.6492,14.4585 0,1.9364 -2.5186,8.9898 -5.599,15.6707 -3.0773,6.6838 -11.2008,25.4525 -18.0502,41.7113 -6.8494,16.259 -14.973,35.0276 -18.0504,41.7115 -3.0803,6.6809 -5.5989,13.1844 -5.5989,14.4555 0,1.2712 -2.8055,8.4399 -6.2345,15.9338 -3.4262,7.4968 -8.5552,18.9489 -11.3931,25.4525 -2.8379,6.5035 -8.0171,17.8109 -11.5112,25.1273 -3.4943,7.3165 -6.3558,15.2982 -6.3618,17.737 0,2.4388 -2.6546,8.4251 -5.8856,13.3027 -3.2311,4.8776 -5.8828,10.6125 -5.8916,12.7469 0,2.1314 -3.4617,11.4434 -7.6684,20.6932 -10.8047,23.7615 -14.4969,32.3167 -21.9169,50.8104 -3.5858,8.9423 -8.9069,21.58 -11.8216,28.0835 -2.9148,6.5036 -8.2359,19.1411 -11.8247,28.0835 -6.5125,16.2234 -11.5468,27.782 -23.327,53.5361 -3.4292,7.4938 -6.2346,14.6625 -6.2346,15.9336 0,1.2712 -2.5245,7.7747 -5.6138,14.4556 -3.0862,6.6839 -9.1758,20.7967 -13.5273,31.3648 -11.6295,28.2373 -14.7956,35.5272 -21.8253,50.2548 -3.4912,7.3164 -6.344,15.035 -6.3409,17.1516 0,2.1166 -2.5601,8.7679 -5.6966,14.7808 -3.1394,6.0128 -9.2261,19.5787 -13.5273,30.1469 -4.3042,10.5682 -9.6047,23.2059 -11.7833,28.0835 -2.1787,4.8777 -7.4998,17.5153 -11.8246,28.0835 -10.2816,25.1244 -15.7712,37.4959 -22.5525,50.84 -3.0538,6.0128 -5.5547,12.5194 -5.5547,14.4585 0,3.6598 -8.2654,22.798 -18.0148,41.7085 -3.0981,6.0128 -5.6344,13.0662 -5.6344,15.6736 0,2.6073 -2.4862,9.6607 -5.5252,15.6735 -10.9821,21.7337 -18.1389,37.5905 -18.133,40.1683 0,2.8822 -9.1286,23.599 -18.006,40.8186 -3.0981,6.0128 -5.6345,12.4129 -5.6345,14.2251 0,1.8121 -3.4409,10.858 -7.6475,20.1078 -10.9525,24.0868 -14.5679,32.4852 -21.8726,50.8104 -3.5651,8.9423 -9.0222,21.1779 -12.1291,27.1907 -3.107,6.0129 -5.6493,12.5194 -5.6493,14.4586 0,3.6597 -8.2653,22.7979 -18.0148,41.7084 -3.098,6.0129 -5.6344,12.5193 -5.6344,14.4586 0,3.3435 -5.4275,16.1673 -18.0296,42.6013 -3.0981,6.5035 -5.6315,12.9036 -5.6285,14.225 0,1.3184 -3.3878,9.9652 -7.5383,19.215 -11.2481,25.0623 -14.6359,32.9345 -21.8785,50.8104 -3.6242,8.9424 -8.9334,21.58 -11.804,28.0836 -2.8674,6.5035 -8.2092,19.1411 -11.8659,28.0834 -3.6598,8.9424 -9.9623,23.2887 -14.0063,31.8822 -4.047,8.5906 -6.6071,17.5714 -5.6936,19.9541 2.1226,5.531 9.708,5.6019 12.7854,0.1183 1.3007,-2.3177 241.8137,-244.2763 534.4734,-537.6868 611.4429,-613.0126 751.0268,-753.7849 755.2394,-761.6542 4.6943,-8.7739 4.044,-162.4911 -0.6947,-164.3092 -5.9833,-2.2968 -679.2129,-3.033 -683.2954,-0.7478 m -722.0683,0.8779 c -6.0837,4.4875 -4.4696,1424.8682 1.62,1424.8682 4.7654,0 6.2258,-2.6014 14.9376,-26.6054 6.5715,-18.1064 12.1261,-31.0898 23.392,-54.6889 3.4942,-7.3165 6.3468,-14.432 6.3439,-15.8125 0,-1.3805 1.8713,-6.7016 4.1683,-11.8246 2.2968,-5.1231 7.7834,-17.9616 12.194,-28.5299 4.4107,-10.5683 10.391,-24.5362 13.291,-31.0397 2.8999,-6.5036 8.2476,-19.1411 11.8807,-28.0835 7.0268,-17.2817 13.1726,-31.4594 23.2089,-53.536 3.4084,-7.4939 6.1961,-15.2124 6.1961,-17.1487 0,-1.9392 2.6605,-8.7768 5.9122,-15.1976 3.2519,-6.4178 8.5729,-16.9239 11.8247,-23.3418 3.2518,-6.4208 5.9123,-13.8052 5.9123,-16.4126 0,-2.6073 2.498,-9.6607 5.5517,-15.6735 7.2544,-14.2813 16.0431,-33.9338 23.398,-52.3181 8.9926,-22.4846 30.1055,-72.3963 36.3992,-86.0539 3.0803,-6.6809 5.5989,-13.1844 5.5989,-14.4555 0,-1.2712 2.8054,-8.4398 6.2346,-15.9337 11.9222,-26.0674 16.8412,-37.3747 23.2827,-53.536 3.565,-8.9424 9.0251,-21.1779 12.132,-27.1908 3.1069,-6.0128 5.6492,-12.5193 5.6492,-14.4585 0,-3.6598 8.2655,-22.7979 18.0148,-41.7085 3.0981,-6.0128 5.6345,-12.5193 5.6345,-14.4585 0,-1.9363 2.8055,-9.6549 6.2345,-17.1488 11.7804,-25.754 16.8147,-37.3126 23.3271,-53.5359 6.5124,-16.2234 11.5468,-27.7821 23.3271,-53.5361 3.4291,-7.4938 6.2345,-15.2124 6.2345,-17.1486 0,-1.9393 2.5866,-8.4458 5.7497,-14.4586 3.1631,-6.0129 11.2423,-24.2346 17.9498,-40.4935 17.8789,-43.3255 26.5079,-63.924 30.9658,-73.904 2.1786,-4.8776 7.4997,-17.5151 11.8246,-28.0834 8.7384,-21.3495 12.7085,-30.5283 21.8756,-50.58 3.4262,-7.4938 6.2316,-15.2123 6.2316,-17.1486 0,-1.9393 2.5363,-8.4457 5.6344,-14.4586 9.7494,-18.9105 18.0148,-38.0487 18.0148,-41.7084 0,-1.9393 2.6605,-8.7769 5.9124,-15.1976 3.2517,-6.4178 8.5728,-16.924 11.8246,-23.3418 3.2517,-6.4208 5.9123,-13.8053 5.9123,-16.4126 0,-2.6074 2.5689,-9.6607 5.7054,-15.6736 3.1394,-6.0128 9.2262,-19.5786 13.5274,-30.1469 4.3041,-10.5682 9.8972,-23.8709 12.4336,-29.5616 2.5333,-5.6905 6.9765,-15.6676 9.8706,-22.1712 2.8941,-6.5035 8.7916,-20.4714 13.1075,-31.0397 4.3161,-10.5681 8.9927,-21.8755 10.391,-25.1273 1.3982,-3.2517 6.0542,-14.559 10.3465,-25.1273 4.2924,-10.5683 10.3702,-24.1341 13.5097,-30.1469 3.1365,-6.0128 5.7054,-13.0662 5.7054,-15.6736 0,-2.6073 2.5334,-9.6607 5.6285,-15.6735 20.164,-39.1632 23.3596,-50.7661 14.0092,-50.8813 -146.318,-1.8239 -595.0451,-0.6829 -598.0309,1.5194 M 880.9472,5.1734 c 0,2.8438 2.6665,9.5276 5.9123,14.8517 3.2459,5.324 5.9005,11.3309 5.9005,13.347 0,2.0161 2.4744,8.3038 5.4984,13.9708 3.0242,5.667 6.4504,13.6279 7.6151,17.6926 1.1647,4.0648 4.9161,13.3767 8.3364,20.6932 3.4203,7.3164 7.9048,17.2935 9.9652,22.1711 2.0604,4.8777 7.1421,16.4362 11.2925,25.6831 4.1505,9.2498 7.5471,18.2957 7.5471,20.1078 0,1.8122 2.563,8.2123 5.6965,14.2251 3.1335,6.0128 11.1418,24.2345 17.7961,40.4934 6.6543,16.2589 14.0684,33.3278 16.4747,37.9305 2.4063,4.6027 4.375,9.6726 4.375,11.2689 0,2.7019 7.3314,19.7736 20.903,48.6789 3.1365,6.6809 5.7025,13.6694 5.7025,15.5287 0,1.8594 2.6606,8.3453 5.9123,14.4142 3.2518,6.0661 5.9124,13.2141 5.9124,15.8865 0,2.6694 1.8653,6.403 4.1445,8.295 2.2792,1.8889 4.9959,7.0415 6.0364,11.4462 1.0407,4.4047 4.3693,13.3293 7.3964,19.8328 13.82,29.6858 17.8965,39.2992 17.8965,42.208 0,1.7235 1.9422,6.8997 4.316,11.5025 6.9145,13.4002 19.3333,41.7971 19.3333,44.2034 0,2.4654 10.0214,24.9825 16.4865,37.0466 2.3146,4.316 4.2066,9.3888 4.2066,11.2689 0,3.166 6.7755,19.1145 20.903,49.2023 3.1365,6.6809 5.7024,13.7905 5.7024,15.8006 0,2.0102 1.9068,7.1865 4.2333,11.5024 7.1125,13.1786 19.416,41.3006 19.416,44.3749 0,1.5963 1.957,6.6662 4.3486,11.2689 2.3914,4.6027 7.8692,17.0156 12.1734,27.5839 8.0053,19.6644 10.1189,24.5509 23.2295,53.7666 4.1504,9.2499 7.5441,17.8966 7.5382,19.2151 0,1.3214 2.8497,8.3866 6.3409,15.7031 3.4912,7.3164 8.0348,17.2935 10.0982,22.1712 2.0635,4.8776 7.1894,16.4363 11.3961,25.683 4.2065,9.2499 7.6476,18.813 7.6476,21.2578 0,2.4447 1.2326,5.2058 2.7403,6.137 1.5076,0.9312 4.2775,6.6632 6.1577,12.7381 1.8801,6.0749 5.8384,16.3653 8.8004,22.8688 2.9621,6.5036 8.1708,17.9557 11.5793,25.4526 3.4085,7.4938 6.1931,14.8103 6.1872,16.2588 0,1.4455 2.5897,7.9521 5.7645,14.4556 5.5931,11.461 9.51,20.5069 23.6848,54.689 3.71,8.9424 9.0932,21.5799 11.9636,28.0834 2.8734,6.5036 8.836,21.042 13.2554,32.3079 4.4165,11.2689 9.1434,22.5762 10.5002,25.1273 6.3262,11.9075 17.6129,38.6282 17.6129,41.6966 0,1.8802 1.9067,6.953 4.2332,11.2689 7.618,14.1157 19.416,41.3981 19.416,44.8982 0,1.8801 1.9186,6.9529 4.2658,11.2688 2.3472,4.3161 7.7777,16.4924 12.0729,27.0607 4.2953,10.5683 9.6223,23.2058 11.8424,28.0836 2.22,4.8776 7.4525,17.5151 11.6295,28.0834 4.1771,10.5683 10.0864,24.5361 13.1313,31.0397 13.9057,29.6858 18.0059,39.2991 18.0059,42.208 0,1.7235 1.9423,6.8997 4.3161,11.5024 8.1442,15.783 19.3331,41.9981 19.3331,45.2913 0,1.8121 2.5423,8.2123 5.6493,14.225 3.1069,6.0129 8.6202,18.2484 12.2533,27.1908 7.0061,17.2551 13.1312,31.3915 23.1999,53.5361 3.4085,7.4938 6.1962,15.2123 6.1962,17.1486 0,1.9392 2.5363,8.4458 5.6344,14.4585 7.3697,14.2961 15.5671,33.0026 24.8878,56.8056 4.1505,10.5978 9.6164,23.2354 12.1439,28.0836 2.5276,4.848 4.6028,10.0183 4.6146,11.4905 0,1.4692 3.0124,9.0902 6.6691,16.9359 8.1206,17.4088 15.5937,18.2749 15.372,1.7796 -0.079,-6.075 -0.4138,-381.5248 -0.739,-834.3344 L 1590.4134,0 H 1235.6742 C 899.7955,0 880.9353,0.2749 880.9471,5.1734 M 1e-4,112.071 v 112.0709 l 550.5845,552.3788 c 302.8229,303.8073 566.5478,568.7264 586.0584,588.713 117.0963,119.9402 339.2309,340.4696 342.9498,340.4696 7.0682,0 6.7017,-1.2238 -10.8018,-36.0592 -3.0211,-6.0128 -5.4926,-12.5194 -5.4926,-14.4585 0,-3.6598 -8.2653,-22.798 -18.0148,-41.7085 -3.0981,-6.0128 -5.6344,-12.5194 -5.6344,-14.4586 0,-1.9363 -2.8054,-9.6548 -6.2345,-17.1487 -11.9015,-26.023 -16.8354,-37.3658 -23.2886,-53.536 -3.5711,-8.9423 -8.836,-21.58 -11.7064,-28.0835 -2.8675,-6.5036 -8.1857,-19.1411 -11.8158,-28.0835 -3.6331,-8.9423 -9.1463,-21.1779 -12.2533,-27.1907 -3.1069,-6.0129 -5.6492,-12.5194 -5.6492,-14.4586 0,-1.9362 -2.5808,-8.9897 -5.7349,-15.6706 -3.1543,-6.6839 -11.2098,-25.4526 -17.8996,-41.7114 -6.6898,-16.2589 -14.7513,-34.4806 -17.9143,-40.4934 -3.1631,-6.0129 -5.7497,-12.5193 -5.7497,-14.4586 0,-3.6597 -8.2655,-22.7979 -18.0148,-41.7084 -3.0981,-6.0129 -5.6345,-12.5193 -5.6345,-14.4586 0,-3.6598 -8.2654,-22.7979 -18.0148,-41.7085 -3.0981,-6.0128 -5.6344,-12.4129 -5.6344,-14.225 0,-1.8122 -3.3967,-10.858 -7.5471,-20.1078 -11.0945,-24.7224 -14.5739,-32.7868 -21.917,-50.8104 -3.642,-8.9424 -9.0074,-21.58 -11.9222,-28.0836 -2.9148,-6.5035 -8.2358,-19.1411 -11.8246,-28.0834 -3.5888,-8.9424 -8.9099,-21.58 -11.8246,-28.0836 -2.9148,-6.5035 -8.2152,-19.1411 -11.7803,-28.0835 -3.5652,-8.9423 -9.0252,-21.1779 -12.1321,-27.1907 -3.107,-6.0128 -5.6493,-12.4129 -5.6493,-14.225 0,-1.8121 -3.4409,-10.858 -7.6476,-20.1079 -10.1277,-22.2716 -14.089,-31.3795 -22.0854,-50.8104 -7.2544,-17.6305 -10.2489,-24.7372 -29.2629,-69.4697 -6.9086,-16.2589 -15.2243,-36.2129 -18.4761,-44.3424 -7.3549,-18.3843 -16.1436,-38.0368 -23.398,-52.318 -3.0537,-6.0129 -5.5516,-12.5194 -5.5516,-14.4586 0,-1.9363 -2.7877,-9.6548 -6.1961,-17.1487 -3.4084,-7.4968 -8.6172,-18.949 -11.5794,-25.4526 -2.962,-6.5035 -6.9203,-16.7939 -8.8004,-22.8687 -1.8802,-6.075 -4.4992,-11.7123 -5.8236,-12.5313 -1.3214,-0.8188 -3.2548,-6.0245 -4.2953,-11.5673 -1.0406,-5.5458 -3.8519,-11.7094 -6.2464,-13.6989 -2.3974,-1.9895 -4.3573,-5.6344 -4.3573,-8.1029 0,-2.4683 -2.7878,-10.6184 -6.1962,-18.1123 -10.0362,-22.0766 -16.182,-36.2543 -23.2088,-53.536 -3.6331,-8.9424 -9.1522,-21.58 -12.2591,-28.0836 -3.107,-6.5035 -5.6463,-13.5569 -5.6434,-15.6735 0,-3.6449 -2.356,-8.8537 -17.3024,-38.1226 -3.4853,-6.8258 -6.338,-14.5443 -6.338,-17.1517 0,-2.6073 -2.4861,-9.6607 -5.525,-15.6735 -9.445,-18.6859 -17.5862,-37.221 -19.7383,-44.9277 -1.1381,-4.0647 -3.0832,-8.7206 -4.3278,-10.3465 -1.2416,-1.6259 -5.8857,-12.2681 -10.32,-23.6493 -4.4342,-11.3813 -10.4352,-26.0142 -13.3381,-32.5177 -2.9001,-6.5036 -8.8389,-20.4714 -13.1904,-31.0397 -9.7051,-23.5664 -13.7727,-33.1178 -21.3908,-50.2546 -3.2517,-7.3165 -8.8862,-20.6192 -12.5222,-29.5616 -3.6332,-8.9424 -9.0459,-21.58 -12.0257,-28.0835 -2.9798,-6.5036 -6.3469,-15.1503 -7.4821,-19.215 -1.1381,-4.0647 -3.0833,-8.7207 -4.3278,-10.3466 -1.2416,-1.6259 -5.9093,-12.268 -10.3672,-23.6492 -9.4922,-24.2287 -20.7729,-49.9709 -26.7563,-61.0565 -2.3264,-4.3161 -4.2331,-9.3888 -4.2331,-11.2689 0,-3.3169 -10.249,-27.0578 -20.1433,-46.66 L 764.3001,0 H 382.1514 0 v 112.071"
     style="fill:#00639a;fill-opacity:1;stroke-width:2.9561584"
     id="path854" />
  <path
     d="m 2914.2168,4636.6214 c 4.783,2.862 8.567,7.912 10.364,13.835 1.765,5.816 1.926,17.396 0.265,19.057 -0.877,0.877 -8.822,1.2 -29.5,1.2 h -28.3 v -2.879 c 0,-3.343 4.047,-12.609 8.187,-18.743 3.558,-5.272 9.609,-10.168 16.251,-13.15 6.613,-2.968 17.161,-2.653 22.733,0.68 m -418.198,-28.068 c -1.786,0.599 -3.719,5.497 -4.404,11.16 -0.366,3.025 -1.505,9.325 -2.531,14 -1.884,8.585 -3.456,16.346 -5.165,25.5 -0.513,2.75 -1.779,9.05 -2.814,14 -2.253,10.779 -3.668,17.935 -5.141,26 -0.603,3.3 -1.956,9.615 -3.007,14.032 -1.051,4.418 -1.911,9.424 -1.911,11.125 0,1.7 -0.674,5.001 -1.497,7.335 -0.824,2.335 -1.891,7.229 -2.371,10.876 -0.481,3.648 -1.635,9.452 -2.565,12.899 -0.93,3.446 -1.551,7.721 -1.379,9.5 l 0.312,3.233 h 18.963 18.962 l 0.715,-3 c 0.392,-1.65 1.636,-7.615 2.764,-13.255 3.975,-19.893 6.071,-30.363 8.105,-40.5 2.895,-14.428 5.726,-28.59 8.046,-40.2451 1.094,-5.5 2.863,-14.2749 3.929,-19.5 1.067,-5.2249 2.884,-14.45 4.039,-20.5 1.154,-6.0499 2.573,-13.1759 3.152,-15.8359 0.621,-2.849 0.686,-5.2031 0.158,-5.731 -0.837,-0.837 -34.138,-1.8381 -36.36,-1.0931 m -387.905,0.66 c -0.953,1.25 -4.515,17.256 -8.234,37 -0.518,2.75 -1.791,9.05 -2.829,14 -1.95,9.3 -3.547,17.345 -5.162,26.0001 -0.513,2.75 -1.825,8.825 -2.914,13.5 -1.09,4.675 -1.969,9.666 -1.955,11.091 0.014,1.425 -0.658,4.8 -1.494,7.5 -0.836,2.7 -1.984,8.469 -2.551,12.821 -0.568,4.351 -1.468,8.727 -2.002,9.724 -0.533,0.996 -1.403,5.231 -1.933,9.409 -0.529,4.178 -1.664,9.661 -2.52,12.184 -0.876,2.579 -1.179,4.966 -0.693,5.452 0.475,0.475 9.378,0.742 19.783,0.592 l 18.918,-0.273 1.644,-6.5 c 1.608,-6.36 3.88,-17.495 6.427,-31.5 1.847,-10.158 4.249,-22.049 5.958,-29.5 0.821,-3.575 1.901,-8.975 2.401,-12 1,-6.048 3.3,-17.6641 5.644,-28.5 1.962,-9.0701 4.266,-20.5711 5.51,-27.5 0.542,-3.025 1.685,-8.483 2.538,-12.129 0.854,-3.646 1.405,-7.8701 1.224,-9.387 l -0.328,-2.758 -18.334,-0.1131 c -11.186,-0.069 -18.632,0.277 -19.098,0.887 m 1132.432,-5.9509 c -2.75,0.777 -6.921,1.875 -9.27,2.44 -2.348,0.5659 -5.942,1.924 -7.985,3.0199 -2.043,1.095 -4.122,1.991 -4.62,1.991 -0.497,0 -3.881,2.4051 -7.519,5.345 -6.426,5.191 -14.141,14.9621 -15.622,19.781 -0.401,1.3061 -1.236,3.005 -1.856,3.777 -1.82,2.2641 -3.495,11.978 -3.553,20.597 -0.059,8.885 1.488,15.1921 5.053,20.5941 2.831,4.289 13.334,12.906 15.731,12.906 0.933,0 2.689,0.696 3.903,1.546 1.213,0.85 6.022,2.163 10.685,2.918 4.664,0.755 8.933,1.653 9.488,1.996 0.555,0.343 4.959,1.066 9.787,1.607 10.814,1.211 16.313,3.636 19.337,8.528 2.094,3.388 2.18,4.066 1.055,8.297 -1.164,4.379 -7.221,12.108 -9.488,12.108 -0.533,0 -1.751,0.708 -2.708,1.574 -1.632,1.478 -7.508,2.827 -17.891,4.11 -10.37,1.281 -27.631,-4.081 -34.98,-10.867 -4.774,-4.408 -6.444,-4.681 -9.594,-1.567 -1.252,1.237 -6.782,6.075 -12.289,10.75 -5.507,4.675 -10.272,9.101 -10.59,9.836 -0.848,1.963 0.309,3.452 6.454,8.301 6.836,5.395 8.554,6.508 12.972,8.408 1.925,0.828 4.327,1.973 5.338,2.544 1.011,0.571 5.286,2.005 9.5,3.186 6.693,1.877 10.254,2.15 28.162,2.158 17.639,0.01 21.627,-0.284 28.573,-2.095 20.394,-5.318 33.836,-16.064 42.142,-33.687 1.257,-2.667 2.285,-5.79 2.285,-6.94 0,-1.15 0.538,-4.694 1.195,-7.875 0.945,-4.575 0.921,-7.726 -0.112,-15.061 -1.274,-9.036 -3.346,-14.122 -7.856,-19.275 -3.383,-3.866 -10.955,-9.3931 -13.826,-10.0921 -1.595,-0.389 -3.789,-1.314 -4.874,-2.0569 -1.084,-0.7431 -3.109,-1.3591 -4.5,-1.3681 -1.39,-0.01 -5.677,-0.701 -9.527,-1.537 -3.85,-0.836 -10.419,-1.925 -14.597,-2.422 -15.023,-1.783 -21.615,-7.839 -18.938,-17.398 1.59,-5.679 5.899,-9.763 13.755,-13.035 8.004,-3.334 18.71,-3.575 26.28,-0.591 2.791,1.1001 5.737,2 6.547,2 0.811,0 3.714,1.575 6.453,3.5 2.739,1.925 5.453,3.5 6.031,3.5 2.156,0 24.969,-21.219 24.969,-23.225 0,-4.004 -13.292,-12.494 -26.5,-16.926 -6.167,-2.069 -9.083,-2.371 -24.5,-2.531 -12.529,-0.129 -18.92,0.2201 -22.5,1.231 m -172.628,-0.596 c -2.546,0.465 -5.554,1.342 -6.685,1.947 -1.13,0.605 -2.829,1.1 -3.775,1.1 -2.276,0 -11.265,4.294 -16.777,8.014 -6.352,4.286 -14.839,13.829 -17.867,20.088 -5.084,10.511 -7.053,19.171 -6.53,28.719 0.585,10.675 2.835,16.141 9.424,22.8881 5.454,5.587 15.797,10.953 23.761,12.33 2.793,0.482 6.652,1.322 8.577,1.865 1.925,0.544 7.55,1.444 12.5,2 14.528,1.632 21.5,6.345 21.5,14.534 0,5.525 -4.36,11.451 -11.278,15.331 -6.14,3.444 -11.456,4.564 -21.722,4.579 -14.934,0.021 -22.257,-2.371 -32.179,-10.51 -2.574,-2.111 -5.226,-3.838 -5.893,-3.838 -1.139,0 -7.338,4.91 -16.38,12.975 -7.773,6.932 -10.548,9.843 -10.548,11.066 0,0.682 2.212,3.327 4.915,5.878 6.624,6.252 21.104,13.26 33.21,16.073 8.622,2.003 11.489,2.186 27.5,1.759 18.264,-0.489 28.446,-2.236 35.875,-6.156 1.65,-0.87 3.527,-1.585 4.172,-1.589 1.882,-0.01 14.062,-8.533 16.65,-11.652 4.374,-5.269 9.897,-13.632 10.735,-16.254 0.457,-1.43 1.511,-4.4 2.343,-6.6 2.384,-6.307 2.123,-25.751 -0.422,-31.359 -1.088,-2.398 -1.978,-4.797 -1.978,-5.332 0,-1.83 -7.453,-10.07 -11.478,-12.689 -4.787,-3.1151 -12.137,-5.903 -19.022,-7.215 -2.75,-0.5241 -8.15,-1.603 -12,-2.3971 -3.85,-0.7949 -9.384,-1.703 -12.297,-2.017 -9.592,-1.036 -17.203,-6.813 -17.203,-13.058 0,-3.599 4.172,-10.648 7.709,-13.0239 7.241,-4.8651 10.515,-5.7831 20.791,-5.8291 11.097,-0.05 18.002,1.917 26.239,7.4771 2.399,1.6179 4.925,2.9429 5.613,2.9429 1.284,0 23.546,-19.277 24.9,-21.5599 1.238,-2.089 -0.148,-4.1221 -5.588,-8.1981 -5.928,-4.4409 -11.434,-7.189 -20.664,-10.3109 -5.514,-1.865 -9.154,-2.246 -24,-2.5121 -9.625,-0.172 -19.583,0.068 -22.128,0.5341 m -178.372,0.021 c -2.2,0.456 -5.8,1.53 -8,2.384 -2.2,0.8551 -4.732,1.5741 -5.628,1.598 -0.895,0.024 -2.151,0.675 -2.791,1.446 -0.639,0.7711 -2.315,1.6911 -3.722,2.044 -5.023,1.261 -16.823,11.444 -23.915,20.64 -4.503,5.838 -14.421,24.263 -14.476,26.892 -0.017,0.8371 -0.66,2.3511 -1.427,3.3641 -0.768,1.013 -1.685,3.7129 -2.038,6 -0.352,2.287 -1.265,6.183 -2.027,8.6579 -3.137,10.1801 -4.449,37.4981 -2.461,51.2451 0.536,3.709 1.878,8.427 2.98,10.485 1.103,2.057 2.005,4.065 2.005,4.461 0,1.538 5.214,8.29 9.423,12.203 6.114,5.684 6.915,6.284 10.725,8.03 1.843,0.845 4.027,1.932 4.852,2.416 5.486,3.218 13.159,4.576 28,4.956 13.964,0.358 16.501,0.15 25.603,-2.099 5.557,-1.373 10.957,-2.952 12,-3.508 1.043,-0.556 4.597,-2.279 7.897,-3.829 3.3,-1.551 7.35,-3.717 9,-4.816 4.3,-2.862 10.501,-8.768 10.497,-9.997 0,-0.576 -2.751,-4.197 -6.109,-8.047 -3.358,-3.85 -7.174,-8.668 -8.482,-10.707 -3.504,-5.464 -5.637,-6.289 -9.084,-3.511 -19.032,15.336 -43.457,18.348 -55.019,6.785 -6.314,-6.313 -8.303,-11.417 -8.303,-21.304 0,-5.902 0.412,-8.86 1.341,-9.631 0.934,-0.775 16.026,-1.191 49.727,-1.372 l 48.386,-0.26 1.294,-5.5 c 2.767,-11.756 3.332,-17.0121 3.353,-31.2171 0.019,-12.719 -0.258,-15.3479 -2.039,-19.377 -1.134,-2.563 -2.062,-5.391 -2.062,-6.2829 0,-3.4551 -9.764,-16.8861 -15.147,-20.835 -12.661,-9.2891 -19.422,-11.4621 -36.853,-11.8471 -7.425,-0.164 -15.3,0.076 -17.5,0.533 m -615.5,0.014 c -6.038,1.482 -13.436,4.261 -15.079,5.664 -0.868,0.741 -2.082,1.348 -2.698,1.348 -0.616,0 -2.352,1.142 -3.858,2.537 -3.979,3.6881 -5.85,2.8801 -5.936,-2.563 -0.039,-2.461 -0.152,-5.047 -0.25,-5.7479 -0.139,-0.987 -4.054,-1.2121 -17.429,-1 l -17.25,0.2739 -1.759,3.5961 c -0.967,1.978 -2.228,7.3379 -2.801,11.9119 -0.574,4.574 -1.481,9.135 -2.017,10.1371 -0.536,1.001 -1.436,5.501 -2,10 -0.564,4.4979 -1.464,8.9979 -2,10 -0.536,1.001 -1.436,5.501 -2,10 -0.564,4.4979 -1.415,8.906 -1.89,9.7939 -0.476,0.888 -1.357,5.1571 -1.959,9.485 -0.602,4.3291 -1.765,9.8461 -2.584,12.2591 -0.82,2.413 -1.49,6.155 -1.49,8.317 0,2.162 -0.665,5.889 -1.478,8.283 -0.813,2.394 -1.948,7.666 -2.522,11.717 -0.574,4.051 -1.709,9.323 -2.522,11.717 -0.813,2.394 -1.478,6.079 -1.478,8.188 0,2.109 -0.846,6.482 -1.88,9.719 -1.034,3.236 -2.046,9.032 -2.25,12.88 l -0.37,6.996 18.766,0.272 18.767,0.272 0.888,-2.337 c 0.489,-1.285 1.192,-5.008 1.562,-8.272 0.37,-3.264 1.282,-7.96 2.027,-10.435 0.744,-2.475 1.645,-6.975 2.002,-10 0.356,-3.025 1.262,-7.75 2.012,-10.5 1.517,-5.56 3.958,-17.838 5.965,-30 0.726,-4.4 1.758,-9.125 2.292,-10.5 0.534,-1.375 1.302,-5.425 1.706,-9 0.404,-3.575 1.359,-8.017 2.123,-9.872 0.765,-1.855 1.39,-4.155 1.39,-5.112 0,-2.856 5.219,-11.736 9.473,-16.116 6.399,-6.592 12.602,-9.229 21.753,-9.25 7.574,-0.018 7.819,0.061 12.5,4.005 4.147,3.495 4.986,4.866 6.384,10.434 1.038,4.131 1.314,7.3 0.776,8.911 -0.459,1.375 -1.284,5.875 -1.834,10 -0.55,4.125 -1.687,9.961 -2.526,12.968 -0.839,3.007 -1.523,6.607 -1.519,8 0,1.393 -0.863,6.582 -1.925,11.532 -1.968,9.166 -4.227,20.317 -8.103,40 -1.192,6.05 -2.811,13.837 -3.598,17.305 -0.787,3.468 -1.168,6.73 -0.847,7.25 0.332,0.538 8.48,0.945 18.903,0.945 13.988,0 18.578,-0.313 19.418,-1.325 0.605,-0.729 1.53,-3.541 2.057,-6.25 0.526,-2.709 1.919,-9.875 3.095,-15.925 1.176,-6.05 3.016,-15.385 4.089,-20.745 1.073,-5.359 2.874,-14.359 4.002,-20 1.128,-5.64 2.899,-14.305 3.934,-19.255 1.035,-4.95 2.178,-11.25 2.54,-14 0.362,-2.75 1.253,-6.35 1.98,-8 0.728,-1.65 1.999,-4.678 2.826,-6.729 1.952,-4.844 9.61,-12.988 15.411,-16.387 3.917,-2.296 5.747,-2.69 12.697,-2.734 7.283,-0.046 8.48,0.222 11.588,2.593 1.906,1.454 4.582,4.132 5.946,5.95 2.239,2.986 2.468,4.18 2.359,12.307 -0.072,5.415 -0.969,12.44 -2.25,17.637 -1.171,4.75 -2.129,9.796 -2.129,11.213 0,1.417 -0.865,6.306 -1.923,10.863 -1.984,8.551 -3.278,14.917 -5.14,25.287 -0.593,3.3 -1.946,9.429 -3.007,13.62 -1.062,4.191 -1.93,8.787 -1.93,10.214 0,1.426 -0.976,6.448 -2.169,11.16 -1.506,5.945 -1.851,8.886 -1.127,9.61 0.647,0.647 7.97,1.042 19.315,1.042 19.6,0 19.935,-0.087 19.966,-5.218 0.01,-1.414 0.671,-4.564 1.473,-7 0.802,-2.435 1.927,-7.944 2.499,-12.241 0.572,-4.298 1.44,-8.573 1.927,-9.5 0.488,-0.928 1.214,-4.612 1.614,-8.187 0.4,-3.575 1.321,-8.3 2.047,-10.5 0.726,-2.2 1.8,-7.516 2.386,-11.813 0.587,-4.298 1.466,-8.573 1.953,-9.5 0.488,-0.928 1.214,-4.612 1.614,-8.187 0.4,-3.575 1.328,-8.3 2.062,-10.5001 1.747,-5.235 3.559,-18.0899 3.877,-27.5 0.595,-17.6559 -7.86,-34.2699 -20.695,-40.664 -10.906,-5.433 -12.024,-5.714 -24.379,-6.1279 -9.913,-0.3331 -13.629,-0.03 -20.278,1.651 -4.478,1.1329 -9.366,2.7209 -10.863,3.5309 -1.497,0.8101 -4.072,2.1131 -5.722,2.897 -1.65,0.7831 -5.316,3.5141 -8.147,6.0691 -2.831,2.5539 -5.545,4.6439 -6.031,4.6439 -0.487,0 -3.571,-2.732 -6.853,-6.072 -3.283,-3.339 -8.669,-7.4659 -11.969,-9.1709 -5.495,-2.839 -6.926,-3.1231 -17,-3.3641 -6.05,-0.1449 -12.575,0.122 -14.5,0.595 m 344.611,-42.456 c -0.843,0.843 -1.801,3.205 -2.13,5.25 -0.328,2.045 -1.283,7.093 -2.122,11.218 -0.839,4.125 -2.167,11.2351 -2.95,15.8011 -2.576,15.0129 -4.458,17.149 -13.961,15.8469 -3.674,-0.504 -4.739,-0.2519 -6.379,1.509 -2.091,2.244 -2.431,3.423 -4.08,14.1531 -0.575,3.7449 -1.555,7.6229 -2.176,8.617 -2.252,3.607 -0.384,5.0729 6.464,5.0729 3.754,0 7.096,0.5521 8.193,1.354 1.722,1.259 1.765,1.9071 0.612,9.25 -0.682,4.343 -1.878,10.5961 -2.658,13.896 -1.805,7.6411 -4.242,19.7961 -5.989,29.8791 -0.751,4.333 -1.79,9.283 -2.31,11 -0.52,1.716 -1.216,5.146 -1.547,7.621 -0.33,2.475 -1.321,8.222 -2.201,12.771 -1.494,7.72 -1.483,8.787 0.16,16 1.724,7.566 6.083,15.895 10.103,19.307 7.636,6.481 16.031,8.854 33.998,9.611 16.37,0.69 15.62,1.117 17.338,-9.86 0.545,-3.481 1.673,-8.79 2.507,-11.797 1.631,-5.877 1.981,-10.965 0.767,-11.141 -0.413,-0.059 -4.35,-0.195 -8.75,-0.301 -8.903,-0.215 -12.869,-1.707 -15.271,-5.748 -1.386,-2.331 -1.427,-3.741 -0.329,-11.5 0.688,-4.863 1.897,-11.092 2.687,-13.842 0.79,-2.75 1.86,-7.925 2.378,-11.5 1.36,-9.383 4.901,-27.997 5.993,-31.5001 0.514,-1.6499 1.225,-5.25 1.58,-8 1.894,-14.6789 2.853,-15.5 18.125,-15.5 7.877,0 11.46,-0.3719 12.028,-1.25 1.122,-1.7339 4.536,-19.3849 4.686,-24.231 l 0.123,-3.9809 -11,0.2659 c -6.05,0.1461 -11.641,-0.1619 -12.424,-0.6859 -1.214,-0.811 -1.237,-2.253 -0.156,-9.785 0.698,-4.858 2.09,-12.883 3.094,-17.8331 1.004,-4.95 2.275,-11.249 2.824,-13.9969 0.681,-3.411 0.667,-5.394 -0.043,-6.25 -0.76,-0.916 -5.697,-1.2531 -18.346,-1.2531 -14.211,0 -17.58,0.274 -18.838,1.532 m 128.554,-15.782 c -1.246,2.4101 -4.998,19.6101 -7.253,33.25 -0.5,3.0251 -1.561,8.425 -2.358,12 -2.254,10.1151 -4.614,21.7881 -6.066,30 -0.73,4.125 -1.846,9.9751 -2.48,13 -0.635,3.0251 -2.008,9.55 -3.052,14.5 -1.865,8.848 -3.903,19.1681 -6.519,33 -2.461,13.0181 -4.53,22.9701 -6.237,30.0001 -1.19,4.901 -1.696,11.198 -1.687,21 0.014,15.586 0.654,17.556 8.4,25.835 7.492,8.009 15.178,10.444 35.711,11.315 l 15.124,0.642 1.19,-3.605 c 1.318,-3.994 5.184,-23.761 5.415,-27.687 0.146,-2.491 0.108,-2.502 -10.53,-3 -9.212,-0.431 -11.029,-0.808 -13.25,-2.743 -2.257,-1.969 -2.57,-3.011 -2.549,-8.5 0.013,-3.442 0.478,-8.057 1.034,-10.257 0.556,-2.2 1.938,-8.725 3.073,-14.5 1.134,-5.775 2.875,-14.55 3.869,-19.5 0.994,-4.95 2.794,-13.95 4,-20 1.206,-6.05 3.009,-15.05 4.005,-20 0.997,-4.95 2.532,-12.825 3.412,-17.5 0.879,-4.675 2.229,-11.425 2.998,-15 0.769,-3.575 1.94,-9.2 2.602,-12.5 3.108,-15.487 4.948,-24.829 6.795,-34.5 1.103,-5.775 2.322,-11.2931 2.709,-12.263 0.387,-0.971 0.148,-2.43 -0.532,-3.25 -1.008,-1.214 -4.504,-1.487 -19.076,-1.487 -15.982,0 -17.937,0.183 -18.748,1.75 m -239.587,-1 c -1.634,1.624 -3.448,7.389 -4.066,12.929 -0.358,3.201 -1.338,8.127 -2.179,10.946 -2.763,9.266 -3.585,8.875 18.639,8.875 h 19.445 l 1.203,-3.5 c 1.414,-4.112 4.52,-19.656 5.145,-25.75 l 0.436,-4.25 h -18.934 c -10.413,0 -19.273,0.338 -19.689,0.75 m -388.138,1.978 c -0.335,1.525 -1.436,6.147 -2.447,10.272 -1.01,4.125 -1.985,10.425 -2.165,14 l -0.328,6.5 h 19.393 19.393 l 2.372,-10.5 c 1.305,-5.775 2.478,-13.2 2.607,-16.5 l 0.235,-6 -19.226,-0.272 -19.225,-0.2711 -0.609,2.7711 m -182.244,-1.871 c -0.717,0.455 -1.692,3.486 -2.167,6.735 -0.475,3.2489 -1.576,8.59 -2.446,11.868 -0.871,3.278 -1.583,7.105 -1.583,8.503 0,1.399 -0.9,5.691 -2,9.537 -1.1,3.846 -2.006,8.57 -2.013,10.497 -0.01,1.927 -0.907,6.356 -2,9.842 -1.093,3.487 -1.993,7.987 -2,10 -0.01,2.014 -0.907,6.514 -2,10 -1.093,3.487 -1.987,7.633 -1.987,9.213 0,1.581 -0.865,6.604 -1.923,11.161 -2.276,9.81 -3.699,16.921 -5.16,25.787 -0.589,3.575 -1.716,8.806 -2.506,11.625 -0.789,2.819 -1.868,8.219 -2.398,12 -0.531,3.781 -1.65,9.336 -2.489,12.343 -0.838,3.007 -1.524,6.888 -1.524,8.624 0,1.736 -0.666,5.045 -1.481,7.354 -0.814,2.308 -1.928,7.427 -2.474,11.375 -0.546,3.949 -1.68,9.64 -2.519,12.647 -0.839,3.007 -1.526,6.874 -1.526,8.593 0,1.719 -0.91,5.771 -2.022,9.003 -1.112,3.233 -1.8,6.457 -1.529,7.164 0.397,1.034 13.949,1.235 69.2,1.029 l 68.707,-0.257 1.782,-8 c 0.981,-4.4 2.466,-12.275 3.3,-17.5 1.383,-8.655 1.376,-9.607 -0.082,-10.699 -1.195,-0.896 -12.833,-1.163 -45.98,-1.053 -32.353,0.108 -44.693,-0.165 -45.534,-1.006 -0.87,-0.87 -0.869,-2.694 0.01,-7.447 1.996,-10.837 3.269,-17.074 4.856,-23.795 0.844,-3.575 1.882,-9.094 2.307,-12.263 0.425,-3.17 1.463,-8.57 2.307,-12.0001 0.843,-3.4309 2.02,-8.937 2.614,-12.237 1.283,-7.12 2.59,-13.8009 5.088,-26 1.013,-4.95 2.323,-11.588 2.911,-14.75 2.262,-12.1789 3.308,-17.5559 5.106,-26.25 1.024,-4.95 2.291,-11.25 2.815,-14 1.738,-9.116 3.341,-16.8949 5.392,-26.1739 1.115,-5.045 1.755,-9.8831 1.423,-10.75 -0.522,-1.3601 -3.246,-1.574 -19.887,-1.5611 -10.604,0.01 -19.868,0.388 -20.585,0.842"
     style="fill:#01a2d3;fill-opacity:1"
     id="path2" />
</svg>
