<?xml version="1.0" encoding="UTF-8" standalone="no"?>
<svg
   xmlns:dc="http://purl.org/dc/elements/1.1/"
   xmlns:cc="http://creativecommons.org/ns#"
   xmlns:rdf="http://www.w3.org/1999/02/22-rdf-syntax-ns#"
   xmlns:svg="http://www.w3.org/2000/svg"
   xmlns="http://www.w3.org/2000/svg"
   version="1.1"
   id="svg3801"
   height="847.98553"
   width="760.71118">
  <defs
     id="defs3803" />
  <metadata
     id="metadata3806">
    <rdf:RDF>
      <cc:Work
         rdf:about="">
        <dc:format>image/svg+xml</dc:format>
        <dc:type
           rdf:resource="http://purl.org/dc/dcmitype/StillImage" />
        <dc:title></dc:title>
      </cc:Work>
    </rdf:RDF>
  </metadata>
  <g
     transform="translate(-230.11607,315.01631)"
     id="layer1">
    <g
       id="g4995">
      <g
         id="g4761"
         transform="matrix(4.0885734,0,0,4.0885734,105.00038,-2260.2332)">
        <g
           id="g3311"
           style="fill:#f08ca2;fill-rule:nonzero;stroke:none"
           transform="matrix(3.9170889,0,0,3.9355947,30.601308,475.7691)">
          <path
             id="path3313"
             d="m 47.499,41.7158 c 0,0 0,-41.7158 0,-41.7158 C 47.499,0 0,0 0,0 c 0,0 0,41.7158 0,41.7158 0,0 47.499,0 47.499,0 z" />
        </g>
        <g
           id="g3315"
           style="fill:#012e86;fill-rule:nonzero;stroke:none"
           transform="matrix(3.9170889,0,0,3.9355947,66.417209,483.54819)">
          <path
             id="path3317"
             d="m 21.7022,23.6865 c -0.9824,0.1328 -2.9072,0.3281 -3.834,0.4219 -0.8438,0.0859 -1.7568,0.1299 -2.707,0.1836 -0.8467,0.0488 -1.7286,0.0068 -2.626,0.0156 -0.8936,0.0049 -1.8086,0.0039 -2.7149,-0.1035 C 7.9698,23.9814 7.585,23.7197 7.085,23.6592 6.0576,23.5332 5.2793,23.3457 4.4112,23.1572 3.7002,23.0049 2.9688,22.8428 2.5332,22.8271 2.4854,22.7803 2.3272,22.4717 2.3008,22.4072 1.8311,21.2969 1.8399,21.4336 1.3614,19.8271 1.127,19.0381 0.8155,17.3955 0.6533,16.3388 0.5225,15.4873 0.3477,15.2422 0.2862,15.0371 0.042,14.2217 0.125,13.7334 0.085,12.8428 0.042,11.957 0,9.789 0.042,8.8935 0.1084,7.4765 0.1963,7.2998 0.3975,6.4346 0.6026,5.5683 1.0371,4.6728 1.4131,3.8721 1.7373,3.1777 1.9063,2.541 2.3819,1.9219 2.9287,1.2148 3.0616,0.9004 3.336,0.6416 3.3575,0.6191 3.5645,0.5683 3.5938,0.5644 4.2647,0.3447 4.875,0.2754 5.2246,0.167 5.3067,0.1592 5.6573,0.1963 5.7403,0.1963 c 0.1494,0 1.1162,0.0341 2.5547,0.0674 0.7519,0.0175 1.6318,0.0888 2.5888,0.1074 0.8594,0.0215 1.7822,0.0302 2.7324,0.0468 0.8702,0.0127 1.7637,-0.0253 2.6553,-0.0156 0.8184,0.0117 1.6367,0.0762 2.4307,0.0801 0.8574,0.0029 1.6865,-0.0293 2.4629,-0.0371 0.873,-0.0078 1.6787,-0.043 2.3789,-0.0664 C 24.6075,0.3398 25.4336,0.3447 25.8721,0.2558 26.7149,0.0898 27.3477,0 27.9033,0 c 0.1514,0.039 0.2129,0.0937 0.3379,0.1513 0.4746,0.2149 1.127,0.7002 1.127,0.7002 0,0.3077 -0.1094,2.3262 0.0351,3.7295 0.0821,0.8028 0.2256,1.7119 0.3487,2.6485 0.1172,0.8799 0.1728,1.583 0.2969,2.4375 0.125,0.8593 0.4336,2.082 0.538,2.7715 0.1944,1.25 0.2461,0.5752 0.4209,1.6191 0.2276,1.3525 0.0997,1.2109 0.251,2.7686 0.085,0.8837 -0.0625,2.7587 -0.2041,3.6572 -0.1445,0.9179 -0.5273,1.6269 -0.8262,1.7539 -0.6191,0.2637 -2.621,0.5469 -2.2207,0.4824 -1.0166,0.1621 -0.9365,0.041 -1.5459,0.1621 -1.5918,0.3203 -1.9336,0.25 -3.0156,0.3506 -1.0068,0.0967 -0.2363,0.1807 -1.414,0.3408 -0.0889,0.0127 -0.209,0.0967 -0.3301,0.1133" />
        </g>
        <g
           id="g3319"
           style="fill:#ffffff;fill-rule:nonzero;stroke:none"
           transform="matrix(3.9170889,0,0,3.9355947,79.664412,488.65974)">
          <path
             id="path3321"
             d="M 1.6494,0.8037 C 2.0029,0.0264 2.3105,0.083 3.0507,0.0313 3.4804,0 4.0127,0.1201 4.7187,0.2266 5.1865,0.2988 5.1894,0.1572 5.8076,0.3272 c 0.4599,0.1269 0.5469,0.0947 1.2568,0.2041 0.5596,0.0839 2.2549,0.456 2.9141,0.5253 0.5918,0.0616 1.2178,0.3731 1.8564,0.4209 0.6065,0.0459 1.2256,0.0987 1.8428,0.128 0.6162,0.0303 1.2354,0.0469 1.8311,0.0635 0.6386,0.0117 1.2607,-0.1153 1.8418,-0.1221 0.6406,-0.0078 1.2333,-0.1231 1.7578,-0.1641 0.7197,-0.0517 1.3086,-0.1582 1.6923,-0.2754 0.7295,-0.2226 1.3311,-0.1845 1.8418,-0.0937 0.6709,0.1172 1.1123,0.3926 1.3711,0.9678 0.2071,0.4589 0.0821,0.9062 0.2032,1.7343 0.0595,0.3946 -0.128,1.0567 -0.1368,1.8643 -0.0058,0.5498 0.0245,1.1709 0.0303,1.8271 0.0059,0.5996 0.0957,1.2246 0.1074,1.8623 0.0127,0.6192 0.0079,1.2442 0.0245,1.8555 0.0175,0.6484 0.0498,1.2734 0.0712,1.8604 0.0205,0.6621 0.0352,1.2675 0.0538,1.7841 0.038,1.0625 0.1962,0.7959 0.0947,1.7745 -0.0928,0.8925 0.1992,1.0585 -0.6504,1.7246 -0.3447,0.2695 -0.8721,0.6035 -1.6279,0.6757 -0.2286,0.0235 -0.8145,0.209 -1.6827,0.4209 -0.4824,0.1202 -1.0527,0.2452 -1.6884,0.3897 -0.5147,0.1182 -1.1036,0.1973 -1.7032,0.3144 -0.5371,0.1055 -1.0976,0.1661 -1.6923,0.2598 -0.5381,0.0879 -1.1211,0.1113 -1.6983,0.1826 -0.542,0.0694 -1.1113,0.0137 -1.6806,0.0645 -0.5245,0.0459 -1.0577,0.0947 -1.5987,0.1191 -0.4404,0.0186 0.0088,0.1436 -0.2295,0.2217 -0.542,0.1797 -0.6885,0.1143 -1.7207,0.0957 C 7.9707,21.0068 7.4589,21.0108 6.8213,20.9746 6.2714,20.9424 5.6591,20.8936 5.0839,20.8291 4.5088,20.7666 3.955,20.5947 3.416,20.4873 2.8066,20.3682 2.1933,20.376 1.7168,20.1836 1.1103,19.9424 0.6172,19.6943 0.4004,19.3066 0.2285,19 0.1826,18.2715 0.1162,17.4854 0.0742,16.9795 0.1074,16.3906 0.1015,15.7471 0.0966,15.2119 0,14.6397 0.0175,14.0361 0.0322,13.4756 0.0254,12.8906 0.0556,12.292 0.0869,11.7315 0.1103,11.1572 0.1504,10.583 0.1933,10.0108 0.3535,9.4463 0.4023,8.8779 0.4511,8.3066 0.5586,7.7451 0.6132,7.1943 0.6728,6.6289 0.6582,6.0713 0.7187,5.5459 0.7881,4.9639 0.9326,4.4219 1.0039,3.9131 1.0908,3.2852 1.0293,2.7002 1.1162,2.2334 1.2656,1.4024 1.5371,0.9092 1.6494,0.8037 Z" />
        </g>
        <g
           id="g3323"
           style="fill:#012e86;fill-rule:nonzero;stroke:none"
           transform="matrix(3.9170889,0,0,3.9355947,36.021775,578.41374)">
          <path
             id="path3325"
             d="m 41.8828,10.4619 c -0.3653,0.1221 -1.7158,0.4551 -2.8643,0.4287 -0.6094,-0.0156 -1.4931,0.0762 -2.5879,0.125 -0.7734,0.0303 -1.581,-0.1094 -2.542,-0.0527 -0.7802,0.0429 -1.6191,0.0332 -2.4951,0.0937 -0.8721,0.0547 -1.7763,0.1631 -2.7148,0.2344 -0.8457,0.0644 -1.3301,-0.0352 -2.2119,0.041 -0.8897,0.0762 -1.585,-0.2139 -2.4913,-0.1269 -0.8222,0.08 -2.2441,0.0937 -3.0654,0.1796 -0.8408,0.0899 -1.8056,0.4229 -2.6308,0.5205 -0.8526,0.0987 -1.5508,0.0342 -2.3663,0.1436 -0.8544,0.1133 -1.8281,0.3906 -2.6259,0.5137 -0.8428,0.1289 -1.6494,0.2646 -2.4082,0.4023 -0.8184,0.1485 -1.5938,0.2344 -2.2832,0.3945 C 7.956,13.5019 7.3974,13.7246 6.8916,13.8779 5.6884,14.248 4.75,14.4629 4.0175,14.5654 2.455,14.7842 1.7539,14.4629 1.3242,13.832 0.9414,13.2715 0.8086,12.3652 0.7041,11.582 0.5761,10.6328 0.6181,11.0683 0.4521,10.1933 0.2109,8.9043 0,8.0859 0.7714,7.2734 1.1757,6.8476 1.8906,6.3535 2.7177,5.9785 3.9091,5.3379 3.4365,5.4297 5.125,4.75 5.791,4.4824 6.6132,4.1904 7.5869,3.874 8.3408,3.6308 9.2168,3.4687 10.167,3.209 10.9511,2.9961 11.8007,2.7871 12.7226,2.5761 13.54,2.3916 14.3935,2.1347 15.3232,1.959 16.1474,1.7988 17.0175,1.6474 17.9326,1.5 18.8115,1.3564 19.7382,1.2558 20.705,1.1269 21.5644,1.0146 22.4619,0.9355 23.3906,0.834 24.2168,0.748 25.0615,0.5879 25.9423,0.5127 26.7978,0.4394 27.9873,0.5244 28.8964,0.4629 29.7031,0.4121 30.2285,0.25 31.0771,0.208 31.9052,0.167 32.7568,0.1513 33.6259,0.125 34.4785,0.0976 35.3476,0.0742 36.2412,0.0605 36.9814,0.0478 37.7382,0.0058 38.5097,0.0019 39.7627,0 40.9834,0.0703 41.6172,0.4785 c 0.9472,0.6074 0.8408,0.9648 0.8798,2.1601 0.043,1.3438 -0.083,0.6934 0.1338,2.0225 0.2344,1.4346 0.2656,2.6885 0.3604,3.9365 0.0498,0.6465 -0.3819,1.208 -1.1084,1.8643" />
        </g>
        <g
           id="g3327"
           style="fill:#ffffff;fill-rule:nonzero;stroke:none"
           transform="matrix(3.9170889,0,0,3.9355947,62.037513,604.14858)">
          <path
             id="path3329"
             d="M 0.749,1.7559 C 1.1972,1.7559 1.5586,1.4112 1.5586,0.917 1.5586,0.4239 1.1972,0 0.749,0 0.3007,0 0,0.4239 0,0.917 0,1.4112 0.3007,1.7559 0.749,1.7559 Z" />
        </g>
        <g
           id="g3331"
           style="fill:#ffffff;fill-rule:nonzero;stroke:none"
           transform="matrix(3.9170889,0,0,3.9355947,80.792925,614.34885)">
          <path
             id="path3333"
             d="M 0.8115,1.5791 C 1.2558,1.6446 1.6416,1.1895 1.6416,0.7442 1.6416,0.294 1.2617,0 0.8115,0 0.3623,0 0.0234,0.294 0.0175,0.7442 0,1.836 0.5947,1.5469 0.8115,1.5791 Z" />
        </g>
        <g
           id="g3335"
           style="fill:#ffffff;fill-rule:nonzero;stroke:none"
           transform="matrix(3.9170889,0,0,3.9355947,70.288468,616.28595)">
          <path
             id="path3337"
             d="m 0.7529,1.666 c 0.4493,0 0.837,-0.417 0.837,-0.8652 C 1.5899,0.3555 1.2022,0 0.7529,0 0.3047,0 0,0.3555 0,0.8008 0,1.249 0.3047,1.666 0.7529,1.666 Z" />
        </g>
        <g
           id="g3339"
           style="fill:#ffffff;fill-rule:nonzero;stroke:none"
           transform="matrix(3.9170889,0,0,3.9355947,111.08495,602.94192)">
          <path
             id="path3341"
             d="m 0.9932,1.6035 c 0.4502,0 0.8447,-0.4141 0.8447,-0.8633 C 1.8379,0.293 1.4434,0 0.9932,0 0.545,0 0,0.1807 0.1934,0.7656 0.337,1.1894 0.545,1.6035 0.9932,1.6035 Z" />
        </g>
        <g
           id="g3343"
           style="fill:#ffffff;fill-rule:nonzero;stroke:none"
           transform="matrix(3.9170889,0,0,3.9355947,94.23089,607.21558)">
          <path
             id="path3345"
             d="m 0.6836,1.4903 c 0.3858,0 0.7481,-0.3125 0.7481,-0.7588 C 1.4317,0.2832 1.0694,0 0.6836,0 0.2988,0 0,0.2832 0,0.7315 0,1.1778 0.2988,1.4903 0.6836,1.4903 Z" />
        </g>
        <g
           id="g3347"
           style="fill:#ffffff;fill-rule:nonzero;stroke:none"
           transform="matrix(3.9170889,0,0,3.9355947,85.214926,604.22572)">
          <path
             id="path3349"
             d="M 0.8134,1.6455 C 1.25,1.7431 1.5947,1.2695 1.5947,0.8232 1.5947,0.372 1.2617,0 0.8134,0 0.3623,0 0.0117,0.372 0.0117,0.8232 0.0117,1.2695 0,1.4668 0.8134,1.6455 Z" />
        </g>
        <g
           id="g3351"
           style="fill:#ffffff;fill-rule:nonzero;stroke:none"
           transform="matrix(3.9170889,0,0,3.9355947,103.66402,593.93296)">
          <path
             id="path3353"
             d="M 0.9258,1.3457 C 1.375,1.3457 1.7227,1.2305 1.7227,0.7813 1.7227,0.333 1.2959,0 0.8496,0 0.3994,0 0,0.333 0,0.7813 0,1.2305 0.4776,1.3457 0.9258,1.3457 Z" />
        </g>
        <g
           id="g3355"
           style="fill:#ffffff;fill-rule:nonzero;stroke:none"
           transform="matrix(3.9170889,0,0,3.9355947,112.96319,588.37945)">
          <path
             id="path3357"
             d="M 0.8448,1.5674 C 1.294,1.5674 1.6954,1.2158 1.6954,0.7686 1.6954,0.3213 1.294,0 0.8448,0 0.3936,0 0,0.3213 0,0.7686 0,1.2158 0.3936,1.5674 0.8448,1.5674 Z" />
        </g>
        <g
           id="g3359"
           style="fill:#ffed00;fill-rule:nonzero;stroke:none"
           transform="matrix(3.9170889,0,0,3.9355947,60.162793,618.05383)">
          <path
             id="path3361"
             d="m 0.542,1.2666 c 0.3243,0 0.5821,-0.249 0.5821,-0.6045 C 1.1241,0.3047 0.8663,0 0.542,0 0.2168,0 0,0.3047 0,0.6621 0,1.0176 0.2168,1.2666 0.542,1.2666 Z" />
        </g>
        <g
           id="g3363"
           style="fill:#ffed00;fill-rule:nonzero;stroke:none"
           transform="matrix(3.9170889,0,0,3.9355947,87.529142,593.04902)">
          <path
             id="path3365"
             d="m 0.5439,1.2031 c 0.3252,0 0.6065,-0.3007 0.6065,-0.625 C 1.1504,0.2559 0.8691,0 0.5439,0 0.2187,0 0,0.2559 0,0.5781 c 0,0.3243 0.2187,0.625 0.5439,0.625 z" />
        </g>
        <g
           id="g3367"
           style="fill:#ffed00;fill-rule:nonzero;stroke:none"
           transform="matrix(3.9170889,0,0,3.9355947,76.274954,604.93295)">
          <path
             id="path3369"
             d="m 0.668,0.9707 c 0.3252,0 0.5771,-0.0831 0.5771,-0.4063 C 1.2451,0.2402 0.9375,0 0.6143,0 0.2891,0 0,0.2402 0,0.5644 0,0.8876 0.3448,0.9707 0.668,0.9707 Z" />
        </g>
        <g
           id="g3371"
           style="fill:#ffed00;fill-rule:nonzero;stroke:none"
           transform="matrix(3.9170889,0,0,3.9355947,104.4827,609.91383)">
          <path
             id="path3373"
             d="m 0.6104,1.1299 c 0.3251,0 0.6152,-0.251 0.6152,-0.5733 C 1.2256,0.2304 0.9355,0 0.6104,0 0.2852,0 0,0.2304 0,0.5566 0,0.8789 0.2852,1.1299 0.6104,1.1299 Z" />
        </g>
        <g
           id="g3375"
           style="fill:#ffed00;fill-rule:nonzero;stroke:none"
           transform="matrix(3.9170889,0,0,3.9355947,148.13669,606.3777)">
          <path
             id="path3377"
             d="m 1.0684,2.3213 c 0.624,0 1.1455,-0.542 1.1455,-1.164 C 2.2139,0.5352 1.667,0 1.044,0 0.42,0 0,0.543 0,1.1622 0,1.7832 0.4444,2.3213 1.0684,2.3213 Z" />
        </g>
        <g
           id="g3379"
           style="fill:#ffed00;fill-rule:nonzero;stroke:none"
           transform="matrix(3.9170889,0,0,3.9355947,142.76598,591.20441)">
          <path
             id="path3381"
             d="m 1.0899,2.2842 c 0.625,0 1.1933,-0.5508 1.1933,-1.1758 C 2.2832,0.4883 1.7149,0 1.0899,0 0.4659,0 0,0.4883 0,1.1084 0,1.7334 0.4659,2.2842 1.0899,2.2842 Z" />
        </g>
        <g
           id="g3383"
           style="fill:#ffed00;fill-rule:nonzero;stroke:none"
           transform="matrix(3.9170889,0,0,3.9355947,169.13778,592.99905)">
          <path
             id="path3385"
             d="m 1.0332,2.128 c 0.623,0 1.1103,-0.4571 1.1103,-1.0791 C 2.1435,0.4248 1.6562,0 1.0332,0 0.4091,0 0,0.4248 0,1.0489 0,1.6709 0.4091,2.128 1.0332,2.128 Z" />
        </g>
        <g
           id="g3387"
           style="fill:#ffed00;fill-rule:nonzero;stroke:none"
           transform="matrix(3.9170889,0,0,3.9355947,159.06576,601.2508)">
          <path
             id="path3389"
             d="m 1.2343,2.2285 c 0.6241,0 1.126,-0.5849 1.126,-1.208 C 2.3603,0.3984 1.8584,0 1.2343,0 0.6103,0 0,0.3984 0,1.0205 c 0,0.6231 0.6103,1.208 1.2343,1.208 z" />
        </g>
        <g
           id="g3391"
           style="fill:none;stroke:#012e86;stroke-width:0.11231861;stroke-linecap:butt;stroke-linejoin:miter;stroke-dasharray:none"
           transform="matrix(3.9170889,0,0,3.9355947,101.73251,506.86973)">
          <path
             style="stroke-width:0.11231861"
             id="path3393"
             d="m 1.7773,1.7744 c 0,0 0,-1.7744 0,-1.7744 C 1.7773,0 0,0 0,0 c 0,0 0,1.7744 0,1.7744 0,0 1.7773,0 1.7773,0" />
        </g>
        <g
           id="g3395"
           style="fill:none;stroke:#012e86;stroke-width:0.11231861;stroke-linecap:butt;stroke-linejoin:miter;stroke-dasharray:none"
           transform="matrix(3.9170889,0,0,3.9355947,154.04288,501.23514)">
          <path
             style="stroke-width:0.11231861"
             id="path3397"
             d="m 1.7754,1.7764 c 0,0 0,-1.7764 0,-1.7764 C 1.7754,0 0,0 0,0 c 0,0 0,1.7764 0,1.7764 0,0 1.7754,0 1.7754,0" />
        </g>
        <g
           id="g3399"
           style="fill:none;stroke:#012e86;stroke-width:0.11231861;stroke-linecap:butt;stroke-linejoin:miter;stroke-dasharray:none"
           transform="matrix(3.9170889,0,0,3.9355947,163.90062,533.23507)">
          <path
             style="stroke-width:0.11231861"
             id="path3401"
             d="m 1.7764,1.7715 c 0,0 0,-1.7715 0,-1.7715 C 1.7764,0 0,0 0,0 c 0,0 0,1.7715 0,1.7715 0,0 1.7764,0 1.7764,0" />
        </g>
        <g
           id="g3403"
           style="fill:none;stroke:#012e86;stroke-width:0.11231861;stroke-linecap:butt;stroke-linejoin:miter;stroke-dasharray:none"
           transform="matrix(3.9170889,0,0,3.9355947,132.66732,540.45649)">
          <path
             style="stroke-width:0.11231861"
             id="path3405"
             d="m 1.7783,1.7745 c 0,0 0,-1.7745 0,-1.7745 C 1.7783,0 0,0 0,0 c 0,0 0,1.7745 0,1.7745 0,0 1.7783,0 1.7783,0" />
        </g>
        <g
           id="g3407"
           style="fill:none;stroke:#012e86;stroke-width:0.11231861;stroke-linecap:butt;stroke-linejoin:miter;stroke-dasharray:none"
           transform="matrix(3.9170889,0,0,3.9355947,117.30489,538.61582)">
          <path
             style="stroke-width:0.11231861"
             id="path3409"
             d="m 1.7745,1.7744 c 0,0 0,-1.7744 0,-1.7744 C 1.7745,0 0,0 0,0 c 0,0 0,1.7744 0,1.7744 0,0 1.7745,0 1.7745,0" />
        </g>
        <g
           id="g3411"
           style="fill:none;stroke:#012e86;stroke-width:0.11231861;stroke-linecap:butt;stroke-linejoin:miter;stroke-dasharray:none"
           transform="matrix(3.9170889,0,0,3.9355947,86.38927,545.55663)">
          <path
             style="stroke-width:0.11231861"
             id="path3413"
             d="m 1.5849,2.3838 c 0,0 0.8057,-1.5781 0.8057,-1.5781 C 2.3906,0.8057 0.8076,0 0.8076,0 0.8076,0 0,1.5801 0,1.5801 c 0,0 1.5849,0.8037 1.5849,0.8037" />
        </g>
        <g
           id="g3415"
           style="fill:none;stroke:#012e86;stroke-width:0.11231861;stroke-linecap:butt;stroke-linejoin:miter;stroke-dasharray:none"
           transform="matrix(3.9170889,0,0,3.9355947,94.621031,508.12638)">
          <path
             style="stroke-width:0.11231861"
             id="path3417"
             d="m 2.3701,2.9551 c 0,0 -2.3701,5.542 -2.3701,5.542 0,0 6.8135,-2.2901 6.8135,-2.2901 0,0 9.2305,-5.2461 9.2305,-5.2461 0,0 0,-0.9609 0,-0.9609" />
        </g>
        <g
           id="g3419"
           style="fill:none;stroke:#012e86;stroke-width:0.11231861;stroke-linecap:butt;stroke-linejoin:miter;stroke-dasharray:none"
           transform="matrix(3.9170889,0,0,3.9355947,105.6496,513.05728)">
          <path
             style="stroke-width:0.11231861"
             id="path3421"
             d="m 0,1.2578 c 0,0 6.3671,0.962 6.3671,0.962 0,0 6.7373,-2.2198 6.7373,-2.2198 0,0 2.6563,3.2305 2.6563,3.2305 0,0 -3.6533,0.6894 -3.6533,0.6894" />
        </g>
        <g
           id="g3423"
           style="fill:none;stroke:#012e86;stroke-width:0.11231861;stroke-linecap:butt;stroke-linejoin:miter;stroke-dasharray:none"
           transform="matrix(3.9170889,0,0,3.9355947,131.02646,524.99472)">
          <path
             style="stroke-width:0.11231861"
             id="path3425"
             d="m 5.3662,0.6631 c 0,0 -4.3682,2.2168 -4.3682,2.2168 C 0.998,2.8799 0,0 0,0" />
        </g>
        <g
           id="g3427"
           style="fill:none;stroke:#012e86;stroke-width:0.11231861;stroke-linecap:butt;stroke-linejoin:miter;stroke-dasharray:none"
           transform="matrix(3.9170889,0,0,3.9355947,122.17854,533.7156)">
          <path
             style="stroke-width:0.11231861"
             id="path3429"
             d="M 0,0 C 0,0 3.2471,0.246 3.2471,0.246" />
        </g>
        <g
           id="g3431"
           style="fill:none;stroke:#012e86;stroke-width:0.11231861;stroke-linecap:butt;stroke-linejoin:miter;stroke-dasharray:none"
           transform="matrix(3.9170889,0,0,3.9355947,105.13293,514.10296)">
          <path
             style="stroke-width:0.11231861"
             id="path3433"
             d="M 7.5987,5.2294 C 7.5987,5.2294 0,0.9619 0,0.9619 0,0.9619 0,0 0,0" />
        </g>
        <g
           id="g3435"
           style="fill:none;stroke:#012e86;stroke-width:0.11231861;stroke-linecap:butt;stroke-linejoin:miter;stroke-dasharray:none"
           transform="matrix(3.9170889,0,0,3.9355947,153.07537,511.3815)">
          <path
             style="stroke-width:0.11231861"
             id="path3437"
             d="M 1.0703,0 C 1.0703,0 0,3.4747 0,3.4747" />
        </g>
        <g
           id="g3439"
           style="fill:none;stroke:#012e86;stroke-width:0.11231861;stroke-linecap:butt;stroke-linejoin:miter;stroke-dasharray:none"
           transform="matrix(3.9170889,0,0,3.9355947,167.04526,530.22197)">
          <path
             style="stroke-width:0.11231861"
             id="path3441"
             d="M 0.0224,0 C 0.0224,0 0,0.7412 0,0.7412" />
        </g>
        <g
           id="g3443"
           style="fill:none;stroke:#012e86;stroke-width:0.11231861;stroke-linecap:butt;stroke-linejoin:miter;stroke-dasharray:none"
           transform="matrix(3.9170889,0,0,3.9355947,92.218682,544.96471)">
          <path
             style="stroke-width:0.11231861"
             id="path3445"
             d="M 0.3653,0 C 0.3653,0 0,0.6524 0,0.6524" />
        </g>
        <g
           id="g3447"
           style="fill:none;stroke:#012e86;stroke-width:0.11231861;stroke-linecap:butt;stroke-linejoin:miter;stroke-dasharray:none"
           transform="matrix(3.9170889,0,0,3.9355947,120.71707,536.61732)">
          <path
             style="stroke-width:0.11231861"
             id="path3449"
             d="M 0.002,0 C 0.002,0 0,0.5312 0,0.5312" />
        </g>
        <g
           id="g3451"
           style="fill:none;stroke:#012e86;stroke-width:0.11231861;stroke-linecap:butt;stroke-linejoin:miter;stroke-dasharray:none"
           transform="matrix(3.9170889,0,0,3.9355947,135.86916,538.44659)">
          <path
             style="stroke-width:0.11231861"
             id="path3453"
             d="M 0,0 C 0,0 0,0.5908 0,0.5908" />
        </g>
        <g
           id="g3455"
           style="fill:#e62b49;fill-rule:nonzero;stroke:none"
           transform="matrix(3.9170889,0,0,3.9355947,153.93594,510.82422)">
          <path
             id="path3457"
             d="m 0.8301,1.6534 c 0.458,0 0.8271,-0.3702 0.8271,-0.8262 C 1.6572,0.3711 1.2881,0 0.8301,0 0.3721,0 0,0.3711 0,0.8272 0,1.2832 0.3721,1.6534 0.8301,1.6534 Z" />
        </g>
        <g
           id="g3459"
           style="fill:#e62b49;fill-rule:nonzero;stroke:none"
           transform="matrix(3.9170889,0,0,3.9355947,117.51563,530.14091)">
          <path
             id="path3461"
             d="m 0.872,1.7422 c 0.4824,0 0.8731,-0.3906 0.8731,-0.8711 C 1.7451,0.3887 1.3544,0 0.872,0 0.3896,0 0,0.3887 0,0.8711 0,1.3516 0.3896,1.7422 0.872,1.7422 Z" />
        </g>
        <g
           id="g3463"
           style="fill:#e62b49;fill-rule:nonzero;stroke:none"
           transform="matrix(3.9170889,0,0,3.9355947,127.6985,519.45261)">
          <path
             id="path3465"
             d="m 0.8291,1.6573 c 0.458,0 0.8281,-0.3731 0.8281,-0.8291 C 1.6572,0.3701 1.2871,0 0.8291,0 0.3711,0 0,0.3701 0,0.8282 0,1.2842 0.3711,1.6573 0.8291,1.6573 Z" />
        </g>
        <g
           id="g3467"
           style="fill:#ee82a6;fill-rule:nonzero;stroke:none"
           transform="matrix(3.9170889,0,0,3.9355947,91.732963,539.23842)">
          <path
             id="path3469"
             d="m 0.8281,1.6533 c 0.46,0 0.8301,-0.3691 0.8301,-0.8262 C 1.6582,0.3681 1.2881,0 0.8281,0 0.3731,0 0,0.3681 0,0.8271 0,1.2842 0.3731,1.6533 0.8281,1.6533 Z" />
        </g>
        <g
           id="g3471"
           style="fill:#ee82a6;fill-rule:nonzero;stroke:none"
           transform="matrix(3.9170889,0,0,3.9355947,149.74348,524.49924)">
          <path
             id="path3473"
             d="m 0.8271,1.6543 c 0.458,0 0.8301,-0.3682 0.8301,-0.8272 C 1.6572,0.371 1.2851,0 0.8271,0 0.3721,0 0,0.371 0,0.8271 0,1.2861 0.3721,1.6543 0.8271,1.6543 Z" />
        </g>
        <g
           id="g3475"
           style="fill:#ffed00;fill-rule:nonzero;stroke:none"
           transform="matrix(3.9170889,0,0,3.9355947,101.76659,515.67839)">
          <path
             id="path3477"
             d="m 0.8301,1.6543 c 0.458,0 0.8281,-0.3691 0.8281,-0.8252 C 1.6582,0.3702 1.2881,0 0.8301,0 0.3731,0 0,0.3702 0,0.8291 0,1.2852 0.3731,1.6543 0.8301,1.6543 Z" />
        </g>
        <g
           id="g3479"
           style="fill:#ffed00;fill-rule:nonzero;stroke:none"
           transform="matrix(3.9170889,0,0,3.9355947,163.49168,524.20328)">
          <path
             id="path3481"
             d="m 0.8281,1.6552 c 0.458,0 0.8281,-0.3681 0.8281,-0.8261 C 1.6562,0.3711 1.2861,0 0.8281,0 0.3701,0 0,0.3711 0,0.8291 0,1.2871 0.3701,1.6552 0.8281,1.6552 Z" />
        </g>
        <g
           id="g3483"
           style="fill:#ffed00;fill-rule:nonzero;stroke:none"
           transform="matrix(3.9170889,0,0,3.9355947,132.74762,532.35114)">
          <path
             id="path3485"
             d="m 0.8281,1.6543 c 0.459,0 0.8301,-0.3701 0.8301,-0.8282 C 1.6582,0.3701 1.2871,0 0.8281,0 0.3711,0 0,0.3701 0,0.8261 0,1.2842 0.3711,1.6543 0.8281,1.6543 Z" />
        </g>
      </g>
      <g
         id="g4833"
         transform="translate(-28.571429,-108.57143)">
        <g
           id="g3487"
           style="fill:#161413;fill-rule:nonzero;stroke:none"
           transform="matrix(3.9170889,0,0,3.9355947,258.6875,473.97446)">
          <path
             id="path3489"
             d="M 20.0723,8.6738 C 19.3252,4.8974 16.2969,2.9912 12.5967,2.9912 c -6.3555,0 -9.0459,5.2334 -9.0459,10.8027 0,6.0928 2.6904,11.1768 9.084,11.1768 4.6709,0 7.3632,-3.2901 7.7002,-7.7012 0,0 3.5498,0 3.5498,0 C 23.2129,23.9238 19.0635,27.9609 12.335,27.9609 4.0361,27.9609 0,21.83 0,14.0556 0,6.3173 4.4101,0 12.6348,0 c 5.5683,0 10.1669,2.9912 10.9882,8.6738 0,0 -3.5507,0 -3.5507,0 z" />
        </g>
        <g
           id="g3491"
           style="fill:#161413;fill-rule:nonzero;stroke:none"
           transform="matrix(3.9170889,0,0,3.9355947,363.81395,476.48025)">
          <path
             id="path3493"
             d="m 0,0 c 0,0 3.1783,0 3.1783,0 0,0 0,10.2041 0,10.2041 0,0 0.073,0 0.073,0 1.048,-2.3184 3.777,-3.2891 6.094,-3.2891 5.083,0 6.653,2.916 6.653,7.0645 0,0 0,12.709 0,12.709 0,0 -3.178,0 -3.178,0 0,0 0,-13.083 0,-13.083 0,-2.3545 -1.494,-3.8877 -3.923,-3.8877 -3.85,0 -5.719,2.5791 -5.719,6.0556 0,0 0,10.9151 0,10.9151 0,0 -3.1783,0 -3.1783,0 C 0,26.6885 0,0 0,0 Z" />
        </g>
        <g
           id="g3495"
           style="fill:#161413;fill-rule:nonzero;stroke:none"
           transform="matrix(3.9170889,0,0,3.9355947,435.1218,503.6949)">
          <path
             id="path3497"
             d="m 14.466,8.2608 c -0.15,-3.0284 -2.43,-5.458 -5.569,-5.458 -3.327,0 -5.309,2.5048 -5.532,5.458 0,0 11.101,0 11.101,0 z m 3.064,5.3828 C 16.671,17.9043 13.606,20.2217 9.27,20.2217 3.103,20.2217 0.186,15.96 0,10.0547 0,4.2608 3.812,0 9.082,0 c 6.841,0 8.934,6.3916 8.749,11.0635 0,0 -14.466,0 -14.466,0 -0.114,3.3643 1.793,6.3555 6.017,6.3555 2.617,0 4.448,-1.2715 5.01,-3.7754 0,0 3.138,0 3.138,0 z" />
        </g>
        <g
           id="g3499"
           style="fill:#161413;fill-rule:nonzero;stroke:none"
           transform="matrix(3.9170889,0,0,3.9355947,512.42557,503.6949)">
          <path
             id="path3501"
             d="M 14.166,6.6524 C 13.68,4.2237 12,2.8028 9.383,2.8028 c -4.598,0 -6.018,3.6259 -6.018,7.5507 0,3.5508 1.606,7.0655 5.643,7.0655 3.066,0 4.896,-1.795 5.308,-4.711 0,0 3.253,0 3.253,0 -0.709,4.711 -3.665,7.5137 -8.525,7.5137 C 3.142,20.2217 0,16.1104 0,10.3535 0,4.5596 2.99,0 9.121,0 c 4.373,0 7.886,2.0567 8.336,6.6524 0,0 -3.291,0 -3.291,0 z" />
        </g>
        <g
           id="g3503"
           style="fill:#161413;fill-rule:nonzero;stroke:none"
           transform="matrix(3.9170889,0,0,3.9355947,591.49198,476.48025)">
          <path
             id="path3505"
             d="m 0,0 c 0,0 3.176,0 3.176,0 0,0 0,15.8105 0,15.8105 0,0 8.823,-8.4472 8.823,-8.4472 0,0 4.26,0 4.26,0 0,0 -7.662,7.0263 -7.662,7.0263 0,0 8.223,12.2989 8.223,12.2989 0,0 -4.037,0 -4.037,0 0,0 -6.614,-10.0918 -6.614,-10.0918 0,0 -2.993,2.7656 -2.993,2.7656 0,0 0,7.3262 0,7.3262 0,0 -3.176,0 -3.176,0 C 0,26.6885 0,0 0,0 Z" />
        </g>
        <g
           id="g3507"
           style="fill:#161413;fill-rule:nonzero;stroke:none"
           transform="matrix(3.9170889,0,0,3.9355947,702.18109,476.48025)">
          <path
             id="path3509"
             d="m 3.551,12.7832 c 0,0 6.953,0 6.953,0 3.999,0.0381 5.831,-1.7188 5.831,-4.8975 0,-3.1767 -1.832,-4.8965 -5.831,-4.8965 0,0 -6.953,0 -6.953,0 0,0 0,9.794 0,9.794 z M 0,0 c 0,0 11.699,0 11.699,0 5.31,0 8.188,2.9521 8.188,7.8857 0,4.9356 -2.878,7.9248 -8.188,7.8877 0,0 -8.148,0 -8.148,0 0,0 0,10.9151 0,10.9151 0,0 -3.551,0 -3.551,0 C 0,26.6885 0,0 0,0 Z" />
        </g>
        <g
           id="g3511"
           style="fill:#161413;fill-rule:nonzero;stroke:none"
           transform="matrix(3.9170889,0,0,3.9355947,784.46739,503.6949)">
          <path
             id="path3513"
             d="m 9.383,17.419 c 3.326,0 6.018,-2.6172 6.018,-7.2901 0,-4.709 -2.692,-7.3261 -6.018,-7.3261 -3.327,0 -6.017,2.6171 -6.017,7.3261 0,4.6729 2.69,7.2901 6.017,7.2901 z M 9.383,0 c 6.129,0 9.383,4.4483 9.383,10.1289 0,5.6436 -3.254,10.0928 -9.383,10.0928 C 3.252,20.2217 0,15.7725 0,10.1289 0,4.4483 3.252,0 9.383,0 Z" />
        </g>
        <g
           id="g3515"
           style="fill:#161413;fill-rule:nonzero;stroke:none"
           transform="matrix(3.9170889,0,0,3.9355947,870.12235,476.48025)">
          <path
             id="path3517"
             d="m 0,7.3633 c 0,0 3.177,0 3.177,0 0,0 0,19.3252 0,19.3252 0,0 -3.177,0 -3.177,0 0,0 0,-19.3252 0,-19.3252 z M 3.177,3.8877 c 0,0 -3.177,0 -3.177,0 C 0,3.8877 0,0 0,0 c 0,0 3.177,0 3.177,0 0,0 0,3.8877 0,3.8877 z" />
        </g>
        <g
           id="g3519"
           style="fill:#161413;fill-rule:nonzero;stroke:none"
           transform="matrix(3.9170889,0,0,3.9355947,898.23529,503.6949)">
          <path
             id="path3521"
             d="m 0,0.4483 c 0,0 2.991,0 2.991,0 0,0 0,3.0644 0,3.0644 0,0 0.074,0 0.074,0 C 4.41,1.1221 6.579,0 9.345,0 c 5.083,0 6.653,2.916 6.653,7.0645 0,0 0,12.709 0,12.709 0,0 -3.175,0 -3.175,0 0,0 0,-13.083 0,-13.083 0,-2.3545 -1.498,-3.8877 -3.928,-3.8877 -3.849,0 -5.719,2.5791 -5.719,6.0556 0,0 0,10.9151 0,10.9151 0,0 -3.176,0 -3.176,0 0,0 0,-19.3252 0,-19.3252 z" />
        </g>
        <g
           id="g3523"
           style="fill:#161413;fill-rule:nonzero;stroke:none"
           transform="matrix(3.9170889,0,0,3.9355947,967.93206,482.65638)">
          <path
             id="path3525"
             d="m 6.468,5.794 c 0,0 3.85,0 3.85,0 0,0 0,2.8037 0,2.8037 0,0 -3.85,0 -3.85,0 0,0 0,11.999 0,11.999 0,1.457 0.409,1.7187 2.391,1.7187 0,0 1.459,0 1.459,0 0,0 0,2.8038 0,2.8038 0,0 -2.432,0 -2.432,0 -3.288,0 -4.598,-0.6729 -4.598,-4.2237 0,0 0,-12.2978 0,-12.2978 0,0 -3.288,0 -3.288,0 0,0 0,-2.8037 0,-2.8037 0,0 3.288,0 3.288,0 0,0 0,-5.794 0,-5.794 0,0 3.18,0 3.18,0 0,0 0,5.794 0,5.794 z" />
        </g>
        <g
           id="g3527"
           style="fill:#161413;fill-rule:nonzero;stroke:none"
           transform="matrix(3.9170889,0,0,3.9355947,261.93908,606.71616)">
          <path
             id="path3529"
             d="M 5.3711,2.6748 C 5.2412,1.4668 4.4365,0.9472 3.2763,0.9472 c -0.9453,0 -1.8916,0.3418 -1.8916,1.4434 0,1.04 1.3496,1.1934 2.708,1.5 C 5.4424,4.1992 6.789,4.6728 6.789,6.3281 6.789,8.1269 5.0293,8.8486 3.4902,8.8486 1.5976,8.8486 0,7.9258 0,5.8672 c 0,0 1.0644,0 1.0644,0 0,1.4189 1.1836,2.0332 2.4619,2.0332 C 4.5429,7.9004 5.667,7.582 5.667,6.3633 5.667,5.2031 4.3193,5.0039 2.9707,4.707 1.6211,4.4121 0.2597,4.0215 0.2597,2.4707 0.2597,0.7568 1.7871,0 3.3252,0 c 1.7255,0 3.038,0.8164 3.1113,2.6748 0,0 -1.0654,0 -1.0654,0 z" />
        </g>
        <g
           id="g3531"
           style="fill:#161413;fill-rule:nonzero;stroke:none"
           transform="matrix(3.9170889,0,0,3.9355947,293.5398,606.71616)">
          <path
             id="path3533"
             d="m 4.0468,7.9004 c 2.0586,0 2.9209,-1.7715 2.9209,-3.4756 0,-1.7041 -0.8623,-3.4776 -2.9209,-3.4776 -2.0586,0 -2.9218,1.7735 -2.9218,3.4776 0,1.7041 0.8632,3.4756 2.9218,3.4756 z M 4.0468,0 c 2.6836,0 4.0449,2.1299 4.0449,4.4248 0,2.2949 -1.3613,4.4238 -4.0449,4.4238 C 1.3613,8.8486 0,6.7197 0,4.4248 0,2.1299 1.3613,0 4.0468,0 Z" />
        </g>
        <g
           id="g3535"
           style="fill:#161413;fill-rule:nonzero;stroke:none"
           transform="matrix(3.9170889,0,0,3.9355947,332.09062,607.50407)">
          <path
             id="path3537"
             d="m 0,0 c 0,0 5.5489,0 5.5489,0 0,0 0,0.9482 0,0.9482 0,0 -4.4239,0 -4.4239,0 0,0 0,2.6836 0,2.6836 0,0 3.879,0 3.879,0 0,0 0,0.9453 0,0.9453 0,0 -3.879,0 -3.879,0 0,0 0,3.8692 0,3.8692 0,0 -1.125,0 -1.125,0 C 0,8.4463 0,0 0,0 Z" />
        </g>
        <g
           id="g3539"
           style="fill:#161413;fill-rule:nonzero;stroke:none"
           transform="matrix(3.9170889,0,0,3.9355947,357.25361,607.50407)">
          <path
             id="path3541"
             d="m 2.8164,0.9482 c 0,0 -2.8164,0 -2.8164,0 C 0,0.9482 0,0 0,0 c 0,0 6.7541,0 6.7541,0 0,0 0,0.9482 0,0.9482 0,0 -2.814,0 -2.814,0 0,0 0,7.4981 0,7.4981 0,0 -1.1237,0 -1.1237,0 0,0 0,-7.4981 0,-7.4981 z" />
        </g>
        <g
           id="g3543"
           style="fill:#161413;fill-rule:nonzero;stroke:none"
           transform="matrix(3.9170889,0,0,3.9355947,387.55659,607.50407)">
          <path
             id="path3545"
             d="m 8.412,8.4463 c 0,0 -1.174,0 -1.174,0 0,0 -1.927,-7.0967 -1.927,-7.0967 0,0 -0.022,0 -0.022,0 0,0 -1.953,7.0967 -1.953,7.0967 0,0 -1.172,0 -1.172,0 C 2.164,8.4463 0,0 0,0 c 0,0 1.148,0 1.148,0 0,0 1.657,7.0273 1.657,7.0273 0,0 0.022,0 0.022,0 C 2.827,7.0273 4.72,0 4.72,0 c 0,0 1.218,0 1.218,0 0,0 1.869,7.0273 1.869,7.0273 0,0 0.025,0 0.025,0 0,0 1.715,-7.0273 1.715,-7.0273 0,0 1.123,0 1.123,0 0,0 -2.258,8.4463 -2.258,8.4463 z" />
        </g>
        <g
           id="g3547"
           style="fill:#161413;fill-rule:nonzero;stroke:none"
           transform="matrix(3.9170889,0,0,3.9355947,428.52543,607.50407)">
          <path
             id="path3549"
             d="m 2.46,4.956 c 0,0 2.863,0 2.863,0 0,0 -1.408,-3.9375 -1.408,-3.9375 0,0 -0.023,0 -0.023,0 0,0 -1.432,3.9375 -1.432,3.9375 z M 3.3,0 c 0,0 1.242,0 1.242,0 0,0 3.301,8.4463 3.301,8.4463 0,0 -1.242,0 -1.242,0 0,0 -0.923,-2.543 -0.923,-2.543 0,0 -3.572,0 -3.572,0 0,0 -0.948,2.543 -0.948,2.543 0,0 -1.158,0 -1.158,0 C 0,8.4463 3.3,0 3.3,0 Z" />
        </g>
        <g
           id="g3551"
           style="fill:#161413;fill-rule:nonzero;stroke:none"
           transform="matrix(3.9170889,0,0,3.9355947,464.15135,607.50407)">
          <path
             id="path3553"
             d="m 3.469,3.8916 c 1.051,0 1.951,-0.2715 1.951,-1.502 0,-0.8261 -0.45,-1.4414 -1.503,-1.4414 0,0 -2.791,0 -2.791,0 0,0 0,2.9434 0,2.9434 0,0 2.343,0 2.343,0 z M 0,0 c 0,0 3.977,0 3.977,0 1.584,0 2.566,0.8633 2.566,2.2129 0,1.0175 -0.449,1.8564 -1.465,2.1406 0,0 0,0.0244 0,0.0244 0.981,0.1895 1.181,0.9102 1.264,1.7383 0.071,0.8281 0.024,1.75 0.497,2.3301 0,0 -1.254,0 -1.254,0 C 5.265,8.1045 5.442,7.1924 5.277,6.3662 5.158,5.5381 4.958,4.8398 3.87,4.8398 c 0,0 -2.744,0 -2.744,0 0,0 0,3.6065 0,3.6065 0,0 -1.126,0 -1.126,0 C 0,8.4463 0,0 0,0 Z" />
        </g>
        <g
           id="g3555"
           style="fill:#161413;fill-rule:nonzero;stroke:none"
           transform="matrix(3.9170889,0,0,3.9355947,497.56804,607.50407)">
          <path
             id="path3557"
             d="m 0,0 c 0,0 5.832,0 5.832,0 0,0 0,0.9482 0,0.9482 0,0 -4.709,0 -4.709,0 0,0 0,2.6836 0,2.6836 0,0 4.387,0 4.387,0 0,0 0,0.9453 0,0.9453 0,0 -4.387,0 -4.387,0 0,0 0,2.9239 0,2.9239 0,0 4.745,0 4.745,0 0,0 0,0.9453 0,0.9453 0,0 -5.868,0 -5.868,0 C 0,8.4463 0,0 0,0 Z" />
        </g>
        <g
           id="g3559"
           style="fill:#161413;fill-rule:nonzero;stroke:none"
           transform="matrix(3.9170889,0,0,3.9355947,538.57211,607.50407)">
          <path
             id="path3561"
             d="m 2.815,0.9482 c 0,0 -2.815,0 -2.815,0 C 0,0.9482 0,0 0,0 c 0,0 6.755,0 6.755,0 0,0 0,0.9482 0,0.9482 0,0 -2.816,0 -2.816,0 0,0 0,7.4981 0,7.4981 0,0 -1.124,0 -1.124,0 0,0 0,-7.4981 0,-7.4981 z" />
        </g>
        <g
           id="g3563"
           style="fill:#161413;fill-rule:nonzero;stroke:none"
           transform="matrix(3.9170889,0,0,3.9355947,570.35929,607.50407)">
          <path
             id="path3565"
             d="m 0,0 c 0,0 5.83,0 5.83,0 0,0 0,0.9482 0,0.9482 0,0 -4.706,0 -4.706,0 0,0 0,2.6836 0,2.6836 0,0 4.389,0 4.389,0 0,0 0,0.9453 0,0.9453 0,0 -4.389,0 -4.389,0 0,0 0,2.9239 0,2.9239 0,0 4.743,0 4.743,0 0,0 0,0.9453 0,0.9453 0,0 -5.867,0 -5.867,0 C 0,8.4463 0,0 0,0 Z" />
        </g>
        <g
           id="g3567"
           style="fill:#161413;fill-rule:nonzero;stroke:none"
           transform="matrix(3.9170889,0,0,3.9355947,598.7151,606.71616)">
          <path
             id="path3569"
             d="M 6.353,2.7441 C 6.118,1.5498 5.157,0.9472 3.986,0.9472 c -2.01,0 -2.863,1.6553 -2.863,3.417 0,1.9278 0.853,3.5362 2.875,3.5362 1.48,0 2.331,-1.0391 2.437,-2.4356 0,0 1.124,0 1.124,0 C 7.346,7.5703 6.032,8.8486 3.905,8.8486 1.277,8.8486 0,6.9072 0,4.4472 0,2 1.398,0 3.998,0 c 1.764,0 3.218,0.9472 3.479,2.7441 0,0 -1.124,0 -1.124,0 z" />
        </g>
        <g
           id="g3571"
           style="fill:#161413;fill-rule:nonzero;stroke:none"
           transform="matrix(3.9170889,0,0,3.9355947,635.46131,607.50407)">
          <path
             id="path3573"
             d="m 0,0 c 0,0 1.123,0 1.123,0 0,0 0,3.6318 0,3.6318 0,0 4.449,0 4.449,0 0,0 0,-3.6318 0,-3.6318 0,0 1.124,0 1.124,0 0,0 0,8.4463 0,8.4463 0,0 -1.124,0 -1.124,0 0,0 0,-3.8692 0,-3.8692 0,0 -4.449,0 -4.449,0 0,0 0,3.8692 0,3.8692 0,0 -1.123,0 -1.123,0 C 0,8.4463 0,0 0,0 Z" />
        </g>
        <g
           id="g3575"
           style="fill:#161413;fill-rule:nonzero;stroke:none"
           transform="matrix(3.9170889,0,0,3.9355947,670.53493,607.50407)">
          <path
             id="path3577"
             d="m 0,0 c 0,0 1.197,0 1.197,0 0,0 4.446,6.8506 4.446,6.8506 0,0 0.022,0 0.022,0 0,0 0,-6.8506 0,-6.8506 0,0 1.067,0 1.067,0 0,0 0,8.4463 0,8.4463 0,0 -1.231,0 -1.231,0 0,0 -4.412,-6.7784 -4.412,-6.7784 0,0 -0.024,0 -0.024,0 0,0 0,6.7784 0,6.7784 0,0 -1.065,0 -1.065,0 C 0,8.4463 0,0 0,0 Z" />
        </g>
        <g
           id="g3579"
           style="fill:#161413;fill-rule:nonzero;stroke:none"
           transform="matrix(3.9170889,0,0,3.9355947,703.85368,606.71616)">
          <path
             id="path3581"
             d="m 4.045,7.9004 c 2.058,0 2.922,-1.7715 2.922,-3.4756 0,-1.7041 -0.864,-3.4776 -2.922,-3.4776 -2.057,0 -2.921,1.7735 -2.921,3.4776 0,1.7041 0.864,3.4756 2.921,3.4756 z M 4.045,0 C 6.73,0 8.091,2.1299 8.091,4.4248 8.091,6.7197 6.73,8.8486 4.045,8.8486 1.362,8.8486 0,6.7197 0,4.4248 0,2.1299 1.362,0 4.045,0 Z" />
        </g>
        <g
           id="g3583"
           style="fill:#161413;fill-rule:nonzero;stroke:none"
           transform="matrix(3.9170889,0,0,3.9355947,742.17456,607.50407)">
          <path
             id="path3585"
             d="m 0,0 c 0,0 1.122,0 1.122,0 0,0 0,7.501 0,7.501 0,0 4.473,0 4.473,0 0,0 0,0.9453 0,0.9453 0,0 -5.595,0 -5.595,0 C 0,8.4463 0,0 0,0 Z" />
        </g>
        <g
           id="g3587"
           style="fill:#161413;fill-rule:nonzero;stroke:none"
           transform="matrix(3.9170889,0,0,3.9355947,767.00499,606.71616)">
          <path
             id="path3589"
             d="m 4.045,7.9004 c 2.058,0 2.921,-1.7715 2.921,-3.4756 0,-1.7041 -0.863,-3.4776 -2.921,-3.4776 -2.059,0 -2.923,1.7735 -2.923,3.4776 0,1.7041 0.864,3.4756 2.923,3.4756 z M 4.045,0 C 6.73,0 8.091,2.1299 8.091,4.4248 8.091,6.7197 6.73,8.8486 4.045,8.8486 1.362,8.8486 0,6.7197 0,4.4248 0,2.1299 1.362,0 4.045,0 Z" />
        </g>
        <g
           id="g3591"
           style="fill:#161413;fill-rule:nonzero;stroke:none"
           transform="matrix(3.9170889,0,0,3.9355947,804.1194,606.71616)">
          <path
             id="path3593"
             d="M 6.729,7.5937 C 6.081,8.4814 5.015,8.8486 4.021,8.8486 1.501,8.8486 0,6.79 0,4.5879 0,2.1299 1.348,0 4.021,0 c 1.846,0 3.314,0.8281 3.631,2.8037 0,0 -1.121,0 -1.121,0 C 6.305,1.5254 5.275,0.9472 4.021,0.9472 c -2.045,0 -2.897,1.7735 -2.897,3.584 0,1.7608 1.016,3.3692 2.897,3.3692 1.739,0 2.782,-1.2168 2.708,-2.7559 0,0 -2.696,0 -2.696,0 0,0 0,-0.9453 0,-0.9453 0,0 3.703,0 3.703,0 0,0 0,4.4473 0,4.4473 0,0 -0.71,0 -0.71,0 0,0 -0.297,-1.0528 -0.297,-1.0528 z" />
        </g>
        <g
           id="g3595"
           style="fill:#161413;fill-rule:nonzero;stroke:none"
           transform="matrix(3.9170889,0,0,3.9355947,842.7615,607.50407)">
          <path
             id="path3597"
             d="m 0,0 c 0,0 1.125,0 1.125,0 0,0 0,8.4463 0,8.4463 0,0 -1.125,0 -1.125,0 C 0,8.4463 0,0 0,0 Z" />
        </g>
        <g
           id="g3599"
           style="fill:#161413;fill-rule:nonzero;stroke:none"
           transform="matrix(3.9170889,0,0,3.9355947,856.25194,607.50407)">
          <path
             id="path3601"
             d="m 0,0 c 0,0 5.832,0 5.832,0 0,0 0,0.9482 0,0.9482 0,0 -4.708,0 -4.708,0 0,0 0,2.6836 0,2.6836 0,0 4.386,0 4.386,0 0,0 0,0.9453 0,0.9453 0,0 -4.386,0 -4.386,0 0,0 0,2.9239 0,2.9239 0,0 4.742,0 4.742,0 0,0 0,0.9453 0,0.9453 0,0 -5.866,0 -5.866,0 C 0,8.4463 0,0 0,0 Z" />
        </g>
        <g
           id="g3603"
           style="fill:#161413;fill-rule:nonzero;stroke:none"
           transform="matrix(3.9170889,0,0,3.9355947,884.32572,606.71616)">
          <path
             id="path3605"
             d="M 5.37,2.6748 C 5.24,1.4668 4.436,0.9472 3.278,0.9472 c -0.947,0 -1.894,0.3418 -1.894,1.4434 0,1.04 1.348,1.1934 2.709,1.5 C 5.441,4.1992 6.79,4.6728 6.79,6.3281 6.79,8.1269 5.027,8.8486 3.488,8.8486 1.597,8.8486 0,7.9258 0,5.8672 c 0,0 1.065,0 1.065,0 0,1.4189 1.183,2.0332 2.46,2.0332 1.016,0 2.14,-0.3184 2.14,-1.5371 C 5.665,5.2031 4.317,5.0039 2.969,4.707 1.62,4.4121 0.261,4.0215 0.261,2.4707 0.261,0.7568 1.785,0 3.324,0 c 1.728,0 3.041,0.8164 3.112,2.6748 0,0 -1.066,0 -1.066,0 z" />
        </g>
        <g
           id="g3607"
           style="fill:#161413;fill-rule:nonzero;stroke:none"
           transform="matrix(3.9170889,0,0,3.9355947,931.71858,607.50407)">
          <path
             id="path3609"
             d="m 0,0 c 0,0 1.124,0 1.124,0 0,0 0,7.501 0,7.501 0,0 4.471,0 4.471,0 0,0 0,0.9453 0,0.9453 0,0 -5.595,0 -5.595,0 C 0,8.4463 0,0 0,0 Z" />
        </g>
        <g
           id="g3611"
           style="fill:#161413;fill-rule:nonzero;stroke:none"
           transform="matrix(3.9170889,0,0,3.9355947,951.65656,607.50407)">
          <path
             id="path3613"
             d="m 2.815,0.9482 c 0,0 -2.815,0 -2.815,0 C 0,0.9482 0,0 0,0 c 0,0 6.753,0 6.753,0 0,0 0,0.9482 0,0.9482 0,0 -2.814,0 -2.814,0 0,0 0,7.4981 0,7.4981 0,0 -1.124,0 -1.124,0 0,0 0,-7.4981 0,-7.4981 z" />
        </g>
        <g
           id="g3615"
           style="fill:#161413;fill-rule:nonzero;stroke:none"
           transform="matrix(3.9170889,0,0,3.9355947,983.43591,607.50407)">
          <path
             id="path3617"
             d="m 1.126,7.501 c 0,0 1.866,0 1.866,0 0.772,0 2.843,-0.2139 2.843,-3.3243 0,-2.0107 -0.747,-3.2285 -2.818,-3.2285 0,0 -1.891,0 -1.891,0 0,0 0,6.5528 0,6.5528 z M 0,0 c 0,0 2.901,0 2.901,0 2.6,0 4.055,1.3017 4.055,4.0215 0,2.8291 -1.242,4.4248 -4.055,4.4248 0,0 -2.901,0 -2.901,0 C 0,8.4463 0,0 0,0 Z" />
        </g>
        <g
           id="g3619"
           style="fill:#161413;fill-rule:nonzero;stroke:none"
           transform="matrix(3.9170889,0,0,3.9355947,1014.2516,635.57982)">
          <path
             id="path3621"
             d="m 0,1.3125 c 0,0 1.314,0 1.314,0 0,0 0,-1.3125 0,-1.3125 C 1.314,0 0,0 0,0 0,0 0,1.3125 0,1.3125 Z" />
        </g>
        <g
           id="g3623"
           style="fill:#161413;fill-rule:nonzero;stroke:none"
           transform="matrix(3.9170889,0,0,3.9355947,1001.478,481.519)">
          <path
             id="path3625"
             d="m 1.704,1.9902 c 0,0 0.405,0 0.405,0 0.343,0 0.654,-0.0166 0.654,-0.4111 0,-0.3301 -0.285,-0.3819 -0.545,-0.3819 0,0 -0.514,0 -0.514,0 0,0 0,0.793 0,0.793 z M 1.317,0.8837 c 0,0 0.963,0 0.963,0 0.593,0 0.872,0.2344 0.872,0.7129 0,0.4493 -0.285,0.6387 -0.656,0.6787 0,0 0.714,1.0997 0.714,1.0997 0,0 -0.417,0 -0.417,0 0,0 -0.678,-1.0713 -0.678,-1.0713 0,0 -0.411,0 -0.411,0 0,0 0,1.0713 0,1.0713 0,0 -0.387,0 -0.387,0 0,0 0,-2.4913 0,-2.4913 z m 0.832,3.0674 c 0.986,0 1.75,-0.7861 1.75,-1.8301 0,-1.0205 -0.764,-1.8076 -1.75,-1.8076 -0.999,0 -1.763,0.7871 -1.763,1.8076 0,1.044 0.764,1.8301 1.763,1.8301 z M 2.149,0 C 3.311,0 4.288,0.9179 4.288,2.121 4.288,3.3466 3.311,4.2646 2.149,4.2646 0.98,4.2646 0,3.3466 0,2.121 0,0.9179 0.98,0 2.149,0 Z" />
        </g>
      </g>
    </g>
  </g>
</svg>
