<?xml version="1.0" encoding="UTF-8" standalone="no"?>
<svg
   xmlns:dc="http://purl.org/dc/elements/1.1/"
   xmlns:cc="http://creativecommons.org/ns#"
   xmlns:rdf="http://www.w3.org/1999/02/22-rdf-syntax-ns#"
   xmlns:svg="http://www.w3.org/2000/svg"
   xmlns="http://www.w3.org/2000/svg"
   viewBox="0 0 384 384"
   height="384"
   width="384"
   id="svg1072"
   version="1.1">
  <metadata
     id="metadata1078">
    <rdf:RDF>
      <cc:Work
         rdf:about="">
        <dc:format>image/svg+xml</dc:format>
        <dc:type
           rdf:resource="http://purl.org/dc/dcmitype/StillImage" />
        <dc:title></dc:title>
      </cc:Work>
    </rdf:RDF>
  </metadata>
  <defs
     id="defs1076" />
  <path
     id="path1625"
     d="M 78.799757,305.19976 0,226.39951 v -34.24 -34.24 L 78.960243,78.959757 157.92049,0 h 34.24 34.24 L 305.20024,78.800243 384,157.60049 v 34.4 34.4 L 305.19976,305.20024 226.39951,384 h -34.4 -34.4 z m 49.520263,-11.27974 -71.519438,-71.51997 60.959178,-60.95981 60.95918,-60.95981 -8.5598,-8.559793 -8.5598,-8.559799 -69.519487,69.519492 -69.519492,69.51949 71.519549,71.52009 71.51955,71.52009 h 17.12 17.12 z M 293.99973,289.84027 365.44,218.40054 v -16.88027 c 0,-9.28415 -0.10787,-16.88027 -0.23974,-16.88027 -0.13184,0 -32.31584,32.07587 -71.51997,71.27971 l -71.28025,71.27971 -60.9598,-60.95918 -60.95981,-60.95918 -8.5597,8.55971 -8.559706,8.5597 69.439216,69.43977 c 38.19156,38.19186 69.51121,69.43976 69.59922,69.43976 0.088,0 32.30812,-32.14787 71.60027,-71.43973 z M 292.00028,231.03955 361.44,161.5991 289.91849,90.079552 218.39697,18.56 h -16.87848 c -9.28317,0 -16.87849,0.108121 -16.87849,0.24027 0,0.132148 32.04,32.280028 71.2,71.43973 39.16,39.1597 71.2,71.34372 71.2,71.52004 0,0.17633 -27.35957,27.67988 -60.79905,61.11901 l -60.79904,60.79841 8.39678,8.40127 c 4.61823,4.6207 8.46992,8.40127 8.55932,8.40127 0.0894,0 31.41042,-31.2482 69.60227,-69.44045 z M 231.20016,152.96049 192,113.76033 152.88033,152.88 l -39.11968,39.11967 39.19919,39.20017 39.19918,39.20016 39.12065,-39.11967 39.12066,-39.11968 z M 90.319709,128.08029 161.59996,56.800586 222.48029,117.68029 c 33.48419,33.48384 61.0232,60.87971 61.1978,60.87971 0.1746,0 4.09891,-3.77943 8.72068,-8.39873 l 8.40322,-8.39873 L 231.28127,92.241267 161.76054,22.719991 90.160272,94.319728 18.56,165.91947 v 16.72026 c 0,9.19615 0.107879,16.72027 0.239732,16.72027 0.131852,0 32.315842,-32.07587 71.519977,-71.27971 z"
     style="fill:#124191;stroke-width:0.31999999;fill-opacity:1" />
</svg>
