<?xml version="1.0" encoding="UTF-8" standalone="no"?>
<svg
   xmlns:dc="http://purl.org/dc/elements/1.1/"
   xmlns:cc="http://creativecommons.org/ns#"
   xmlns:rdf="http://www.w3.org/1999/02/22-rdf-syntax-ns#"
   xmlns:svg="http://www.w3.org/2000/svg"
   xmlns="http://www.w3.org/2000/svg"
   height="344.16586"
   width="235.032"
   xml:space="preserve"
   viewBox="0 0 235.032 344.16586"
   y="0px"
   x="0px"
   id="Layer_1"
   version="1.1"><metadata
   id="metadata34"><rdf:RDF><cc:Work
       rdf:about=""><dc:format>image/svg+xml</dc:format><dc:type
         rdf:resource="http://purl.org/dc/dcmitype/StillImage" /><dc:title></dc:title></cc:Work></rdf:RDF></metadata><defs
   id="defs32" />
<style
   id="style2"
   type="text/css">
	.st0{fill:#3C3C3F;}
	.st1{fill:#67C52A;}
</style>

<g
   id="g866"><g
     id="Compiler_Explorer"
     transform="matrix(0.52733229,0,0,0.52733229,-220.05576,15.63786)">
	<g
   id="Explorer">
		<path
   id="XMLID_10_"
   class="st0"
   d="m 450.2,576.1 h -17.8 v 9.7 h 16.9 v 12.7 h -16.9 v 10 h 17.8 v 12.7 h -32.9 v -57.8 h 32.9 z"
   style="fill:#3c3c3f" />
		<path
   id="XMLID_16_"
   class="st0"
   d="m 483.3,590.3 -18.5,-26.9 h 18.5 l 8.8,14.9 8.8,-14.9 h 18.5 l -18.5,26.9 21.4,30.9 h -18.1 l -12.1,-18.8 -13.3,18.8 h -18.2 z"
   style="fill:#3c3c3f" />
		<path
   id="XMLID_18_"
   class="st0"
   d="m 533,621.2 v -57.8 h 23 c 6.5,0 11.6,1.6 15.4,4.7 3.8,3.1 5.6,7.9 5.6,14.3 0,13.1 -6.8,19.6 -20.5,19.6 H 548 v 19.2 z m 15,-45.7 v 14.4 h 2.5 c 1.4,0 2.5,0 3.3,0 0.7,0 1.7,-0.2 2.8,-0.4 1.1,-0.3 2,-0.6 2.6,-1.1 0.6,-0.5 1.1,-1.1 1.5,-2.1 0.4,-0.9 0.7,-2.1 0.7,-3.4 0,-1.4 -0.2,-2.6 -0.6,-3.6 -0.4,-0.9 -0.9,-1.7 -1.5,-2.2 -0.6,-0.5 -1.4,-0.9 -2.5,-1.1 -1.1,-0.2 -2,-0.4 -2.8,-0.4 -0.8,-0.1 -1.9,-0.1 -3.4,-0.1 z"
   style="fill:#3c3c3f" />
		<path
   id="XMLID_22_"
   class="st0"
   d="m 604.1,563.4 v 45 h 18 v 12.7 h -33 v -57.8 h 15 z"
   style="fill:#3c3c3f" />
		<path
   id="XMLID_25_"
   class="st0"
   d="m 646,565.2 c 4.9,-2.5 10.1,-3.7 15.6,-3.7 5.6,0 10.8,1.2 15.6,3.7 4.9,2.5 8.8,6 11.8,10.6 3,4.6 4.5,9.7 4.5,15.4 0,9.3 -3,17 -9,22.9 -6,6 -13.6,8.9 -22.9,8.9 -9.3,0 -16.9,-3 -22.9,-8.9 -6,-5.9 -9,-13.6 -9,-22.9 0,-5.7 1.5,-10.8 4.5,-15.4 3,-4.6 6.9,-8.1 11.8,-10.6 z m 27.1,15.5 c -3.2,-3.1 -7,-4.6 -11.5,-4.6 -4.4,0 -8.3,1.5 -11.5,4.6 -3.2,3.1 -4.8,6.6 -4.8,10.6 0,4.9 1.6,9 4.7,12.3 3.2,3.3 7,4.9 11.6,4.9 4.5,0 8.4,-1.6 11.6,-4.9 3.2,-3.3 4.7,-7.4 4.7,-12.3 0,-4 -1.6,-7.6 -4.8,-10.6 z"
   style="fill:#3c3c3f" />
		<path
   id="XMLID_28_"
   class="st0"
   d="m 737.1,597.5 18.2,23.7 H 736.6 L 722.4,599 h -0.2 v 22.2 h -15 v -57.8 h 22.4 c 6,0 10.9,1.5 14.6,4.4 3.7,3 5.5,7.4 5.5,13.3 0,4.1 -1.1,7.7 -3.3,10.7 -2.2,3.1 -5.3,5 -9.3,5.7 z m -14.9,-22.6 v 14.4 h 1.5 c 6.9,0 10.4,-2.4 10.4,-7.2 0,-4.8 -3.5,-7.2 -10.4,-7.2 z"
   style="fill:#3c3c3f" />
		<path
   id="XMLID_31_"
   class="st0"
   d="m 798.7,576.1 h -17.8 v 9.7 h 16.9 v 12.7 h -16.9 v 10 h 17.8 v 12.7 h -32.9 v -57.8 h 32.9 z"
   style="fill:#3c3c3f" />
		<path
   id="XMLID_33_"
   class="st0"
   d="m 844.5,597.5 18.2,23.7 H 844 L 829.8,599 h -0.2 v 22.2 h -15 V 563.4 H 837 c 6,0 10.9,1.5 14.6,4.4 3.7,3 5.5,7.4 5.5,13.3 0,4.1 -1.1,7.7 -3.3,10.7 -2.2,3.1 -5.3,5 -9.3,5.7 z m -14.9,-22.6 v 14.4 h 1.5 c 6.9,0 10.4,-2.4 10.4,-7.2 0,-4.8 -3.5,-7.2 -10.4,-7.2 z"
   style="fill:#3c3c3f" />
	</g>
	<g
   id="Compiler">
		<path
   id="XMLID_36_"
   class="st1"
   d="m 461.5,494.8 v 18.1 c -1.5,-2.1 -3.5,-3.6 -5.8,-4.7 -2.3,-1.1 -4.8,-1.7 -7.4,-1.7 -4.6,0 -8.3,1.5 -11.2,4.6 -2.9,3.1 -4.3,6.9 -4.3,11.5 0,4.6 1.5,8.4 4.4,11.4 2.9,3 6.7,4.4 11.4,4.4 2.5,0 4.9,-0.6 7.2,-1.7 2.3,-1.1 4.3,-2.6 5.9,-4.5 v 18.1 c -5.9,1.8 -10.3,2.7 -13.3,2.7 -8.3,0 -15.5,-2.8 -21.8,-8.5 -6.2,-5.6 -9.3,-12.9 -9.3,-22 0,-8.3 2.8,-15.4 8.5,-21.3 2.9,-2.9 6.3,-5.2 10.2,-6.9 3.9,-1.7 7.9,-2.5 11.9,-2.5 4.3,0 8.9,1 13.6,3 z"
   style="fill:#67c52a" />
		<path
   id="XMLID_38_"
   class="st1"
   d="m 490,495.2 c 4.9,-2.5 10.1,-3.7 15.7,-3.7 5.6,0 10.8,1.2 15.7,3.7 4.9,2.5 8.8,6 11.9,10.7 3,4.6 4.5,9.8 4.5,15.5 0,9.4 -3,17.1 -9.1,23.1 -6,6 -13.7,9 -23.1,9 -9.3,0 -17,-3 -23.1,-9 -6,-6 -9.1,-13.7 -9.1,-23.1 0,-5.7 1.5,-10.9 4.5,-15.5 3.3,-4.7 7.3,-8.2 12.1,-10.7 z m 27.3,15.5 c -3.2,-3.1 -7.1,-4.6 -11.6,-4.6 -4.5,0 -8.3,1.5 -11.6,4.6 -3.2,3.1 -4.9,6.7 -4.9,10.7 0,4.9 1.6,9.1 4.8,12.4 3.2,3.3 7.1,5 11.6,5 4.6,0 8.4,-1.7 11.6,-5 3.2,-3.3 4.8,-7.4 4.8,-12.4 0.2,-4.1 -1.4,-7.6 -4.7,-10.7 z"
   style="fill:#67c52a" />
		<path
   id="XMLID_41_"
   class="st1"
   d="m 547.2,551.4 9.9,-58.1 H 572 l 11.8,31 12.5,-31 h 15 l 8.8,58.1 H 605 L 600.8,518 h -0.2 l -13.9,33.4 h -6 L 567.2,518 H 567 l -4.9,33.4 z"
   style="fill:#67c52a" />
		<path
   id="XMLID_43_"
   class="st1"
   d="m 633.1,551.4 v -58.1 h 23.1 c 6.5,0 11.7,1.6 15.4,4.7 3.8,3.2 5.7,7.9 5.7,14.4 0,13.1 -6.9,19.7 -20.6,19.7 h -8.5 v 19.3 z m 15.1,-45.9 V 520 h 2.5 c 1.4,0 2.5,0 3.3,0 0.7,0 1.7,-0.2 2.9,-0.4 1.2,-0.3 2,-0.6 2.6,-1.1 0.6,-0.5 1.1,-1.2 1.5,-2.1 0.4,-0.9 0.7,-2.1 0.7,-3.5 0,-1.4 -0.2,-2.6 -0.6,-3.6 -0.4,-1 -0.9,-1.7 -1.5,-2.2 -0.6,-0.5 -1.4,-0.9 -2.5,-1.1 -1.1,-0.2 -2.1,-0.4 -2.9,-0.4 -0.8,-0.1 -1.9,-0.1 -3.4,-0.1 z"
   style="fill:#67c52a" />
		<path
   id="XMLID_46_"
   class="st1"
   d="m 704.8,493.4 v 58.1 h -15.1 v -58.1 z"
   style="fill:#67c52a" />
		<path
   id="XMLID_48_"
   class="st1"
   d="m 736.4,493.4 v 45.3 h 18.1 v 12.8 h -33.2 v -58.1 z"
   style="fill:#67c52a" />
		<path
   id="XMLID_50_"
   class="st1"
   d="m 798.6,506.2 h -17.9 v 9.7 h 17 v 12.8 h -17 v 10 h 17.9 v 12.8 h -33 v -58.1 h 33 z"
   style="fill:#67c52a" />
		<path
   id="XMLID_52_"
   class="st1"
   d="m 844.7,527.6 18.3,23.8 h -18.8 l -14.3,-22.3 h -0.2 v 22.3 h -15.1 v -58.1 h 22.6 c 6.1,0 10.9,1.5 14.6,4.5 3.7,3 5.5,7.4 5.5,13.4 0,4.2 -1.1,7.8 -3.4,10.8 -2.1,3.1 -5.2,4.9 -9.2,5.6 z m -15,-22.7 v 14.5 h 1.5 c 7,0 10.5,-2.4 10.5,-7.2 0,-4.8 -3.5,-7.2 -10.5,-7.2 h -1.5 z"
   style="fill:#67c52a" />
	</g>
</g><g
     id="CE"
     transform="translate(-504.79979,-185.9)">
	<path
   id="C"
   class="st1"
   d="m 730.9,376 c -1.2,-2.2 -1.2,-4.8 0,-6.9 1.4,-2.6 2.8,-5.2 4,-7.9 0.9,-2 -0.5,-4.2 -2.7,-4.2 h -23.6 c -2.4,0 -4.7,1.2 -6,3.2 -3,4.6 -6.6,9.1 -10.6,13.1 -15.1,15.1 -35.3,23.5 -56.7,23.5 -21.4,0 -41.5,-8.3 -56.7,-23.5 -15.1,-15.1 -23.5,-35.3 -23.5,-56.7 0,-21.4 8.3,-41.5 23.5,-56.7 15.1,-15.1 35.3,-23.5 56.7,-23.5 21.4,0 41.5,8.3 56.7,23.5 4,4 7.6,8.5 10.6,13.1 1.3,2 3.6,3.2 6,3.2 h 23.6 c 2.2,0 3.6,-2.2 2.7,-4.2 -1.2,-2.7 -2.5,-5.3 -4,-7.9 -1.2,-2.2 -1.2,-4.8 0,-6.9 l 8,-14.5 c 1.6,-2.8 1.1,-6.3 -1.2,-8.6 l -20,-20 c -2.3,-2.3 -5.8,-2.8 -8.6,-1.2 l -14.5,8 c -2.2,1.2 -4.8,1.2 -6.9,0 -6.9,-3.8 -14.2,-6.8 -21.8,-9 -2.4,-0.7 -4.2,-2.5 -4.9,-4.9 l -4.6,-15.9 c -0.9,-3.1 -3.7,-5.2 -6.9,-5.2 h -28.3 c -3.2,0 -6,2.1 -6.9,5.2 l -4.6,15.9 c -0.7,2.4 -2.6,4.2 -4.9,4.9 -7.6,2.2 -14.9,5.2 -21.8,9 -2.2,1.2 -4.8,1.2 -6.9,0 l -14.5,-8 c -2.8,-1.6 -6.3,-1.1 -8.6,1.2 l -20,20 c -2.3,2.3 -2.8,5.8 -1.2,8.6 l 8,14.5 c 1.2,2.2 1.2,4.8 0,6.9 -3.8,6.9 -6.8,14.2 -9,21.8 -0.7,2.4 -2.5,4.2 -4.9,4.9 l -15.9,4.6 c -3.1,0.9 -5.2,3.7 -5.2,6.9 v 28.2 c 0,3.2 2.1,6 5.2,6.9 l 15.9,4.6 c 2.4,0.7 4.2,2.6 4.9,4.9 2.2,7.6 5.2,14.9 9,21.8 1.2,2.2 1.2,4.8 0,6.9 l -8,14.5 c -1.6,2.8 -1.1,6.3 1.2,8.6 l 20,20 c 2.3,2.3 5.8,2.8 8.6,1.2 l 14.5,-8 c 2.2,-1.2 4.8,-1.2 6.9,0 6.9,3.8 14.2,6.8 21.8,9 2.4,0.7 4.2,2.5 4.9,4.9 l 4.6,15.9 c 0.9,3.1 3.7,5.2 6.9,5.2 h 28.2 c 3.2,0 6,-2.1 6.9,-5.2 l 4.6,-15.9 c 0.7,-2.4 2.6,-4.2 4.9,-4.9 7.6,-2.2 14.9,-5.2 21.8,-9 2.2,-1.2 4.8,-1.2 6.9,0 l 14.5,8 c 2.8,1.6 6.3,1.1 8.6,-1.2 l 20,-20 c 2.3,-2.3 2.8,-5.8 1.2,-8.6 z"
   style="fill:#67c52a" />
	<g
   id="E">
		<rect
   id="XMLID_15_"
   x="587.29999"
   y="276"
   class="st0"
   width="97"
   height="18"
   style="fill:#3c3c3f" />
		<rect
   id="XMLID_14_"
   x="587.29999"
   y="308"
   class="st0"
   width="80"
   height="18"
   style="fill:#3c3c3f" />
		<rect
   id="XMLID_13_"
   x="587.29999"
   y="340"
   class="st0"
   width="97"
   height="18"
   style="fill:#3c3c3f" />
	</g>
</g></g>
</svg>