<?xml version="1.0" encoding="UTF-8" standalone="no"?>
<!-- Created with Inkscape (http://www.inkscape.org/) -->

<svg
   xmlns:dc="http://purl.org/dc/elements/1.1/"
   xmlns:cc="http://creativecommons.org/ns#"
   xmlns:rdf="http://www.w3.org/1999/02/22-rdf-syntax-ns#"
   xmlns:svg="http://www.w3.org/2000/svg"
   xmlns="http://www.w3.org/2000/svg"
   xmlns:sodipodi="http://sodipodi.sourceforge.net/DTD/sodipodi-0.dtd"
   xmlns:inkscape="http://www.inkscape.org/namespaces/inkscape"
   width="197.53593"
   height="77.165199"
   id="svg2"
   version="1.1"
   inkscape:version="0.92.4 (5da689c313, 2019-01-14)"
   sodipodi:docname="Eurovision_Song_Contest_2019_logo.svg">
  <defs
     id="defs4" />
  <sodipodi:namedview
     id="base"
     pagecolor="#ffffff"
     bordercolor="#666666"
     borderopacity="1.0"
     inkscape:pageopacity="0.0"
     inkscape:pageshadow="2"
     inkscape:zoom="1.4142136"
     inkscape:cx="129.60366"
     inkscape:cy="-23.149925"
     inkscape:document-units="px"
     inkscape:current-layer="layer1"
     showgrid="false"
     fit-margin-top="0"
     fit-margin-left="0"
     fit-margin-right="0"
     fit-margin-bottom="0"
     inkscape:window-width="1043"
     inkscape:window-height="1036"
     inkscape:window-x="558"
     inkscape:window-y="383"
     inkscape:window-maximized="0" />
  <metadata
     id="metadata7">
    <rdf:RDF>
      <cc:Work
         rdf:about="">
        <dc:format>image/svg+xml</dc:format>
        <dc:type
           rdf:resource="http://purl.org/dc/dcmitype/StillImage" />
        <dc:title></dc:title>
      </cc:Work>
    </rdf:RDF>
  </metadata>
  <g
     inkscape:label="Layer 1"
     inkscape:groupmode="layer"
     id="layer1"
     transform="translate(-807.49293,-760.01628)">
    <g
       id="g890"
       transform="matrix(1.0974219,0,0,1.0974219,-88.599804,-77.922138)">
      <g
         transform="matrix(0.33879159,0,0,0.33879159,819.59264,655.64663)"
         id="XMLID_1_">
        <path
           style="fill:#ffffff"
           inkscape:connector-curvature="0"
           d="m 207.6,384.1 c 16.8,16.9 33.7,33.7 50.5,50.6 19,-21 38.1,-42 57.1,-63 -2.4,-14.8 -4.9,-29.6 -7.3,-44.4 -9.9,-0.8 -19.9,-1.6 -29.8,-2.4 -7.2,7.3 -14.3,14.6 -21.5,22 -4.6,-4.1 -9.1,-8.1 -13.7,-12.2 -8.4,3 -16.8,6 -25.1,9.1 -3.3,13.4 -6.7,26.8 -10.2,40.3 z"
           class="st0"
           id="XMLID_70_" />
        <path
           style="fill:#2276ac;fill-opacity:1"
           inkscape:connector-curvature="0"
           d="m 217.1,347.8 93.1,-8.1 7.8,12.3 -108.7,9.5 z m 7.8,53.6 62.1,-5.4 -7.8,13.6 -46.6,4.1 z"
           class="st1"
           id="XMLID_16_" />
        <path
           style="fill:#2276ac;fill-opacity:1"
           inkscape:connector-curvature="0"
           d="m 255.9,360.1 -1.2,2.2 -4,7.2 -7.9,0.7 -2.5,0.2 1.2,2 3.9,6.5 -3.9,7.2 -1.2,2.2 2.5,-0.2 7.9,-0.7 4,6.5 1.2,2 1.2,-2.2 4,-7.2 7.9,-0.7 2.5,-0.2 -1.2,-2 -3.9,-6.5 3.9,-7.2 1.2,-2.2 -2.5,0.2 -7.9,0.7 -4,-6.5 z m 0,5.6 1.9,3.1 -3.8,0.3 c 0,0.1 1.9,-3.4 1.9,-3.4 z m -10.6,7.1 3.8,-0.3 -1.9,3.4 c 0,0 -1.9,-3.1 -1.9,-3.1 z m 7.1,-0.6 7.1,-0.6 3.5,5.8 -3.5,6.4 -7.1,0.6 -3.5,-5.8 c -0.1,0 3.5,-6.4 3.5,-6.4 z m 10.3,-0.9 3.8,-0.3 -1.9,3.4 z m -15.5,10.3 1.9,3.1 -3.8,0.3 c 0,0 1.9,-3.4 1.9,-3.4 z m 17.4,-1.5 1.9,3.1 -3.8,0.3 z m -10.6,7 3.8,-0.3 -1.9,3.4 z"
           class="st1"
           id="XMLID_7_" />
        <path
           style="fill:#010101"
           inkscape:connector-curvature="0"
           d="m 217.2,372.4 c 0.3,-26.3 14,-34.5 21.4,-34.5 10.4,0 14.7,7.9 15.4,11.4 0.7,3.5 4.6,6.3 5.9,0.6 1.3,-5.8 13.5,-23.3 28.5,-23.3 13.8,0 18.5,14.2 18.1,26.3 -1.1,32.9 -43.5,59.1 -49,75.7 -5,-10.1 -40.7,-24.6 -40.3,-56.2 z m 76.1,-53.9 c -12.4,0 -27,9.1 -35.8,24.3 -2.4,-5.5 -10.9,-11.4 -21,-11.4 -8.1,0 -31,10.2 -31,43 0,42.4 42.9,51.1 51.6,64.3 0.6,0.9 2.5,1.6 3.2,-0.6 6.9,-20.4 60.6,-43.5 60.6,-85.1 0,-23.3 -15.3,-34.5 -27.6,-34.5 z"
           class="st2"
           id="XMLID_4_" />
      </g>
      <path
         inkscape:connector-curvature="0"
         id="path3044"
         d="m 972.28599,780.32189 c 1.05029,-1.21958 1.76172,-1.89716 1.59236,-2.74415 -0.16943,-0.84698 -2.9814,-1.42293 -4.23493,-0.23716 -3.7267,-2.94749 -2.94744,0.50819 -2.43929,1.2874 -4.40429,3.08299 -7.38565,11.24785 -4.98023,17.61713 2.33769,6.23379 9.41839,6.97913 13.11125,2.60872 3.2524,-3.89613 2.67645,-11.01071 -3.04916,-18.53194 m -2.87972,17.88824 c -2.40542,-0.13552 -3.79442,-2.98136 -3.62506,-5.895 0.30491,-5.11575 4.57368,-10.29922 4.57368,-10.29922 1.01637,0.9147 3.99773,5.86105 3.86225,9.65555 -0.13555,3.69282 -2.40549,6.67419 -4.81087,6.53867 z" />
      <path
         inkscape:connector-curvature="0"
         d="m 834.26232,767.95607 c -8.3004,-0.60984 -17.48165,6.26763 -17.14286,15.17786 0.0339,0.84694 0.74535,1.62619 1.79559,1.62619 1.28742,0 5.048,-0.13555 5.048,-0.13555 0,0 -7.41954,5.86109 -7.41954,12.70467 0,3.6251 2.71033,7.96162 8.36816,7.96162 7.92772,0 13.85657,-6.50479 13.85657,-11.99324 0,-0.40651 -0.4743,-1.01637 -1.25352,-0.0678 -1.25353,1.49065 -7.8261,8.26651 -14.36477,8.26651 -2.20214,0 -4.09938,-1.25353 -4.09938,-3.86222 0,-3.42179 5.42067,-10.09605 14.73744,-12.7047 2.26989,-0.67759 2.47318,-3.86222 -0.44043,-3.99774 -2.84585,-0.13552 -12.70469,0.94862 -13.41615,0.94862 -0.71146,0 -0.77922,-0.1694 -0.50818,-0.8131 0.33879,-0.84698 3.96385,-7.18236 14.80518,-8.36814 3.69283,-0.30491 3.32016,-4.50591 0.0339,-4.74307"
         id="XMLID_40_" />
      <path
         inkscape:connector-curvature="0"
         d="m 846.01838,778.35694 c 0,-2.16824 -3.18463,-3.48954 -4.40428,-0.44041 -2.30379,5.86106 -3.01525,23.64763 4.74307,23.64763 3.4218,0 7.75834,-7.4534 7.75834,-14.73745 0,-5.9966 -2.47319,-9.92655 -2.98137,-10.63801 -0.50818,-0.71148 -1.21966,-0.33881 -1.15189,0.98249 0.10164,1.32129 0.4743,13.5855 -3.35404,18.0237 -1.52457,1.66008 -2.64258,-0.0678 -2.7781,-1.69399 -0.50818,-4.77692 2.16827,-12.02709 2.16827,-15.14396"
         id="XMLID_39_" />
      <path
         inkscape:connector-curvature="0"
         id="path3048"
         d="m 883.2177,779.61048 c 0,0 1.21962,-1.66007 0.47428,-2.60867 -0.84698,-1.05027 -3.48953,-1.38906 -5.99659,1.42292 -3.28627,3.69279 -5.59004,11.48502 -3.11688,17.98981 2.37155,6.23375 9.04574,6.77582 12.16262,2.03271 2.77805,-4.23486 2.03275,-11.28175 -3.52343,-18.83677 m -1.76171,17.85431 c -2.16827,0 -3.38792,-2.81197 -3.38792,-5.86109 0,-5.38681 3.86223,-10.29928 3.86223,-10.29928 1.05025,1.35516 3.62506,5.1835 3.62506,9.0796 0.0337,3.86225 -1.89726,7.08077 -4.09937,7.08077 z" />
      <path
         inkscape:connector-curvature="0"
         id="path3050"
         d="m 872.95232,802.07235 c -2.33766,-3.21852 -5.25128,-9.65555 -9.68944,-13.58553 4.50593,-0.27103 10.19762,-3.79449 10.19762,-7.55507 0,-2.77806 -2.87973,-4.77694 -6.64031,-4.77694 -3.76059,0 -7.89385,1.25353 -9.48616,2.23602 -2.03276,1.1858 -0.50818,3.99772 1.38904,3.25238 0,0 -0.71146,3.32019 -0.91474,5.08187 -1.55844,-0.20328 -1.86335,0.10163 -1.76172,0.44042 0.10165,0.33879 0.74534,0.60986 1.52457,1.55848 -0.23715,2.10047 -0.64372,11.41722 -0.57595,12.23036 0.10164,0.8131 0.57595,0.94861 1.28741,0.10163 0.60983,-0.74534 1.93111,-2.60872 2.57481,-9.55394 0.71147,0.60986 2.67645,3.21852 5.048,6.26764 3.48955,4.47211 4.64145,4.8109 6.06438,5.28517 0.74533,0.23716 1.55843,-0.20324 0.98249,-0.98249 m -11.65444,-16.09258 c 0.20329,-2.4393 0.37268,-4.94642 0.37268,-4.94642 0,0 5.42066,-1.38899 7.28402,-1.18573 1.62619,0.16939 1.96499,0.84697 1.118,2.13438 -1.89723,2.9814 -6.36927,4.03165 -8.7747,3.99777 z" />
      <path
         inkscape:connector-curvature="0"
         d="m 930.78401,776.76464 c 0.13555,4.84469 -4.13321,12.53528 -4.40425,18.12534 -0.20331,4.09937 0.54203,5.75945 0.88086,6.30148 0.37263,0.57598 1.15189,0.60986 1.38901,-0.40652 0.6437,-3.08303 5.01411,-11.14623 5.59012,-17.65101 0.33876,-3.99776 -0.88089,-6.43705 -2.30385,-6.87748 -0.67758,-0.23716 -1.15189,-0.16939 -1.15189,0.50819"
         id="XMLID_34_" />
      <path
         inkscape:connector-curvature="0"
         d="m 946.63947,776.12094 c -5.96272,0 -10.23149,2.1005 -10.23149,6.91135 0,2.94748 2.20214,4.98019 5.69169,5.55614 2.03275,0.37267 3.99774,0.5421 4.74308,0.77922 1.2874,0.47434 -1.82944,1.96502 -6.67419,5.25133 -3.32012,2.23599 -5.7256,4.60752 -7.01297,7.14846 -0.44047,0.88085 0.16936,1.69392 1.08416,1.05025 1.82944,-1.25353 5.7933,-3.35403 9.65551,-5.45454 3.69286,-2.03274 7.14853,-4.23489 7.14853,-7.01297 0,-2.50706 -1.89726,-3.45571 -3.32019,-3.6251 -2.50705,-0.27107 -7.92771,-0.0678 -7.92771,-3.21848 0,-1.18581 1.55844,-2.71037 6.53867,-2.71037 3.82838,0.0341 3.45567,-4.67529 0.30491,-4.67529"
         id="XMLID_33_" />
      <path
         inkscape:connector-curvature="0"
         d="m 954.12683,777.00181 c 1.93107,3.72666 -1.3552,13.8904 -1.3552,17.75265 0,3.86222 0.44039,5.21738 1.45676,6.47091 0.50823,0.6437 1.21969,0.27103 1.28744,-0.44043 0.30492,-3.38791 3.9639,-12.63694 4.20101,-16.93959 0.30492,-5.45452 -2.40541,-7.5889 -3.99773,-7.72441 -0.88086,-0.0339 -2.03275,0.10166 -1.59228,0.88087"
         id="XMLID_32_" />
      <path
         inkscape:connector-curvature="0"
         d="m 955.48196,771.71665 c -0.10164,3.55732 5.8272,4.13324 5.8272,-0.20328 0,-3.79447 -3.18463,-6.94522 -3.82837,-7.45341 -0.9825,-0.81311 -2.40542,-0.67759 -2.06659,0.64371 0.77922,2.7442 0.10167,5.79333 0.0678,7.01298"
         id="XMLID_31_" />
      <path
         inkscape:connector-curvature="0"
         d="m 996.2386,801.19146 c -0.77926,-4.77692 0.30491,-10.94292 0.30491,-16.73629 0,-4.43816 -3.69286,-6.70803 -5.86109,-6.70803 -2.84588,0 -4.50592,1.28742 -4.50592,1.28742 0.0337,-0.84702 0.16936,-2.1344 0.13548,-2.54096 -0.0341,-0.47431 -0.57594,-0.47431 -1.38904,-0.0339 -4.47208,2.7781 -5.11575,10.73966 -5.11575,16.26196 0,5.52229 0.88086,7.48732 0.98246,8.23266 0.10167,0.71146 0.94865,0.8131 1.32132,0.20327 2.37154,-4.60756 2.64254,-13.00961 3.45567,-17.68493 1.11801,-1.52456 5.69169,-1.79559 5.89497,1.82951 0.20327,3.7267 -0.16943,13.11121 3.6251,16.36361 0.47427,0.44043 1.25349,0.23715 1.15189,-0.47431"
         id="XMLID_30_" />
      <path
         inkscape:connector-curvature="0"
         d="m 847.57682,818.87639 1.21966,-1.4568 c 0.84696,0.67758 1.72783,1.11801 2.77808,1.11801 0.84698,0 1.35517,-0.33879 1.35517,-0.88082 v -0.0341 c 0,-0.50819 -0.30492,-0.77922 -1.89723,-1.18577 -1.89724,-0.47434 -3.08302,-1.01637 -3.08302,-2.84584 v -0.0337 c 0,-1.69399 1.35518,-2.81197 3.25241,-2.81197 1.35517,0 2.50705,0.44043 3.45568,1.18577 l -1.08413,1.55844 c -0.81311,-0.57598 -1.6262,-0.91477 -2.4393,-0.91477 -0.77922,0 -1.18578,0.37271 -1.18578,0.8131 v 0.0341 c 0,0.60986 0.40656,0.81314 1.99888,1.21969 1.89722,0.50818 2.94748,1.18577 2.94748,2.81196 v 0.0337 c 0,1.86335 -1.42292,2.87972 -3.42179,2.87972 -1.35517,0 -2.77809,-0.4743 -3.89611,-1.49071"
         id="XMLID_29_" />
      <path
         inkscape:connector-curvature="0"
         id="path3058"
         d="m 856.96134,815.59011 v 0 c 0,-2.67645 2.10052,-4.84467 4.98025,-4.84467 2.87973,0 4.94636,2.13438 4.94636,4.81083 v 0.0341 c 0,2.64261 -2.10051,4.84475 -4.98024,4.84475 -2.84585,-0.0341 -4.94637,-2.16826 -4.94637,-4.84475 m 7.79222,0 v 0 c 0,-1.62616 -1.18577,-2.94744 -2.81197,-2.94744 -1.66008,0 -2.81197,1.32128 -2.81197,2.91364 v 0.0337 c 0,1.59236 1.18577,2.94749 2.81197,2.94749 1.66007,-0.0337 2.81197,-1.32125 2.81197,-2.94749 z" />
      <polygon
         transform="matrix(0.33879159,0,0,0.33879159,819.59264,655.64663)"
         points="146.6,485.8 146.6,458.3 152.2,458.3 165.1,475.3 165.1,458.3 171.1,458.3 171.1,485.8 166,485.8 152.6,468.3 152.6,485.8 "
         id="XMLID_26_" />
      <path
         inkscape:connector-curvature="0"
         d="m 880.16858,815.59011 v 0 c 0,-2.67645 2.06662,-4.84467 4.91251,-4.84467 1.69392,0 2.71029,0.44039 3.65891,1.28737 l -1.28741,1.55847 c -0.71146,-0.60982 -1.35513,-0.94865 -2.43929,-0.94865 -1.49068,0 -2.67646,1.32132 -2.67646,2.91364 v 0.0341 c 0,1.694 1.18578,2.94749 2.84582,2.94749 0.74534,0 1.42296,-0.20324 1.93114,-0.57591 v -1.32125 h -2.06662 v -1.76175 h 4.06549 v 4.06549 c -0.94862,0.8131 -2.2699,1.49068 -3.99777,1.49068 -2.94746,-0.0341 -4.94632,-2.06659 -4.94632,-4.84475"
         id="XMLID_25_" />
      <path
         inkscape:connector-curvature="0"
         d="m 896.2612,815.59011 v 0 c 0,-2.67645 1.99887,-4.84467 4.87859,-4.84467 1.76171,0 2.81197,0.57591 3.69286,1.4568 l -1.32136,1.49068 c -0.71142,-0.64374 -1.4568,-1.05029 -2.3715,-1.05029 -1.55847,0 -2.71036,1.32132 -2.71036,2.91364 v 0.0341 c 0,1.59239 1.11804,2.94749 2.71036,2.94749 1.05022,0 1.7278,-0.4404 2.4393,-1.08413 l 1.32128,1.32135 c -0.94861,1.01638 -2.03278,1.66004 -3.82834,1.66004 -2.77812,-0.0341 -4.81083,-2.13438 -4.81083,-4.84475"
         id="XMLID_24_" />
      <path
         inkscape:connector-curvature="0"
         id="path3063"
         d="m 906.62821,815.59011 v 0 c 0,-2.67645 2.10054,-4.84467 4.98026,-4.84467 2.87973,0 4.94635,2.13438 4.94635,4.81083 v 0.0341 c 0,2.64261 -2.10054,4.84475 -4.98026,4.84475 -2.87973,-0.0341 -4.94635,-2.16826 -4.94635,-4.84475 m 7.79223,0 v 0 c 0,-1.62616 -1.18581,-2.94744 -2.81197,-2.94744 -1.66015,0 -2.81197,1.32128 -2.81197,2.91364 v 0.0337 c 0,1.59236 1.18574,2.94749 2.81197,2.94749 1.66004,-0.0337 2.81197,-1.32125 2.81197,-2.94749 z" />
      <polygon
         transform="matrix(0.33879159,0,0,0.33879159,819.59264,655.64663)"
         points="293.2,485.8 293.2,458.3 298.8,458.3 311.7,475.3 311.7,458.3 317.7,458.3 317.7,485.8 312.5,485.8 299.2,468.3 299.2,485.8 "
         id="XMLID_21_" />
      <polygon
         transform="matrix(0.33879159,0,0,0.33879159,819.59264,655.64663)"
         points="346.9,458.3 346.9,463.9 338.6,463.9 338.6,485.8 332.5,485.8 332.5,463.9 324.1,463.9 324.1,458.3 "
         id="XMLID_20_" />
      <polygon
         transform="matrix(0.33879159,0,0,0.33879159,819.59264,655.64663)"
         points="354,485.8 354,458.3 374.8,458.3 374.8,463.7 360,463.7 360,469.3 373,469.3 373,474.7 360,474.7 360,480.4 375,480.4 375,485.8 "
         id="XMLID_19_" />
      <path
         inkscape:connector-curvature="0"
         d="m 948.60446,818.87639 1.21968,-1.4568 c 0.84695,0.67758 1.72784,1.11801 2.77806,1.11801 0.84697,0 1.3552,-0.33879 1.3552,-0.88082 v -0.0341 c 0,-0.50819 -0.30492,-0.77922 -1.89727,-1.18577 -1.89719,-0.47434 -3.083,-1.01637 -3.083,-2.84584 v -0.0337 c 0,-1.69399 1.35516,-2.81197 3.25243,-2.81197 1.35517,0 2.50706,0.44043 3.45563,1.18577 l -1.08413,1.55844 c -0.81302,-0.57598 -1.62616,-0.91477 -2.43926,-0.91477 -0.77925,0 -1.18577,0.37271 -1.18577,0.8131 v 0.0341 c 0,0.60986 0.40652,0.81314 1.99887,1.21969 1.89723,0.50818 2.94748,1.18577 2.94748,2.81196 v 0.0337 c 0,1.86335 -1.42292,2.87972 -3.42179,2.87972 -1.35516,0 -2.77808,-0.4743 -3.89613,-1.49071"
         id="XMLID_18_" />
      <polygon
         transform="matrix(0.33879159,0,0,0.33879159,819.59264,655.64663)"
         points="430.5,458.3 430.5,463.9 422.1,463.9 422.1,485.8 416,485.8 416,463.9 407.6,463.9 407.6,458.3 "
         id="XMLID_17_" />
      <g
         style="fill:#000000"
         transform="matrix(0.33879159,0,0,0.33879159,819.59264,656.37382)"
         id="XMLID_43_">
        <path
           style="fill:#000000"
           inkscape:connector-curvature="0"
           d="m 313.29292,506.70033 -1.89996,-1.39997 c 1.99996,-2.99994 4.19992,-4.79991 8.19984,-4.79991 4.09992,0 6.99987,2.69995 6.99987,6.49988 0,3.29993 -1.79997,5.39989 -5.69989,8.89983 l -6.09989,5.39989 h 11.99977 v 2.29996 h -15.89969 v -1.99997 l 8.19984,-7.29985 c 3.49993,-3.09994 4.69991,-4.89991 4.69991,-7.09987 0,-2.69994 -2.09996,-4.29991 -4.59991,-4.29991 -2.39995,-0.1 -4.09992,1.29997 -5.89989,3.79992 z"
           id="XMLID_59_" />
        <path
           style="fill:#000000"
           inkscape:connector-curvature="0"
           d="m 342.80287,523.9 c -5.89988,0 -9.59981,-5.2999 -9.59981,-11.69977 0,-6.39988 3.79992,-11.79977 9.59981,-11.79977 5.79989,0 9.49982,5.29989 9.49982,11.69977 0.1,6.39987 -3.59993,11.79977 -9.49982,11.79977 z m 0,-21.09959 c -4.19992,0 -6.89986,4.29992 -6.89986,9.39982 0,5.0999 2.69994,9.39981 6.99986,9.39981 4.19992,0 6.89987,-4.39991 6.89987,-9.39981 0,-4.99991 -2.69995,-9.39982 -6.99987,-9.39982 z"
           id="XMLID_61_" />
        <path
           style="fill:#000000"
           inkscape:connector-curvature="0"
           d="m 363.02373,500.70045 h 1.89996 v 22.79956 h -2.49995 V 503.3004 l -4.29992,1.29997 -0.59998,-2.09996 z"
           id="XMLID_64_" />
        <path
           style="fill:#000000"
           inkscape:connector-curvature="0"
           d="m 380.04464,523.9 c -2.99994,0 -5.0999,-1.19998 -6.99986,-2.79995 l 1.49997,-1.99996 c 1.79996,1.59997 3.59993,2.39996 5.59989,2.39996 4.09992,0 6.79987,-4.19992 6.69987,-9.99981 -1.19998,1.99996 -3.29994,3.59993 -6.39988,3.59993 -4.69991,0 -7.89985,-2.99994 -7.89985,-7.09986 0,-4.29992 3.29994,-7.69985 8.19985,-7.69985 2.59995,0 4.49991,0.89998 5.99988,2.29995 1.79996,1.79997 2.79995,4.19992 2.79995,8.79983 0,7.39986 -3.79993,12.49976 -9.49982,12.49976 z m 0.59999,-21.19959 c -3.39994,0 -5.3999,2.49995 -5.3999,5.2999 0,2.89994 2.29996,4.9999 5.59989,4.9999 3.49994,0 5.5999,-2.49995 5.5999,-5.1999 0,-2.79994 -2.39996,-5.0999 -5.79989,-5.0999 z"
           id="XMLID_66_" />
        <g
           id="flowRoot3030"
           style="font-style:normal;font-weight:normal;font-size:40px;line-height:125%;font-family:Sans;letter-spacing:0px;word-spacing:0px;fill:#000000;fill-opacity:1;stroke:none"
           transform="matrix(0.81490243,0,0,0.81490243,20.579514,3.1751741)">
          <path
             inkscape:connector-curvature="0"
             id="path3039"
             style="font-variant:normal;font-stretch:normal;font-family:Gotham;-inkscape-font-specification:Gotham;fill:#000000"
             d="m 138.31055,613.55145 h 9.39941 v -2.91992 h -21.99951 v 2.91992 h 9.39941 v 25.08057 h 3.20069 z" />
          <path
             inkscape:connector-curvature="0"
             id="path3041"
             style="font-variant:normal;font-stretch:normal;font-family:Gotham;-inkscape-font-specification:Gotham;fill:#000000"
             d="m 176.81279,610.63153 h -20.24048 v 28.00049 h 20.43945 v -2.87964 h -17.27905 v -9.79981 h 15.27954 v -2.88086 h -15.27954 v -9.55932 h 17.08008 z" />
          <path
             inkscape:connector-curvature="0"
             id="path3043"
             style="font-variant:normal;font-stretch:normal;font-family:Gotham;-inkscape-font-specification:Gotham;fill:#000000"
             d="m 186.13156,638.63202 h 18.91967 v -2.91993 h -15.75927 v -25.08056 h -3.1604 z" />
          <path
             inkscape:connector-curvature="0"
             id="path3045"
             style="font-variant:normal;font-stretch:normal;font-family:Gotham;-inkscape-font-specification:Gotham;fill:#000000"
             d="m 241.85471,610.43255 h -2.9602 l -12.76001,28.19947 h 3.23974 l 3.32032,-7.39991 h 15.24048 l 3.2788,7.39991 h 3.40088 z m 4.84009,17.95899 h -12.76001 l 6.40015,-14.27979 z" />
          <path
             inkscape:connector-curvature="0"
             id="path3047"
             style="font-variant:normal;font-stretch:normal;font-family:Gotham;-inkscape-font-specification:Gotham;fill:#000000"
             d="m 273.85833,634.75262 -9.95971,-24.12109 h -3.52051 l 12.03979,28.20068 h 2.8003 l 12.03979,-28.20068 h -3.39966 z" />
          <path
             inkscape:connector-curvature="0"
             id="path3049"
             style="font-variant:normal;font-stretch:normal;font-family:Gotham;-inkscape-font-specification:Gotham;fill:#000000"
             d="m 296.1449,610.63153 v 28.00049 h 3.1604 v -28.00049 z" />
          <path
             inkscape:connector-curvature="0"
             id="path3051"
             style="font-variant:normal;font-stretch:normal;font-family:Gotham;-inkscape-font-specification:Gotham;fill:#000000"
             d="m 321.7549,634.75262 -9.95972,-24.12109 h -3.52051 l 12.0398,28.20068 h 2.80029 l 12.0398,-28.20068 h -3.39966 z" />
        </g>
      </g>
    </g>
  </g>
</svg>
