<?xml version="1.0" encoding="UTF-8" standalone="no"?>
<svg
   xmlns:dc="http://purl.org/dc/elements/1.1/"
   xmlns:cc="http://creativecommons.org/ns#"
   xmlns:rdf="http://www.w3.org/1999/02/22-rdf-syntax-ns#"
   xmlns:svg="http://www.w3.org/2000/svg"
   xmlns="http://www.w3.org/2000/svg"
   viewBox="0 0 755.90434 304.96106"
   height="304.96106"
   width="755.90436"
   xml:space="preserve"
   id="svg2"
   version="1.1"><metadata
     id="metadata8"><rdf:RDF><cc:Work
         rdf:about=""><dc:format>image/svg+xml</dc:format><dc:type
           rdf:resource="http://purl.org/dc/dcmitype/StillImage" /><dc:title></dc:title></cc:Work></rdf:RDF></metadata><defs
     id="defs6"><clipPath
       id="clipPath18"
       clipPathUnits="userSpaceOnUse"><path
         id="path16"
         d="M 0,595.276 H 841.89 V 0 H 0 Z" /></clipPath></defs><g
     transform="matrix(1.3333333,0,0,-1.3333333,-183.3072,549.33092)"
     id="g10"><g
       id="g12"><g
         clip-path="url(#clipPath18)"
         id="g14"><g
           transform="translate(518.5176,268.882)"
           id="g20"><path
             id="path22"
             style="fill:#4c83cc;fill-opacity:1;fill-rule:nonzero;stroke:none"
             d="m 0,0 c -5.655,-0.682 -11.314,-1.217 -16.974,-1.602 -3.652,-0.393 -7.206,-1.022 -10.681,-1.893 -3.455,-0.868 -6.519,-2.186 -9.158,-3.938 -2.65,-1.739 -4.794,-4.119 -6.436,-7.123 -1.637,-3.016 -2.461,-6.844 -2.461,-11.51 0,-5.624 2.136,-9.849 6.426,-12.659 4.295,-2.826 9.263,-4.22 14.921,-4.22 6.02,0 11.082,1.009 15.194,3.052 4.107,2.036 7.571,4.655 10.403,7.858 2.828,3.207 5.063,6.848 6.699,10.919 1.639,4.083 3.019,8.157 4.111,12.236 L 15.87,5.676 C 10.952,2.57 5.648,0.673 0,0 m -58.027,62.024 c 4.191,6.307 9.302,11.404 15.322,15.286 6.025,3.88 12.776,6.647 20.256,8.295 7.477,1.654 15.232,2.478 23.269,2.478 6.386,0 13.043,-0.485 19.984,-1.454 6.928,-0.975 13.314,-2.866 19.157,-5.678 5.837,-2.818 10.626,-6.802 14.373,-11.943 3.736,-5.139 5.511,-11.987 5.332,-20.526 0,-7.188 -1.003,-15.628 -3.005,-25.336 L 44.068,-37.419 c -0.727,-2.725 -1.236,-6.061 -1.507,-10.043 -0.273,-3.99 -0.407,-7.428 -0.407,-10.344 0,-2.517 0.45,-5.436 1.365,-8.733 H 4.654 v 14.848 c -5.302,-6.398 -11.767,-11.114 -19.428,-14.122 -7.675,-3.004 -15.609,-4.512 -23.819,-4.512 -7.666,0 -14.373,1.074 -20.121,3.211 -5.749,2.133 -10.538,4.986 -14.373,8.579 -3.826,3.593 -6.663,7.764 -8.481,12.532 -1.825,4.748 -2.744,9.747 -2.744,14.989 0,14.565 4.7,26.205 14.101,34.943 9.401,8.741 22.668,14.165 39.828,16.312 9.119,1.165 17.062,2.033 23.814,2.621 6.752,0.577 12.357,1.498 16.829,2.763 4.478,1.255 7.808,3.096 9.994,5.526 2.185,2.431 3.286,6.074 3.286,10.923 0,3.884 -0.829,6.988 -2.465,9.317 -1.642,2.336 -3.697,4.176 -6.154,5.539 -2.472,1.354 -5.111,2.278 -7.947,2.763 -2.823,0.487 -5.516,0.728 -8.067,0.728 -6.945,0 -13.137,-1.796 -18.614,-5.384 -5.477,-3.599 -8.857,-9.178 -10.132,-16.75 h -36.407 c 1.274,9.512 4.022,17.428 8.219,23.737" /></g><g
           transform="translate(649.6201,410.2531)"
           id="g24"><path
             id="path26"
             style="fill:#4c83cc;fill-opacity:1;fill-rule:nonzero;stroke:none"
             d="M 0,0 -41.598,-207.91 H -80.194 L -38.864,0 Z" /></g><g
           transform="translate(667.6357,361.5803)"
           id="g28"><path
             id="path30"
             style="fill:#2e4d7a;fill-opacity:1;fill-rule:nonzero;stroke:none"
             d="m 0,0 8.064,-18.638 -538.219,-142.253 v -12.618 L 10.55,-27.876 12.935,-48.02 36.773,-15.846 Z" /></g><g
           transform="translate(147.0654,192.8654)"
           id="g32"><path
             id="path34"
             style="fill:#7a7e80;fill-opacity:1;fill-rule:nonzero;stroke:none"
             d="M 0,0 V 160.026 H -9.585 V -9.588 h 528.094 v 9.579 z" /></g><g
           transform="translate(158.0361,325.2302)"
           id="g36"><path
             id="path38"
             style="fill:#68bceb;fill-opacity:1;fill-rule:nonzero;stroke:none"
             d="m 0,0 5.477,27.662 h 23.265 c 1.823,9.7 3.83,18.196 6.019,25.474 2.196,7.282 5.205,13.441 9.036,18.492 3.83,5.046 8.896,8.831 15.194,11.357 6.292,2.52 14.551,3.783 24.767,3.783 4.201,0 8.437,-0.19 12.732,-0.582 4.281,-0.387 8.526,-0.971 12.728,-1.743 L 103.193,54.74 c -2.013,0.192 -4.108,0.385 -6.293,0.583 -2.189,0.191 -4.295,0.292 -6.296,0.292 -4.928,0 -8.669,-0.63 -11.225,-1.895 -2.555,-1.261 -4.512,-3.11 -5.887,-5.534 -1.365,-2.429 -2.416,-5.338 -3.148,-8.734 -0.726,-3.4 -1.636,-7.33 -2.739,-11.79 H 95.254 L 89.779,0 H 61.868 L 37.5,-122.887 H -1.368 L 22.993,0 Z" /></g><g
           transform="translate(269.9868,376.1867)"
           id="g40"><path
             id="path42"
             style="fill:#68bceb;fill-opacity:1;fill-rule:nonzero;stroke:none"
             d="M 0,0 7.112,34.066 H 46.258 L 39.136,0 Z M 34.762,-23.295 4.651,-173.844 h -38.869 l 29.84,150.549 z" /></g><g
           transform="translate(352.6421,352.8918)"
           id="g44"><path
             id="path46"
             style="fill:#68bceb;fill-opacity:1;fill-rule:nonzero;stroke:none"
             d="M 0,0 -4.379,-20.97 H -3.83 C 8.759,-4.273 25.271,4.073 45.714,4.073 c 27.551,0 41.336,-13.491 41.336,-40.476 0,-1.553 -0.192,-3.544 -0.55,-5.971 -0.375,-2.426 -0.78,-4.897 -1.23,-7.417 -0.459,-2.532 -0.925,-4.908 -1.368,-7.136 -0.465,-2.236 -0.777,-4.038 -0.964,-5.394 L 65.421,-150.549 H 26.553 l 17.239,88.228 c 0.365,2.339 0.87,5.434 1.513,9.322 0.633,3.887 0.953,6.892 0.953,9.03 0,4.458 -1.962,8.148 -5.882,11.063 -3.928,2.909 -8.169,4.37 -12.731,4.37 -5.842,0 -10.997,-1.216 -15.465,-3.64 -4.469,-2.429 -8.304,-5.583 -11.497,-9.464 -3.193,-3.892 -5.838,-8.354 -7.933,-13.394 -2.102,-5.049 -3.697,-10.191 -4.795,-15.434 L -27.92,-150.549 H -66.512 L -37.228,0 Z" /></g></g></g></g></svg>