<?xml version="1.0" encoding="UTF-8" standalone="no"?>
<!-- Created with Inkscape (http://www.inkscape.org/) -->

<svg
   xmlns:dc="http://purl.org/dc/elements/1.1/"
   xmlns:cc="http://creativecommons.org/ns#"
   xmlns:rdf="http://www.w3.org/1999/02/22-rdf-syntax-ns#"
   xmlns:svg="http://www.w3.org/2000/svg"
   xmlns="http://www.w3.org/2000/svg"
   xmlns:sodipodi="http://sodipodi.sourceforge.net/DTD/sodipodi-0.dtd"
   xmlns:inkscape="http://www.inkscape.org/namespaces/inkscape"
   width="153.8817mm"
   height="90.124626mm"
   viewBox="0 0 153.8817 90.124626"
   version="1.1"
   id="svg8"
   inkscape:version="0.92.4 (5da689c313, 2019-01-14)">
  <defs
     id="defs2" />
  <sodipodi:namedview
     id="base"
     pagecolor="#ffffff"
     bordercolor="#666666"
     borderopacity="1.0"
     inkscape:pageopacity="0.0"
     inkscape:pageshadow="2"
     inkscape:zoom="0.88584867"
     inkscape:cx="234.24633"
     inkscape:cy="199.7907"
     inkscape:document-units="mm"
     inkscape:current-layer="layer1"
     showgrid="false"
     inkscape:window-width="1920"
     inkscape:window-height="1137"
     inkscape:window-x="-8"
     inkscape:window-y="311"
     inkscape:window-maximized="1" />
  <metadata
     id="metadata5">
    <rdf:RDF>
      <cc:Work
         rdf:about="">
        <dc:format>image/svg+xml</dc:format>
        <dc:type
           rdf:resource="http://purl.org/dc/dcmitype/StillImage" />
        <dc:title></dc:title>
      </cc:Work>
    </rdf:RDF>
  </metadata>
  <g
     inkscape:label="Layer 1"
     inkscape:groupmode="layer"
     id="layer1"
     transform="translate(-12.325049,-78.093747)">
    <path
       id="path884"
       style="fill:#01a7e5;stroke-width:0.08466667;fill-opacity:1"
       d="m 60.40164,166.25003 c 1.569743,-0.21027 4.716943,-0.79446 4.648532,-0.86287 -0.01162,-0.0116 -0.5162,-0.0832 -1.121291,-0.15913 -6.820202,-0.85554 -12.455149,-2.58722 -16.78445,-5.15803 -2.723479,-1.61725 -5.231068,-4.01093 -6.730484,-6.42475 -1.259032,-2.02685 -2.235716,-4.94191 -2.409102,-7.19034 -0.08119,-1.05287 -0.173747,-0.58165 -0.293003,1.49174 -0.227598,3.95705 0.316233,7.46254 1.577323,10.16728 2.292412,4.91667 6.888887,7.61212 14.073683,8.25304 1.260182,0.11241 5.902319,0.0353 7.038792,-0.11694 z m -5.616258,1.92463 c -1.750974,-0.14715 -3.827269,-0.53032 -5.493333,-1.01376 -2.225582,-0.64581 -5.26745,-2.03477 -6.593218,-3.01059 -3.166048,-2.33032 -5.079046,-6.35808 -5.705196,-12.01213 -0.196402,-1.77348 -0.194567,-5.44909 0.0036,-7.31692 0.07907,-0.74507 0.163429,-1.42134 0.187468,-1.50283 0.03783,-0.12824 0.156846,-0.14817 0.884667,-0.14817 h 0.840961 l 7.1e-5,1.03717 c 3.39e-4,4.75136 1.528221,8.55599 4.7041,11.71371 3.023397,3.00612 7.663136,5.36052 13.48631,6.84355 3.477317,0.88559 7.281637,1.47978 10.426853,1.62856 l 1.058333,0.05 1.481667,-0.48772 c 3.559971,-1.17186 7.365669,-2.72507 11.506081,-4.69595 1.546301,-0.73606 4.553602,-2.27562 5.605484,-2.86967 l 0.474556,-0.26801 2.814964,0.0223 2.814963,0.0223 -2.429543,1.26149 c -5.002149,2.59726 -10.757036,5.21666 -14.64796,6.66719 -0.699796,0.26088 -0.737693,0.28633 -0.465667,0.31265 0.697967,0.0676 5.060205,-0.32154 7.936772,-0.70792 8.678392,-1.16571 19.234125,-3.83707 27.573605,-6.97812 l 1.6016,-0.60323 0.85373,0.024 0.85375,0.024 -1.18534,0.5379 c -5.5879,2.53577 -13.1316,5.04026 -19.769662,6.56349 -6.884687,1.57982 -13.014206,2.35983 -19.473333,2.47808 l -2.751667,0.0504 -1.292171,0.37008 c -5.151928,1.47554 -8.98698,2.08013 -13.008927,2.05085 -1.075197,-0.008 -2.107302,-0.027 -2.293569,-0.0427 z" />
    <path
       id="path846"
       style="fill:#000000;stroke-width:0.08466667"
       d="m 109.09905,146.30051 v -2.9658 l 1.11224,0.0236 1.11225,0.0236 0.66421,2.24366 0.66422,2.24367 -0.0535,-2.26483 -0.0535,-2.26484 h 0.77468 0.77468 v 2.96334 2.96333 h -1.08423 -1.08424 l -0.62146,-2.05317 c -0.3418,-1.12924 -0.6534,-2.12936 -0.69244,-2.2225 -0.04,-0.0955 -0.0623,0.79966 -0.0511,2.05322 l 0.0199,2.22255 -0.74084,-5e-5 -0.74083,-5e-5 z m 54.33167,2.9979 c -0.0332,-0.0332 -0.0609,-0.76835 -0.0615,-1.63372 l -0.001,-1.57338 -1.09946,-1.30645 c -0.60471,-0.71855 -1.09946,-1.33767 -1.09946,-1.37583 0,-0.086 0.43397,-0.0896 0.55226,-0.005 0.0476,0.0342 0.49749,0.54798 0.99971,1.14171 0.50221,0.59372 0.93949,1.07646 0.97174,1.07274 0.0322,-0.004 0.47873,-0.50854 0.9922,-1.12183 0.80216,-0.95812 0.97199,-1.11881 1.2065,-1.14161 0.1501,-0.0146 0.27292,0.006 0.27292,0.0459 0,0.0398 -0.49445,0.66622 -1.09876,1.39199 l -1.09876,1.31959 -0.0231,1.59787 -0.0231,1.59787 -0.21483,0.025 c -0.11816,0.0138 -0.24199,-0.002 -0.27517,-0.0353 z m -8.63989,-0.004 c -0.031,-0.031 -0.0565,-1.38359 -0.0565,-3.00567 v -2.94922 h 0.207 c 0.16603,0 0.64344,0.50337 2.41174,2.54285 l 2.20473,2.54284 0.0224,-2.52168 0.0224,-2.52167 0.23283,-0.0268 0.23283,-0.0268 v 3.01129 3.01129 l -0.1905,-0.001 c -0.14379,-9.3e-4 -0.73024,-0.62471 -2.39183,-2.54396 l -2.20133,-2.54267 -0.0224,2.54395 -0.0224,2.54395 h -0.19632 c -0.10797,0 -0.22171,-0.0254 -0.25275,-0.0564 z m -2.8501,-2.54705 c 0,-0.076 -1.12514,-2.56736 -1.14694,-2.53872 -0.0409,0.0537 -1.13941,2.52006 -1.13941,2.55815 0,0.0242 0.51435,0.0441 1.143,0.0441 0.62865,0 1.14316,-0.0286 1.14335,-0.0635 z m -3.97968,2.54406 c 0,-0.0386 0.60305,-1.38404 1.34013,-2.98987 1.03014,-2.24433 1.37775,-2.92499 1.50283,-2.94258 0.13708,-0.0193 0.36789,0.42635 1.46556,2.82954 0.71656,1.56884 1.32108,2.92216 1.34337,3.00739 0.0325,0.12443 -0.009,0.15496 -0.21049,0.15496 -0.23919,0 -0.27239,-0.048 -0.70442,-1.01793 l -0.45341,-1.01793 -1.43882,0.0231 -1.43883,0.0231 -0.44622,0.97367 c -0.41482,0.90518 -0.46427,0.97553 -0.70296,1.0002 -0.14121,0.0146 -0.25674,-0.005 -0.25674,-0.0436 z m -1.23434,-3.25102 c 0.1826,-0.0507 0.43978,-0.19995 0.5715,-0.33168 0.20422,-0.20422 0.23951,-0.30739 0.23951,-0.70026 0,-0.85333 -0.44796,-1.16094 -1.69062,-1.16094 h -0.76472 v 1.143 1.143 l 0.65617,-8.4e-4 c 0.36089,0 0.80556,-0.042 0.98816,-0.0926 z m -2.15233,0.29841 v -3.0233 l 1.12184,0.0435 c 1.18325,0.0459 1.61045,0.15567 1.99942,0.5137 0.70173,0.64593 0.52489,1.95836 -0.32726,2.4288 -0.32791,0.18103 -0.51342,0.21474 -1.33144,0.24191 l -0.95045,0.0316 -0.0232,1.36677 -0.0232,1.36675 -0.23283,0.0268 -0.23284,0.0268 z m -7.17658,0.0276 0.0223,-2.9845 0.21705,-0.0253 c 0.1881,-0.0219 0.36078,0.14996 1.29432,1.28812 0.5925,0.72236 1.10798,1.33236 1.14549,1.35556 0.0375,0.0232 0.44569,-0.4223 0.90702,-0.98996 1.22884,-1.51209 1.38183,-1.67079 1.61064,-1.67079 h 0.20181 v 3.01129 3.01129 l -0.23283,-0.0268 -0.23283,-0.0268 -0.0423,-2.54 -0.0423,-2.54 -1.04,1.29117 c -0.572,0.71014 -1.0673,1.29058 -1.10067,1.28987 -0.0334,-8.5e-4 -0.53691,-0.5938 -1.119,-1.31798 l -1.05833,-1.31668 -0.0224,2.58798 -0.0224,2.58798 h -0.25386 -0.25386 z m -3.6515,2.34587 c 0.51698,-0.17098 0.99741,-0.59459 1.30578,-1.15133 0.2264,-0.40875 0.2513,-0.52922 0.2513,-1.21571 0,-0.68649 -0.0249,-0.80696 -0.2513,-1.21571 -0.48904,-0.88293 -1.28246,-1.32592 -2.34962,-1.31184 -1.4007,0.0185 -2.45556,1.10425 -2.45556,2.52755 0,1.84424 1.66825,2.97267 3.4994,2.36704 z m -2.14876,0.43372 c -1.30719,-0.53754 -1.98827,-1.60914 -1.90768,-3.00145 0.0913,-1.5771 1.28237,-2.71637 2.91728,-2.79042 1.5651,-0.0709 2.72097,0.69318 3.16152,2.08986 0.0933,0.29595 0.16972,0.70151 0.16972,0.90125 0,0.521 -0.29298,1.37641 -0.62582,1.82718 -0.34298,0.46452 -0.94704,0.88215 -1.52355,1.05336 -0.65568,0.19471 -1.6083,0.16003 -2.19147,-0.0798 z m -6.21981,0.0439 c -0.76403,-0.28286 -1.40888,-0.876 -1.74672,-1.60666 -0.2697,-0.58329 -0.25974,-1.92148 0.0185,-2.48402 0.52474,-1.06091 1.49303,-1.69421 2.67295,-1.74824 0.68324,-0.0313 1.35411,0.0743 1.93242,0.30412 0.27784,0.1104 0.3175,0.16129 0.3175,0.40737 v 0.28121 l -0.49438,-0.20089 c -0.27191,-0.11048 -0.74622,-0.24473 -1.05402,-0.29834 -1.63015,-0.28388 -3.02429,0.81605 -3.05282,2.40856 -0.0199,1.11068 0.42992,1.89339 1.34779,2.34525 0.50536,0.24879 0.63963,0.2779 1.25354,0.27175 0.65874,-0.007 0.85917,-0.0577 1.94261,-0.49562 0.13363,-0.054 0.1507,-0.0245 0.127,0.21953 -0.025,0.25698 -0.0724,0.30055 -0.53538,0.49209 -0.70762,0.2927 -2.07805,0.34488 -2.72899,0.10389 z m -35.701689,-1.71976 c 0.02146,-1.03781 0.06091,-2.39176 0.08768,-3.00876 l 0.04868,-1.12184 h 1.212266 1.212265 l 0.04731,0.23284 c 0.02602,0.12805 0.182288,1.09008 0.347269,2.13783 0.290728,1.84641 0.36018,2.20866 0.374193,1.95175 0.0077,-0.14197 0.580407,-3.74233 0.650485,-4.08958 l 0.04698,-0.23284 h 1.212139 1.212138 l 0.04878,1.2065 c 0.02682,0.66358 0.06684,2.01613 0.08893,3.00567 l 0.04015,1.79917 H 95.50679 94.708281 l -0.02244,-2.47392 -0.02245,-2.47392 -0.278909,1.52142 c -0.153399,0.83678 -0.358995,1.95004 -0.456878,2.47392 l -0.177978,0.9525 H 92.967848 92.18607 l -0.224909,-1.2065 c -0.123698,-0.66358 -0.334137,-1.778 -0.467622,-2.4765 l -0.242723,-1.27 -0.02938,2.45533 -0.02938,2.45533 -0.777503,0.0243 -0.777502,0.0243 z m -5.97673,1.73257 c 0,-0.16474 0.996053,-5.5898 1.05675,-5.75733 0.02842,-0.0785 0.37791,-0.10584 1.35172,-0.10584 1.292606,0 1.314069,0.003 1.357148,0.1905 0.06474,0.2818 1.06012,5.69633 1.06012,5.76673 0,0.0331 -0.371475,0.0493 -0.8255,0.036 l -0.8255,-0.0242 -0.382998,-2.61631 -0.38299,-2.61631 -0.36405,2.44698 c -0.200228,1.34584 -0.384437,2.5327 -0.409346,2.63748 -0.043,0.18081 -0.08572,0.1905 -0.840461,0.1905 -0.700947,0 -0.795121,-0.0176 -0.794893,-0.14817 z M 73.186268,146.7417 c -0.209702,-0.51408 -1.135973,-2.47041 -1.169086,-2.46921 -0.02446,9.3e-4 -0.165963,0.27712 -0.314452,0.61384 -0.148488,0.33672 -0.404706,0.90749 -0.569358,1.26838 l -0.299381,0.65617 h 1.190252 c 0.654635,0 1.177553,-0.0311 1.162025,-0.0692 z m -3.982612,2.56356 c -0.02509,-0.0251 0.566483,-1.37932 1.314605,-3.00941 1.130748,-2.46382 1.386806,-2.95959 1.517844,-2.93888 0.117678,0.0186 0.499889,0.77169 1.507626,2.9706 0.742493,1.62013 1.349984,2.96557 1.349984,2.98986 0,0.0243 -0.121674,0.0322 -0.270383,0.0177 -0.256701,-0.0252 -0.292684,-0.0758 -0.711005,-1.0002 l -0.440614,-0.97367 -1.432221,-0.0231 -1.432221,-0.0231 -0.475615,1.01793 c -0.414113,0.8863 -0.501915,1.01793 -0.679,1.01793 -0.111862,0 -0.223911,-0.0205 -0.249,-0.0456 z m 47.962484,0.13016 c -0.63577,-0.0941 -1.18805,-0.44354 -1.38434,-0.87584 -0.14073,-0.30992 -0.15992,-0.57233 -0.16156,-2.20881 -0.002,-1.71459 0.0118,-1.88523 0.1756,-2.22369 0.27752,-0.57328 0.76383,-0.8151 1.72336,-0.85694 0.43055,-0.0188 0.92591,0.01 1.13082,0.0649 0.74373,0.20049 1.25968,0.94071 1.18708,1.70311 l -0.0277,0.29107 h -0.762 -0.762 l -0.0469,-0.40807 c -0.0258,-0.22443 -0.10198,-0.44292 -0.16933,-0.48553 -0.20852,-0.13192 -0.58005,-0.0881 -0.75745,0.0893 -0.15796,0.15795 -0.16934,0.28222 -0.16934,1.84954 0,1.52023 0.0147,1.69355 0.15483,1.82033 0.18879,0.17085 0.60206,0.18211 0.82053,0.0224 0.12501,-0.0914 0.16861,-0.25124 0.19475,-0.71401 l 0.0337,-0.59624 -0.32673,-0.0268 -0.32673,-0.0268 v -0.42333 -0.42334 l 1.0795,-0.0237 1.0795,-0.0237 v 1.02987 c 0,0.56643 -0.0446,1.17856 -0.099,1.36029 -0.24332,0.81213 -1.33655,1.27119 -2.58658,1.08611 z m -12.82083,-0.0481 c -0.46841,-0.14421 -0.87251,-0.56561 -1.0014,-1.04431 -0.0556,-0.20642 -0.081,-1.21134 -0.0671,-2.64694 l 0.0225,-2.31418 h 0.762 0.762 l 0.0423,2.40982 0.0423,2.40983 0.22495,0.12619 c 0.28595,0.1604 0.62879,0.0263 0.75042,-0.29365 0.0466,-0.12252 0.083,-1.19975 0.083,-2.45637 v -2.23816 h 0.762 0.762 l -8.4e-4,2.39184 c 0,1.3155 -0.038,2.52687 -0.0838,2.69192 -0.10775,0.38783 -0.53813,0.80119 -1.00615,0.96631 -0.46129,0.16275 -1.52233,0.16156 -2.05461,-0.002 z m -5.135057,0.12555 c -0.246651,-0.0424 -0.551451,-0.13065 -0.677333,-0.19615 -0.53456,-0.27813 -0.863871,-0.8773 -0.863871,-1.57178 v -0.42605 h 0.804333 0.804333 v 0.36216 c 0,0.47198 0.187071,0.7385 0.518364,0.7385 0.423631,0 0.582301,-0.13491 0.582301,-0.49514 0,-0.3986 -0.22281,-0.62529 -1.100665,-1.11988 -1.279618,-0.72094 -1.558281,-1.06175 -1.550433,-1.89618 0.0108,-1.14761 0.664642,-1.6543 2.132576,-1.65263 0.985032,0.001 1.547482,0.24619 1.789682,0.77984 0.0905,0.19928 0.1653,0.5433 0.16631,0.76449 l 0.002,0.40217 h -0.75714 -0.75713 l -0.026,-0.35714 c -0.021,-0.28775 -0.0713,-0.38233 -0.25887,-0.48683 -0.209086,-0.11646 -0.256584,-0.11647 -0.465668,-6e-5 -0.161993,0.0902 -0.240648,0.20912 -0.258521,0.39084 -0.03152,0.32053 0.223596,0.55725 1.092739,1.01398 0.82776,0.43497 1.40283,0.96901 1.52283,1.41419 0.11048,0.40983 0.0445,1.1501 -0.1331,1.49356 -0.35531,0.68709 -1.42545,1.03822 -2.566577,0.84211 z m -19.505727,-0.0206 c -0.847462,-0.23985 -1.254811,-0.77776 -1.254811,-1.65697 v -0.51637 h 0.804334 0.804333 v 0.36216 c 0,0.50586 0.18288,0.7385 0.580534,0.7385 0.39867,0 0.520133,-0.12054 0.520133,-0.51616 0,-0.38221 -0.265032,-0.63797 -1.171135,-1.13013 -0.83621,-0.45419 -1.241984,-0.81984 -1.416262,-1.27619 -0.166404,-0.43572 -0.129607,-1.05604 0.08756,-1.47599 0.531114,-1.02707 3.007029,-1.1279 3.718593,-0.15145 0.115833,0.15897 0.181526,0.40953 0.205317,0.78317 l 0.03498,0.54942 h -0.771863 -0.771864 v -0.32554 c 0,-0.37823 -0.199017,-0.60579 -0.529785,-0.60579 -0.287875,0 -0.486215,0.20662 -0.486215,0.50651 0,0.3027 0.279493,0.54522 1.183327,1.0268 1.341628,0.71485 1.745056,1.4401 1.431256,2.57302 -0.136915,0.49432 -0.359088,0.7602 -0.814104,0.97428 -0.501083,0.23574 -1.571549,0.30567 -2.154335,0.14073 z" />
    <path
       id="path832"
       style="fill:#006498;stroke-width:0.08466667;fill-opacity:1"
       d="m 146.05278,136.2065 c -0.0222,-0.0582 -0.0305,-4.84929 -0.0185,-10.64684 l 0.0218,-10.54099 1.40802,-0.0232 1.40802,-0.0232 7.37471,7.42107 7.37472,7.42106 0.0226,-7.07153 c 0.0222,-6.93359 0.0259,-7.07518 0.19173,-7.2584 0.32892,-0.3634 0.62903,-0.45399 1.5242,-0.4601 l 0.84667,-0.006 v 10.62566 10.62567 l -0.8414,-0.0157 c -0.54221,-0.0101 -0.9712,-0.0653 -1.20645,-0.15515 -0.2988,-0.11412 -1.03652,-0.83346 -4.06483,-3.9636 -2.03489,-2.1033 -4.25502,-4.39569 -4.93363,-5.09419 -0.67862,-0.6985 -1.80456,-1.86009 -2.50211,-2.58131 -0.69754,-0.72122 -1.83975,-1.89403 -2.53825,-2.60625 -0.6985,-0.71222 -1.2827,-1.33181 -1.29822,-1.37686 -0.15432,-0.4479 -0.18345,0.80257 -0.18345,7.87675 v 7.95867 h -1.27266 c -0.94019,0 -1.28318,-0.0277 -1.31294,-0.10583 z m -27.80973,0.0703 c 0,-0.0365 9.82715,-18.85157 10.89485,-20.85932 l 0.46326,-0.87115 0.67809,0.0245 0.6781,0.0245 5.49359,10.75266 c 3.02146,5.91396 5.49475,10.80467 5.49618,10.86824 0.004,0.17336 -3.27897,0.0923 -3.79086,-0.0936 -0.5577,-0.20254 -1.00154,-0.54971 -1.3137,-1.02757 -0.15583,-0.23856 -1.9181,-3.64366 -3.91613,-7.56691 -1.99804,-3.92324 -3.65791,-7.13316 -3.68862,-7.13316 -0.0539,0 -3.62876,6.78966 -3.62876,6.89207 0,0.0278 1.29513,0.0506 2.87806,0.0506 h 2.87806 l 0.55113,1.09985 0.55114,1.09984 -4.04239,0.022 -4.04239,0.022 -1.7475,3.34433 -1.74751,3.34434 -1.3223,0.0233 c -0.72726,0.0128 -1.3223,0.005 -1.3223,-0.0165 z m -30.270655,-0.0679 c -0.02268,-0.0596 -0.03144,-4.85176 -0.01946,-10.64931 l 0.02178,-10.54099 2.148544,-0.0226 c 1.360128,-0.0143 2.186466,0.009 2.251879,0.0631 0.05683,0.0472 2.061786,3.56986 4.455457,7.82822 3.263025,5.80495 4.375715,7.71721 4.446405,7.64155 0.0519,-0.0555 2.00999,-3.57817 4.35141,-7.82815 l 4.25713,-7.72724 2.16792,0.0226 2.16792,0.0226 v 10.62567 10.62567 l -1.143,-0.003 c -0.6417,-0.002 -1.33565,-0.0514 -1.58226,-0.11302 -0.63474,-0.15855 -1.15624,-0.52103 -1.43715,-0.99894 l -0.24025,-0.40873 -0.0423,-7.3365 -0.0423,-7.33649 -4.49891,8.09849 -4.49891,8.0985 -0.58669,0.0246 -0.586676,0.0246 -4.608737,-8.15094 -4.608745,-8.15093 -0.04233,8.12637 -0.04233,8.12638 -1.123543,0.0236 c -0.852052,0.0179 -1.133509,-0.003 -1.164777,-0.0847 z M 72.763383,124.63657 c 1.091413,-0.32039 2.070253,-0.92274 2.628689,-1.61765 1.001733,-1.24652 1.030021,-3.06529 0.06797,-4.3706 -0.41109,-0.55778 -0.742383,-0.83491 -1.390404,-1.16308 -0.846404,-0.42864 -1.269907,-0.49527 -3.430423,-0.53971 l -2.010833,-0.0414 v 3.99864 3.99864 l 1.756833,-0.0412 c 1.467282,-0.0345 1.859238,-0.0713 2.378168,-0.22364 z m -8.622334,1.00147 v -10.67702 l 4.847166,0.0377 c 3.987462,0.031 5.004842,0.0628 5.736167,0.1795 3.231701,0.51548 5.336303,1.88616 5.999903,3.90762 0.408856,1.24548 0.317187,2.5411 -0.261611,3.69751 -0.686461,1.37149 -2.086746,2.44015 -4.087292,3.11929 -0.372533,0.12647 -0.671381,0.2564 -0.664108,0.28875 0.0073,0.0323 1.883706,2.29878 4.169833,5.03652 2.286135,2.73774 4.156608,5.00602 4.156608,5.04063 0,0.0346 -0.923925,0.0438 -2.053166,0.0204 -2.194484,-0.0454 -2.623321,-0.11181 -3.303186,-0.51155 -0.598466,-0.35189 -1.057901,-0.8714 -4.524451,-5.11595 l -3.336967,-4.08588 h -1.095086 -1.09509 l -0.02186,4.84717 -0.02186,4.84717 -2.2225,0.0226 -2.2225,0.0226 z m -27.855334,10.58053 c 0,-0.054 2.543175,-4.95077 5.6515,-10.88182 l 5.6515,-10.78372 0.677334,10e-4 0.677333,0.001 1.671805,3.27964 c 0.919492,1.8038 3.404868,6.67053 5.523057,10.81497 2.118189,4.14443 3.851902,7.5639 3.852695,7.59883 0.0022,0.0957 -2.756155,0.075 -3.374282,-0.0253 -1.290891,-0.20947 -1.485456,-0.44293 -3.218883,-3.86242 l -1.409139,-2.77979 -4.04146,-0.022 c -2.222803,-0.0121 -4.04146,-0.0426 -4.04146,-0.0679 0,-0.0252 0.250929,-0.52016 0.55762,-1.09984 l 0.557621,-1.05398 h 2.904217 2.904217 l -1.105306,-2.18016 c -0.607919,-1.19909 -1.417317,-2.78194 -1.798664,-3.51744 l -0.693356,-1.33727 -4.182008,7.9836 -4.182007,7.98361 -1.291167,0.0234 c -0.935634,0.0169 -1.291167,-0.004 -1.291167,-0.0747 z M 12.325049,125.64426 v -10.67081 l 2.2225,0.0226 2.2225,0.0226 0.02188,4.72017 0.02188,4.72017 h 5.417245 5.417245 l 0.02188,-4.72017 0.02188,-4.72017 2.2225,-0.0226 2.2225,-0.0226 v 10.68091 10.68091 l -1.248834,-0.0459 c -1.54405,-0.0567 -2.003977,-0.18383 -2.565731,-0.70929 -0.681234,-0.63721 -0.672769,-0.57219 -0.672769,-5.16729 v -4.00658 h -5.417984 -5.417984 l -0.02185,4.93183 -0.02185,4.93184 -2.2225,0.0226 -2.2225,0.0226 z" />
    <path
       id="path826"
       style="fill:#01a7e5;stroke-width:0.08466667;fill-opacity:1"
       d="m 62.099613,101.77168 c 5.355281,-2.496031 12.299497,-4.967498 18.890102,-6.723044 8.915392,-2.374799 16.322557,-3.555413 25.315335,-4.034963 2.09963,-0.111965 7.81371,-0.112182 9.69433,-3.38e-4 4.44514,0.264288 8.4033,0.828911 12.2264,1.744066 0.67086,0.160586 1.23873,0.27299 1.26193,0.249786 0.0232,-0.0232 -0.0456,-0.374332 -0.15279,-0.780284 -1.40188,-5.306682 -6.00008,-8.714251 -13.16631,-9.757114 -9.32684,-1.357284 -22.800128,1.698084 -36.652154,8.311692 -6.644496,3.172369 -13.558086,7.33105 -19.862741,11.947859 -1.115552,0.81691 -1.111325,0.82701 0.08467,0.20236 0.582083,-0.30401 1.644637,-0.82602 2.361231,-1.16002 z m -9.811856,4.75909 c 2.3e-5,-0.0349 0.198937,-0.23495 0.442032,-0.4445 11.456102,-9.875282 24.731104,-17.885065 37.784926,-22.798416 7.210874,-2.714112 13.665015,-4.315429 20.277665,-5.031028 2.00966,-0.217478 7.22488,-0.217426 8.97467,8.4e-5 5.53328,0.687843 9.64167,2.41183 12.64699,5.307003 1.45126,1.398081 2.46438,2.864961 3.15798,4.572424 0.74519,1.834445 1.0437,3.510604 1.0437,5.860537 v 1.562548 l 1.13734,0.558787 c 4.25676,2.091389 7.65866,4.953821 9.83419,8.274721 0.52186,0.79662 1.21698,2.01541 1.21927,2.13783 8.5e-4,0.0349 -0.61793,0.0629 -1.37464,0.0622 l -1.37583,-0.001 -0.508,-0.78162 c -2.13909,-3.29124 -4.56244,-5.60017 -8.12717,-7.743414 -0.87302,-0.524892 -1.0249,-0.590753 -1.07391,-0.465667 -0.0314,0.08013 -0.15884,0.621941 -0.28322,1.204025 -0.46537,2.177856 -1.30545,4.587376 -2.57552,7.387166 l -0.18244,0.40217 h -3.08637 c -1.69751,0 -3.08637,-0.0326 -3.08637,-0.0724 0,-0.0398 0.24272,-0.67802 0.53938,-1.41817 1.35293,-3.37549 1.96416,-6.024864 2.05969,-8.927659 l 0.0489,-1.485922 -1.26048,-0.353481 c -5.0166,-1.406811 -10.18094,-2.08063 -16.79682,-2.191574 -12.169619,-0.204075 -25.232161,1.860674 -37.527844,5.931889 -3.617561,1.19781 -8.351973,3.011167 -11.282494,4.321397 -1.436296,0.64216 -4.842952,2.36855 -6.83503,3.46379 l -1.331697,0.73216 h -1.22947 c -0.676208,0 -1.229451,-0.0286 -1.229428,-0.0635 z" />
  </g>
</svg>
