<?xml version="1.0" encoding="UTF-8" standalone="no"?>
<!-- Created with Inkscape (http://www.inkscape.org/) -->

<svg
   xmlns:dc="http://purl.org/dc/elements/1.1/"
   xmlns:cc="http://creativecommons.org/ns#"
   xmlns:rdf="http://www.w3.org/1999/02/22-rdf-syntax-ns#"
   xmlns:svg="http://www.w3.org/2000/svg"
   xmlns="http://www.w3.org/2000/svg"
   xmlns:sodipodi="http://sodipodi.sourceforge.net/DTD/sodipodi-0.dtd"
   xmlns:inkscape="http://www.inkscape.org/namespaces/inkscape"
   width="101.87945mm"
   height="101.87945mm"
   viewBox="0 0 101.87945 101.87945"
   version="1.1"
   id="svg8"
   inkscape:version="0.92.3 (2405546, 2018-03-11)"
   sodipodi:docname="drawing.svg">
  <defs
     id="defs2">
    <clipPath
       id="clipPath831"
       clipPathUnits="userSpaceOnUse">
      <path
         inkscape:connector-curvature="0"
         id="path829"
         d="M 0,0 H 612 V 572.002 H 0 Z" />
    </clipPath>
    <clipPath
       id="clipPath851"
       clipPathUnits="userSpaceOnUse">
      <path
         inkscape:connector-curvature="0"
         id="path849"
         d="m 461.767,641.633 h 97.221 v 97.221 h -97.221 z" />
    </clipPath>
  </defs>
  <sodipodi:namedview
     id="base"
     pagecolor="#ffffff"
     bordercolor="#666666"
     borderopacity="1.0"
     inkscape:pageopacity="0.0"
     inkscape:pageshadow="2"
     inkscape:zoom="0.7"
     inkscape:cx="-62.445396"
     inkscape:cy="68.358014"
     inkscape:document-units="mm"
     inkscape:current-layer="layer1"
     showgrid="false"
     inkscape:window-width="1920"
     inkscape:window-height="1137"
     inkscape:window-x="-8"
     inkscape:window-y="311"
     inkscape:window-maximized="1" />
  <metadata
     id="metadata5">
    <rdf:RDF>
      <cc:Work
         rdf:about="">
        <dc:format>image/svg+xml</dc:format>
        <dc:type
           rdf:resource="http://purl.org/dc/dcmitype/StillImage" />
        <dc:title></dc:title>
      </cc:Work>
    </rdf:RDF>
  </metadata>
  <g
     inkscape:label="Layer 1"
     inkscape:groupmode="layer"
     id="layer1"
     transform="translate(-55.199065,-38.298338)">
    <g
       id="g845"
       transform="matrix(1.0619633,0,0,-1.0619633,-435.92689,822.11614)">
      <g
         id="g847"
         clip-path="url(#clipPath851)">
        <g
           id="g853"
           transform="translate(531.8168,704.7797)">
          <path
             d="m 0,0 -10.695,-29.334 h 7.638 L 7.647,0 Z m 26.588,-14.671 c 0,26.498 -21.486,47.975 -47.976,47.975 -0.71,0 -1.437,-0.017 -2.156,-0.04 L -33.355,6.277 h 8.548 c 5.077,0 7.832,-3.905 6.087,-8.679 l -12.105,-33.262 h -10.163 l 12.982,35.644 h -7.63 l -12.986,-35.644 h -10.175 l 15.27,41.941 9.193,25.262 c -20.204,-5.664 -35.013,-24.203 -35.013,-46.21 0,-22.652 15.712,-41.642 36.831,-46.654 l 8.892,24.458 h 0.019 L -7.911,6.277 h 18.723 c 5.089,0 7.824,-3.905 6.079,-8.679 L 6.266,-31.627 c -0.811,-2.226 -3.414,-4.037 -5.785,-4.037 h -13.486 l -9.806,-26.946 c 0.475,-0.018 0.956,-0.021 1.423,-0.021 26.49,0 47.976,21.472 47.976,47.96"
             style="fill:#00a1dd;fill-opacity:1;fill-rule:nonzero;stroke:none"
             id="path855"
             inkscape:connector-curvature="0" />
        </g>
      </g>
    </g>
  </g>
</svg>
