<?xml version="1.0" encoding="UTF-8" standalone="no"?>
<svg
   xmlns:dc="http://purl.org/dc/elements/1.1/"
   xmlns:cc="http://creativecommons.org/ns#"
   xmlns:rdf="http://www.w3.org/1999/02/22-rdf-syntax-ns#"
   xmlns:svg="http://www.w3.org/2000/svg"
   xmlns="http://www.w3.org/2000/svg"
   id="svg400"
   version="1.2"
   viewBox="0 0 512.87073 86.660155"
   height="86.660156pt"
   width="512.87073pt">
  <metadata
     id="metadata404">
    <rdf:RDF>
      <cc:Work
         rdf:about="">
        <dc:format>image/svg+xml</dc:format>
        <dc:type
           rdf:resource="http://purl.org/dc/dcmitype/StillImage" />
        <dc:title></dc:title>
      </cc:Work>
    </rdf:RDF>
  </metadata>
  <defs
     id="defs383">
    <clipPath
       id="clip1">
      <path
         id="path2"
         d="m 36,265 h 183 v 87 H 36 Z m 0,0" />
    </clipPath>
    <clipPath
       id="clip2">
      <path
         id="path5"
         d="m 149.39844,274.99219 c -6.65235,5.61328 -17.25782,16.98047 -17.25782,16.98047 l 12.47657,11.78125 c 0,0 15.72265,-22.26563 32.23047,-21.14063 13.86718,0.94922 25.98828,12.02344 25.98828,25.59375 0,13.56641 -8.35157,26.39063 -26.6836,26.39063 0,0 -11.57422,1.3164 -24.05078,-13.44532 l -44.49609,-44.5 c 0,0 -10.500001,-11.53906 -32.125001,-10.5 -21.625,1.03907 -40.859375,21.52344 -39.402344,45.01953 1.453125,23.49219 21,39.92188 39.296875,40.33594 18.300781,0.41797 28.48828,-7.07031 34.10156,-13.09765 l 7.48438,6.65234 V 319.28125 H 91.59375 l 6.238281,6.65234 c 0,0 -3.949218,8.52344 -19.128906,8.52344 -15.179687,0 -26.199219,-12.47266 -25.160156,-26.61328 1.039062,-14.14063 10.605469,-24.53516 26.199219,-24.95313 0,0 12.476562,-1.24609 25.785152,15.38672 l 39.08985,39.50782 c 0,0 12.47656,14.10546 33.26953,13.92578 22.24609,-0.19922 42.625,-22.86719 40.96094,-44.49219 -1.66407,-21.62109 -15.17969,-36.17969 -31.19141,-40.12891 -3.51172,-0.86718 -7.00391,-1.24218 -10.38672,-1.24218 -12.03516,0 -22.67578,4.76171 -27.87109,9.14453" />
    </clipPath>
    <linearGradient
       gradientTransform="matrix(182.94318,0,0,182.94318,35.999985,351.71059)"
       y2="0"
       x2="1.008576"
       y1="0"
       x1="-0.0075323102"
       gradientUnits="userSpaceOnUse"
       id="linear0">
      <stop
         id="stop8"
         style="stop-color:rgb(79.138184%,3.459167%,55.322266%);stop-opacity:1;"
         offset="0" />
      <stop
         id="stop10"
         style="stop-color:rgb(79.138184%,3.459167%,55.322266%);stop-opacity:1;"
         offset="0.125" />
      <stop
         id="stop12"
         style="stop-color:rgb(79.138184%,3.459167%,55.322266%);stop-opacity:1;"
         offset="0.1875" />
      <stop
         id="stop14"
         style="stop-color:rgb(79.138184%,3.459167%,55.322266%);stop-opacity:1;"
         offset="0.195312" />
      <stop
         id="stop16"
         style="stop-color:rgb(78.968811%,3.884888%,55.509949%);stop-opacity:1;"
         offset="0.199219" />
      <stop
         id="stop18"
         style="stop-color:rgb(78.799438%,4.310608%,55.697632%);stop-opacity:1;"
         offset="0.203125" />
      <stop
         id="stop20"
         style="stop-color:rgb(78.593445%,4.823303%,55.924988%);stop-opacity:1;"
         offset="0.207031" />
      <stop
         id="stop22"
         style="stop-color:rgb(78.385925%,5.332947%,56.150818%);stop-opacity:1;"
         offset="0.210937" />
      <stop
         id="stop24"
         style="stop-color:rgb(78.179932%,5.84259%,56.378174%);stop-opacity:1;"
         offset="0.214844" />
      <stop
         id="stop26"
         style="stop-color:rgb(77.970886%,6.350708%,56.604004%);stop-opacity:1;"
         offset="0.21875" />
      <stop
         id="stop28"
         style="stop-color:rgb(77.761841%,6.8573%,56.829834%);stop-opacity:1;"
         offset="0.222656" />
      <stop
         id="stop30"
         style="stop-color:rgb(77.55127%,7.363892%,57.055664%);stop-opacity:1;"
         offset="0.226562" />
      <stop
         id="stop32"
         style="stop-color:rgb(77.342224%,7.867432%,57.281494%);stop-opacity:1;"
         offset="0.230469" />
      <stop
         id="stop34"
         style="stop-color:rgb(77.130127%,8.36792%,57.505798%);stop-opacity:1;"
         offset="0.234375" />
      <stop
         id="stop36"
         style="stop-color:rgb(76.91803%,8.868408%,57.730103%);stop-opacity:1;"
         offset="0.238281" />
      <stop
         id="stop38"
         style="stop-color:rgb(76.705933%,9.367371%,57.954407%);stop-opacity:1;"
         offset="0.242187" />
      <stop
         id="stop40"
         style="stop-color:rgb(76.49231%,9.864807%,58.178711%);stop-opacity:1;"
         offset="0.246094" />
      <stop
         id="stop42"
         style="stop-color:rgb(76.278687%,10.360718%,58.403015%);stop-opacity:1;"
         offset="0.25" />
      <stop
         id="stop44"
         style="stop-color:rgb(76.063538%,10.855103%,58.627319%);stop-opacity:1;"
         offset="0.253906" />
      <stop
         id="stop46"
         style="stop-color:rgb(75.846863%,11.347961%,58.850098%);stop-opacity:1;"
         offset="0.257813" />
      <stop
         id="stop48"
         style="stop-color:rgb(75.631714%,11.839294%,59.072876%);stop-opacity:1;"
         offset="0.261719" />
      <stop
         id="stop50"
         style="stop-color:rgb(75.413513%,12.329102%,59.29718%);stop-opacity:1;"
         offset="0.265625" />
      <stop
         id="stop52"
         style="stop-color:rgb(75.195313%,12.817383%,59.519958%);stop-opacity:1;"
         offset="0.269531" />
      <stop
         id="stop54"
         style="stop-color:rgb(74.977112%,13.304138%,59.742737%);stop-opacity:1;"
         offset="0.273437" />
      <stop
         id="stop56"
         style="stop-color:rgb(74.757385%,13.789368%,59.963989%);stop-opacity:1;"
         offset="0.277344" />
      <stop
         id="stop58"
         style="stop-color:rgb(74.536133%,14.271545%,60.185242%);stop-opacity:1;"
         offset="0.28125" />
      <stop
         id="stop60"
         style="stop-color:rgb(74.316406%,14.753723%,60.40802%);stop-opacity:1;"
         offset="0.285156" />
      <stop
         id="stop62"
         style="stop-color:rgb(74.093628%,15.235901%,60.629272%);stop-opacity:1;"
         offset="0.289062" />
      <stop
         id="stop64"
         style="stop-color:rgb(73.87085%,15.715027%,60.850525%);stop-opacity:1;"
         offset="0.292969" />
      <stop
         id="stop66"
         style="stop-color:rgb(73.646545%,16.192627%,61.071777%);stop-opacity:1;"
         offset="0.296875" />
      <stop
         id="stop68"
         style="stop-color:rgb(73.423767%,16.668701%,61.29303%);stop-opacity:1;"
         offset="0.300781" />
      <stop
         id="stop70"
         style="stop-color:rgb(73.197937%,17.141724%,61.512756%);stop-opacity:1;"
         offset="0.304687" />
      <stop
         id="stop72"
         style="stop-color:rgb(72.973633%,17.614746%,61.732483%);stop-opacity:1;"
         offset="0.308594" />
      <stop
         id="stop74"
         style="stop-color:rgb(72.746277%,18.086243%,61.952209%);stop-opacity:1;"
         offset="0.3125" />
      <stop
         id="stop76"
         style="stop-color:rgb(72.518921%,18.556213%,62.171936%);stop-opacity:1;"
         offset="0.316406" />
      <stop
         id="stop78"
         style="stop-color:rgb(72.290039%,19.024658%,62.391663%);stop-opacity:1;"
         offset="0.320312" />
      <stop
         id="stop80"
         style="stop-color:rgb(72.062683%,19.493103%,62.611389%);stop-opacity:1;"
         offset="0.324219" />
      <stop
         id="stop82"
         style="stop-color:rgb(71.832275%,19.95697%,62.82959%);stop-opacity:1;"
         offset="0.328125" />
      <stop
         id="stop84"
         style="stop-color:rgb(71.603394%,20.420837%,63.047791%);stop-opacity:1;"
         offset="0.332031" />
      <stop
         id="stop86"
         style="stop-color:rgb(71.37146%,20.883179%,63.267517%);stop-opacity:1;"
         offset="0.335937" />
      <stop
         id="stop88"
         style="stop-color:rgb(71.139526%,21.343994%,63.485718%);stop-opacity:1;"
         offset="0.339844" />
      <stop
         id="stop90"
         style="stop-color:rgb(70.907593%,21.803284%,63.703918%);stop-opacity:1;"
         offset="0.34375" />
      <stop
         id="stop92"
         style="stop-color:rgb(70.674133%,22.261047%,63.920593%);stop-opacity:1;"
         offset="0.347656" />
      <stop
         id="stop94"
         style="stop-color:rgb(70.439148%,22.715759%,64.137268%);stop-opacity:1;"
         offset="0.351562" />
      <stop
         id="stop96"
         style="stop-color:rgb(70.205688%,23.170471%,64.355469%);stop-opacity:1;"
         offset="0.355469" />
      <stop
         id="stop98"
         style="stop-color:rgb(69.970703%,23.623657%,64.572144%);stop-opacity:1;"
         offset="0.359375" />
      <stop
         id="stop100"
         style="stop-color:rgb(69.734192%,24.075317%,64.788818%);stop-opacity:1;"
         offset="0.363281" />
      <stop
         id="stop102"
         style="stop-color:rgb(69.497681%,24.526978%,65.005493%);stop-opacity:1;"
         offset="0.367187" />
      <stop
         id="stop104"
         style="stop-color:rgb(69.259644%,24.975586%,65.220642%);stop-opacity:1;"
         offset="0.371094" />
      <stop
         id="stop106"
         style="stop-color:rgb(69.020081%,25.421143%,65.437317%);stop-opacity:1;"
         offset="0.375" />
      <stop
         id="stop108"
         style="stop-color:rgb(68.782043%,25.866699%,65.652466%);stop-opacity:1;"
         offset="0.378906" />
      <stop
         id="stop110"
         style="stop-color:rgb(68.540955%,26.31073%,65.867615%);stop-opacity:1;"
         offset="0.382812" />
      <stop
         id="stop112"
         style="stop-color:rgb(68.301392%,26.753235%,66.082764%);stop-opacity:1;"
         offset="0.386719" />
      <stop
         id="stop114"
         style="stop-color:rgb(68.058777%,27.194214%,66.297913%);stop-opacity:1;"
         offset="0.390625" />
      <stop
         id="stop116"
         style="stop-color:rgb(67.816162%,27.633667%,66.513062%);stop-opacity:1;"
         offset="0.394531" />
      <stop
         id="stop118"
         style="stop-color:rgb(67.573547%,28.070068%,66.726685%);stop-opacity:1;"
         offset="0.398438" />
      <stop
         id="stop120"
         style="stop-color:rgb(67.329407%,28.50647%,66.940308%);stop-opacity:1;"
         offset="0.402344" />
      <stop
         id="stop122"
         style="stop-color:rgb(67.08374%,28.941345%,67.153931%);stop-opacity:1;"
         offset="0.40625" />
      <stop
         id="stop124"
         style="stop-color:rgb(66.119385%,29.232788%,67.271423%);stop-opacity:1;"
         offset="0.410156" />
      <stop
         id="stop126"
         style="stop-color:rgb(65.153503%,29.519653%,67.388916%);stop-opacity:1;"
         offset="0.414062" />
      <stop
         id="stop128"
         style="stop-color:rgb(64.056396%,29.777527%,67.486572%);stop-opacity:1;"
         offset="0.417969" />
      <stop
         id="stop130"
         style="stop-color:rgb(62.954712%,30.032349%,67.584229%);stop-opacity:1;"
         offset="0.421875" />
      <stop
         id="stop132"
         style="stop-color:rgb(61.854553%,30.282593%,67.681885%);stop-opacity:1;"
         offset="0.425781" />
      <stop
         id="stop134"
         style="stop-color:rgb(60.749817%,30.531311%,67.779541%);stop-opacity:1;"
         offset="0.429687" />
      <stop
         id="stop136"
         style="stop-color:rgb(59.645081%,30.775452%,67.875671%);stop-opacity:1;"
         offset="0.433594" />
      <stop
         id="stop138"
         style="stop-color:rgb(58.538818%,31.016541%,67.971802%);stop-opacity:1;"
         offset="0.4375" />
      <stop
         id="stop140"
         style="stop-color:rgb(57.43103%,31.254578%,68.066406%);stop-opacity:1;"
         offset="0.441406" />
      <stop
         id="stop142"
         style="stop-color:rgb(56.32019%,31.489563%,68.161011%);stop-opacity:1;"
         offset="0.445312" />
      <stop
         id="stop144"
         style="stop-color:rgb(55.209351%,31.721497%,68.255615%);stop-opacity:1;"
         offset="0.449219" />
      <stop
         id="stop146"
         style="stop-color:rgb(54.095459%,31.950378%,68.348694%);stop-opacity:1;"
         offset="0.453125" />
      <stop
         id="stop148"
         style="stop-color:rgb(52.981567%,32.176208%,68.441772%);stop-opacity:1;"
         offset="0.457031" />
      <stop
         id="stop150"
         style="stop-color:rgb(51.864624%,32.398987%,68.534851%);stop-opacity:1;"
         offset="0.460937" />
      <stop
         id="stop152"
         style="stop-color:rgb(50.747681%,32.617188%,68.626404%);stop-opacity:1;"
         offset="0.464844" />
      <stop
         id="stop154"
         style="stop-color:rgb(49.627686%,32.832336%,68.717957%);stop-opacity:1;"
         offset="0.46875" />
      <stop
         id="stop156"
         style="stop-color:rgb(48.50769%,33.044434%,68.809509%);stop-opacity:1;"
         offset="0.472656" />
      <stop
         id="stop158"
         style="stop-color:rgb(47.383118%,33.253479%,68.899536%);stop-opacity:1;"
         offset="0.476562" />
      <stop
         id="stop160"
         style="stop-color:rgb(46.260071%,33.457947%,68.989563%);stop-opacity:1;"
         offset="0.480469" />
      <stop
         id="stop162"
         style="stop-color:rgb(45.133972%,33.660889%,69.078064%);stop-opacity:1;"
         offset="0.484375" />
      <stop
         id="stop164"
         style="stop-color:rgb(44.006348%,33.859253%,69.166565%);stop-opacity:1;"
         offset="0.488281" />
      <stop
         id="stop166"
         style="stop-color:rgb(42.877197%,34.056091%,69.255066%);stop-opacity:1;"
         offset="0.492187" />
      <stop
         id="stop168"
         style="stop-color:rgb(41.746521%,34.248352%,69.342041%);stop-opacity:1;"
         offset="0.496094" />
      <stop
         id="stop170"
         style="stop-color:rgb(40.612793%,34.437561%,69.429016%);stop-opacity:1;"
         offset="0.5" />
      <stop
         id="stop172"
         style="stop-color:rgb(39.480591%,34.625244%,69.515991%);stop-opacity:1;"
         offset="0.503906" />
      <stop
         id="stop174"
         style="stop-color:rgb(38.343811%,34.806824%,69.602966%);stop-opacity:1;"
         offset="0.507812" />
      <stop
         id="stop176"
         style="stop-color:rgb(37.207031%,34.986877%,69.688416%);stop-opacity:1;"
         offset="0.511719" />
      <stop
         id="stop178"
         style="stop-color:rgb(36.0672%,35.162354%,69.772339%);stop-opacity:1;"
         offset="0.515625" />
      <stop
         id="stop180"
         style="stop-color:rgb(34.927368%,35.336304%,69.856262%);stop-opacity:1;"
         offset="0.519531" />
      <stop
         id="stop182"
         style="stop-color:rgb(33.784485%,35.505676%,69.940186%);stop-opacity:1;"
         offset="0.523437" />
      <stop
         id="stop184"
         style="stop-color:rgb(32.641602%,35.671997%,70.024109%);stop-opacity:1;"
         offset="0.527344" />
      <stop
         id="stop186"
         style="stop-color:rgb(31.495667%,35.835266%,70.106506%);stop-opacity:1;"
         offset="0.53125" />
      <stop
         id="stop188"
         style="stop-color:rgb(30.349731%,35.995483%,70.188904%);stop-opacity:1;"
         offset="0.535156" />
      <stop
         id="stop190"
         style="stop-color:rgb(29.200745%,36.152649%,70.269775%);stop-opacity:1;"
         offset="0.539062" />
      <stop
         id="stop192"
         style="stop-color:rgb(28.050232%,36.305237%,70.350647%);stop-opacity:1;"
         offset="0.542969" />
      <stop
         id="stop194"
         style="stop-color:rgb(26.898193%,36.454773%,70.431519%);stop-opacity:1;"
         offset="0.546875" />
      <stop
         id="stop196"
         style="stop-color:rgb(25.744629%,36.602783%,70.51239%);stop-opacity:1;"
         offset="0.550781" />
      <stop
         id="stop198"
         style="stop-color:rgb(24.589539%,36.746216%,70.591736%);stop-opacity:1;"
         offset="0.554687" />
      <stop
         id="stop200"
         style="stop-color:rgb(23.432922%,36.886597%,70.671082%);stop-opacity:1;"
         offset="0.558594" />
      <stop
         id="stop202"
         style="stop-color:rgb(22.27478%,37.023926%,70.748901%);stop-opacity:1;"
         offset="0.5625" />
      <stop
         id="stop204"
         style="stop-color:rgb(21.115112%,37.158203%,70.826721%);stop-opacity:1;"
         offset="0.566406" />
      <stop
         id="stop206"
         style="stop-color:rgb(19.952393%,37.289429%,70.903015%);stop-opacity:1;"
         offset="0.570312" />
      <stop
         id="stop208"
         style="stop-color:rgb(18.789673%,37.416077%,70.980835%);stop-opacity:1;"
         offset="0.574219" />
      <stop
         id="stop210"
         style="stop-color:rgb(17.625427%,37.539673%,71.055603%);stop-opacity:1;"
         offset="0.578125" />
      <stop
         id="stop212"
         style="stop-color:rgb(16.459656%,37.661743%,71.131897%);stop-opacity:1;"
         offset="0.582031" />
      <stop
         id="stop214"
         style="stop-color:rgb(15.290833%,37.779236%,71.206665%);stop-opacity:1;"
         offset="0.585938" />
      <stop
         id="stop216"
         style="stop-color:rgb(14.122009%,37.893677%,71.281433%);stop-opacity:1;"
         offset="0.589844" />
      <stop
         id="stop218"
         style="stop-color:rgb(12.950134%,38.00354%,71.354675%);stop-opacity:1;"
         offset="0.59375" />
      <stop
         id="stop220"
         style="stop-color:rgb(11.978149%,38.093567%,71.41571%);stop-opacity:1;"
         offset="0.597656" />
      <stop
         id="stop222"
         style="stop-color:rgb(11.003113%,38.182068%,71.476746%);stop-opacity:1;"
         offset="0.601562" />
      <stop
         id="stop224"
         style="stop-color:rgb(11.003113%,38.182068%,71.476746%);stop-opacity:1;"
         offset="0.609375" />
      <stop
         id="stop226"
         style="stop-color:rgb(11.003113%,38.182068%,71.476746%);stop-opacity:1;"
         offset="0.625" />
      <stop
         id="stop228"
         style="stop-color:rgb(11.003113%,38.182068%,71.476746%);stop-opacity:1;"
         offset="0.6875" />
      <stop
         id="stop230"
         style="stop-color:rgb(10.983276%,38.235474%,71.517944%);stop-opacity:1;"
         offset="0.695313" />
      <stop
         id="stop232"
         style="stop-color:rgb(10.827637%,38.653564%,71.83075%);stop-opacity:1;"
         offset="0.699219" />
      <stop
         id="stop234"
         style="stop-color:rgb(10.693359%,39.01825%,72.103882%);stop-opacity:1;"
         offset="0.703125" />
      <stop
         id="stop236"
         style="stop-color:rgb(10.557556%,39.381409%,72.377014%);stop-opacity:1;"
         offset="0.707031" />
      <stop
         id="stop238"
         style="stop-color:rgb(10.423279%,39.746094%,72.651672%);stop-opacity:1;"
         offset="0.710937" />
      <stop
         id="stop240"
         style="stop-color:rgb(10.287476%,40.110779%,72.924805%);stop-opacity:1;"
         offset="0.714844" />
      <stop
         id="stop242"
         style="stop-color:rgb(10.153198%,40.475464%,73.197937%);stop-opacity:1;"
         offset="0.71875" />
      <stop
         id="stop244"
         style="stop-color:rgb(10.017395%,40.838623%,73.471069%);stop-opacity:1;"
         offset="0.722656" />
      <stop
         id="stop246"
         style="stop-color:rgb(9.881592%,41.203308%,73.744202%);stop-opacity:1;"
         offset="0.726562" />
      <stop
         id="stop248"
         style="stop-color:rgb(9.747314%,41.567993%,74.017334%);stop-opacity:1;"
         offset="0.730469" />
      <stop
         id="stop250"
         style="stop-color:rgb(9.611511%,41.932678%,74.290466%);stop-opacity:1;"
         offset="0.734375" />
      <stop
         id="stop252"
         style="stop-color:rgb(9.477234%,42.295837%,74.563599%);stop-opacity:1;"
         offset="0.738281" />
      <stop
         id="stop254"
         style="stop-color:rgb(9.341431%,42.660522%,74.836731%);stop-opacity:1;"
         offset="0.742187" />
      <stop
         id="stop256"
         style="stop-color:rgb(9.207153%,43.025208%,75.111389%);stop-opacity:1;"
         offset="0.746094" />
      <stop
         id="stop258"
         style="stop-color:rgb(9.07135%,43.388367%,75.384521%);stop-opacity:1;"
         offset="0.75" />
      <stop
         id="stop260"
         style="stop-color:rgb(8.935547%,43.753052%,75.657654%);stop-opacity:1;"
         offset="0.753906" />
      <stop
         id="stop262"
         style="stop-color:rgb(8.80127%,44.117737%,75.930786%);stop-opacity:1;"
         offset="0.757812" />
      <stop
         id="stop264"
         style="stop-color:rgb(8.665466%,44.482422%,76.203918%);stop-opacity:1;"
         offset="0.761719" />
      <stop
         id="stop266"
         style="stop-color:rgb(8.531189%,44.845581%,76.477051%);stop-opacity:1;"
         offset="0.765625" />
      <stop
         id="stop268"
         style="stop-color:rgb(8.395386%,45.210266%,76.750183%);stop-opacity:1;"
         offset="0.769531" />
      <stop
         id="stop270"
         style="stop-color:rgb(8.261108%,45.573425%,77.023315%);stop-opacity:1;"
         offset="0.773437" />
      <stop
         id="stop272"
         style="stop-color:rgb(8.125305%,45.93811%,77.296448%);stop-opacity:1;"
         offset="0.777344" />
      <stop
         id="stop274"
         style="stop-color:rgb(7.991028%,46.302795%,77.56958%);stop-opacity:1;"
         offset="0.78125" />
      <stop
         id="stop276"
         style="stop-color:rgb(7.855225%,46.665955%,77.842712%);stop-opacity:1;"
         offset="0.785156" />
      <stop
         id="stop278"
         style="stop-color:rgb(7.719421%,47.03064%,78.115845%);stop-opacity:1;"
         offset="0.789062" />
      <stop
         id="stop280"
         style="stop-color:rgb(7.585144%,47.395325%,78.390503%);stop-opacity:1;"
         offset="0.792969" />
      <stop
         id="stop282"
         style="stop-color:rgb(7.449341%,47.76001%,78.663635%);stop-opacity:1;"
         offset="0.796875" />
      <stop
         id="stop284"
         style="stop-color:rgb(7.315063%,48.123169%,78.936768%);stop-opacity:1;"
         offset="0.800781" />
      <stop
         id="stop286"
         style="stop-color:rgb(7.17926%,48.487854%,79.2099%);stop-opacity:1;"
         offset="0.804687" />
      <stop
         id="stop288"
         style="stop-color:rgb(7.043457%,48.852539%,79.483032%);stop-opacity:1;"
         offset="0.808594" />
      <stop
         id="stop290"
         style="stop-color:rgb(6.90918%,49.217224%,79.756165%);stop-opacity:1;"
         offset="0.8125" />
      <stop
         id="stop292"
         style="stop-color:rgb(6.773376%,49.580383%,80.029297%);stop-opacity:1;"
         offset="0.816406" />
      <stop
         id="stop294"
         style="stop-color:rgb(6.639099%,49.945068%,80.302429%);stop-opacity:1;"
         offset="0.820312" />
      <stop
         id="stop296"
         style="stop-color:rgb(6.503296%,50.309753%,80.577087%);stop-opacity:1;"
         offset="0.824219" />
      <stop
         id="stop298"
         style="stop-color:rgb(6.369019%,50.672913%,80.85022%);stop-opacity:1;"
         offset="0.828125" />
      <stop
         id="stop300"
         style="stop-color:rgb(6.233215%,51.037598%,81.123352%);stop-opacity:1;"
         offset="0.832031" />
      <stop
         id="stop302"
         style="stop-color:rgb(6.097412%,51.402283%,81.396484%);stop-opacity:1;"
         offset="0.835937" />
      <stop
         id="stop304"
         style="stop-color:rgb(5.963135%,51.766968%,81.669617%);stop-opacity:1;"
         offset="0.839844" />
      <stop
         id="stop306"
         style="stop-color:rgb(5.827332%,52.130127%,81.942749%);stop-opacity:1;"
         offset="0.84375" />
      <stop
         id="stop308"
         style="stop-color:rgb(5.693054%,52.494812%,82.215881%);stop-opacity:1;"
         offset="0.847656" />
      <stop
         id="stop310"
         style="stop-color:rgb(5.557251%,52.859497%,82.489014%);stop-opacity:1;"
         offset="0.851562" />
      <stop
         id="stop312"
         style="stop-color:rgb(5.422974%,53.222656%,82.762146%);stop-opacity:1;"
         offset="0.855469" />
      <stop
         id="stop314"
         style="stop-color:rgb(5.28717%,53.587341%,83.036804%);stop-opacity:1;"
         offset="0.859375" />
      <stop
         id="stop316"
         style="stop-color:rgb(5.151367%,53.952026%,83.309937%);stop-opacity:1;"
         offset="0.863281" />
      <stop
         id="stop318"
         style="stop-color:rgb(5.01709%,54.316711%,83.583069%);stop-opacity:1;"
         offset="0.867187" />
      <stop
         id="stop320"
         style="stop-color:rgb(4.881287%,54.679871%,83.856201%);stop-opacity:1;"
         offset="0.871094" />
      <stop
         id="stop322"
         style="stop-color:rgb(4.747009%,55.044556%,84.129333%);stop-opacity:1;"
         offset="0.875" />
      <stop
         id="stop324"
         style="stop-color:rgb(4.611206%,55.407715%,84.402466%);stop-opacity:1;"
         offset="0.878906" />
      <stop
         id="stop326"
         style="stop-color:rgb(4.476929%,55.7724%,84.675598%);stop-opacity:1;"
         offset="0.882812" />
      <stop
         id="stop328"
         style="stop-color:rgb(4.341125%,56.137085%,84.94873%);stop-opacity:1;"
         offset="0.886719" />
      <stop
         id="stop330"
         style="stop-color:rgb(4.206848%,56.50177%,85.221863%);stop-opacity:1;"
         offset="0.890625" />
      <stop
         id="stop332"
         style="stop-color:rgb(4.071045%,56.864929%,85.494995%);stop-opacity:1;"
         offset="0.894531" />
      <stop
         id="stop334"
         style="stop-color:rgb(3.935242%,57.229614%,85.768127%);stop-opacity:1;"
         offset="0.898437" />
      <stop
         id="stop336"
         style="stop-color:rgb(3.800964%,57.594299%,86.042786%);stop-opacity:1;"
         offset="0.902344" />
      <stop
         id="stop338"
         style="stop-color:rgb(3.665161%,57.957458%,86.315918%);stop-opacity:1;"
         offset="0.90625" />
      <stop
         id="stop340"
         style="stop-color:rgb(3.530884%,58.322144%,86.58905%);stop-opacity:1;"
         offset="0.910156" />
      <stop
         id="stop342"
         style="stop-color:rgb(3.395081%,58.686829%,86.862183%);stop-opacity:1;"
         offset="0.914062" />
      <stop
         id="stop344"
         style="stop-color:rgb(3.260803%,59.051514%,87.135315%);stop-opacity:1;"
         offset="0.917969" />
      <stop
         id="stop346"
         style="stop-color:rgb(3.125%,59.414673%,87.408447%);stop-opacity:1;"
         offset="0.921875" />
      <stop
         id="stop348"
         style="stop-color:rgb(2.989197%,59.779358%,87.68158%);stop-opacity:1;"
         offset="0.925781" />
      <stop
         id="stop350"
         style="stop-color:rgb(2.854919%,60.144043%,87.954712%);stop-opacity:1;"
         offset="0.929687" />
      <stop
         id="stop352"
         style="stop-color:rgb(2.719116%,60.507202%,88.227844%);stop-opacity:1;"
         offset="0.933594" />
      <stop
         id="stop354"
         style="stop-color:rgb(2.584839%,60.871887%,88.502502%);stop-opacity:1;"
         offset="0.9375" />
      <stop
         id="stop356"
         style="stop-color:rgb(2.449036%,61.236572%,88.775635%);stop-opacity:1;"
         offset="0.941406" />
      <stop
         id="stop358"
         style="stop-color:rgb(2.313232%,61.601257%,89.048767%);stop-opacity:1;"
         offset="0.945312" />
      <stop
         id="stop360"
         style="stop-color:rgb(2.178955%,61.964417%,89.321899%);stop-opacity:1;"
         offset="0.949219" />
      <stop
         id="stop362"
         style="stop-color:rgb(2.043152%,62.329102%,89.595032%);stop-opacity:1;"
         offset="0.953125" />
      <stop
         id="stop364"
         style="stop-color:rgb(1.908875%,62.693787%,89.868164%);stop-opacity:1;"
         offset="0.957031" />
      <stop
         id="stop366"
         style="stop-color:rgb(1.773071%,63.058472%,90.141296%);stop-opacity:1;"
         offset="0.960937" />
      <stop
         id="stop368"
         style="stop-color:rgb(1.638794%,63.421631%,90.414429%);stop-opacity:1;"
         offset="0.964844" />
      <stop
         id="stop370"
         style="stop-color:rgb(1.502991%,63.786316%,90.687561%);stop-opacity:1;"
         offset="0.96875" />
      <stop
         id="stop372"
         style="stop-color:rgb(1.368713%,64.149475%,90.960693%);stop-opacity:1;"
         offset="0.972656" />
      <stop
         id="stop374"
         style="stop-color:rgb(1.23291%,64.51416%,91.233826%);stop-opacity:1;"
         offset="0.976562" />
      <stop
         id="stop376"
         style="stop-color:rgb(1.097107%,64.878845%,91.506958%);stop-opacity:1;"
         offset="0.980469" />
      <stop
         id="stop378"
         style="stop-color:rgb(0.96283%,65.242004%,91.781616%);stop-opacity:1;"
         offset="0.984375" />
      <stop
         id="stop380"
         style="stop-color:rgb(0.932312%,65.325928%,91.842651%);stop-opacity:1;"
         offset="1" />
    </linearGradient>
  </defs>
  <g
     transform="translate(-36.000357,-265.84766)"
     id="surface74">
    <g
       style="clip-rule:nonzero"
       id="g389"
       clip-path="url(#clip1)">
      <g
         style="clip-rule:nonzero"
         id="g387"
         clip-path="url(#clip2)">
        <path
           id="path385"
           d="m 34.621094,265.11328 v 86.8125 H 220.51172 v -86.8125 z m 0,0"
           style="fill:url(#linear0);fill-rule:nonzero;stroke:none" />
      </g>
    </g>
    <path
       id="path391"
       d="m 245.15625,346.58203 h 2.51562 c -0.19921,-0.86328 -0.30078,-1.52344 -0.30078,-1.98047 0,-0.72265 0.12891,-1.66406 0.38672,-2.82031 l 0.8086,-3.62891 c 0.23046,-1.02734 0.34375,-1.92968 0.34375,-2.71093 0,-1.02344 -0.40235,-1.85938 -1.20704,-2.5 -1.05468,-0.86329 -2.48437,-1.29297 -4.29296,-1.29297 -1.69532,0 -3.10157,0.38281 -4.21485,1.15625 -1.11328,0.76953 -1.92578,1.8789 -2.4414,3.32812 l 2.51953,0.21875 c 0.30078,-0.85547 0.78515,-1.51172 1.44922,-1.97265 0.66406,-0.46485 1.51953,-0.69532 2.5664,-0.69532 1.10547,0 1.95313,0.22657 2.52735,0.6875 0.42187,0.32813 0.63281,0.78125 0.63281,1.35938 0,0.44922 -0.0977,1.01562 -0.28906,1.6914 -0.67969,0.26563 -1.79688,0.4336 -3.35938,0.4961 -1.5625,0.0625 -2.625,0.15234 -3.18359,0.26172 -0.89063,0.16406 -1.64063,0.4375 -2.25782,0.8164 -0.61328,0.38282 -1.10546,0.88672 -1.47656,1.51563 -0.37109,0.625 -0.55859,1.34765 -0.55859,2.16406 0,1.23828 0.41406,2.25391 1.23828,3.04688 0.82422,0.79296 1.91016,1.1875 3.26172,1.1875 0.90625,0 1.75781,-0.17188 2.55469,-0.51563 0.79687,-0.34375 1.6289,-0.88672 2.48828,-1.62891 0.0547,0.73438 0.15234,1.33985 0.28906,1.81641 m -0.39844,-4.07031 c -0.4375,0.77734 -1.03906,1.38672 -1.80078,1.82031 -0.76172,0.4375 -1.55469,0.65234 -2.37891,0.65234 -0.89062,0 -1.57421,-0.22265 -2.05468,-0.67187 -0.48047,-0.44922 -0.72266,-1.02344 -0.72266,-1.71875 0,-0.52344 0.15234,-1 0.45313,-1.42969 0.30468,-0.42969 0.7539,-0.74609 1.34765,-0.9414 0.59766,-0.19922 1.61719,-0.35938 3.06641,-0.48829 0.93359,-0.082 1.60156,-0.16015 2,-0.23437 0.40234,-0.0742 0.77344,-0.17969 1.12109,-0.31641 -0.24609,1.4375 -0.58984,2.54688 -1.03125,3.32813 m 13.25781,4.07031 h 3.94532 l 1.40234,-6.71094 c 0.25,-1.16406 0.42578,-1.91015 0.53906,-2.24218 0.2461,-0.70313 0.54297,-1.28125 0.88282,-1.73047 0.34375,-0.44922 0.74609,-0.80469 1.20703,-1.0586 0.45703,-0.25781 0.89843,-0.38672 1.33203,-0.38672 0.45703,0 0.8164,0.125 1.07812,0.3711 0.26172,0.24609 0.39453,0.5625 0.39453,0.94922 0,0.30078 -0.10937,0.96093 -0.32031,1.98047 l -1.83984,8.82812 h 3.94531 l 1.39063,-6.62891 c 0.39453,-1.88671 0.87109,-3.20312 1.42968,-3.94531 0.76953,-1.03515 1.64453,-1.55469 2.625,-1.55469 0.48438,0 0.85157,0.11719 1.09375,0.35157 0.24219,0.23047 0.36328,0.55078 0.36328,0.95312 0,0.14844 -0.11328,0.78125 -0.34375,1.89844 l -1.87109,8.92578 h 3.94922 l 1.87109,-8.92578 c 0.25391,-1.23828 0.38282,-2.10547 0.38282,-2.61328 0,-1.02344 -0.32422,-1.85156 -0.97657,-2.47266 -0.65234,-0.625 -1.55859,-0.9375 -2.72265,-0.9375 -1.01563,0 -1.9961,0.25 -2.94141,0.7461 -0.94531,0.49218 -1.66797,1.10546 -2.17187,1.83984 -0.16407,-0.80469 -0.54688,-1.4375 -1.14454,-1.89844 -0.59375,-0.45703 -1.4414,-0.6875 -2.54296,-0.6875 -1.59375,0 -3.11719,0.70703 -4.5625,2.1211 l 0.37109,-1.77735 h -3.71484 z m 31.28125,-11.69531 c 0.41016,-0.28906 0.96485,-0.4336 1.67188,-0.4336 0.66797,0 1.17187,0.14063 1.51172,0.42579 0.33984,0.28515 0.50781,0.63671 0.50781,1.05859 0,0.33203 -0.082,0.76953 -0.24609,1.32031 -0.63282,0.21875 -1.89063,0.40625 -3.76953,0.5625 -2.22657,0.17578 -3.77344,0.67969 -4.64063,1.51563 -0.86328,0.83203 -1.29687,1.94531 -1.29687,3.33984 0,1.24609 0.39453,2.26563 1.17968,3.05859 0.78907,0.79297 1.78907,1.19141 3,1.19141 0.76172,0 1.51563,-0.17187 2.26953,-0.51562 0.75,-0.34375 1.41407,-0.83594 1.99219,-1.48047 0.0352,0.57031 0.13281,1.12109 0.28906,1.65234 h 3.83594 c -0.21875,-0.76172 -0.32812,-1.45312 -0.32812,-2.07812 0,-0.69532 0.1914,-1.91407 0.57422,-3.65625 0.46875,-2.10938 0.74218,-3.41016 0.82031,-3.90625 0.0781,-0.4961 0.11719,-0.96094 0.11719,-1.40235 0,-1.08984 -0.44922,-2.01562 -1.34766,-2.76953 -0.89844,-0.75781 -2.28906,-1.13672 -4.16797,-1.13672 -1.80469,0 -3.25781,0.36719 -4.35156,1.10156 -1.09375,0.73438 -1.86328,1.75 -2.30078,3.05079 l 3.84765,0.33203 c 0.14844,-0.53125 0.42578,-0.94141 0.83203,-1.23047 m 2.8125,5.41015 c -0.20312,0.96485 -0.43359,1.67188 -0.69531,2.125 -0.26172,0.45313 -0.65625,0.82422 -1.18359,1.11329 -0.52344,0.28906 -1.08594,0.43359 -1.6836,0.43359 -0.53906,0 -0.97656,-0.16016 -1.30468,-0.47656 -0.33203,-0.3125 -0.4961,-0.70313 -0.4961,-1.16016 0,-0.55859 0.21485,-1.00391 0.64844,-1.33594 0.60547,-0.45703 1.89453,-0.80468 3.875,-1.04297 0.39453,-0.0547 0.71094,-0.11328 0.94922,-0.17968 z m 9.07032,-5.39062 -1.22657,5.87109 c -0.33593,1.625 -0.50781,2.66016 -0.50781,3.10938 0,0.95312 0.31641,1.69922 0.94922,2.23437 0.63281,0.53516 1.64453,0.80469 3.03906,0.80469 0.71485,0 1.41016,-0.0703 2.08985,-0.20703 l 0.61718,-2.92969 c -0.69531,0.0664 -1.13281,0.0977 -1.30468,0.0977 -0.50391,0 -0.85157,-0.0859 -1.04688,-0.25391 -0.1914,-0.17187 -0.28515,-0.40625 -0.28515,-0.71094 0,-0.15234 0.11328,-0.78515 0.33984,-1.89453 l 1.28125,-6.12109 h 2.41797 l 0.60547,-2.92969 h -2.40625 l 1.05859,-5.05859 -4.52344,2.72265 -0.48047,2.33594 h -1.92578 l -0.60547,2.92969 z m 5.97265,11.67578 h 3.94532 l 0.96484,-4.57812 c 0.38672,-1.86329 0.77344,-3.22266 1.16797,-4.07813 0.39453,-0.85937 0.9414,-1.54297 1.64453,-2.05859 0.69922,-0.51172 1.39062,-0.76953 2.07031,-0.76953 0.40235,0 0.78125,0.0664 1.14063,0.19531 l 1.51172,-3.23438 c -0.65235,-0.28125 -1.26172,-0.42578 -1.82813,-0.42578 -1.60547,0 -3.09375,1.0586 -4.46875,3.17969 l 0.58984,-2.83594 h -3.68359 z m 14.36328,-16.58594 h 3.94532 l 0.74218,-3.57422 h -3.94531 z m -3.46484,16.58594 h 3.94531 l 3.05469,-14.60547 h -3.94922 z m 16.37109,0 h 4.19141 l -3.68359,-7.02734 6.77734,-7.57813 h -4.79687 l -3.69922,4.16797 -2.13282,-4.16797 h -4.1914 l 3.71094,7.125 -6.75,7.48047 h 4.83984 l 3.62891,-4.09766 z m 22.24219,-2.51562 c -0.73828,0.61328 -1.51172,0.91796 -2.32031,0.91796 -0.80469,0 -1.48438,-0.30859 -2.03516,-0.93359 -0.54687,-0.62109 -0.82422,-1.55859 -0.82422,-2.80469 0,-1.1914 0.21094,-2.43359 0.62891,-3.71875 0.41406,-1.28906 0.98828,-2.25 1.72266,-2.88281 0.73437,-0.63281 1.60156,-0.94922 2.59765,-0.94922 0.86328,0 1.5586,0.26172 2.08594,0.78516 0.52734,0.52344 0.79297,1.24609 0.80469,2.17187 l 2.44531,-0.16406 c 0,-1.45703 -0.45703,-2.62891 -1.375,-3.51172 -0.91406,-0.88672 -2.15625,-1.32812 -3.72656,-1.32812 -1.51172,0 -2.85547,0.40234 -4.03516,1.20312 -1.17578,0.80078 -2.08203,1.97266 -2.71484,3.51172 -0.63281,1.53906 -0.94922,3.10938 -0.94922,4.70313 0,1.84375 0.49219,3.27734 1.48047,4.30468 0.98437,1.02735 2.26953,1.53907 3.85547,1.53907 1.46484,0 2.77343,-0.44141 3.92578,-1.32422 1.14844,-0.88672 2.03515,-2.24219 2.66015,-4.06641 l -2.48828,-0.25781 c -0.42187,1.2539 -1,2.1875 -1.73828,2.80469 m 6.63281,0.0547 c 0.49219,0.88672 1.20313,1.57422 2.13282,2.0625 0.92968,0.48438 1.96484,0.72657 3.10156,0.72657 1.38281,0 2.69922,-0.38282 3.95312,-1.15235 1.25,-0.77344 2.21485,-1.8789 2.89454,-3.32422 0.67578,-1.4414 1.01562,-3.0039 1.01562,-4.67968 0,-1.8711 -0.53906,-3.35547 -1.61328,-4.45704 -1.07813,-1.09765 -2.49609,-1.64843 -4.25781,-1.64843 -2.2461,0 -4.0625,0.76953 -5.44532,2.30859 -1.67578,1.87109 -2.51562,4.23047 -2.51562,7.08203 0,1.16406 0.24609,2.19141 0.73437,3.08203 m 2.11719,-5.86718 c 0.2461,-0.94922 0.625,-1.78125 1.14063,-2.4961 0.51953,-0.71484 1.10156,-1.25781 1.74218,-1.6289 0.64063,-0.3711 1.35157,-0.55469 2.12891,-0.55469 1.00781,0 1.84766,0.36328 2.51172,1.08984 0.66406,0.73047 0.99609,1.75391 0.99609,3.07422 0,0.83594 -0.14062,1.70703 -0.42578,2.61328 -0.1914,0.65235 -0.44922,1.25781 -0.76172,1.82422 -0.3164,0.5625 -0.69922,1.0625 -1.14843,1.50391 -0.45313,0.4414 -0.9375,0.76953 -1.46094,0.98437 -0.51953,0.21485 -1.04688,0.32031 -1.57813,0.32031 -1.01953,0 -1.85547,-0.35156 -2.51953,-1.0625 -0.66015,-0.71093 -0.98828,-1.7539 -0.98828,-3.1289 0,-0.74219 0.12109,-1.58985 0.36328,-2.53906 m 14.5625,8.32812 1.44531,-6.90234 c 0.3086,-1.48828 0.71094,-2.62891 1.19532,-3.4336 0.48437,-0.80078 1.11718,-1.42578 1.89062,-1.875 0.77344,-0.44922 1.51563,-0.67578 2.21875,-0.67578 0.48047,0 0.86719,0.14844 1.16406,0.44141 0.29688,0.29297 0.44532,0.67969 0.44532,1.15625 0,0.28125 -0.0703,0.76172 -0.21875,1.42969 l -2.0625,9.85937 h 2.48828 L 390.03125,339.5 c 0.31641,-1.51172 0.69141,-2.63281 1.11719,-3.36328 0.42578,-0.72656 1.02734,-1.31641 1.79687,-1.76563 0.76953,-0.44922 1.52344,-0.67578 2.26563,-0.67578 0.55078,0 0.97656,0.14063 1.28125,0.41406 0.30078,0.27344 0.45312,0.65235 0.45312,1.12891 0,0.33594 -0.0859,0.90234 -0.26172,1.69141 l -2.00781,9.65234 h 2.48828 l 1.96875,-9.40625 c 0.21094,-1.03516 0.31641,-1.77734 0.31641,-2.22656 0,-1.04688 -0.30469,-1.85547 -0.91406,-2.4336 -0.61329,-0.57812 -1.52735,-0.86718 -2.7461,-0.86718 -0.90625,0 -1.76953,0.22656 -2.58984,0.67968 -0.82031,0.45313 -1.60156,1.14063 -2.34375,2.05469 -0.19531,-0.85937 -0.59375,-1.53125 -1.20313,-2.01172 -0.60937,-0.48047 -1.37109,-0.72265 -2.27734,-0.72265 -0.85156,0 -1.64453,0.19531 -2.37109,0.58984 -0.73047,0.39453 -1.55469,1.10938 -2.48438,2.14453 l 0.51172,-2.40625 h -2.48828 l -3.05469,14.60547 z m 21.96875,5.59375 1.64844,-7.93359 c 0.96094,1.78125 2.32031,2.66797 4.07031,2.66797 0.78906,0 1.5586,-0.17969 2.3086,-0.53516 0.7539,-0.35938 1.49609,-0.91797 2.23046,-1.67969 0.73047,-0.75781 1.35157,-1.76562 1.85547,-3.01562 0.50391,-1.25 0.75391,-2.64063 0.75391,-4.16016 0,-1.88672 -0.45703,-3.33984 -1.375,-4.35156 -0.91406,-1.01172 -2.07031,-1.51953 -3.46484,-1.51953 -0.75,0 -1.46094,0.17187 -2.13672,0.51562 -0.67188,0.34375 -1.4375,0.96094 -2.28907,1.84766 l 0.42579,-2.03516 h -2.29688 l -4.21875,20.19922 z m 2.88672,-14.07812 c 0.30078,-0.96485 0.68359,-1.77735 1.14844,-2.44141 0.46094,-0.66406 0.96484,-1.16406 1.5039,-1.5 0.54297,-0.33203 1.12891,-0.5 1.76172,-0.5 0.87891,0 1.61719,0.33594 2.20703,1.00781 0.58985,0.67578 0.88672,1.63281 0.88672,2.86719 0,1.67969 -0.4414,3.32422 -1.32031,4.93359 -0.87891,1.60547 -2.03516,2.41016 -3.46484,2.41016 -0.6875,0 -1.29297,-0.18359 -1.81641,-0.55078 -0.52344,-0.36328 -0.89844,-0.84766 -1.125,-1.44141 -0.15625,-0.42187 -0.23437,-1.17969 -0.23437,-2.26953 0,-0.71484 0.15234,-1.55469 0.45312,-2.51562 m 21.36328,8.48437 h 2.51563 c -0.20313,-0.86328 -0.30469,-1.52344 -0.30469,-1.98047 0,-0.72265 0.12891,-1.66406 0.38672,-2.82031 l 0.80859,-3.62891 c 0.23047,-1.02734 0.34766,-1.92968 0.34766,-2.71093 0,-1.02344 -0.40625,-1.85938 -1.21094,-2.5 -1.05469,-0.86329 -2.48437,-1.29297 -4.28906,-1.29297 -1.69922,0 -3.10156,0.38281 -4.21875,1.15625 -1.11328,0.76953 -1.92578,1.8789 -2.4375,3.32812 l 2.51562,0.21875 c 0.30078,-0.85547 0.78516,-1.51172 1.44922,-1.97265 0.66406,-0.46485 1.51953,-0.69532 2.56641,-0.69532 1.10937,0 1.95312,0.22657 2.52734,0.6875 0.42578,0.32813 0.63672,0.78125 0.63672,1.35938 0,0.44922 -0.0977,1.01562 -0.28906,1.6914 -0.67969,0.26563 -1.80078,0.4336 -3.36328,0.4961 -1.5625,0.0625 -2.625,0.15234 -3.1836,0.26172 -0.89062,0.16406 -1.64062,0.4375 -2.25781,0.8164 -0.61328,0.38282 -1.10547,0.88672 -1.47656,1.51563 -0.3711,0.625 -0.55469,1.34765 -0.55469,2.16406 0,1.23828 0.41016,2.25391 1.23438,3.04688 0.82812,0.79296 1.91406,1.1875 3.26171,1.1875 0.90625,0 1.75782,-0.17188 2.55469,-0.51563 0.80078,-0.34375 1.62891,-0.88672 2.49219,-1.62891 0.0547,0.73438 0.14844,1.33985 0.28906,1.81641 m -0.40234,-4.07031 c -0.4375,0.77734 -1.03906,1.38672 -1.80078,1.82031 -0.76172,0.4375 -1.55469,0.65234 -2.37891,0.65234 -0.88672,0 -1.57422,-0.22265 -2.05469,-0.67187 -0.48047,-0.44922 -0.72265,-1.02344 -0.72265,-1.71875 0,-0.52344 0.15234,-1 0.45312,-1.42969 0.30469,-0.42969 0.75391,-0.74609 1.34766,-0.9414 0.59765,-0.19922 1.62109,-0.35938 3.0664,-0.48829 0.9375,-0.082 1.60157,-0.16015 2.00391,-0.23437 0.39844,-0.0742 0.76953,-0.17969 1.11719,-0.31641 -0.2461,1.4375 -0.58985,2.54688 -1.03125,3.32813 m 8.13672,4.07031 1.41406,-6.79297 c 0.46875,-2.22656 1.19922,-3.80078 2.19531,-4.71875 0.99219,-0.91406 2.12891,-1.375 3.40235,-1.375 0.63281,0 1.11718,0.15235 1.44921,0.45703 0.33594,0.30078 0.50391,0.69532 0.50391,1.17969 0,0.43359 -0.0977,1.09766 -0.28906,1.99609 l -1.9375,9.25391 h 2.48828 l 1.85547,-8.84375 c 0.23828,-1.16406 0.35547,-2.01562 0.35547,-2.55469 0,-1.07422 -0.33594,-1.92968 -1.00782,-2.57422 -0.67578,-0.64062 -1.60156,-0.96093 -2.78515,-0.96093 -0.89063,0 -1.76172,0.23047 -2.61328,0.6875 -0.85157,0.45703 -1.76953,1.1875 -2.75,2.1875 l 0.53515,-2.54688 h -2.2539 l -3.05469,14.60547 z m 13.64843,5.92578 c 0.90625,0 1.70704,-0.26172 2.40235,-0.78515 0.69922,-0.52344 1.49609,-1.58985 2.39453,-3.20313 l 9.30859,-16.54297 h -2.59765 l -6.53125,11.75781 c -0.15625,-1.45703 -0.34375,-2.91406 -0.56641,-4.37109 l -1.09766,-7.38672 h -2.44921 l 2.43359,14.64453 -0.79688,1.42969 c -0.47656,0.83594 -0.91796,1.40234 -1.32031,1.70703 -0.3125,0.22656 -0.71875,0.34375 -1.22265,0.34375 -0.48829,0 -0.98438,-0.0742 -1.5,-0.21875 l -0.15235,2.33594 c 0.55078,0.19141 1.11719,0.28906 1.69531,0.28906"
       style="fill:#3a266e;fill-opacity:1;fill-rule:nonzero;stroke:none" />
    <path
       id="path393"
       d="m 500.1875,308.91406 c -1.75,-2.57812 -2.91016,-4.54687 -3.48438,-5.90625 2.19922,-0.41406 3.9375,-1.20312 5.21875,-2.36328 1.27344,-1.16016 1.91407,-2.54687 1.91407,-4.16016 0,-2.3125 -0.875,-4.07421 -2.6211,-5.28125 -1.53906,-1.0625 -3.54687,-1.59765 -6.01562,-1.59765 h -6.34375 c -1.88281,0 -2.82422,1.02734 -2.82422,3.08203 v 22.64453 h 3.61328 V 303.25 h 4.27344 c 0.58594,1.79687 1.6875,4.10547 3.30078,6.92969 1.51172,2.63672 2.66797,4.35547 3.46484,5.15234 h 4.54688 c -1.45703,-1.48047 -3.13672,-3.62109 -5.04297,-6.41797 m -1.21875,-9.10547 c -0.97266,0.81641 -2.26563,1.21875 -3.87891,1.21875 h -5.44531 v -8.67187 c 0,-0.35156 0.16016,-0.53125 0.47656,-0.53125 h 4.69532 c 1.71093,0 3.07421,0.4375 4.08593,1.3125 1.01563,0.875 1.52344,2.03906 1.52344,3.49219 0,1.30859 -0.48437,2.36718 -1.45703,3.17968 m 23.37109,11.08594 c 1.63672,-2.33594 2.52344,-4.58594 2.65625,-6.75 H 521.625 c -0.18359,1.77344 -0.53516,3.35156 -1.04688,4.73047 -0.96484,-1.03516 -2.21875,-2.62109 -3.75781,-4.74609 -0.98828,-1.38282 -1.98047,-2.76954 -2.96875,-4.16407 2.95703,-1.64843 4.4336,-3.76172 4.4336,-6.34375 0,-1.10937 -0.42188,-2.04687 -1.26563,-2.80468 -0.92578,-0.83204 -2.1875,-1.2461 -3.77344,-1.2461 -1.76172,0 -3.11328,0.52735 -4.05468,1.57813 -0.76954,0.85547 -1.15235,1.88281 -1.15235,3.07812 0,1.40625 0.88672,3.36328 2.65625,5.86719 -4.42578,2.71484 -6.63672,5.70312 -6.63672,8.96484 0,1.77344 0.72657,3.36719 2.1836,4.78516 1.58984,1.56641 3.5625,2.34766 5.92187,2.34766 3.42188,0 6.08594,-1.08594 7.99219,-3.26172 0.92969,1.22265 1.55859,2.03515 1.89062,2.4375 h 4.49219 c -1.22656,-1.19922 -2.625,-2.6875 -4.19922,-4.47266 m -9.42578,-12.19531 c -1.22265,-1.71094 -1.83203,-3.14063 -1.83203,-4.28906 0,-0.87891 0.23438,-1.59375 0.70703,-2.14454 0.46875,-0.55078 1.09375,-0.82421 1.87891,-0.82421 0.84375,0 1.47656,0.34765 1.90625,1.04296 0.30469,0.50391 0.45703,1.04688 0.45703,1.63282 0,1.76172 -1.03906,3.28906 -3.11719,4.58203 m 3.41016,14.46875 c -1.08594,0.5625 -2.1875,0.84375 -3.30078,0.84375 -1.5625,0 -2.88282,-0.57031 -3.96094,-1.70703 -0.96484,-1.01563 -1.44531,-2.13282 -1.44531,-3.35547 0,-3.21485 1.28906,-5.69531 3.86718,-7.44141 1.10157,1.53906 2.19922,3.07422 3.30079,4.60156 1.47656,2.05079 2.79296,3.76563 3.9414,5.13282 -0.58594,0.76953 -1.38672,1.41015 -2.40234,1.92578 m 29.0625,-19.83985 c -2.38281,-2.48046 -5.47266,-3.72265 -9.27735,-3.72265 h -5.90234 c -2.17578,0 -3.26172,1.02734 -3.26172,3.08203 V 312.25 c 0,2.05469 1.08594,3.08203 3.26172,3.08203 h 5.90234 c 3.80469,0 6.89454,-1.24219 9.27735,-3.72266 2.32422,-2.41015 3.48437,-5.44531 3.48437,-9.11328 0,-3.6914 -1.16015,-6.74609 -3.48437,-9.16797 m -3.19922,16.69532 c -1.85156,2.13281 -3.96094,3.19922 -6.33203,3.19922 h -4.36719 c -0.62109,0 -0.93359,-0.30079 -0.93359,-0.89844 v -19.67188 c 0,-0.625 0.3125,-0.9375 0.93359,-0.9375 h 4.36719 c 2.37109,0 4.47265,1.0586 6.30469,3.17188 1.87109,2.16406 2.80468,4.69922 2.80468,7.60937 0,2.88672 -0.92578,5.39453 -2.77734,7.52735"
       style="fill:#636161;fill-opacity:1;fill-rule:nonzero;stroke:none" />
    <path
       id="path395"
       d="m 398.53516,311.01562 h -10.87891 c -0.41406,0 -0.61719,-0.21484 -0.61719,-0.64062 v -28.30859 h -6.47265 v 29.28125 c 0,2.65625 1.21484,3.98437 3.64843,3.98437 h 14.36719 c 0.0664,-0.58594 0.0977,-1.25 0.0977,-1.99219 0,-1.07422 -0.0469,-1.85156 -0.14453,-2.32422 m 23.9414,-2.53906 v -9.125 c 0,-6.14844 -3.35156,-9.22265 -10.05078,-9.22265 -4.28516,0 -7.91016,0.98828 -10.88281,2.96484 0.26953,1.375 0.80469,2.57422 1.61328,3.60156 2.10156,-1.66015 4.52734,-2.48828 7.27734,-2.48828 3.38282,0 5.11328,0.95703 5.19141,2.86719 0.0469,1.08984 -1.35938,2.04687 -4.21875,2.86719 -7.32031,2.07421 -10.97656,5.55078 -10.97656,10.43359 0,1.58203 0.58203,2.94141 1.7539,4.07812 1.19922,1.19922 2.72657,1.80079 4.57422,1.80079 2.05469,0 3.6211,-0.19532 4.69531,-0.58985 1.83204,-0.68359 3.46875,-2.08984 4.90625,-4.22265 0,1.28125 0.27735,2.57812 0.83204,3.89062 h 6.54296 c -0.83984,-2.30859 -1.25781,-4.59375 -1.25781,-6.85547 m -8.22656,1.70703 c -1.32813,1.39453 -2.875,2.08985 -4.64453,2.08985 -1.89844,0 -2.84766,-1.00391 -2.84766,-3.01172 0,-2.81641 1.40625,-4.69531 4.22266,-5.64453 1.375,-0.45703 3.16797,-1.34375 5.3789,-2.65235 v 3.88672 c 0,2.10156 -0.70312,3.87891 -2.10937,5.33203 m 34.77734,-16.16797 c -2.12109,-2.10156 -4.71875,-3.15234 -7.80078,-3.15234 -2.73437,0 -4.98047,1.14453 -6.73437,3.4375 v -12.23437 h -6.37891 v 26.50781 c 0,2.97265 -0.32422,5.22265 -0.96875,6.75781 h 6.70703 c 0.42578,-1.26562 0.64063,-2.36328 0.64063,-3.29687 1.39062,2.75 3.63672,4.125 6.73437,4.125 3.06641,0 5.67969,-1.17188 7.84766,-3.50782 2.27344,-2.46875 3.41406,-5.62109 3.41406,-9.46093 0,-3.8086 -1.15625,-6.86719 -3.46094,-9.17579 m -4.69531,15.60157 c -1.10547,1.70703 -2.5,2.55859 -4.17187,2.55859 -1.69532,0 -3.09375,-0.85156 -4.21094,-2.55859 -1.11328,-1.70703 -1.67188,-3.84766 -1.67188,-6.42578 0,-2.5586 0.54688,-4.58985 1.63672,-6.09375 1.08985,-1.5 2.50391,-2.25 4.2461,-2.25 1.71875,0 3.125,0.75 4.20703,2.25 1.08203,1.5039 1.625,3.53515 1.625,6.09375 0,2.57812 -0.55469,4.71875 -1.66016,6.42578 m 29.01172,-4.83594 c -1.65625,-1.42578 -3.96484,-2.61719 -6.92188,-3.58203 -2.71875,-0.88281 -4.07812,-2.24219 -4.07812,-4.07813 0,-0.88281 0.32422,-1.60937 0.97266,-2.17968 0.71093,-0.61719 1.71484,-0.92579 3.01171,-0.92579 2.65625,0 5.05079,0.91016 7.1836,2.72657 0.85156,-1.16797 1.39062,-2.3711 1.60937,-3.60157 -2.36718,-2.07031 -5.75,-3.10937 -10.14453,-3.10937 -2.65625,0 -4.89844,0.64453 -6.73437,1.92187 -1.89453,1.34375 -2.84375,3.06641 -2.84375,5.16797 0,3.03516 2.88281,5.49219 8.65234,7.375 3.16016,1.04297 4.74219,2.56641 4.74219,4.57422 0,2.16797 -1.46875,3.25 -4.41016,3.25 -3.09765,0 -5.70703,-0.89453 -7.82422,-2.67969 -0.83593,1.15235 -1.36718,2.33985 -1.58593,3.55469 2.35546,2.07031 5.95703,3.10547 10.80859,3.10547 2.97266,0 5.375,-0.66016 7.20703,-1.98047 1.83594,-1.3164 2.75,-3.0664 2.75,-5.25 0,-1.48437 -0.79687,-2.91406 -2.39453,-4.28906"
       style="fill:#1c61b5;fill-opacity:1;fill-rule:nonzero;stroke:none" />
    <path
       id="path397"
       d="m 242.10156,282.06641 h -4.71875 v 33.26171 h 4.71875 z m 27.61719,17.78125 c 0,-6.35157 -2.75,-9.53125 -8.25391,-9.53125 -3.98047,0 -6.94531,1.28125 -8.89062,3.84375 v -3.20313 h -4.59766 v 24.37109 h 4.59766 v -17.96875 c 0.55469,-0.99609 1.44922,-1.88671 2.67969,-2.67968 1.4375,-0.9336 2.89453,-1.39844 4.36328,-1.39844 3.73047,0 5.59375,2.02344 5.59375,6.07031 v 15.97656 h 4.50781 z m 13.08203,-18.60938 c -2.12109,0 -3.82031,0.65625 -5.09766,1.96875 -1.35937,1.40625 -2.03906,3.39063 -2.03906,5.94922 v 26.17187 h 4.55078 v -17.1875 h 5.19141 c 0.63281,-1.8789 0.94141,-2.89843 0.92578,-3.05859 h -6.11719 v -7.13672 c 0,-1.21484 0.35547,-2.16406 1.06641,-2.84375 0.63281,-0.59765 1.44531,-0.90234 2.44141,-0.90234 1.02734,0 2.1875,0.49219 3.48437,1.47265 0.82422,-1.01171 1.37891,-1.77734 1.66016,-2.30078 -1.375,-1.42187 -3.39844,-2.13281 -6.06641,-2.13281 m 13.53125,1.35156 c -0.49219,-0.5039 -1.08203,-0.75781 -1.77734,-0.75781 -0.71094,0 -1.32032,0.25391 -1.82813,0.75781 -0.5039,0.50391 -0.75781,1.10547 -0.75781,1.80078 0,0.71094 0.25391,1.32032 0.75781,1.82813 0.50781,0.50391 1.11719,0.75781 1.82813,0.75781 0.69531,0 1.28515,-0.2539 1.77734,-0.75781 0.48828,-0.50781 0.73438,-1.11719 0.73438,-1.82813 0,-0.69531 -0.2461,-1.29687 -0.73438,-1.80078 m 0.54688,8.36719 h -4.625 v 24.37109 h 4.625 z m 28.13281,8.89063 c 0,-6.35157 -2.75,-9.53125 -8.25,-9.53125 -3.98047,0 -6.94531,1.28125 -8.89063,3.84375 v -3.20313 h -4.59765 v 24.37109 h 4.59765 v -17.96875 c 0.55469,-0.99609 1.44922,-1.88671 2.67969,-2.67968 1.4375,-0.9336 2.89453,-1.39844 4.36328,-1.39844 3.73047,0 5.59375,2.02344 5.59375,6.07031 v 15.97656 h 4.50391 z m 10.30859,-17.25782 c -0.48828,-0.5039 -1.08203,-0.75781 -1.77734,-0.75781 -0.71094,0 -1.32031,0.25391 -1.82422,0.75781 -0.50781,0.50391 -0.75781,1.10547 -0.75781,1.80078 0,0.71094 0.25,1.32032 0.75781,1.82813 0.50391,0.50391 1.11328,0.75781 1.82422,0.75781 0.69531,0 1.28906,-0.2539 1.77734,-0.75781 0.49219,-0.50781 0.73438,-1.11719 0.73438,-1.82813 0,-0.69531 -0.24219,-1.29687 -0.73438,-1.80078 m 0.54688,8.36719 h -4.625 v 24.37109 h 4.625 z m 17.89453,20.53125 c -1.15235,1.04297 -2.31641,1.56641 -3.48438,1.56641 -1.08984,0 -1.96484,-0.37891 -2.62109,-1.14063 -0.65625,-0.75781 -0.98438,-1.70312 -0.98438,-2.84375 v -15.05469 h 5.19141 c 0.74609,-0.92968 1.1875,-1.94921 1.32813,-3.05859 h -6.51954 v -8.89062 c -1.76953,0.2539 -3.28515,0.91796 -4.55078,1.99218 v 24.1836 c 0,5.27734 2.24219,7.91797 6.73438,7.91797 2.84375,0 4.96875,-0.72657 6.375,-2.17969 -0.53516,-1.125 -1.02735,-1.95313 -1.46875,-2.49219 m 18.48828,-20.53125 -4.64844,17.97266 c -0.125,0.47265 -0.27734,0.71093 -0.44922,0.71093 -0.17578,0 -0.33203,-0.22265 -0.47265,-0.66406 L 360.75,290.95703 h -4.95313 l 9.57813,24.37109 -1.11328,3.60547 c -0.32031,0.98047 -0.8711,1.75391 -1.66016,2.32422 -0.67969,0.48828 -1.375,0.73438 -2.08594,0.73438 -0.79296,0 -1.53515,-0.2461 -2.23046,-0.73438 -1.1211,1.04297 -1.73829,1.69141 -1.84766,1.94141 1.23047,1.23437 2.73437,1.85156 4.50391,1.85156 1.91015,0 3.58593,-0.77344 5.02734,-2.32422 1.16797,-1.25 2.06641,-2.83594 2.69922,-4.76562 l 8.67969,-27.00391 z m 0,0"
       style="fill:#636161;fill-opacity:1;fill-rule:nonzero;stroke:none" />
  </g>
</svg>
