<?xml version="1.0" encoding="utf-8"?>
<!-- Generator: Adobe Illustrator 23.0.2, SVG Export Plug-In . SVG Version: 6.00 Build 0)  -->
<svg version="1.1" id="Layer_1" xmlns="http://www.w3.org/2000/svg" xmlns:xlink="http://www.w3.org/1999/xlink" x="0px" y="0px"
	 viewBox="0 0 198.2 47.2" style="enable-background:new 0 0 198.2 47.2;" xml:space="preserve">
<style type="text/css">
	.st0{fill:#231F20;}
	.st1{fill:#ED1D24;}
</style>
<g>
	<path class="st0" d="M3.5,40.8H2.4l-2.3,6.3h0.9l0.6-1.8h2.7l0.6,1.8h0.9L3.5,40.8L3.5,40.8z M1.8,44.6l1.1-3.1L4,44.6H1.8
		L1.8,44.6z M14.9,46.3h-3.2v-5.6h-0.8v6.3h4V46.3L14.9,46.3z"/>
	<polygon class="st0" points="22.7,46.3 19.6,46.3 19.6,40.8 18.8,40.8 18.8,47.1 22.7,47.1 22.7,46.3 	"/>
	<path class="st0" d="M36.4,46.4h-0.8v-5h0.8v-0.6h-2.5v0.6h0.8v5h-0.8v0.6h2.5V46.4L36.4,46.4z M44.1,44.2
		c-0.2-0.3-0.6-0.4-1.1-0.6c-0.2-0.1-0.5-0.1-0.8-0.2c-0.3-0.1-0.6-0.1-0.8-0.1c-0.3-0.1-0.6-0.2-0.7-0.3c-0.1-0.1-0.2-0.4-0.2-0.6
		c0-0.3,0.1-0.5,0.4-0.7c0.3-0.2,0.6-0.3,1.1-0.3c0.4,0,0.8,0.1,1.2,0.2c0.4,0.1,0.7,0.3,0.9,0.5h0.1v-1c-0.3-0.1-0.6-0.2-1-0.3
		c-0.4-0.1-0.8-0.1-1.2-0.1c-0.7,0-1.3,0.2-1.7,0.5c-0.4,0.3-0.7,0.8-0.7,1.3c0,0.5,0.1,0.8,0.4,1.1c0.3,0.3,0.7,0.5,1.2,0.6
		c0.3,0.1,0.5,0.1,0.8,0.1c0.2,0,0.5,0.1,0.7,0.1c0.3,0.1,0.5,0.2,0.6,0.3c0.1,0.1,0.2,0.3,0.2,0.6c0,0.3-0.1,0.6-0.4,0.8
		c-0.3,0.2-0.7,0.3-1.2,0.3c-0.4,0-0.8-0.1-1.2-0.2c-0.4-0.1-0.8-0.3-1.1-0.6h-0.1v1.1c0.4,0.2,0.7,0.3,1.1,0.4
		c0.4,0.1,0.8,0.1,1.2,0.1c0.4,0,0.8-0.1,1.1-0.2c0.3-0.1,0.6-0.2,0.8-0.4c0.2-0.2,0.4-0.4,0.5-0.6c0.1-0.2,0.2-0.5,0.2-0.7
		C44.4,44.8,44.3,44.5,44.1,44.2L44.1,44.2z"/>
	<polygon class="st0" points="58.8,46.4 58,46.4 58,41.4 58.8,41.4 58.8,40.8 56.4,40.8 56.4,41.4 57.2,41.4 57.2,46.4 56.4,46.4 
		56.4,47.1 58.8,47.1 58.8,46.4 	"/>
	<path class="st0" d="M68.7,46.3h-3.2v-5.6h-0.8v6.3h4V46.3L68.7,46.3z M78.3,46.3h-3.2v-5.6h-0.8v6.3h4V46.3L78.3,46.3z"/>
	<path class="st0" d="M89.2,40.8h-0.8v3.8c0,0.3,0,0.6-0.1,0.8c0,0.2-0.1,0.4-0.2,0.6c-0.1,0.2-0.3,0.3-0.5,0.4
		c-0.2,0.1-0.5,0.1-0.8,0.1c-0.3,0-0.6,0-0.8-0.1c-0.2-0.1-0.4-0.2-0.5-0.4c-0.1-0.2-0.2-0.3-0.2-0.5c0-0.2-0.1-0.5-0.1-0.8v-3.8
		h-0.8v3.8c0,0.5,0.1,0.9,0.2,1.2c0.1,0.3,0.3,0.6,0.5,0.8c0.2,0.2,0.4,0.4,0.7,0.5c0.3,0.1,0.6,0.2,1,0.2c0.4,0,0.7,0,1-0.1
		c0.3-0.1,0.5-0.3,0.8-0.5c0.2-0.2,0.4-0.5,0.5-0.9c0.1-0.3,0.2-0.7,0.2-1.2V40.8L89.2,40.8z M103.2,40.8h-1.2l-1.6,3.5l-1.7-3.5
		h-1.1v6.3h0.8v-5.4l1.7,3.7h0.5l1.8-3.7v5.4h0.8V40.8L103.2,40.8z"/>
	<path class="st0" d="M113.9,46.4h-0.8v-5h0.8v-0.6h-2.5v0.6h0.8v5h-0.8v0.6h2.5V46.4L113.9,46.4z M125.3,40.8h-0.8v5.2l-2.7-5.2
		h-1.3v6.3h0.8v-5.6l3,5.6h1V40.8L125.3,40.8z"/>
	<path class="st0" d="M137.3,40.8h-1.1l-2.3,6.3h0.9l0.6-1.8h2.7l0.6,1.8h0.9L137.3,40.8L137.3,40.8z M135.7,44.6l1.1-3.1l1.1,3.1
		H135.7L135.7,44.6z M152,40.8h-5.4v0.7h2.3v5.6h0.8v-5.6h2.3V40.8L152,40.8z"/>
	<path class="st0" d="M162.6,46.3h-3.3V44h3.3v-0.7h-3.3v-1.7h3.3v-0.7h-4.2v6.3h4.2V46.3L162.6,46.3z M175.1,42.4
		c-0.2-0.4-0.6-0.8-1-1.1c-0.3-0.2-0.6-0.3-0.9-0.4c-0.4-0.1-0.9-0.1-1.5-0.1h-1.6v6.3h1.6c0.6,0,1,0,1.4-0.1c0.4-0.1,0.7-0.2,1-0.4
		c0.4-0.3,0.7-0.6,1-1.1c0.3-0.5,0.4-1,0.4-1.6C175.5,43.3,175.4,42.8,175.1,42.4L175.1,42.4z M174.4,45.2c-0.2,0.3-0.4,0.6-0.7,0.8
		c-0.3,0.2-0.5,0.3-0.8,0.3c-0.3,0.1-0.7,0.1-1.1,0.1H171v-4.9h0.8c0.4,0,0.7,0,1,0.1c0.3,0.1,0.5,0.2,0.8,0.3
		c0.3,0.2,0.6,0.5,0.8,0.8c0.2,0.3,0.3,0.8,0.3,1.3C174.6,44.4,174.5,44.8,174.4,45.2L174.4,45.2z"/>
	<rect x="36.8" y="22.8" class="st0" width="1.2" height="8.7"/>
	<path class="st0" d="M59.6,0L37.4,22.2L15.2,0h-1.7l23.9,23.9L61.3,0H59.6z M59.6,0"/>
	<rect x="173.7" y="22.8" class="st0" width="1.2" height="8.7"/>
	<path class="st0" d="M196.5,0l-22.2,22.2L152.1,0h-1.7l23.9,23.9L198.2,0H196.5z M196.5,0"/>
	<polyline class="st1" points="144.2,4.8 134.5,14.5 153.9,14.5 	"/>
	<path class="st0" d="M122.5,23.4l21.7-21.7l21.7,21.7h1.7L144.2,0l-23.4,23.4H122.5z M122.5,23.4"/>
	<path class="st0" d="M136.3,0l-21.7,21.7l-6.3-6.3l4.2-4.2h-1.7l-3.4,3.4l-3.4-3.4h-1.7l4.2,4.2l-6.3,6.3L78.7,0H77l23.4,23.4
		l7.1-7.1l7.1,7.1L138,0H136.3z M136.3,0"/>
	<path class="st0" d="M29.4,22.2H1.2v-7.7h17.5l-1.2-1.2H1.2l0-12h10.3L10.3,0H0v23.4h30.6L29.4,22.2z M29.4,22.2"/>
	<path class="st0" d="M92.9,22.2H64.7v-7.7h17.5l-1.2-1.2H64.7l0-12H75L73.8,0H63.5v23.4h30.6L92.9,22.2z M92.9,22.2"/>
</g>
</svg>
