<svg id="Calque_1" data-name="Calque 1" xmlns="http://www.w3.org/2000/svg" xmlns:xlink="http://www.w3.org/1999/xlink" viewBox="0 0 2133 1494"><defs><style>.cls-1{fill:#fbd730;}.cls-2{fill:url(#Dégradé_sans_nom_15);}.cls-3{fill:url(#Dégradé_sans_nom_7);}.cls-4{fill:url(#Dégradé_sans_nom_13);}.cls-5{fill:url(#Dégradé_sans_nom_7-2);}.cls-6{fill:url(#Dégradé_sans_nom_16);}.cls-7{fill:#eead89;}.cls-8{fill:url(#Dégradé_sans_nom_11);}.cls-9{fill:url(#Dégradé_sans_nom_11-2);}.cls-10{fill:#89c5bf;}</style><linearGradient id="Dégradé_sans_nom_15" x1="69.61" y1="407.44" x2="1018.84" y2="955.48" gradientUnits="userSpaceOnUse"><stop offset="0" stop-color="#97cac6"/><stop offset="0.49" stop-color="#6bb7b1"/><stop offset="0.8" stop-color="#638ba1"/><stop offset="1" stop-color="#5f7398"/></linearGradient><linearGradient id="Dégradé_sans_nom_7" x1="599.98" y1="810.79" x2="1046.86" y2="810.79" gradientUnits="userSpaceOnUse"><stop offset="0" stop-color="#97cac6"/><stop offset="0.13" stop-color="#6bb7b1"/><stop offset="0.66" stop-color="#638ba1"/><stop offset="1" stop-color="#5f7398"/></linearGradient><linearGradient id="Dégradé_sans_nom_13" x1="907.96" y1="503.31" x2="1298.51" y2="728.79" gradientUnits="userSpaceOnUse"><stop offset="0" stop-color="#97cac6"/><stop offset="0.13" stop-color="#6bb7b1"/><stop offset="0.51" stop-color="#6bb3af"/><stop offset="0.8" stop-color="#638ba0"/><stop offset="1" stop-color="#5f7398"/></linearGradient><linearGradient id="Dégradé_sans_nom_7-2" x1="1158.71" y1="1164.79" x2="1606.89" y2="1164.79" xlink:href="#Dégradé_sans_nom_7"/><linearGradient id="Dégradé_sans_nom_16" x1="1243.29" y1="696.43" x2="1352.8" y2="759.66" gradientUnits="userSpaceOnUse"><stop offset="0" stop-color="#97cac6"/><stop offset="0.08" stop-color="#6bb7b1"/><stop offset="0.64" stop-color="#638ba1"/><stop offset="1" stop-color="#5f7398"/></linearGradient><linearGradient id="Dégradé_sans_nom_11" x1="1496.49" y1="907.3" x2="1830.54" y2="907.3" gradientUnits="userSpaceOnUse"><stop offset="0" stop-color="#97cac6"/><stop offset="0.53" stop-color="#6bb7b1"/><stop offset="0.82" stop-color="#638ba1"/><stop offset="1" stop-color="#5f7398"/></linearGradient><linearGradient id="Dégradé_sans_nom_11-2" x1="1326.68" y1="422.15" x2="1608.2" y2="584.69" xlink:href="#Dégradé_sans_nom_11"/><symbol id="logolisse1" data-name="logolisse1" viewBox="0 0 2052.42 1403.76"><g id="_Groupe_" data-name="&lt;Groupe&gt;"><g id="_Groupe_2" data-name="&lt;Groupe&gt;"><path id="_Tracé_" data-name="&lt;Tracé&gt;" class="cls-1" d="M1670.07,557.28"/><polygon id="_Tracé_2" data-name="&lt;Tracé&gt;" class="cls-1" points="1272.99 519.39 1381.47 584.2 1379.21 713.15 1270.92 647.8 1272.99 519.39"/><polygon id="_Tracé_3" data-name="&lt;Tracé&gt;" class="cls-2" points="265.28 68.52 265.16 970.71 823.17 1294.4 823.17 1165.2 376.96 906.1 377.09 262.29 712.58 456.01 712.58 326.81 265.28 68.52"/><polygon id="_Tracé_4" data-name="&lt;Tracé&gt;" class="cls-3" points="599.98 650.14 599.98 779.34 934.98 971.44 1046.86 906.35 599.98 650.14"/><polygon id="_Tracé_5" data-name="&lt;Tracé&gt;" class="cls-4" points="1047.75 261.17 1159.56 325.73 1158.71 970.92 1046.86 906.35 1047.75 261.17"/><polygon id="_Tracé_6" data-name="&lt;Tracé&gt;" class="cls-5" points="1158.71 970.92 1158.71 1099.87 1606.89 1358.66 1606.71 1230.28 1158.71 970.92"/><polygon id="_Tracé_7" data-name="&lt;Tracé&gt;" class="cls-6" points="1271.36 647.8 1271.36 777.48 1379.65 713.15 1271.36 647.8"/><polygon id="_Tracé_8" data-name="&lt;Tracé&gt;" class="cls-7" points="823.17 1165.2 1158.71 970.92 1158.71 1099.87 823.17 1294.4 823.17 1165.2"/><polygon id="_Tracé_9" data-name="&lt;Tracé&gt;" class="cls-7" points="377.09 262.29 487.94 326.3 487.94 841.71 376.96 906.1 377.09 262.29"/><polygon id="_Tracé_10" data-name="&lt;Tracé&gt;" class="cls-7" points="1606.71 1230.28 2052.42 970.92 2052.42 1100.17 1606.89 1358.66 1606.71 1230.28"/><polygon id="_Tracé_11" data-name="&lt;Tracé&gt;" class="cls-8" points="1496.49 778.17 1830.54 971.44 1718.73 1036.42 1496.49 907.31 1496.49 778.17"/><polygon id="_Tracé_12" data-name="&lt;Tracé&gt;" class="cls-7" points="712.58 326.81 822.49 262.29 822.49 391.43 712.58 456.01 712.58 326.81"/><path id="_Tracé_13" data-name="&lt;Tracé&gt;" class="cls-7" d="M1271.41,906.1"/><polygon id="_Tracé_14" data-name="&lt;Tracé&gt;" class="cls-7" points="1271.41 906.1 1496.49 778.17 1496.49 907.31 1383.95 971.44 1271.41 906.1"/><polygon id="_Tracé_15" data-name="&lt;Tracé&gt;" class="cls-7" points="824.03 647.8 1046.62 519.39 1047.75 650.14 935.89 712.64 824.03 647.8"/><polygon id="_Tracé_16" data-name="&lt;Tracé&gt;" class="cls-1" points="376.42 3.15 265.28 68.52 712.58 326.81 822.49 262.29 376.42 3.15"/><polygon id="_Tracé_17" data-name="&lt;Tracé&gt;" class="cls-1" points="487.94 841.71 376.96 906.1 823.17 1165.2 1158.71 970.92 1046.86 906.35 822.49 1034.89 487.94 841.71"/><polygon id="_Tracé_18" data-name="&lt;Tracé&gt;" class="cls-1" points="599.98 650.14 1046.86 391.91 1046.62 519.39 824.03 647.8 1046.24 777.48 1046.86 906.35 599.98 650.14"/><polygon id="_Tracé_19" data-name="&lt;Tracé&gt;" class="cls-1" points="1271.41 906.1 1271.36 777.48 1379.65 713.15 1496.49 778.17 1271.41 906.1"/><polygon id="_Tracé_20" data-name="&lt;Tracé&gt;" class="cls-1" points="1158.71 970.92 1271.41 906.1 1605.12 1100.19 1830.54 971.44 1496.49 778.17 1605.12 712.64 2052.42 970.92 1606.71 1230.28 1158.71 970.92"/><polygon id="_Tracé_21" data-name="&lt;Tracé&gt;" class="cls-1" points="1047.75 261.17 1496.49 0 1605.12 65.98 1159.56 325.73 1047.75 261.17"/><polygon id="_Tracé_22" data-name="&lt;Tracé&gt;" class="cls-1" points="1381.47 584.2 1265.93 513.95 1271.36 647.8 1379.65 713.15 1381.47 584.2"/><polygon id="_Tracé_23" data-name="&lt;Tracé&gt;" class="cls-7" points="1496.49 778.17 1605.12 712.64 1605.12 65.98 1159.56 325.73 1158.71 970.92 1271.41 906.1 1269.07 389.94 1497.94 260.61 1496.49 778.17"/><polygon id="_Tracé_24" data-name="&lt;Tracé&gt;" class="cls-9" points="1497.94 260.61 1496.49 778.17 1379.65 713.15 1382.36 325.7 1497.94 260.61"/></g><g id="_Groupe_3" data-name="&lt;Groupe&gt;"><polygon id="_Tracé_25" data-name="&lt;Tracé&gt;" class="cls-10" points="126.69 1169.06 101.82 1183.77 0 1125.08 177.37 1022.92 278.72 1081.44 253.39 1096.1 177.37 1052.35 50.45 1125.63 126.69 1169.06"/><g id="_Groupe_4" data-name="&lt;Groupe&gt;"><polygon id="_Tracé_26" data-name="&lt;Tracé&gt;" class="cls-10" points="126.38 1198.56 303.7 1096.17 430.44 1169.36 405.1 1183.71 303.42 1125.28 151.71 1213.08 126.38 1198.56"/><polygon id="_Tracé_27" data-name="&lt;Tracé&gt;" class="cls-10" points="329.08 1198.65 252.7 1154.63 227.72 1169.09 329.08 1227.91 405.1 1183.71 379.76 1169.14 329.08 1198.65"/></g><g id="_Groupe_5" data-name="&lt;Groupe&gt;"><polygon id="_Tracé_28" data-name="&lt;Tracé&gt;" class="cls-10" points="278.73 1286.58 456.05 1184.19 582.79 1257.37 557.46 1271.72 455.77 1213.29 304.07 1301.1 278.73 1286.58"/><polygon id="_Tracé_29" data-name="&lt;Tracé&gt;" class="cls-10" points="481.44 1286.66 405.06 1242.64 380.07 1257.1 481.44 1315.92 557.46 1271.72 532.11 1257.16 481.44 1286.66"/></g><g id="_Groupe_6" data-name="&lt;Groupe&gt;"><polygon id="_Tracé_30" data-name="&lt;Tracé&gt;" class="cls-10" points="431.26 1374.41 608.58 1272.02 735.32 1345.21 709.99 1359.56 608.3 1301.13 456.6 1388.93 431.26 1374.41"/><polygon id="_Tracé_31" data-name="&lt;Tracé&gt;" class="cls-10" points="633.97 1374.5 557.59 1330.48 532.6 1344.94 633.97 1403.76 709.99 1359.56 684.64 1344.99 633.97 1374.5"/></g></g></g></symbol></defs><title>Plan de travail 1</title><use id="logolisse1-3" data-name="logolisse1" width="2052.42" height="1403.76" transform="translate(35.81 48.72)" xlink:href="#logolisse1"/></svg>