<?xml version="1.0" encoding="UTF-8" standalone="no"?>
<svg
   xmlns:dc="http://purl.org/dc/elements/1.1/"
   xmlns:cc="http://creativecommons.org/ns#"
   xmlns:rdf="http://www.w3.org/1999/02/22-rdf-syntax-ns#"
   xmlns:svg="http://www.w3.org/2000/svg"
   xmlns="http://www.w3.org/2000/svg"
   viewBox="0 0 289.10239 83.856935"
   height="83.856934"
   width="289.10239"
   xml:space="preserve"
   id="svg953"
   version="1.1"><metadata
     id="metadata959"><rdf:RDF><cc:Work
         rdf:about=""><dc:format>image/svg+xml</dc:format><dc:type
           rdf:resource="http://purl.org/dc/dcmitype/StillImage" /><dc:title></dc:title></cc:Work></rdf:RDF></metadata><defs
     id="defs957"><clipPath
       id="clipPath995"
       clipPathUnits="userSpaceOnUse"><path
         id="path993"
         d="M 0,0 H 255.118 V 141.732 H 0 Z" /></clipPath><clipPath
       id="clipPath1023"
       clipPathUnits="userSpaceOnUse"><path
         id="path1021"
         d="M 0,0 H 255.118 V 141.732 H 0 Z" /></clipPath></defs><g
     transform="matrix(1.3333333,0,0,-1.3333333,-25.527733,135.054)"
     id="g961"><g
       id="g1064"><g
         id="g963"
         transform="translate(77.1454,74.7168)"><path
           d="M 0,0 V 12.791 L 8.709,0.307 17.419,12.791 V 0 h 6.15 V 23.63 H 17.983 L 8.709,10.336 -0.565,23.63 H -6.152 V 0 Z"
           style="fill:#231f20;fill-opacity:1;fill-rule:nonzero;stroke:none"
           id="path965" /></g><g
         id="g967"
         transform="translate(55.6457,89.7833)"><path
           d="m 0,0 -5.963,8.564 h -6.592 l -0.286,-0.365 9.763,-14.027 v -9.238 h 6.152 v 9.238 L 13.093,8.564 H 5.959 Z"
           style="fill:#231f20;fill-opacity:1;fill-rule:nonzero;stroke:none"
           id="path969" /></g><g
         id="g971"
         transform="translate(180.9249,98.3469)"><path
           d="M 0,0 H -1.366 -6.151 V -23.63 H 0 Z"
           style="fill:#231f20;fill-opacity:1;fill-rule:nonzero;stroke:none"
           id="path973" /></g><g
         id="g975"
         transform="translate(156.2259,93.1625)"><path
           d="M 0,0 V -18.446 H 6.151 V 0 h 8.681 V 5.185 H -8.681 V 0 Z"
           style="fill:#231f20;fill-opacity:1;fill-rule:nonzero;stroke:none"
           id="path977" /></g><g
         id="g979"
         transform="translate(200.302,74.7168)"><path
           d="M 0,0 10.606,23.63 H 4.029 L -2.699,8.639 -9.426,23.63 h -6.578 L -5.398,0 Z"
           style="fill:#231f20;fill-opacity:1;fill-rule:nonzero;stroke:none"
           id="path981" /></g><g
         id="g983"
         transform="translate(235.9726,79.9016)"><path
           d="M 0,0 H -15.994 V 4.037 H -5.435 V 9.223 H -15.994 V 13.26 H 0 v 5.185 H -22.144 V -5.185 H 0 Z"
           style="fill:#231f20;fill-opacity:1;fill-rule:nonzero;stroke:none"
           id="path985" /></g><path
         d="M 137.52,75.002 H 106.711 V 98.374 H 137.52 Z"
         style="fill:#80d6f7;fill-opacity:1;fill-rule:nonzero;stroke:none"
         id="path987" /><g
         id="g989"><g
           id="g991"
           clip-path="url(#clipPath995)"><g
             id="g997"
             transform="translate(132.3712,73.2705)"><path
               d="m 0,0 c -7.41,0 -13.417,6.007 -13.417,13.417 0,7.411 6.007,13.418 13.417,13.418 7.41,0 13.417,-6.007 13.417,-13.418 C 13.417,6.007 7.41,0 0,0"
               style="fill:#3996d2;fill-opacity:1;fill-rule:nonzero;stroke:none"
               id="path999" /></g><g
             id="g1001"
             transform="translate(132.3712,73.2705)"><path
               d="m 0,0 c -7.41,0 -13.417,6.007 -13.417,13.417 0,7.411 6.007,13.418 13.417,13.418 7.41,0 13.417,-6.007 13.417,-13.418 C 13.417,6.007 7.41,0 0,0 Z"
               style="fill:none;stroke:#ffffff;stroke-width:2.36999989;stroke-linecap:butt;stroke-linejoin:miter;stroke-miterlimit:4;stroke-dasharray:none;stroke-opacity:1"
               id="path1003" /></g><g
             id="g1005"
             transform="translate(139.1835,78.7412)"><path
               d="m 0,0 c -4.389,0 -7.946,3.558 -7.946,7.946 0,4.389 3.557,7.947 7.946,7.947 4.389,0 7.946,-3.558 7.946,-7.947 C 7.946,3.558 4.389,0 0,0"
               style="fill:#0d4a80;fill-opacity:1;fill-rule:nonzero;stroke:none"
               id="path1007" /></g><g
             id="g1009"
             transform="translate(139.1835,78.7412)"><path
               d="m 0,0 c -4.389,0 -7.946,3.558 -7.946,7.946 0,4.389 3.557,7.947 7.946,7.947 4.389,0 7.946,-3.558 7.946,-7.947 C 7.946,3.558 4.389,0 0,0 Z"
               style="fill:none;stroke:#ffffff;stroke-width:2.36999989;stroke-linecap:butt;stroke-linejoin:miter;stroke-miterlimit:4;stroke-dasharray:none;stroke-opacity:1"
               id="path1011" /></g></g></g><g
         id="g1013"
         transform="translate(25.2958,79.9016)"><path
           d="m 0,0 v 13.26 h 11.21 v -0.012 h 4.011 v 5.197 H -6.15 v -23.63 h 21.371 v 5.172"
           style="fill:#231f20;fill-opacity:1;fill-rule:nonzero;stroke:none"
           id="path1015" /></g><g
         id="g1017"><g
           id="g1019"
           clip-path="url(#clipPath1023)"><g
             id="g1025"
             transform="translate(27.7794,65.1016)"><path
               d="M 0,0 V 0.687 H -4.937 V 0 h 2.084 v -6.517 h 0.768 V 0 Z m 18.317,-6.517 v 0.687 h -3.704 v 2.602 h 3.158 v 0.687 H 14.613 V 0 h 3.704 v 0.687 h -4.471 v -7.204 z m 18.844,2.083 h -0.769 c -0.192,-0.88 -0.83,-1.457 -1.731,-1.457 -0.475,0 -0.931,0.182 -1.244,0.506 -0.456,0.466 -0.506,0.962 -0.506,2.47 0,1.508 0.05,2.004 0.506,2.47 0.313,0.324 0.769,0.506 1.244,0.506 0.901,0 1.518,-0.577 1.711,-1.458 h 0.789 c -0.243,1.357 -1.204,2.145 -2.5,2.145 -0.708,0 -1.356,-0.263 -1.841,-0.748 -0.677,-0.678 -0.677,-1.387 -0.677,-2.915 0,-1.529 0,-2.237 0.677,-2.915 0.485,-0.485 1.133,-0.748 1.841,-0.748 1.286,0 2.267,0.788 2.5,2.144 m 19.158,-2.083 v 7.204 h -0.768 v -3.228 h -3.422 v 3.228 h -0.768 v -7.204 h 0.768 v 3.289 h 3.422 v -3.289 z m 19.906,0 V 0.687 H 75.457 V -5.071 L 71.63,0.687 h -0.727 v -7.204 h 0.768 v 5.777 l 3.827,-5.777 z m 19.35,3.602 c 0,1.528 0,2.237 -0.677,2.915 -0.486,0.485 -1.124,0.748 -1.843,0.748 -0.718,0 -1.356,-0.263 -1.842,-0.748 -0.677,-0.678 -0.677,-1.387 -0.677,-2.915 0,-1.529 0,-2.237 0.677,-2.915 0.486,-0.485 1.124,-0.748 1.842,-0.748 0.719,0 1.357,0.263 1.843,0.748 0.677,0.678 0.677,1.386 0.677,2.915 m -0.768,0 c 0,-1.508 -0.051,-1.994 -0.506,-2.46 -0.314,-0.324 -0.77,-0.516 -1.246,-0.516 -0.475,0 -0.931,0.192 -1.245,0.516 -0.455,0.466 -0.506,0.952 -0.506,2.46 0,1.508 0.051,1.994 0.506,2.459 0.314,0.324 0.77,0.517 1.245,0.517 0.476,0 0.932,-0.193 1.246,-0.517 0.455,-0.465 0.506,-0.951 0.506,-2.459 m 19.53,-3.602 v 0.687 h -3.683 v 6.517 h -0.768 v -7.204 z m 18.246,3.602 c 0,1.528 0,2.237 -0.677,2.915 -0.486,0.485 -1.124,0.748 -1.842,0.748 -0.719,0 -1.357,-0.263 -1.843,-0.748 -0.677,-0.678 -0.677,-1.387 -0.677,-2.915 0,-1.529 0,-2.237 0.677,-2.915 0.486,-0.485 1.124,-0.748 1.843,-0.748 0.718,0 1.356,0.263 1.842,0.748 0.677,0.678 0.677,1.386 0.677,2.915 m -0.768,0 c 0,-1.508 -0.051,-1.994 -0.506,-2.46 -0.314,-0.324 -0.77,-0.516 -1.245,-0.516 -0.476,0 -0.932,0.192 -1.246,0.516 -0.455,0.466 -0.506,0.952 -0.506,2.46 0,1.508 0.051,1.994 0.506,2.459 0.314,0.324 0.77,0.517 1.246,0.517 0.475,0 0.931,-0.193 1.245,-0.517 0.455,-0.465 0.506,-0.951 0.506,-2.459 m 19.865,-0.971 v 1.142 h -2.539 v -0.677 h 1.77 v -0.546 c 0,-0.557 -0.111,-0.952 -0.405,-1.307 -0.334,-0.405 -0.839,-0.617 -1.365,-0.617 -0.476,0 -0.932,0.182 -1.246,0.506 -0.456,0.466 -0.506,0.962 -0.506,2.469 0,1.509 0.05,1.995 0.506,2.46 0.314,0.324 0.77,0.517 1.246,0.517 0.9,0 1.547,-0.557 1.75,-1.468 h 0.768 c -0.212,1.265 -1.143,2.155 -2.518,2.155 -0.719,0 -1.357,-0.263 -1.843,-0.748 -0.677,-0.678 -0.677,-1.387 -0.677,-2.916 0,-1.527 0,-2.236 0.677,-2.914 0.486,-0.485 1.134,-0.748 1.843,-0.748 0.738,0 1.416,0.283 1.922,0.829 0.445,0.475 0.617,1.032 0.617,1.863 m 15.058,4.573 h -0.768 v -7.204 h 0.768 z m 19.057,-7.204 v 0.687 h -3.704 v 2.602 h 3.157 v 0.687 h -3.157 V 0 h 3.704 v 0.687 h -4.472 v -7.204 z m 18.439,1.982 c 0,0.597 -0.213,1.093 -0.607,1.427 -0.303,0.264 -0.637,0.405 -1.315,0.507 l -0.79,0.121 c -0.375,0.061 -0.749,0.202 -0.972,0.395 -0.223,0.192 -0.324,0.476 -0.324,0.83 0,0.799 0.557,1.336 1.519,1.336 0.759,0 1.235,-0.213 1.68,-0.617 l 0.495,0.496 c -0.616,0.555 -1.224,0.788 -2.145,0.788 -1.428,0 -2.307,-0.809 -2.307,-2.034 0,-0.577 0.182,-1.022 0.546,-1.346 0.313,-0.273 0.759,-0.455 1.326,-0.546 l 0.84,-0.132 c 0.526,-0.081 0.709,-0.142 0.941,-0.344 0.233,-0.203 0.345,-0.527 0.345,-0.901 0,-0.84 -0.648,-1.336 -1.701,-1.336 -0.81,0 -1.367,0.192 -1.963,0.789 l -0.526,-0.526 c 0.677,-0.677 1.385,-0.95 2.469,-0.95 1.498,0 2.489,0.778 2.489,2.043"
               style="fill:#231f20;fill-opacity:1;fill-rule:nonzero;stroke:none"
               id="path1027" /></g><g
             id="g1029"
             transform="translate(57.5474,42.4388)"><path
               d="m 0,0 h -0.737 c -0.184,-0.844 -0.795,-1.396 -1.657,-1.396 -0.456,0 -0.892,0.174 -1.193,0.485 -0.436,0.446 -0.484,0.921 -0.484,2.365 0,1.445 0.048,1.92 0.484,2.366 0.301,0.31 0.737,0.485 1.193,0.485 0.862,0 1.454,-0.553 1.638,-1.396 H 0 c -0.233,1.299 -1.154,2.054 -2.394,2.054 -0.679,0 -1.299,-0.252 -1.764,-0.716 -0.649,-0.65 -0.649,-1.329 -0.649,-2.793 0,-1.464 0,-2.142 0.649,-2.792 0.465,-0.465 1.085,-0.716 1.764,-0.716 1.231,0 2.171,0.755 2.394,2.054 M 6.311,2.772 H 5.555 L 4.256,-1.057 2.947,2.772 H 2.191 L 3.907,-1.9 3.568,-2.831 C 3.413,-3.267 3.267,-3.422 2.783,-3.422 H 2.569 V -4.041 H 2.87 c 0.339,0 0.678,0.087 0.93,0.329 0.136,0.125 0.243,0.3 0.34,0.561 z m 6.223,-2.384 c 0,0.747 -0.097,1.542 -0.581,2.026 C 11.701,2.666 11.274,2.83 10.789,2.83 10.266,2.83 9.829,2.714 9.441,2.221 V 4.905 H 8.745 v -6.901 h 0.696 v 0.571 c 0.388,-0.503 0.825,-0.629 1.348,-0.629 0.485,0 0.912,0.164 1.164,0.416 0.484,0.484 0.581,1.279 0.581,2.026 m -0.697,0 c 0,-0.931 -0.155,-1.823 -1.193,-1.823 -1.038,0 -1.203,0.892 -1.203,1.823 0,0.931 0.165,1.823 1.203,1.823 1.038,0 1.193,-0.892 1.193,-1.823 m 7.298,-0.184 v 0.32 c 0,1.415 -0.727,2.306 -1.958,2.306 -1.212,0 -1.957,-0.9 -1.957,-2.442 0,-1.687 0.823,-2.442 2.083,-2.442 0.814,0 1.26,0.251 1.745,0.735 l -0.475,0.418 c -0.378,-0.379 -0.698,-0.544 -1.251,-0.544 -0.911,0 -1.405,0.602 -1.405,1.649 z m -0.698,0.523 h -2.52 c 0.019,0.388 0.038,0.533 0.145,0.795 0.184,0.437 0.611,0.718 1.115,0.718 0.504,0 0.93,-0.281 1.115,-0.718 0.106,-0.262 0.126,-0.407 0.145,-0.795 m 6.815,1.658 C 24.912,2.724 24.563,2.83 24.108,2.83 23.555,2.83 23.032,2.588 22.77,2.192 v 0.58 h -0.697 v -4.768 h 0.697 v 2.927 c 0,0.727 0.446,1.28 1.144,1.28 0.368,0 0.562,-0.087 0.824,-0.349 z m 9.3,-2.986 c 0,0.892 -0.57,1.212 -1.404,1.289 l -0.766,0.068 c -0.602,0.048 -0.835,0.291 -0.835,0.698 0,0.485 0.369,0.786 1.067,0.786 0.495,0 0.931,-0.116 1.271,-0.378 L 34.34,2.318 C 33.914,2.666 33.303,2.83 32.624,2.83 31.606,2.83 30.87,2.308 30.87,1.435 c 0,-0.786 0.494,-1.202 1.424,-1.279 L 33.08,0.088 c 0.553,-0.048 0.795,-0.281 0.795,-0.698 0,-0.563 -0.485,-0.844 -1.27,-0.844 -0.592,0 -1.106,0.155 -1.483,0.553 l -0.465,-0.466 c 0.523,-0.503 1.152,-0.687 1.957,-0.687 1.154,0 1.938,0.532 1.938,1.453 m 6.476,0.805 v 0.32 c 0,1.415 -0.727,2.306 -1.958,2.306 -1.212,0 -1.957,-0.9 -1.957,-2.442 0,-1.687 0.822,-2.442 2.083,-2.442 0.814,0 1.26,0.251 1.744,0.735 l -0.475,0.418 c -0.378,-0.379 -0.698,-0.544 -1.25,-0.544 -0.911,0 -1.406,0.602 -1.406,1.649 z M 40.33,0.727 h -2.521 c 0.02,0.388 0.039,0.533 0.146,0.795 0.184,0.437 0.61,0.718 1.115,0.718 0.504,0 0.93,-0.281 1.114,-0.718 C 40.291,1.26 40.31,1.115 40.33,0.727 m 7.057,-2.075 -0.475,0.456 c -0.359,-0.397 -0.64,-0.543 -1.096,-0.543 -0.465,0 -0.853,0.184 -1.105,0.543 -0.223,0.31 -0.31,0.679 -0.31,1.28 0,0.601 0.087,0.97 0.31,1.28 0.252,0.359 0.64,0.543 1.105,0.543 0.456,0 0.737,-0.136 1.096,-0.533 l 0.475,0.446 c -0.495,0.532 -0.912,0.706 -1.571,0.706 -1.202,0 -2.112,-0.813 -2.112,-2.442 0,-1.629 0.91,-2.442 2.112,-2.442 0.659,0 1.076,0.174 1.571,0.706 m 6.485,-0.648 v 4.768 h -0.697 v -2.937 c 0,-0.834 -0.475,-1.27 -1.193,-1.27 -0.718,0 -1.164,0.427 -1.164,1.27 v 2.937 h -0.697 v -3.044 c 0,-0.552 0.145,-1.008 0.484,-1.337 0.291,-0.29 0.717,-0.445 1.231,-0.445 0.534,0 1.009,0.203 1.349,0.59 V -1.996 Z M 60.25,2.385 C 59.911,2.724 59.562,2.83 59.106,2.83 58.554,2.83 58.03,2.588 57.768,2.192 v 0.58 h -0.696 v -4.768 h 0.696 v 2.927 c 0,0.727 0.446,1.28 1.144,1.28 0.369,0 0.562,-0.087 0.824,-0.349 z m 3.102,2.52 H 62.568 V 4.121 h 0.784 z M 63.303,2.766 h -0.697 v -4.761 h 0.697 z m 5.041,-4.762 v 0.6 h -0.369 c -0.445,0 -0.649,0.262 -0.649,0.698 v 2.909 h 1.018 V 2.743 H 67.326 V 4.236 H 66.629 V 2.743 H 66.028 V 2.211 h 0.601 v -2.928 c 0,-0.708 0.407,-1.279 1.22,-1.279 z m 6.194,4.768 h -0.756 l -1.299,-3.829 -1.308,3.829 h -0.756 l 1.716,-4.672 -0.34,-0.931 c -0.155,-0.436 -0.3,-0.591 -0.785,-0.591 h -0.213 v -0.619 h 0.3 c 0.34,0 0.679,0.087 0.931,0.329 0.136,0.125 0.242,0.3 0.339,0.561 z M 84.12,0.388 c 0,0.737 -0.097,1.406 -0.581,1.9 -0.329,0.329 -0.785,0.542 -1.367,0.542 -0.582,0 -1.038,-0.213 -1.367,-0.542 -0.484,-0.494 -0.581,-1.163 -0.581,-1.9 0,-0.737 0.097,-1.406 0.581,-1.9 0.329,-0.329 0.785,-0.542 1.367,-0.542 0.582,0 1.038,0.213 1.367,0.542 0.484,0.494 0.581,1.163 0.581,1.9 m -0.697,0 c 0,-0.533 -0.029,-1.125 -0.378,-1.474 -0.223,-0.223 -0.533,-0.349 -0.873,-0.349 -0.339,0 -0.64,0.126 -0.863,0.349 -0.349,0.349 -0.388,0.941 -0.388,1.474 0,0.533 0.039,1.125 0.388,1.474 0.223,0.223 0.524,0.349 0.863,0.349 0.34,0 0.65,-0.126 0.873,-0.349 0.349,-0.349 0.378,-0.941 0.378,-1.474 m 7.395,-2.384 v 3.053 c 0,0.553 -0.155,0.999 -0.493,1.328 -0.291,0.29 -0.708,0.445 -1.222,0.445 -0.533,0 -0.999,-0.193 -1.338,-0.58 v 0.522 h -0.697 v -4.768 h 0.697 v 2.937 c 0,0.834 0.465,1.27 1.183,1.27 0.718,0 1.173,-0.427 1.173,-1.27 v -2.937 z m 8.487,0 v 0.6 h -0.369 c -0.446,0 -0.649,0.262 -0.649,0.698 v 2.909 h 1.018 V 2.743 H 98.287 V 4.236 H 97.59 V 2.743 H 96.989 V 2.211 h 0.601 v -2.928 c 0,-0.708 0.407,-1.279 1.22,-1.279 z m 6.591,0 v 3.063 c 0,1.076 -0.638,1.763 -1.715,1.763 -0.533,0 -0.989,-0.184 -1.338,-0.58 v 2.655 h -0.697 v -6.901 h 0.697 v 2.947 c 0,0.824 0.475,1.26 1.193,1.26 0.717,0 1.164,-0.427 1.164,-1.26 v -2.947 z m 6.805,2.2 v 0.32 c 0,1.415 -0.727,2.306 -1.958,2.306 -1.212,0 -1.957,-0.9 -1.957,-2.442 0,-1.687 0.823,-2.442 2.083,-2.442 0.814,0 1.26,0.251 1.745,0.735 l -0.475,0.418 c -0.378,-0.379 -0.698,-0.544 -1.251,-0.544 -0.911,0 -1.405,0.602 -1.405,1.649 z m -0.698,0.523 h -2.52 c 0.019,0.388 0.039,0.533 0.145,0.795 0.184,0.437 0.611,0.718 1.115,0.718 0.504,0 0.931,-0.281 1.115,-0.718 0.106,-0.262 0.126,-0.407 0.145,-0.795 m 13.964,-2.723 v 3.053 c 0,0.553 -0.174,0.999 -0.513,1.328 -0.291,0.281 -0.717,0.445 -1.231,0.445 -0.67,0 -1.203,-0.271 -1.571,-0.793 -0.29,0.522 -0.804,0.793 -1.464,0.793 -0.533,0 -1.008,-0.193 -1.348,-0.58 v 0.522 h -0.696 v -4.768 h 0.696 v 2.937 c 0,0.834 0.476,1.27 1.193,1.27 0.718,0 1.174,-0.427 1.174,-1.27 v -2.937 h 0.697 v 3.014 c 0,0.757 0.494,1.193 1.192,1.193 0.718,0 1.174,-0.427 1.174,-1.27 v -2.937 z m 6.795,2.384 c 0,0.737 -0.097,1.406 -0.581,1.9 -0.329,0.329 -0.785,0.542 -1.367,0.542 -0.582,0 -1.038,-0.213 -1.367,-0.542 -0.484,-0.494 -0.581,-1.163 -0.581,-1.9 0,-0.737 0.097,-1.406 0.581,-1.9 0.329,-0.329 0.785,-0.542 1.367,-0.542 0.582,0 1.038,0.213 1.367,0.542 0.484,0.494 0.581,1.163 0.581,1.9 m -0.697,0 c 0,-0.533 -0.029,-1.125 -0.378,-1.474 -0.223,-0.223 -0.533,-0.349 -0.873,-0.349 -0.339,0 -0.64,0.126 -0.863,0.349 -0.349,0.349 -0.388,0.941 -0.388,1.474 0,0.533 0.039,1.125 0.388,1.474 0.223,0.223 0.524,0.349 0.863,0.349 0.34,0 0.65,-0.126 0.873,-0.349 0.349,-0.349 0.378,-0.941 0.378,-1.474 m 6.901,2.384 h -0.756 l -1.308,-3.829 -1.299,3.829 h -0.756 l 1.744,-4.768 h 0.621 z m 5.99,-2.568 v 0.32 c 0,1.415 -0.727,2.306 -1.958,2.306 -1.212,0 -1.957,-0.9 -1.957,-2.442 0,-1.687 0.823,-2.442 2.083,-2.442 0.814,0 1.26,0.251 1.745,0.735 l -0.475,0.418 c -0.378,-0.379 -0.698,-0.544 -1.251,-0.544 -0.911,0 -1.405,0.602 -1.405,1.649 z m -0.698,0.523 h -2.52 c 0.019,0.388 0.039,0.533 0.145,0.795 0.184,0.437 0.611,0.718 1.115,0.718 0.504,0 0.931,-0.281 1.115,-0.718 0.106,-0.262 0.126,-0.407 0.145,-0.795"
               style="fill:#231f20;fill-opacity:1;fill-rule:nonzero;stroke:none"
               id="path1031" /></g></g></g></g></g></svg>