<?xml version="1.0" encoding="UTF-8" standalone="no"?>
<svg
   xmlns:dc="http://purl.org/dc/elements/1.1/"
   xmlns:cc="http://creativecommons.org/ns#"
   xmlns:rdf="http://www.w3.org/1999/02/22-rdf-syntax-ns#"
   xmlns:svg="http://www.w3.org/2000/svg"
   xmlns="http://www.w3.org/2000/svg"
   id="svg821"
   version="1.1"
   viewBox="0 0 25.913327 24.718684"
   height="24.718683mm"
   width="25.91333mm">
  <defs
     id="defs815" />
  <metadata
     id="metadata818">
    <rdf:RDF>
      <cc:Work
         rdf:about="">
        <dc:format>image/svg+xml</dc:format>
        <dc:type
           rdf:resource="http://purl.org/dc/dcmitype/StillImage" />
        <dc:title></dc:title>
      </cc:Work>
    </rdf:RDF>
  </metadata>
  <g
     transform="translate(112.19946,-139.79167)"
     id="layer1">
    <path
       d="m -112.19946,157.87499 3.3518,-18.06582 10.33365,-0.0175 0.081,11.11871 1.862561,-11.09391 h 10.28432 v 18.05852 h -9.697404 l -0.182033,-15.2243 -2.383719,15.2243 h -9.682235 v -15.953 l -3.16455,15.953 h -0.80339"
       style="fill:#0f65a6;fill-opacity:1;fill-rule:nonzero;stroke:none;stroke-width:0.03527778"
       id="path1378" />
    <g
       transform="matrix(0.29887362,0,0,0.29887362,-84.333858,115.5914)"
       id="g1534">
      <path
         id="path1380"
         style="fill:#231f20;fill-opacity:1;fill-rule:nonzero;stroke:none;stroke-width:0.03527778"
         d="m -79.008184,144.47081 c 0.03171,-0.18023 0.09525,-0.27534 0.179846,-0.27534 0.08474,0 0.148131,0.0531 0.28582,0.32797 l 2.889074,5.96897 2.878667,-6.04294 c 0.07408,-0.16923 0.137583,-0.254 0.232833,-0.254 0.09525,0 0.15875,0.10583 0.1905,0.32797 l 0.963084,6.54019 c 0.09525,0.66696 0.20073,0.97398 0.51823,1.06909 0.306917,0.0954 0.518937,0.10569 0.656167,0.10569 0.09525,0 0.169686,0.0107 0.169686,0.0741 0,0.0848 -0.127353,0.11645 -0.275519,0.11645 -0.264584,0 -1.724731,-0.0317 -2.148064,-0.0634 -0.243417,-0.0213 -0.306917,-0.0531 -0.306917,-0.11645 0,-0.0531 0.04233,-0.0847 0.116064,-0.11642 0.06385,-0.021 0.09525,-0.15889 0.05327,-0.45519 l -0.635,-4.65638 h -0.04233 l -2.307167,4.80451 c -0.243416,0.49749 -0.296333,0.59256 -0.391583,0.59256 -0.09525,0 -0.201084,-0.21152 -0.370417,-0.52916 -0.254,-0.48673 -1.089942,-2.10591 -1.217154,-2.40217 -0.09522,-0.22229 -0.730073,-1.55554 -1.10049,-2.34929 h -0.0423 l -0.550404,4.21195 c -0.02092,0.19061 -0.03168,0.32798 -0.03168,0.49763 0,0.20077 0.137654,0.29612 0.3175,0.33856 0.19043,0.0423 0.338597,0.0527 0.444536,0.0527 0.08463,0 0.158644,0.0214 0.158644,0.0741 0,0.0954 -0.09525,0.11645 -0.253859,0.11645 -0.444535,0 -0.920644,-0.0317 -1.11125,-0.0317 -0.201189,0 -0.709119,0.0317 -1.047856,0.0317 -0.105692,0 -0.190288,-0.0211 -0.190288,-0.11645 0,-0.0528 0.06336,-0.0741 0.169333,-0.0741 0.08463,0 0.158609,0 0.317359,-0.0317 0.296439,-0.0634 0.380894,-0.47611 0.433952,-0.83605 l 1.047715,-6.89984" />
      <path
         id="path1382"
         style="fill:#231f20;fill-opacity:1;fill-rule:nonzero;stroke:none;stroke-width:0.03527778"
         d="m -65.675829,149.13781 c 0.05292,0 0.0635,-0.032 0.05292,-0.0637 l -0.9525,-2.61384 c -0.01058,-0.0423 -0.02117,-0.0954 -0.05292,-0.0954 -0.03175,0 -0.05292,0.0531 -0.06315,0.0954 l -0.974019,2.6035 c -0.01058,0.0421 0,0.074 0.04233,0.074 z m -2.159,0.52917 c -0.05292,0 -0.07408,0.0211 -0.09525,0.0845 l -0.571148,1.51335 c -0.106186,0.26458 -0.159102,0.51854 -0.159102,0.64561 0,0.19058 0.09525,0.32798 0.423686,0.32798 h 0.158397 c 0.127,0 0.159103,0.0214 0.159103,0.0847 0,0.0847 -0.06385,0.10583 -0.18027,0.10583 -0.338666,0 -0.79375,-0.0317 -1.12148,-0.0317 -0.116417,0 -0.6985,0.0317 -1.248834,0.0317 -0.137583,0 -0.201083,-0.0211 -0.201083,-0.10583 0,-0.0634 0.04233,-0.0847 0.127,-0.0847 0.09525,0 0.243417,-0.0103 0.328083,-0.0209 0.486834,-0.0638 0.687564,-0.42348 0.899584,-0.95264 l 2.656064,-6.64588 c 0.127,-0.30702 0.1905,-0.42347 0.296333,-0.42347 0.09525,0 0.15875,0.0951 0.264583,0.33873 0.254,0.5818 1.947334,4.89988 2.624667,6.50847 0.402167,0.9525 0.709084,1.10063 0.931334,1.15341 0.15875,0.032 0.3175,0.0423 0.4445,0.0423 0.08467,0 0.137583,0.0107 0.137583,0.0847 0,0.0847 -0.09525,0.10583 -0.486833,0.10583 -0.381,0 -1.153584,0 -2.000251,-0.0211 -0.1905,-0.0106 -0.3175,-0.0106 -0.3175,-0.0847 0,-0.0634 0.04233,-0.0847 0.148167,-0.0951 0.07408,-0.0214 0.148167,-0.11632 0.09525,-0.24353 l -0.846667,-2.24342 c -0.02117,-0.053 -0.05292,-0.0742 -0.105833,-0.0742 h -2.360083" />
      <path
         id="path1384"
         style="fill:#231f20;fill-opacity:1;fill-rule:nonzero;stroke:none;stroke-width:0.03527778"
         d="m -60.257162,150.98961 c 0.02117,0.82547 0.15875,1.10064 0.370769,1.17479 0.179564,0.0637 0.380647,0.074 0.549981,0.074 0.116416,0 0.179916,0.0214 0.179916,0.0847 0,0.0847 -0.09525,0.10583 -0.243416,0.10583 -0.687917,0 -1.110898,-0.0317 -1.312334,-0.0317 -0.09525,0 -0.592314,0.0317 -1.143,0.0317 -0.13723,0 -0.23248,-0.0108 -0.23248,-0.10583 0,-0.0634 0.0635,-0.0847 0.169333,-0.0847 0.137231,0 0.327731,-0.0103 0.475897,-0.0527 0.27552,-0.0847 0.3175,-0.39176 0.328436,-1.3123 l 0.09525,-6.26522 c 0,-0.21156 0.0314,-0.3597 0.137231,-0.3597 0.116417,0 0.211667,0.13755 0.391936,0.32798 0.126647,0.13755 1.735314,1.86242 3.280481,3.39729 0.719667,0.71935 2.148417,2.24345 2.328333,2.41254 h 0.05292 l -0.105833,-4.75149 c -0.01058,-0.64562 -0.105834,-0.84681 -0.359834,-0.9525 -0.15875,-0.0634 -0.41275,-0.0634 -0.560916,-0.0634 -0.127,0 -0.169334,-0.0317 -0.169334,-0.0955 0,-0.0846 0.116417,-0.0949 0.275167,-0.0949 0.550333,0 1.058333,0.0315 1.280583,0.0315 0.116417,0 0.518584,-0.0315 1.036814,-0.0315 0.137936,0 0.24377,0.0103 0.24377,0.0949 0,0.0638 -0.0635,0.0955 -0.1905,0.0955 -0.105834,0 -0.1905,0 -0.317853,0.0317 -0.295981,0.0847 -0.380647,0.30702 -0.391231,0.89944 l -0.116416,6.67798 c 0,0.23258 -0.04233,0.32797 -0.137584,0.32797 -0.116416,0 -0.243416,-0.11645 -0.359833,-0.2329 -0.66675,-0.63486 -2.021417,-2.02117 -3.122083,-3.11118 -1.153584,-1.14311 -2.327981,-2.46603 -2.518481,-2.66679 h -0.0321 l 0.116417,4.44443" />
      <path
         id="path1386"
         style="fill:#231f20;fill-opacity:1;fill-rule:nonzero;stroke:none;stroke-width:0.03527778"
         d="m -50.234745,150.98961 c 0.02117,0.82547 0.15875,1.10064 0.370417,1.17479 0.179916,0.0637 0.381,0.074 0.550333,0.074 0.116417,0 0.179917,0.0214 0.179917,0.0847 0,0.0847 -0.09525,0.10583 -0.243417,0.10583 -0.687917,0 -1.11125,-0.0317 -1.312333,-0.0317 -0.09525,0 -0.592667,0.0317 -1.143,0.0317 -0.137584,0 -0.232834,-0.0108 -0.232834,-0.10583 0,-0.0634 0.0635,-0.0847 0.169334,-0.0847 0.137583,0 0.328083,-0.0103 0.47625,-0.0527 0.275166,-0.0847 0.3175,-0.39176 0.328083,-1.3123 l 0.09525,-6.26522 c 0,-0.21156 0.03175,-0.3597 0.137583,-0.3597 0.116417,0 0.211667,0.13755 0.391584,0.32798 0.127,0.13755 1.735666,1.86242 3.280833,3.39729 0.719667,0.71935 2.148064,2.24345 2.327981,2.41254 h 0.05327 l -0.106186,-4.75149 c -0.01023,-0.64562 -0.10548,-0.84681 -0.359833,-0.9525 -0.158397,-0.0634 -0.41275,-0.0634 -0.560917,-0.0634 -0.126647,0 -0.169333,-0.0317 -0.169333,-0.0955 0,-0.0846 0.116769,-0.0949 0.275519,-0.0949 0.549981,0 1.057981,0.0315 1.280584,0.0315 0.116064,0 0.51823,-0.0315 1.036814,-0.0315 0.137583,0 0.243416,0.0103 0.243416,0.0949 0,0.0638 -0.0635,0.0955 -0.1905,0.0955 -0.105833,0 -0.1905,0 -0.317147,0.0317 -0.296686,0.0847 -0.381353,0.30702 -0.391936,0.89944 l -0.116417,6.67798 c 0,0.23258 -0.04198,0.32797 -0.137583,0.32797 -0.116417,0 -0.243064,-0.11645 -0.359833,-0.2329 -0.66675,-0.63486 -2.021417,-2.02117 -3.121731,-3.11118 -1.153584,-1.14311 -2.328334,-2.46603 -2.518834,-2.66679 h -0.03175 l 0.116417,4.44443" />
      <path
         id="path1388"
         style="fill:#231f20;fill-opacity:1;fill-rule:nonzero;stroke:none;stroke-width:0.03527778"
         d="m -40.804994,147.49725 c 0,-1.60845 0,-1.90471 -0.02117,-2.24345 -0.02117,-0.35994 -0.127,-0.53975 -0.359833,-0.59256 -0.116417,-0.032 -0.254,-0.0423 -0.381,-0.0423 -0.105834,0 -0.169334,-0.0213 -0.169334,-0.10583 0,-0.0636 0.08467,-0.0846 0.254,-0.0846 0.402167,0 1.068917,0.0315 1.375834,0.0315 0.264583,0 0.888647,-0.0315 1.291166,-0.0315 0.137584,0 0.221898,0.021 0.221898,0.0846 0,0.0845 -0.06315,0.10583 -0.169334,0.10583 -0.10548,0 -0.1905,0.0103 -0.317147,0.0317 -0.28575,0.0528 -0.370417,0.23286 -0.391583,0.60314 -0.02117,0.33874 -0.02117,0.635 -0.02117,2.24345 v 1.86285 c 0,1.02623 0,1.86242 0.04233,2.31743 0.03175,0.28596 0.105834,0.47611 0.422981,0.51855 0.148167,0.0214 0.381353,0.0423 0.540103,0.0423 0.116064,0 0.169333,0.0317 0.169333,0.0847 0,0.0742 -0.08467,0.10583 -0.201436,0.10583 -0.6985,0 -1.364897,-0.0317 -1.650647,-0.0317 -0.243417,0 -0.910167,0.0317 -1.3335,0.0317 -0.137584,0 -0.211667,-0.0317 -0.211667,-0.10583 0,-0.0531 0.04233,-0.0847 0.169333,-0.0847 0.15875,0 0.28575,-0.0209 0.381,-0.0423 0.211667,-0.0424 0.275167,-0.22225 0.306917,-0.52917 0.05292,-0.44439 0.05292,-1.28058 0.05292,-2.30681 v -1.86285" />
      <path
         id="path1390"
         style="fill:#231f20;fill-opacity:1;fill-rule:nonzero;stroke:none;stroke-width:0.03527778"
         d="m -35.428661,150.98961 c 0.02117,0.82547 0.15875,1.10064 0.370417,1.17479 0.179917,0.0637 0.381,0.074 0.550333,0.074 0.116417,0 0.179917,0.0214 0.179917,0.0847 0,0.0847 -0.09525,0.10583 -0.243417,0.10583 -0.687916,0 -1.11125,-0.0317 -1.312333,-0.0317 -0.09525,0 -0.592667,0.0317 -1.143,0.0317 -0.137583,0 -0.232834,-0.0108 -0.232834,-0.10583 0,-0.0634 0.0635,-0.0847 0.169334,-0.0847 0.137583,0 0.328083,-0.0103 0.47625,-0.0527 0.275167,-0.0847 0.3175,-0.39176 0.328083,-1.3123 l 0.09525,-6.26522 c 0,-0.21156 0.03175,-0.3597 0.137584,-0.3597 0.116416,0 0.211666,0.13755 0.391583,0.32798 0.127,0.13755 1.735314,1.86242 3.280481,3.39729 0.719666,0.71935 2.148416,2.24345 2.328333,2.41254 h 0.05292 l -0.105833,-4.75149 c -0.01058,-0.64562 -0.105834,-0.84681 -0.359834,-0.9525 -0.15875,-0.0634 -0.41275,-0.0634 -0.560917,-0.0634 -0.127,0 -0.169333,-0.0317 -0.169333,-0.0955 0,-0.0846 0.116417,-0.0949 0.275167,-0.0949 0.550333,0 1.058333,0.0315 1.280583,0.0315 0.116417,0 0.518584,-0.0315 1.037167,-0.0315 0.137583,0 0.243417,0.0103 0.243417,0.0949 0,0.0638 -0.0635,0.0955 -0.1905,0.0955 -0.105834,0 -0.1905,0 -0.3175,0.0317 -0.296334,0.0847 -0.381,0.30702 -0.391584,0.89944 l -0.116416,6.67798 c 0,0.23258 -0.04233,0.32797 -0.137584,0.32797 -0.116416,0 -0.243416,-0.11645 -0.359833,-0.2329 -0.66675,-0.63486 -2.021417,-2.02117 -3.121731,-3.11118 -1.153583,-1.14311 -2.328333,-2.46603 -2.518833,-2.66679 h -0.03175 l 0.116416,4.44443" />
      <path
         id="path1392"
         style="fill:#231f20;fill-opacity:1;fill-rule:nonzero;stroke:none;stroke-width:0.03527778"
         d="m -19.626685,151.71997 c 0,0.28554 -0.01094,0.30692 -0.137936,0.38104 -0.687564,0.35965 -1.725083,0.4761 -2.550231,0.4761 -2.592916,0 -4.8895,-1.22756 -4.8895,-4.14856 0,-1.69333 0.878417,-2.87845 1.8415,-3.46054 1.016,-0.61365 1.957917,-0.68777 2.846917,-0.68777 0.73025,0 1.661231,0.12675 1.872897,0.16923 0.222603,0.0423 0.592667,0.10569 0.836437,0.11641 0.126647,0.0106 0.148166,0.0531 0.148166,0.12721 0,0.11632 -0.07444,0.41258 -0.07444,1.7355 0,0.16922 -0.03175,0.22228 -0.116417,0.22228 -0.07373,0 -0.09525,-0.0531 -0.10548,-0.13779 -0.0321,-0.24324 -0.08467,-0.58195 -0.360186,-0.87824 -0.317147,-0.3386 -1.163814,-0.82543 -2.360084,-0.82543 -0.58173,0 -1.354666,0.0424 -2.095147,0.65592 -0.592667,0.49748 -0.973667,1.29123 -0.973667,2.59281 0,2.27552 1.449564,3.97947 3.682648,3.97947 0.275519,0 0.645583,0 0.899936,-0.11645 0.158397,-0.074 0.20073,-0.21191 0.20073,-0.39176 v -0.99494 c 0,-0.52874 0,-0.93116 -0.01058,-1.24852 -0.01023,-0.35994 -0.105833,-0.52916 -0.454731,-0.60314 -0.08467,-0.0214 -0.264583,-0.0317 -0.41275,-0.0317 -0.09525,0 -0.159102,-0.0214 -0.159102,-0.0847 0,-0.0848 0.07444,-0.10584 0.222602,-0.10584 0.549981,0 1.216731,0.0317 1.534231,0.0317 0.328083,0 0.889,-0.0317 1.23825,-0.0317 0.137936,0 0.211667,0.0211 0.211667,0.10584 0,0.0634 -0.0635,0.0847 -0.137583,0.0847 -0.08431,0 -0.15875,0.0103 -0.285398,0.0317 -0.286102,0.0526 -0.391936,0.23287 -0.402519,0.60314 -0.01023,0.31736 -0.01023,0.7407 -0.01023,1.26986 v 1.16417" />
    </g>
    <g
       transform="matrix(0.29887362,0,0,0.29887362,-107.84524,118.90908)"
       id="g1548">
      <path
         id="path1394"
         style="fill:#231f20;fill-opacity:1;fill-rule:nonzero;stroke:none;stroke-width:0.03527778"
         d="m -13.499287,147.49725 c 0,-1.60845 0,-1.90471 -0.02117,-2.24345 -0.02081,-0.35994 -0.105833,-0.52917 -0.455083,-0.60314 -0.08467,-0.0214 -0.264583,-0.0317 -0.41275,-0.0317 -0.116417,0 -0.179917,-0.0213 -0.179917,-0.0955 0,-0.074 0.07408,-0.0949 0.233186,-0.0949 0.560564,0 1.227314,0.0315 1.523648,0.0315 0.433564,0 1.04775,-0.0315 1.534936,-0.0315 1.3225638,0 1.7988138,0.44429 1.9681471,0.60315 0.2328334,0.22214 0.5291667,0.69825 0.5291667,1.25927 0,1.50262 -1.1006667,2.56096 -2.6034998,2.56096 -0.05327,0 -0.169686,0 -0.22225,-0.0103 -0.05292,-0.0106 -0.127,-0.0214 -0.127,-0.0954 0,-0.0847 0.07408,-0.11642 0.29598,-0.11642 0.59302,0 1.41852,-0.66671 1.41852,-1.746 0,-0.34932 -0.0321,-1.05833 -0.62477,-1.5875 -0.381,-0.34932 -0.814564,-0.41272 -1.058333,-0.41272 -0.158397,0 -0.317147,0.0103 -0.41275,0.0423 -0.05256,0.0211 -0.08431,0.0845 -0.08431,0.20094 v 4.23334 c 0,0.97356 0,1.80964 0.05292,2.2648 0.0314,0.29626 0.09525,0.52874 0.41275,0.57118 0.147814,0.0214 0.381,0.0423 0.53975,0.0423 0.116416,0 0.16898,0.0317 0.16898,0.0847 0,0.0742 -0.08431,0.10583 -0.20073,0.10583 -0.6985,0 -1.36525,-0.0317 -1.640064,-0.0317 -0.24377,0 -0.91052,0.0317 -1.333853,0.0317 -0.137231,0 -0.211667,-0.0317 -0.211667,-0.10583 0,-0.0531 0.04269,-0.0847 0.169334,-0.0847 0.15875,0 0.286102,-0.0209 0.381,-0.0423 0.211666,-0.0424 0.264583,-0.27492 0.306916,-0.58194 0.05292,-0.4444 0.05292,-1.28048 0.05292,-2.25404 v -1.86285" />
      <path
         id="path1396"
         style="fill:#231f20;fill-opacity:1;fill-rule:nonzero;stroke:none;stroke-width:0.03527778"
         d="m -7.0222867,147.49725 c 0,-1.60845 0,-1.90471 -0.020814,-2.24345 -0.021519,-0.35994 -0.1061861,-0.52917 -0.4554361,-0.60314 -0.084667,-0.0214 -0.2645834,-0.0317 -0.4127501,-0.0317 -0.1164166,0 -0.1799166,-0.0213 -0.1799166,-0.0955 0,-0.074 0.074436,-0.0949 0.2328333,-0.0949 0.5609167,0 1.2276668,0.0315 1.5451668,0.0315 0.254,0 0.92075,-0.0315 1.3017501,-0.0315 0.15875,0 0.2328333,0.021 0.2328333,0.0949 0,0.0742 -0.0635,0.0955 -0.1693333,0.0955 -0.1164167,0 -0.1799167,0.0103 -0.3069167,0.0317 -0.28575,0.0528 -0.3704167,0.23286 -0.3915834,0.60314 -0.021167,0.33874 -0.021167,0.635 -0.021167,2.24345 v 1.48181 c 0,1.53445 0.3069167,2.18006 0.8255001,2.60354 0.47625,0.39123 0.9627306,0.43367 1.3229167,0.43367 0.465314,0 1.0371668,-0.14813 1.4601474,-0.57161 0.5824361,-0.58183 0.6141861,-1.53444 0.6141861,-2.62449 v -1.32292 c 0,-1.60845 0,-1.90471 -0.021519,-2.24345 -0.020814,-0.35994 -0.1058334,-0.52917 -0.4547306,-0.60314 -0.084667,-0.0214 -0.2645834,-0.0317 -0.381,-0.0317 -0.1164167,0 -0.1799167,-0.0213 -0.1799167,-0.0955 0,-0.074 0.07373,-0.0949 0.2218972,-0.0949 0.53975,0 1.2065001,0.0315 1.2170834,0.0315 0.12735281,0 0.79375007,-0.0315 1.2065001,-0.0315 0.14816668,0 0.22225001,0.021 0.22225001,0.0949 0,0.0742 -0.0635,0.0955 -0.19050001,0.0955 -0.11641667,0 -0.17991668,0.0103 -0.30691668,0.0317 -0.28575002,0.0528 -0.37041669,0.23286 -0.39123058,0.60314 -0.0215194,0.33874 -0.0215194,0.635 -0.0215194,2.24345 v 1.13249 c 0,1.17475 -0.11641667,2.42369 -1.00541674,3.18534 -0.751064,0.64558 -1.5134168,0.76203 -2.2013335,0.76203 -0.5609167,0 -1.576564,-0.0317 -2.3491474,-0.72993 -0.53975,-0.48687 -0.9419167,-1.27028 -0.9419167,-2.80472 v -1.54521" />
      <path
         id="path1398"
         style="fill:#231f20;fill-opacity:1;fill-rule:nonzero;stroke:none;stroke-width:0.03527778"
         d="m 5.1164446,148.52391 c -0.22225,-0.15875 -0.4656667,-0.23291 -0.8784167,-0.25386 -0.1901472,-0.0107 -0.2963334,-0.0107 -0.4547306,-0.0107 -0.042686,0 -0.063853,0.0211 -0.063853,0.0741 v 2.50804 c 0,0.69868 0.032103,0.87849 0.3704167,1.0159 0.2861028,0.11645 0.5291667,0.12717 0.7729362,0.12717 0.4758972,0 1.2802306,-0.25396 1.2802306,-1.35459 0,-0.65638 -0.22225,-1.5452 -1.0265834,-2.10605 z M 3.7194445,147.6771 c 0,0.0847 0.032103,0.10612 0.074083,0.11645 0.09525,0.0213 0.2543528,0.0317 0.4974167,0.0317 0.3496028,0 0.5824361,-0.042 0.7623528,-0.20076 0.2748139,-0.22229 0.4335639,-0.60332 0.4335639,-1.12173 0,-0.70944 -0.41275,-1.64056 -1.322564,-1.64056 -0.1485194,0 -0.2434167,0 -0.34925,0.0213 -0.074436,0.021 -0.095603,0.0634 -0.095603,0.17985 z m -1.2696473,-0.17985 c 0,-1.60845 0,-1.90471 -0.021167,-2.24345 -0.021167,-0.35994 -0.1061862,-0.52917 -0.4554362,-0.60314 -0.084314,-0.0214 -0.2645833,-0.0317 -0.41275,-0.0317 -0.1164167,0 -0.1799167,-0.0213 -0.1799167,-0.0955 0,-0.074 0.074436,-0.0949 0.2331861,-0.0949 0.560564,0 1.2276668,0.0315 1.4393335,0.0315 0.5182305,0 0.9309806,-0.0315 1.2911667,-0.0315 1.9155835,0 2.2538974,1.02648 2.2538974,1.5875 0,0.86773 -0.4974167,1.38617 -1.0791473,1.85166 0.8674806,0.29655 1.925814,1.048 1.925814,2.28618 0,1.13231 -0.8784167,2.30681 -2.8257502,2.30681 -0.254,0 -1.2167306,-0.0634 -1.5342306,-0.0634 -0.2434167,0 -0.9105195,0.0317 -1.3335001,0.0317 -0.1375834,0 -0.2116667,-0.0317 -0.2116667,-0.10583 0,-0.0531 0.042333,-0.0847 0.1689806,-0.0847 0.1591028,0 0.2861028,-0.0209 0.381,-0.0423 0.2120194,-0.0424 0.2645833,-0.27492 0.3072695,-0.58194 0.052917,-0.4444 0.052917,-1.28048 0.052917,-2.25404 v -1.86285" />
      <path
         id="path1400"
         style="fill:#231f20;fill-opacity:1;fill-rule:nonzero;stroke:none;stroke-width:0.03527778"
         d="m 11.255131,149.3601 c 0,1.35459 0,2.08456 0.22225,2.27513 0.179564,0.15875 0.455083,0.23291 1.280231,0.23291 0.560916,0 0.973666,-0.0108 1.23825,-0.2963 0.127,-0.13751 0.254,-0.43409 0.275167,-0.635 0.01094,-0.0954 0.0314,-0.15875 0.116416,-0.15875 0.07444,0 0.08467,0.0531 0.08467,0.17984 0,0.11646 -0.07408,0.91021 -0.158397,1.21709 -0.06385,0.23287 -0.116417,0.28564 -0.667103,0.28564 -1.524,0 -2.2225,-0.0634 -3.079398,-0.0634 -0.243769,0 -0.9105191,0.0317 -1.3338525,0.0317 -0.1372305,0 -0.2113139,-0.0317 -0.2113139,-0.10583 0,-0.0531 0.042333,-0.0847 0.1693334,-0.0847 0.1583972,0 0.28575,-0.0209 0.381,-0.0423 0.2116667,-0.0424 0.2645834,-0.27492 0.3065639,-0.58194 0.053269,-0.4444 0.053269,-1.28048 0.053269,-2.25404 v -1.86285 c 0,-1.60845 0,-1.90471 -0.02152,-2.24345 -0.020814,-0.35994 -0.1058333,-0.52917 -0.4547306,-0.60314 -0.084667,-0.0214 -0.2116666,-0.0317 -0.34925,-0.0317 -0.1164167,0 -0.1799167,-0.0213 -0.1799167,-0.0955 0,-0.074 0.073731,-0.0949 0.2328334,-0.0949 0.4970639,0 1.163814,0.0315 1.449917,0.0315 0.253647,0 1.026583,-0.0315 1.439333,-0.0315 0.148167,0 0.221897,0.021 0.221897,0.0949 0,0.0742 -0.0635,0.0955 -0.190147,0.0955 -0.116769,0 -0.286103,0.0103 -0.41275,0.0317 -0.286103,0.0528 -0.370769,0.23286 -0.391936,0.60314 -0.02081,0.33874 -0.02081,0.635 -0.02081,2.24345 v 1.86285" />
      <path
         id="path1402"
         style="fill:#231f20;fill-opacity:1;fill-rule:nonzero;stroke:none;stroke-width:0.03527778"
         d="m 16.334779,147.49725 c 0,-1.60845 0,-1.90471 -0.02081,-2.24345 -0.02152,-0.35994 -0.127353,-0.53975 -0.360186,-0.59256 -0.116417,-0.032 -0.254,-0.0423 -0.381,-0.0423 -0.105834,0 -0.169334,-0.0213 -0.169334,-0.10583 0,-0.0636 0.08502,-0.0846 0.254,-0.0846 0.402167,0 1.068917,0.0315 1.375834,0.0315 0.264583,0 0.888647,-0.0315 1.291166,-0.0315 0.137584,0 0.22225,0.021 0.22225,0.0846 0,0.0845 -0.0635,0.10583 -0.169333,0.10583 -0.106186,0 -0.190853,0.0103 -0.3175,0.0317 -0.286103,0.0528 -0.370417,0.23286 -0.391583,0.60314 -0.02117,0.33874 -0.02117,0.635 -0.02117,2.24345 v 1.86285 c 0,1.02623 0,1.86242 0.04233,2.31743 0.03175,0.28596 0.105834,0.47611 0.423334,0.51855 0.148166,0.0214 0.381,0.0423 0.539397,0.0423 0.116769,0 0.169686,0.0317 0.169686,0.0847 0,0.0742 -0.08467,0.10583 -0.201083,0.10583 -0.698853,0 -1.36525,-0.0317 -1.651,-0.0317 -0.243417,0 -0.910167,0.0317 -1.333148,0.0317 -0.137936,0 -0.212019,-0.0317 -0.212019,-0.10583 0,-0.0531 0.04233,-0.0847 0.169333,-0.0847 0.159103,0 0.28575,-0.0209 0.381,-0.0423 0.211667,-0.0424 0.275167,-0.22225 0.30727,-0.52917 0.05256,-0.44439 0.05256,-1.28058 0.05256,-2.30681 v -1.86285" />
      <path
         id="path1404"
         style="fill:#231f20;fill-opacity:1;fill-rule:nonzero;stroke:none;stroke-width:0.03527778"
         d="m 21.174185,151.42371 c -1.03752,-0.9102 -1.312334,-2.09533 -1.312334,-3.12195 0,-0.71977 0.22225,-1.96853 1.23825,-2.89979 0.761647,-0.69854 1.767417,-1.12173 3.343981,-1.12173 0.656167,0 1.04775,0.0424 1.534583,0.10583 0.402167,0.0528 0.740834,0.14813 1.058334,0.17981 0.116416,0.0106 0.15875,0.0634 0.15875,0.12721 0,0.0846 -0.0321,0.21139 -0.05292,0.58181 -0.02117,0.34932 -0.01058,0.93154 -0.03175,1.14307 -0.01058,0.15875 -0.03175,0.24324 -0.127,0.24324 -0.08502,0 -0.105833,-0.0845 -0.105833,-0.23262 -0.01058,-0.32826 -0.148167,-0.69868 -0.41275,-0.9736 -0.34925,-0.37066 -1.17475,-0.6562 -2.148417,-0.6562 -0.920397,0 -1.523647,0.23287 -1.989667,0.6562 -0.77223,0.70901 -0.973314,1.71429 -0.973314,2.74094 0,2.51876 1.915231,3.76756 3.333398,3.76756 0.941916,0 1.513416,-0.10611 1.93675,-0.59284 0.179916,-0.20091 0.3175,-0.50782 0.359833,-0.69839 0.0314,-0.16951 0.05292,-0.21181 0.137583,-0.21181 0.07408,0 0.09525,0.074 0.09525,0.15875 0,0.12721 -0.127352,1.04771 -0.232833,1.40769 -0.05292,0.17981 -0.09525,0.23287 -0.275167,0.30702 -0.423333,0.16909 -1.227666,0.2432 -1.905,0.2432 -1.449564,0 -2.667,-0.31735 -3.62973,-1.1534" />
      <path
         id="path1406"
         style="fill:#231f20;fill-opacity:1;fill-rule:nonzero;stroke:none;stroke-width:0.03527778"
         d="m 32.379113,149.13781 c 0.05292,0 0.0635,-0.032 0.05292,-0.0637 l -0.9525,-2.61384 c -0.01058,-0.0423 -0.02117,-0.0954 -0.05292,-0.0954 -0.03175,0 -0.05292,0.0531 -0.0635,0.0954 l -0.973667,2.6035 c -0.01058,0.0421 0,0.074 0.04233,0.074 z m -2.159,0.52917 c -0.05292,0 -0.07373,0.0211 -0.09525,0.0845 l -0.5715,1.51335 c -0.105834,0.26458 -0.158397,0.51854 -0.158397,0.64561 0,0.19058 0.0949,0.32798 0.42298,0.32798 h 0.15875 c 0.127,0 0.15875,0.0214 0.15875,0.0847 0,0.0847 -0.06315,0.10583 -0.179916,0.10583 -0.338314,0 -0.793751,-0.0317 -1.121834,-0.0317 -0.116064,0 -0.6985,0.0317 -1.248481,0.0317 -0.137936,0 -0.201436,-0.0211 -0.201436,-0.10583 0,-0.0634 0.04269,-0.0847 0.127353,-0.0847 0.0949,0 0.243064,-0.0103 0.327731,-0.0209 0.486833,-0.0638 0.688269,-0.42348 0.899583,-0.95264 l 2.656417,-6.64588 c 0.127,-0.30702 0.1905,-0.42347 0.296333,-0.42347 0.09525,0 0.15875,0.0951 0.264584,0.33873 0.254,0.5818 1.947333,4.89988 2.624666,6.50847 0.401814,0.9525 0.709084,1.10063 0.930981,1.15341 0.159103,0.032 0.317853,0.0423 0.4445,0.0423 0.08467,0 0.137936,0.0107 0.137936,0.0847 0,0.0847 -0.0956,0.10583 -0.487186,0.10583 -0.380647,0 -1.153583,0 -1.999897,-0.0211 -0.1905,-0.0106 -0.3175,-0.0106 -0.3175,-0.0847 0,-0.0634 0.04233,-0.0847 0.148166,-0.0951 0.07408,-0.0214 0.148167,-0.11632 0.09525,-0.24353 l -0.846666,-2.24342 c -0.02117,-0.053 -0.05292,-0.0742 -0.105834,-0.0742 h -2.360083" />
      <path
         id="path1408"
         style="fill:#231f20;fill-opacity:1;fill-rule:nonzero;stroke:none;stroke-width:0.03527778"
         d="m 37.925133,145.02093 -1.576564,0.0424 c -0.613834,0.021 -0.867834,0.074 -1.026584,0.30688 -0.105833,0.15889 -0.15875,0.28568 -0.179916,0.37042 -0.02117,0.0847 -0.05292,0.12707 -0.116064,0.12707 -0.07408,0 -0.0956,-0.0531 -0.0956,-0.16951 0,-0.16909 0.201083,-1.13235 0.22225,-1.21708 0.03175,-0.13752 0.0635,-0.20091 0.127,-0.20091 0.08502,0 0.1905,0.10583 0.455083,0.12675 0.306917,0.0319 0.709084,0.0531 1.058334,0.0531 h 4.190647 c 0.677334,0 0.931334,-0.10569 1.016,-0.10569 0.07408,0 0.08467,0.0634 0.08467,0.22214 0,0.22229 -0.03175,0.95264 -0.03175,1.22756 -0.01058,0.10569 -0.0314,0.16951 -0.09525,0.16951 -0.08431,0 -0.105833,-0.0531 -0.116417,-0.21181 l -0.01023,-0.11659 c -0.02152,-0.27492 -0.30727,-0.57118 -1.248834,-0.59256 l -1.333852,-0.0317 v 4.33917 c 0,0.97356 0,1.80964 0.05327,2.2648 0.03175,0.29626 0.0949,0.52874 0.41275,0.57118 0.148167,0.0214 0.381,0.0423 0.53975,0.0423 0.116417,0 0.168981,0.0317 0.168981,0.0847 0,0.0742 -0.08467,0.10583 -0.201084,0.10583 -0.698147,0 -1.364897,-0.0317 -1.66123,-0.0317 -0.243417,0 -0.910167,0.0317 -1.3335,0.0317 -0.137584,0 -0.211667,-0.0317 -0.211667,-0.10583 0,-0.0531 0.04233,-0.0847 0.169333,-0.0847 0.15875,0 0.28575,-0.0209 0.381,-0.0423 0.211314,-0.0424 0.275167,-0.27492 0.306917,-0.58194 0.05256,-0.4444 0.05256,-1.28048 0.05256,-2.25404 v -4.33917" />
      <path
         id="path1410"
         style="fill:#231f20;fill-opacity:1;fill-rule:nonzero;stroke:none;stroke-width:0.03527778"
         d="m 44.032069,147.49725 c 0,-1.60845 0,-1.90471 -0.02152,-2.24345 -0.02081,-0.35994 -0.126647,-0.53975 -0.359481,-0.59256 -0.116416,-0.032 -0.254,-0.0423 -0.381,-0.0423 -0.105833,0 -0.169333,-0.0213 -0.169333,-0.10583 0,-0.0636 0.08431,-0.0846 0.254,-0.0846 0.402167,0 1.068564,0.0315 1.375481,0.0315 0.264583,0 0.889352,-0.0315 1.291166,-0.0315 0.137584,0 0.22225,0.021 0.22225,0.0846 0,0.0845 -0.06315,0.10583 -0.16898,0.10583 -0.106186,0 -0.1905,0.0103 -0.317853,0.0317 -0.285397,0.0528 -0.370064,0.23286 -0.391583,0.60314 -0.02081,0.33874 -0.02081,0.635 -0.02081,2.24345 v 1.86285 c 0,1.02623 0,1.86242 0.04233,2.31743 0.03175,0.28596 0.105481,0.47611 0.423333,0.51855 0.148167,0.0214 0.381,0.0423 0.539398,0.0423 0.116416,0 0.169686,0.0317 0.169686,0.0847 0,0.0742 -0.08502,0.10583 -0.201436,0.10583 -0.698148,0 -1.36525,-0.0317 -1.650648,-0.0317 -0.243769,0 -0.910166,0.0317 -1.333853,0.0317 -0.13723,0 -0.211313,-0.0317 -0.211313,-0.10583 0,-0.0531 0.04233,-0.0847 0.169333,-0.0847 0.158397,0 0.28575,-0.0209 0.380647,-0.0423 0.21202,-0.0424 0.27552,-0.22225 0.306917,-0.52917 0.05327,-0.44439 0.05327,-1.28058 0.05327,-2.30681 v -1.86285" />
      <path
         id="path1412"
         style="fill:#231f20;fill-opacity:1;fill-rule:nonzero;stroke:none;stroke-width:0.03527778"
         d="m 54.723353,148.62974 c 0,-2.37066 -1.365603,-3.84171 -3.100917,-3.84171 -1.217083,0 -2.603147,0.6773 -2.603147,3.31255 0,2.2014 1.216731,3.94737 3.248731,3.94737 0.740833,0 2.455333,-0.35966 2.455333,-3.41821 z m -7.164564,-0.20119 c 0,-1.80939 1.195917,-4.14831 4.370564,-4.14831 2.634898,0 4.275667,1.53444 4.275667,3.95813 0,2.42327 -1.693333,4.33874 -4.3815,4.33874 -3.037417,0 -4.264731,-2.27513 -4.264731,-4.14856" />
      <path
         id="path1414"
         style="fill:#231f20;fill-opacity:1;fill-rule:nonzero;stroke:none;stroke-width:0.03527778"
         d="m 59.063579,150.98961 c 0.02152,0.82547 0.15875,1.10064 0.370416,1.17479 0.179917,0.0637 0.381,0.074 0.550686,0.074 0.116417,0 0.179564,0.0214 0.179564,0.0847 0,0.0847 -0.09525,0.10583 -0.243416,0.10583 -0.687564,0 -1.11125,-0.0317 -1.312334,-0.0317 -0.0949,0 -0.592666,0.0317 -1.142647,0.0317 -0.137936,0 -0.232833,-0.0108 -0.232833,-0.10583 0,-0.0634 0.06315,-0.0847 0.16898,-0.0847 0.137936,0 0.328436,-0.0103 0.476603,-0.0527 0.274814,-0.0847 0.317147,-0.39176 0.328083,-1.3123 l 0.0949,-6.26522 c 0,-0.21156 0.0321,-0.3597 0.137936,-0.3597 0.116416,0 0.211314,0.13755 0.39123,0.32798 0.127,0.13755 1.735667,1.86242 3.280834,3.39729 0.719666,0.71935 2.148417,2.24345 2.32798,2.41254 h 0.05327 l -0.105833,-4.75149 c -0.01058,-0.64562 -0.106187,-0.84681 -0.359834,-0.9525 -0.159103,-0.0634 -0.41275,-0.0634 -0.560916,-0.0634 -0.127,0 -0.169334,-0.0317 -0.169334,-0.0955 0,-0.0846 0.116417,-0.0949 0.275167,-0.0949 0.550333,0 1.058333,0.0315 1.28023,0.0315 0.116417,0 0.518937,-0.0315 1.03752,-0.0315 0.137231,0 0.243064,0.0103 0.243064,0.0949 0,0.0638 -0.06315,0.0955 -0.1905,0.0955 -0.105833,0 -0.1905,0 -0.317147,0.0317 -0.296334,0.0847 -0.381,0.30702 -0.391936,0.89944 l -0.116417,6.67798 c 0,0.23258 -0.04233,0.32797 -0.137231,0.32797 -0.116416,0 -0.243769,-0.11645 -0.360186,-0.2329 -0.666397,-0.63486 -2.021064,-2.02117 -3.121731,-3.11118 -1.153583,-1.14311 -2.328333,-2.46603 -2.518833,-2.66679 h -0.03175 l 0.116417,4.44443" />
      <path
         id="path1416"
         style="fill:#231f20;fill-opacity:1;fill-rule:nonzero;stroke:none;stroke-width:0.03527778"
         d="m 67.911246,152.30219 c -0.168981,-0.0741 -0.200731,-0.12717 -0.200731,-0.36008 0,-0.5818 0.04233,-1.21708 0.05256,-1.38631 0.01094,-0.15875 0.04233,-0.27516 0.127353,-0.27516 0.0949,0 0.105833,0.0953 0.105833,0.17981 0,0.13779 0.04233,0.35994 0.09525,0.53978 0.232481,0.78313 0.85725,1.0691 1.513064,1.0691 0.9525,0 1.41852,-0.64562 1.41852,-1.2065 0,-0.51855 -0.159103,-1.016 -1.03752,-1.69334 l -0.486833,-0.381 c -1.164167,-0.91006 -1.565981,-1.65089 -1.565981,-2.5079 0,-1.16459 0.973667,-2.00035 2.44475,-2.00035 0.687917,0 1.132064,0.10583 1.407231,0.17981 0.09525,0.0211 0.148167,0.0531 0.148167,0.12721 0,0.13737 -0.04198,0.4444 -0.04198,1.26986 0,0.23287 -0.0321,0.31722 -0.116769,0.31722 -0.07373,0 -0.105834,-0.0634 -0.105834,-0.19043 0,-0.0951 -0.05292,-0.42309 -0.275166,-0.6984 -0.15875,-0.20118 -0.465667,-0.51844 -1.153584,-0.51844 -0.783166,0 -1.259064,0.45519 -1.259064,1.09005 0,0.48673 0.243064,0.85714 1.121481,1.52368 l 0.296333,0.22229 c 1.27,0.98421 1.735667,1.69319 1.735667,2.69889 0,0.61352 -0.232833,1.34387 -0.994481,1.84132 -0.529166,0.33874 -1.122186,0.43381 -1.683102,0.43381 -0.613481,0 -1.090084,-0.0741 -1.545167,-0.27492" />
    </g>
  </g>
</svg>
