<?xml version="1.0" encoding="UTF-8" standalone="no"?>
<!-- Created with Inkscape (http://www.inkscape.org/) -->

<svg
   xmlns:dc="http://purl.org/dc/elements/1.1/"
   xmlns:cc="http://creativecommons.org/ns#"
   xmlns:rdf="http://www.w3.org/1999/02/22-rdf-syntax-ns#"
   xmlns:svg="http://www.w3.org/2000/svg"
   xmlns="http://www.w3.org/2000/svg"
   xmlns:sodipodi="http://sodipodi.sourceforge.net/DTD/sodipodi-0.dtd"
   xmlns:inkscape="http://www.inkscape.org/namespaces/inkscape"
   width="123.6781mm"
   height="29.036573mm"
   viewBox="0 0 123.6781 29.036572"
   version="1.1"
   id="svg8"
   inkscape:version="0.92.4 (5da689c313, 2019-01-14)"
   sodipodi:docname="ThinkcellLogo.svg">
  <defs
     id="defs2">
    <clipPath
       id="clipPath4558"
       clipPathUnits="userSpaceOnUse">
      <path
         inkscape:connector-curvature="0"
         id="path4556"
         d="M 0,400 H 400 V 0 H 0 Z" />
    </clipPath>
    <clipPath
       id="clipPath4578"
       clipPathUnits="userSpaceOnUse">
      <path
         inkscape:connector-curvature="0"
         id="path4576"
         d="m 335.789,201.407 h 39.537 v -13.159 h -39.537 z" />
    </clipPath>
  </defs>
  <sodipodi:namedview
     id="base"
     pagecolor="#ffffff"
     bordercolor="#666666"
     borderopacity="1.0"
     inkscape:pageopacity="0.0"
     inkscape:pageshadow="2"
     inkscape:zoom="1.2688147"
     inkscape:cx="195.07412"
     inkscape:cy="19.420503"
     inkscape:document-units="mm"
     inkscape:current-layer="layer1"
     showgrid="false"
     inkscape:window-width="1920"
     inkscape:window-height="1137"
     inkscape:window-x="-8"
     inkscape:window-y="311"
     inkscape:window-maximized="1" />
  <metadata
     id="metadata5">
    <rdf:RDF>
      <cc:Work
         rdf:about="">
        <dc:format>image/svg+xml</dc:format>
        <dc:type
           rdf:resource="http://purl.org/dc/dcmitype/StillImage" />
        <dc:title></dc:title>
      </cc:Work>
    </rdf:RDF>
  </metadata>
  <g
     inkscape:label="Layer 1"
     inkscape:groupmode="layer"
     id="layer1"
     transform="translate(150.92388,-346.09915)">
    <g
       id="g4770">
      <path
         inkscape:connector-curvature="0"
         id="path4530"
         style="fill:#d3d2d2;fill-opacity:1;fill-rule:nonzero;stroke:none;stroke-width:0.35277778"
         d="m -45.907019,350.9309 h 18.5547 v -0.21308 h -18.5547 z" />
      <path
         inkscape:connector-curvature="0"
         id="path4532"
         style="fill:#d3d2d2;fill-opacity:1;fill-rule:nonzero;stroke:none;stroke-width:0.35277778"
         d="m -45.907019,355.53641 h 18.5547 v -0.21413 h -18.5547 z" />
      <path
         inkscape:connector-curvature="0"
         id="path4534"
         style="fill:#d3d2d2;fill-opacity:1;fill-rule:nonzero;stroke:none;stroke-width:0.35277778"
         d="m -27.459916,364.52625 h -18.3388 v -18.19663 h 18.3388 z m -18.5547,0.21484 h 18.768836 v -18.62667 h -18.768836 z" />
      <path
         inkscape:connector-curvature="0"
         id="path4536"
         style="fill:#d3d2d2;fill-opacity:1;fill-rule:nonzero;stroke:none;stroke-width:0.35277778"
         d="m -45.907019,360.1391 h 18.5547 v -0.21484 h -18.5547 z" />
      <path
         inkscape:connector-curvature="0"
         id="path4538"
         style="fill:#d3d2d2;fill-opacity:1;fill-rule:nonzero;stroke:none;stroke-width:0.35277778"
         d="m -41.376294,364.63385 h 0.214136 v -18.41218 h -0.214136 z" />
      <path
         inkscape:connector-curvature="0"
         id="path4540"
         style="fill:#d3d2d2;fill-opacity:1;fill-rule:nonzero;stroke:none;stroke-width:0.35277778"
         d="m -36.73656,364.63385 h 0.212725 v -18.41218 h -0.212725 z" />
      <path
         inkscape:connector-curvature="0"
         id="path4542"
         style="fill:#d3d2d2;fill-opacity:1;fill-rule:nonzero;stroke:none;stroke-width:0.35277778"
         d="m -32.100002,364.63385 h 0.213783 v -18.41218 h -0.213783 z" />
      <g
         transform="matrix(0.35277777,0,0,-0.35277777,-45.981596,359.95704)"
         id="g4544">
        <path
           inkscape:connector-curvature="0"
           id="path4546"
           style="fill:#d3d2d2;fill-opacity:1;fill-rule:nonzero;stroke:none"
           d="m 0,0 0.428,-0.433 39.438,39.154 -0.428,0.428 z" />
      </g>
      <g
         transform="matrix(0.35277777,0,0,-0.35277777,-41.344826,364.55832)"
         id="g4548">
        <path
           inkscape:connector-curvature="0"
           id="path4550"
           style="fill:#d3d2d2;fill-opacity:1;fill-rule:nonzero;stroke:none"
           d="m 0,0 0.427,-0.425 39.447,39.138 -0.429,0.43 z" />
      </g>
      <g
         transform="matrix(0.35277777,0,0,-0.35277777,-159.75793,431.05555)"
         id="g4552">
        <g
           clip-path="url(#clipPath4558)"
           id="g4554">
          <g
             transform="translate(335.8721,214.3867)"
             id="g4560">
            <path
               inkscape:connector-curvature="0"
               id="path4562"
               style="fill:#c61259;fill-opacity:1;fill-rule:evenodd;stroke:none"
               d="M 0,0 -13.153,-13.063 V 19.63 c 0.35,3.986 2.441,6.249 6.6,6.457 H 0 Z" />
          </g>
          <path
             inkscape:connector-curvature="0"
             id="path4564"
             style="fill:#231f20;fill-opacity:1;fill-rule:nonzero;stroke:none"
             d="m 335.872,240.244 h 26.296 v 0.457 h -26.296 z" />
          <g
             transform="translate(322.9463,234.0166)"
             id="g4566">
            <path
               inkscape:connector-curvature="0"
               id="path4568"
               style="fill:#231f20;fill-opacity:1;fill-rule:nonzero;stroke:none"
               d="m 0,0 c 0.351,3.986 2.447,6.031 6.386,6.228 h 6.316 V -19.534 C 12.566,-19.66 0.729,-31.421 0,-32.15 Z M 6.376,6.685 C 2.214,6.477 -0.081,4.231 -0.453,0.021 v -33.266 l 13.604,13.518 V 6.685 Z" />
          </g>
          <path
             inkscape:connector-curvature="0"
             id="path4570"
             style="fill:#231f20;fill-opacity:1;fill-rule:nonzero;stroke:none"
             d="m 375.093,201.324 h 0.455 v 26.095 h -0.455 z" />
          <g
             id="g4572">
            <g
               id="g4574" />
            <g
               id="g4586">
              <g
                 id="g4584"
                 clip-path="url(#clipPath4578)">
                <g
                   id="g4582"
                   transform="translate(349.0352,201.4072)">
                  <path
                     inkscape:connector-curvature="0"
                     id="path4580"
                     style="fill:#d3d2d2;fill-opacity:1;fill-rule:evenodd;stroke:none"
                     d="m 0,0 -13.246,-13.159 h 33.082 c 3.987,0.357 6.248,2.445 6.455,6.597 V 0 Z" />
                </g>
              </g>
            </g>
          </g>
          <g
             transform="translate(375.0967,201.1816)"
             id="g4588">
            <path
               inkscape:connector-curvature="0"
               id="path4590"
               style="fill:#231f20;fill-opacity:1;fill-rule:evenodd;stroke:none"
               d="m 0,0 v -6.336 c -0.19,-3.923 -2.238,-6.011 -6.244,-6.368 h -32.519 c 0.727,0.733 12.664,12.572 12.796,12.704 z m -26.157,0.459 -13.698,-13.614 h 33.629 c 4.234,0.376 6.474,2.663 6.685,6.812 v 6.802 z" />
          </g>
          <g
             transform="translate(30.5044,208.3799)"
             id="g4592">
            <path
               inkscape:connector-curvature="0"
               id="path4594"
               style="fill:#231f20;fill-opacity:1;fill-rule:nonzero;stroke:none"
               d="M 0,0 H -5.463 V 5.476 H 0 V 18.888 H 6.404 V 5.476 h 8.661 V 0 H 6.404 V -48.897 H 0 Z" />
          </g>
          <g
             transform="translate(51.3657,240.8213)"
             id="g4596">
            <path
               inkscape:connector-curvature="0"
               id="path4598"
               style="fill:#231f20;fill-opacity:1;fill-rule:nonzero;stroke:none"
               d="m 0,0 h 6.4 v -31.906 c 1.144,1.906 2.574,3.336 4.285,4.294 1.708,0.952 3.639,1.425 5.786,1.425 3.712,0 6.407,-1.36 8.108,-4.092 1.691,-2.726 2.531,-7.176 2.531,-13.334 v -37.726 h -6.396 v 38.723 c 0,4.261 -0.484,7.181 -1.454,8.763 -0.966,1.593 -2.649,2.389 -5.061,2.389 -2.541,0 -4.477,-1.153 -5.805,-3.469 C 7.069,-37.24 6.4,-40.642 6.4,-45.113 V -81.339 H 0 Z" />
          </g>
          <path
             inkscape:connector-curvature="0"
             id="path4600"
             style="fill:#231f20;fill-opacity:1;fill-rule:nonzero;stroke:none"
             d="m 90.1,213.855 h 6.587 V 159.482 H 90.1 Z m 3.342,20.663 c 1.161,0 2.142,-0.403 2.928,-1.193 0.78,-0.802 1.184,-1.782 1.184,-2.949 0,-1.105 -0.41,-2.069 -1.217,-2.894 -0.798,-0.833 -1.773,-1.243 -2.895,-1.243 -1.078,0 -2.011,0.42 -2.819,1.261 -0.804,0.844 -1.197,1.834 -1.197,2.971 0,1.134 0.38,2.088 1.155,2.872 0.768,0.782 1.725,1.175 2.861,1.175" />
          <g
             transform="translate(109.2881,213.8555)"
             id="g4602">
            <path
               inkscape:connector-curvature="0"
               id="path4604"
               style="fill:#231f20;fill-opacity:1;fill-rule:nonzero;stroke:none"
               d="m 0,0 h 6.402 v -4.94 c 1.14,1.906 2.566,3.336 4.281,4.294 1.715,0.952 3.633,1.425 5.778,1.425 3.713,0 6.417,-1.36 8.11,-4.092 1.693,-2.726 2.547,-7.176 2.547,-13.334 v -37.726 h -6.406 v 38.723 c 0,4.26 -0.483,7.181 -1.454,8.763 -0.969,1.593 -2.654,2.389 -5.054,2.389 -2.551,0 -4.488,-1.153 -5.817,-3.469 -1.326,-2.307 -1.985,-5.709 -1.985,-10.18 V -54.373 H 0 Z" />
          </g>
          <g
             transform="translate(168.0635,213.8555)"
             id="g4606">
            <path
               inkscape:connector-curvature="0"
               id="path4608"
               style="fill:#231f20;fill-opacity:1;fill-rule:nonzero;stroke:none"
               d="m 0,0 h 7.251 l -14.022,-23.613 18.73,-30.76 H 4.281 l -17.552,30.315 z m -19.857,26.838 h 6.392 v -81.211 h -6.392 z" />
          </g>
          <path
             inkscape:connector-curvature="0"
             id="path4610"
             style="fill:#231f20;fill-opacity:1;fill-rule:nonzero;stroke:none"
             d="m 180.611,190.58 h 20.962 v -5.3 h -20.962 z" />
          <g
             transform="translate(234.168,212.5684)"
             id="g4612">
            <path
               inkscape:connector-curvature="0"
               id="path4614"
               style="fill:#231f20;fill-opacity:1;fill-rule:nonzero;stroke:none"
               d="m 0,0 v -7.907 c -0.993,1.276 -2,2.215 -3.028,2.818 -1.036,0.602 -2.165,0.901 -3.401,0.901 -3.333,0 -5.766,-1.837 -7.292,-5.496 -1.514,-3.662 -2.283,-9.494 -2.283,-17.484 0,-6.691 0.784,-11.736 2.358,-15.137 1.563,-3.412 3.923,-5.108 7.069,-5.108 1.353,0 2.582,0.346 3.687,1.03 1.105,0.678 2.068,1.704 2.89,3.081 v -7.903 c -1.212,-0.835 -2.438,-1.467 -3.694,-1.869 -1.247,-0.396 -2.586,-0.599 -4.012,-0.599 -4.607,0 -8.24,2.374 -10.903,7.129 -2.652,4.747 -3.99,11.338 -3.99,19.772 0,9.573 1.349,16.774 4.052,21.605 2.704,4.822 6.724,7.233 12.101,7.233 1.166,0 2.313,-0.175 3.41,-0.527 C -1.932,1.181 -0.926,0.671 0,0" />
          </g>
          <g
             transform="translate(262.2969,190.3809)"
             id="g4616">
            <path
               inkscape:connector-curvature="0"
               id="path4618"
               style="fill:#231f20;fill-opacity:1;fill-rule:nonzero;stroke:none"
               d="m 0,0 c -0.039,5.834 -0.74,10.351 -2.121,13.564 -1.371,3.215 -3.29,4.824 -5.755,4.824 -2.609,0 -4.687,-1.587 -6.239,-4.758 C -15.661,10.452 -16.551,5.906 -16.76,0 Z M 6.203,-5.474 H -16.76 v -1.85 c 0,-6.003 0.762,-10.65 2.273,-13.937 1.519,-3.295 3.61,-4.942 6.282,-4.942 2.2,0 3.994,1.177 5.393,3.532 1.385,2.361 2.137,5.548 2.249,9.569 H 5.65 c -0.257,-5.8 -1.641,-10.382 -4.123,-13.738 -2.517,-3.362 -5.779,-5.028 -9.81,-5.028 -4.896,0 -8.572,2.309 -11.022,6.939 -2.448,4.642 -3.669,11.564 -3.669,20.799 0,9.084 1.315,16.12 3.946,21.109 2.644,4.978 6.314,7.476 11.016,7.476 4.699,0 8.247,-2.368 10.644,-7.097 C 5.019,12.619 6.203,5.612 6.203,-3.668 v -1.806" />
          </g>
          <path
             inkscape:connector-curvature="0"
             id="path4620"
             style="fill:#231f20;fill-opacity:1;fill-rule:nonzero;stroke:none"
             d="m 277.132,240.693 h 6.592 v -81.211 h -6.592 z" />
          <path
             inkscape:connector-curvature="0"
             id="path4622"
             style="fill:#231f20;fill-opacity:1;fill-rule:nonzero;stroke:none"
             d="m 296.143,240.693 h 6.593 v -81.211 h -6.593 z" />
          <g
             transform="translate(93.542,234.457)"
             id="g4624">
            <path
               inkscape:connector-curvature="0"
               id="path4626"
               style="fill:#231f20;fill-opacity:1;fill-rule:evenodd;stroke:none"
               d="M 0,0 C 2.099,0 3.813,-1.77 3.813,-3.934 3.813,-6.102 2.099,-7.87 0,-7.87 c -2.098,0 -3.815,1.768 -3.815,3.936 C -3.815,-1.77 -2.098,0 0,0" />
          </g>
        </g>
      </g>
    </g>
  </g>
</svg>
