<?xml version="1.0" encoding="UTF-8" standalone="no"?>
<svg
   xmlns:dc="http://purl.org/dc/elements/1.1/"
   xmlns:cc="http://creativecommons.org/ns#"
   xmlns:rdf="http://www.w3.org/1999/02/22-rdf-syntax-ns#"
   xmlns:svg="http://www.w3.org/2000/svg"
   xmlns="http://www.w3.org/2000/svg"
   width="1000.0001"
   height="154.45956"
   viewBox="0 0 1000.0001 154.45957"
   id="svg4841"
   version="1.1">
  <defs
     id="defs4843">
    <clipPath
       clipPathUnits="userSpaceOnUse"
       id="clipPath4172">
      <path
         d="M 1.16e-7,1.8311e-4 H 720 V 540.00018 H 1.16e-7 Z"
         id="path4174"
         style="clip-rule:evenodd" />
    </clipPath>
    <clipPath
       clipPathUnits="userSpaceOnUse"
       id="clipPath4182">
      <path
         d="M 0,0 H 368.63 V 56.843 H 0 Z"
         id="path4184" />
    </clipPath>
    <clipPath
       clipPathUnits="userSpaceOnUse"
       id="clipPath4196">
      <path
         d="M 0,56.843 V -0.63717 H 369.24 V 56.843"
         id="path4198"
         style="clip-rule:evenodd" />
    </clipPath>
  </defs>
  <metadata
     id="metadata4846">
    <rdf:RDF>
      <cc:Work
         rdf:about="">
        <dc:format>image/svg+xml</dc:format>
        <dc:type
           rdf:resource="http://purl.org/dc/dcmitype/StillImage" />
        <dc:title></dc:title>
      </cc:Work>
    </rdf:RDF>
  </metadata>
  <g
     style="fill:#1cb6ea;fill-opacity:1"
     id="layer1"
     transform="matrix(0.8565265,0,0,0.8565265,526.91945,-136.1975)">
    <g
       style="fill:#1cb6ea;fill-opacity:1"
       transform="matrix(1.8201514,0,0,-1.8201514,-711.76988,999.1852)"
       id="g4168">
      <g
         style="fill:#1cb6ea;fill-opacity:1"
         id="g4170"
         clip-path="url(#clipPath4172)">
        <g
           style="fill:#1cb6ea;fill-opacity:1"
           id="g4176"
           transform="matrix(8.9087,0,0,1.3761,53.066,362.52)">
          <g
             style="fill:#1cb6ea;fill-opacity:1"
             id="g4178"
             transform="scale(0.19532,1.2666)">
            <g
               style="fill:#1cb6ea;fill-opacity:1"
               id="g4180"
               clip-path="url(#clipPath4182)">
              <g
                 style="fill:#1cb6ea;fill-opacity:1"
                 id="g4186">
                <g
                   style="fill:#1cb6ea;fill-opacity:1"
                   id="g4188">
                  <g
                     style="fill:#1cb6ea;fill-opacity:1"
                     id="g4190" />
                </g>
                <g
                   style="fill:#1cb6ea;fill-opacity:1"
                   id="g4192">
                  <g
                     style="fill:#1cb6ea;fill-opacity:1"
                     id="g4194"
                     clip-path="url(#clipPath4196)">
                    <path
                       d="m 70.142,56.318 v 0 -49.076 c 0,-3.827 2.251,-6.60351 7.202,-6.60351 h 7.802 V 56.318 Z M 329.41,16.397 v 0 c 0,0 -9.46,27.089 -11.26,32.192 -1.12,3.452 -2.77,7.729 -10.5,7.729 H 290.02 V 0.63849 h 5.93 c 4.57,0 7.42,2.02611 7.42,6.75361 V 46.263 h 0.23 L 320.78,0.63849 h 16.05 L 354.01,46.263 h 0.23 V 7.317 c 0,-3.902 2.1,-6.67851 7.42,-6.67851 h 7.43 V 56.318 h -16.58 c -5.85,0 -9.45,-1.651 -11.25,-6.829 -1.2,-3.452 -11.55,-33.092 -11.55,-33.092 z M 32.033,15.872 v 0 c 0,0 -12.903,33.767 -13.654,35.718 -0.975,2.627 -2.325,4.728 -7.276,4.728 L 0,56.318 22.881,0.63849 H 39.535 L 63.24,56.318 h -9.827 c -4.201,0 -5.851,-1.801 -6.902,-4.503 L 32.258,15.872 Z m 164.137,28.74 v 0 h 7.65 c 5.48,0 8.71,2.026 8.71,6.978 v 4.728 h -21.76 c -18.15,0 -26.86,-10.731 -26.86,-27.84 0,-21.3111 13.28,-27.83951 26.86,-27.83951 h 21.76 V 5.441 c 0,4.878 -3.38,6.904 -8.33,6.904 h -8.03 c -8.62,0 -16.65,3.076 -16.65,16.133 0,11.331 6.08,16.134 16.65,16.134 z M 137.88,21.499 v 0 c 0,-5.552 -2.55,-9.905 -10.05,-9.905 h -7.8 c -5.48,0 -8.7,1.501 -8.7,5.928 0,4.278 3,6.004 8.7,6.004 h 17.85 z m -7.27,34.819 v 0 H 99.924 v -4.277 c 0,-3.752 1.946,-7.429 7.276,-7.429 2.33,0 19.58,0 19.58,0 8.25,0 11.1,-2.702 11.1,-9.23 v -0.976 h -20.7 c -15.46,0 -21.082,-7.128 -21.082,-16.809 0,-11.7808 7.882,-16.95851 21.082,-16.95851 h 13.8 c 18.08,0 21.98,9.07981 21.98,21.01151 v 13.807 c 0,12.907 -4.8,20.861 -22.35,20.861 z M 247.64,11.744 v 0 c 9.75,0 15.45,6.754 15.45,16.734 0,10.581 -6.08,16.734 -15.45,16.734 -9.98,0 -15.61,-6.679 -15.61,-16.734 0,-9.605 5.48,-16.734 15.61,-16.734 z m 0,45.174 v 0 c 18.22,0 31.2,-9.905 31.2,-28.44 0,-17.709 -12,-28.514858 -31.2,-28.514858 -18.76,0 -31.29,10.355858 -31.29,28.514858 0,17.935 12.38,28.44 31.29,28.44 z"
                       style="fill:#1cb6ea;fill-opacity:1;fill-rule:nonzero;stroke:none"
                       id="path4200" />
                  </g>
                </g>
              </g>
            </g>
          </g>
        </g>
      </g>
    </g>
  </g>
</svg>
