<?xml version="1.0" encoding="UTF-8" standalone="no"?>
<svg
   xmlns:dc="http://purl.org/dc/elements/1.1/"
   xmlns:cc="http://creativecommons.org/ns#"
   xmlns:rdf="http://www.w3.org/1999/02/22-rdf-syntax-ns#"
   xmlns:svg="http://www.w3.org/2000/svg"
   xmlns="http://www.w3.org/2000/svg"
   xmlns:sodipodi="http://sodipodi.sourceforge.net/DTD/sodipodi-0.dtd"
   xmlns:inkscape="http://www.inkscape.org/namespaces/inkscape"
   width="252.16475"
   height="59.738243"
   viewBox="251.092 496.181 252.16475 59.738243"
   enable-background="new 251.092 496.181 347.664 60"
   version="1.1"
   id="svg32"
   sodipodi:docname="core-c++-ug.svg"
   inkscape:version="0.92.3 (2405546, 2018-03-11)">
  <metadata
     id="metadata38">
    <rdf:RDF>
      <cc:Work
         rdf:about="">
        <dc:format>image/svg+xml</dc:format>
        <dc:type
           rdf:resource="http://purl.org/dc/dcmitype/StillImage" />
        <dc:title />
      </cc:Work>
    </rdf:RDF>
  </metadata>
  <defs
     id="defs36" />
  <sodipodi:namedview
     pagecolor="#ffffff"
     bordercolor="#666666"
     borderopacity="1"
     objecttolerance="10"
     gridtolerance="10"
     guidetolerance="10"
     inkscape:pageopacity="0"
     inkscape:pageshadow="2"
     inkscape:window-width="1920"
     inkscape:window-height="1137"
     id="namedview34"
     showgrid="false"
     inkscape:zoom="2.3671107"
     inkscape:cx="-8.0163259"
     inkscape:cy="64.71268"
     inkscape:window-x="-8"
     inkscape:window-y="311"
     inkscape:window-maximized="1"
     inkscape:current-layer="svg32" />
  <g
     transform="matrix(0.34398692,0,0,0.34398692,247.89653,469.15469)"
     id="layer1">
    <g
       id="g4622">
      <path
         inkscape:connector-curvature="0"
         transform="scale(0.26458333)"
         id="path4505"
         d="m 390.92969,542.69141 c -243.11568,128.53878 -119.5773,351.83319 0,410.62695 119.5773,-58.79376 243.11569,-282.08817 0,-410.62695 z"
         style="opacity:1;fill:#b3862a;fill-opacity:1;fill-rule:evenodd;stroke:none;stroke-width:1;stroke-linecap:butt;stroke-linejoin:miter;stroke-miterlimit:4;stroke-dasharray:none;stroke-opacity:1" />
      <path
         inkscape:connector-curvature="0"
         style="opacity:1;fill:#778254;fill-opacity:1;fill-rule:evenodd;stroke:none;stroke-width:0.26458332;stroke-linecap:butt;stroke-linejoin:miter;stroke-miterlimit:4;stroke-dasharray:none;stroke-opacity:1"
         d="M 103.37659,143.68564 C 164.99161,182.38756 199.81328,124.5405 197.46596,89.363122 168.17512,69.741596 100.66725,70.974507 103.37659,143.68564 Z"
         id="path4510" />
      <path
         inkscape:connector-curvature="0"
         id="path4601"
         d="m 106.67086,141.85552 c 57.30197,35.99279 89.68612,-17.80498 87.50312,-50.519939 -27.24049,-18.248016 -90.0228,-17.101409 -87.50312,50.519939 z"
         style="opacity:1;fill:#8f9c67;fill-opacity:1;fill-rule:evenodd;stroke:none;stroke-width:0.24606249;stroke-linecap:butt;stroke-linejoin:miter;stroke-miterlimit:4;stroke-dasharray:none;stroke-opacity:1" />
      <path
         inkscape:connector-curvature="0"
         style="opacity:1;fill:#b3572f;fill-opacity:1;fill-rule:evenodd;stroke:none;stroke-width:0.26458332;stroke-linecap:butt;stroke-linejoin:miter;stroke-miterlimit:4;stroke-dasharray:none;stroke-opacity:1"
         d="M 103.49037,143.68564 C 106.19971,70.974508 38.691845,69.741595 9.4010047,89.363121 7.0536848,124.5405 41.875348,182.38756 103.49037,143.68564 Z"
         id="path4514" />
      <path
         inkscape:connector-curvature="0"
         id="path4597"
         d="M 100.1961,141.85552 C 102.71579,74.234169 39.933474,73.08756 12.692992,91.33558 10.509985,124.05054 42.894131,177.8483 100.1961,141.85552 Z"
         style="opacity:1;fill:#d17750;fill-opacity:1;fill-rule:evenodd;stroke:none;stroke-width:0.24606249;stroke-linecap:butt;stroke-linejoin:miter;stroke-miterlimit:4;stroke-dasharray:none;stroke-opacity:1" />
      <path
         inkscape:connector-curvature="0"
         style="opacity:1;fill:#d6ab54;fill-opacity:1;fill-rule:evenodd;stroke:none;stroke-width:0.2460625;stroke-linecap:butt;stroke-linejoin:miter;stroke-miterlimit:4;stroke-dasharray:none;stroke-opacity:1"
         d="m 103.43348,147.3896 c -59.821655,31.62858 -29.423493,86.57296 0,101.0399 29.42349,-14.46694 59.82165,-69.41132 0,-101.0399 z"
         id="path4599" />
      <circle
         r="21.774761"
         cy="143.5871"
         cx="103.43348"
         id="path4521"
         style="opacity:1;fill:#659ad2;fill-opacity:1;stroke:#004482;stroke-width:3;stroke-linecap:round;stroke-linejoin:round;stroke-miterlimit:4;stroke-dasharray:none;stroke-opacity:1" />
      <path
         inkscape:connector-curvature="0"
         style="opacity:1;fill:#4283c8;fill-opacity:1;stroke:none;stroke-width:0.33113095;stroke-linecap:round;stroke-linejoin:round;stroke-miterlimit:4;stroke-dasharray:none;stroke-opacity:1"
         id="path4571"
         d="m 117.7794,129.24411 a 20.284042,20.284042 0 0 1 5.94106,14.34299 20.284042,20.284042 0 0 1 -5.94106,14.34298 L 103.43642,143.5871 Z" />
      <ellipse
         ry="16.33107"
         rx="16.331072"
         style="opacity:1;fill:#0068c6;fill-opacity:1;stroke:none;stroke-width:0.26659989;stroke-linecap:round;stroke-linejoin:round;stroke-miterlimit:4;stroke-dasharray:none;stroke-opacity:1"
         id="circle4549"
         cx="103.43348"
         cy="143.5871" />
      <circle
         style="opacity:1;fill:#ffffff;fill-opacity:1;stroke:none;stroke-width:0.1962443;stroke-linecap:round;stroke-linejoin:round;stroke-miterlimit:4;stroke-dasharray:none;stroke-opacity:1"
         id="circle4547"
         cx="103.43348"
         cy="143.5871"
         r="12.021309" />
      <circle
         r="8.278512"
         style="opacity:1;fill:#0068c6;fill-opacity:1;stroke:none;stroke-width:0.13514425;stroke-linecap:round;stroke-linejoin:round;stroke-miterlimit:4;stroke-dasharray:none;stroke-opacity:1"
         id="circle4545"
         cx="103.43348"
         cy="143.5871" />
      <path
         inkscape:connector-curvature="0"
         d="m 115.08492,131.93719 a 16.475452,16.475452 0 0 1 4.82555,11.64991 16.475452,16.475452 0 0 1 -4.82555,11.6499 l -11.64991,-11.6499 z"
         id="path4573"
         style="opacity:1;fill:#007be8;fill-opacity:1;stroke:none;stroke-width:0.26895684;stroke-linecap:round;stroke-linejoin:round;stroke-miterlimit:4;stroke-dasharray:none;stroke-opacity:1" />
      <path
         inkscape:connector-curvature="0"
         d="m 111.96713,135.05334 a 12.068556,12.068556 0 0 1 3.5348,8.53376 12.068556,12.068556 0 0 1 -3.5348,8.53375 l -8.53376,-8.53375 z"
         id="circle4553"
         style="opacity:1;fill:#005bac;fill-opacity:1;stroke:none;stroke-width:0.19701558;stroke-linecap:round;stroke-linejoin:round;stroke-miterlimit:4;stroke-dasharray:none;stroke-opacity:1" />
      <g
         transform="matrix(0.72972975,0,0,0.72972975,31.075767,38.795045)"
         id="g4561">
        <rect
           style="opacity:1;fill:#ffffff;fill-opacity:1;stroke:#004482;stroke-width:0;stroke-linecap:butt;stroke-linejoin:miter;stroke-miterlimit:4;stroke-dasharray:none;stroke-opacity:1"
           id="rect4555"
           width="2.1771417"
           height="6.992559"
           x="108.99699"
           y="140.04539"
           ry="0.34962791" />
        <rect
           ry="0.34962791"
           y="-113.58183"
           x="142.45311"
           height="6.992559"
           width="2.1771417"
           id="rect4557"
           style="opacity:1;fill:#ffffff;fill-opacity:1;stroke:#004482;stroke-width:0;stroke-linecap:butt;stroke-linejoin:miter;stroke-miterlimit:4;stroke-dasharray:none;stroke-opacity:1"
           transform="rotate(90)" />
      </g>
      <g
         id="g4567"
         transform="matrix(0.72972975,0,0,0.72972975,36.839904,38.795045)">
        <rect
           ry="0.34962791"
           y="140.04539"
           x="108.99699"
           height="6.992559"
           width="2.1771417"
           id="rect4563"
           style="opacity:1;fill:#ffffff;fill-opacity:1;stroke:#004482;stroke-width:0;stroke-linecap:butt;stroke-linejoin:miter;stroke-miterlimit:4;stroke-dasharray:none;stroke-opacity:1" />
        <rect
           transform="rotate(90)"
           style="opacity:1;fill:#ffffff;fill-opacity:1;stroke:#004482;stroke-width:0;stroke-linecap:butt;stroke-linejoin:miter;stroke-miterlimit:4;stroke-dasharray:none;stroke-opacity:1"
           id="rect4565"
           width="2.1771417"
           height="6.992559"
           x="142.45311"
           y="-113.58183"
           ry="0.34962791" />
      </g>
    </g>
  </g>
  <g
     aria-label="Core C++ "
     style="font-style:normal;font-variant:normal;font-weight:normal;font-stretch:normal;font-size:44.97668457px;line-height:125%;font-family:'WLM Idea';-inkscape-font-specification:'WLM Idea';text-align:start;letter-spacing:0px;word-spacing:0px;text-anchor:start;fill:#4e4e4e;fill-opacity:1;stroke:none;stroke-width:1.12441707px;stroke-linecap:butt;stroke-linejoin:miter;stroke-opacity:1"
     id="text94">
    <path
       d="m 339.30048,515.78102 q -3.09654,0 -4.83148,2.5475 -1.73494,2.52555 -1.73494,6.98369 0,9.26766 7.04957,9.26766 2.13024,0 4.12872,-0.59296 1.99848,-0.59295 4.01891,-1.42748 v 7.33506 q -4.01891,1.77887 -9.09196,1.77887 -7.26919,0 -11.15633,-4.21657 -3.86518,-4.21656 -3.86518,-12.1885 0,-4.98521 1.8667,-8.76255 1.88867,-3.77734 5.40248,-5.79778 3.53576,-2.0424 8.30136,-2.0424 5.20482,0 9.94845,2.26202 l -2.65731,6.82995 q -1.77886,-0.83453 -3.55773,-1.40552 -1.77886,-0.57099 -3.82126,-0.57099 z"
       style="letter-spacing:-2.04333949px;fill:#4e4e4e;fill-opacity:1;stroke-width:1.12441707px"
       id="path3885" />
    <path
       d="m 375.38191,528.73817 q 0,6.10523 -3.29419,9.53119 -3.27223,3.404 -9.17981,3.404 -5.66601,0 -9.02608,-3.49185 -3.33812,-3.49184 -3.33812,-9.44334 0,-6.08328 3.27223,-9.44335 3.29419,-3.38204 9.22374,-3.38204 3.66753,0 6.47857,1.55925 2.81105,1.55926 4.32637,4.4801 1.53729,2.89889 1.53729,6.78604 z m -16.11957,0 q 0,3.20634 0.85649,4.89736 0.85649,1.66906 2.87693,1.66906 1.99847,0 2.81104,-1.66906 0.83453,-1.69102 0.83453,-4.89736 0,-3.18439 -0.83453,-4.80952 -0.83453,-1.62514 -2.85497,-1.62514 -1.97651,0 -2.833,1.62514 -0.85649,1.60317 -0.85649,4.80952 z"
       style="letter-spacing:-2.04333949px;fill:#4e4e4e;fill-opacity:1;stroke-width:1.12441707px"
       id="path3887" />
    <path
       d="m 393.23548,515.91278 q 1.12003,0 2.13025,0.17569 l 0.48315,0.0879 -0.76865,8.10371 q -1.05414,-0.26354 -2.92085,-0.26354 -2.81104,0 -4.08479,1.29572 -1.27376,1.27375 -1.27376,3.68949 v 12.23243 h -8.58686 v -24.88212 l 7.73037,-0.022 v 3.99695 h 0.41727 q 1.0761,-1.97651 2.98673,-3.18438 1.93259,-1.22984 3.88714,-1.22984 z"
       style="letter-spacing:-2.04333949px;fill:#4e4e4e;fill-opacity:1;stroke-width:1.12441707px"
       id="path3889" />
    <path
       d="m 408.38782,541.67336 q -6.21504,0 -9.66296,-3.29419 -3.42596,-3.31616 -3.42596,-9.42139 0,-6.30289 3.18439,-9.66296 3.18438,-3.38204 9.09196,-3.38204 5.62209,0 8.67471,2.94281 3.07457,2.92085 3.07457,8.43313 v 3.82126 H 403.9736 q 0.0879,2.08633 1.51533,3.27223 1.44945,1.18591 3.93107,1.18591 2.26201,0 4.15068,-0.41726 1.91063,-0.43923 4.12872,-1.47141 v 6.17112 q -2.02044,1.03218 -4.17264,1.42748 -2.15221,0.39531 -5.13894,0.39531 z m -0.50511,-19.91888 q -1.51533,0 -2.54751,0.9663 -1.01022,0.94433 -1.18591,2.98673 h 7.37899 q -0.0439,-1.80082 -1.03218,-2.87692 -0.96629,-1.07611 -2.61339,-1.07611 z"
       style="letter-spacing:-2.04333949px;fill:#4e4e4e;fill-opacity:1;stroke-width:1.12441707px"
       id="path3891" />
    <path
       d="m 446.62051,515.78102 q -3.09654,0 -4.83148,2.5475 -1.73494,2.52555 -1.73494,6.98369 0,9.26766 7.04957,9.26766 2.13024,0 4.12872,-0.59296 1.99848,-0.59295 4.01891,-1.42748 v 7.33506 q -4.01891,1.77887 -9.09196,1.77887 -7.26919,0 -11.15633,-4.21657 -3.86518,-4.21656 -3.86518,-12.1885 0,-4.98521 1.8667,-8.76255 1.88867,-3.77734 5.40248,-5.79778 3.53576,-2.0424 8.30136,-2.0424 5.20482,0 9.94845,2.26202 l -2.65731,6.82995 q -1.77886,-0.83453 -3.55773,-1.40552 -1.77886,-0.57099 -3.82126,-0.57099 z"
       style="letter-spacing:-2.04333949px;fill:#4e4e4e;fill-opacity:1;stroke-width:1.12441707px"
       id="path3893" />
    <path
       d="m 465.74783,527.33265 h -8.16959 v -5.88562 h 8.16959 v -8.05979 h 5.90759 v 8.05979 h 8.16959 v 5.88562 h -8.16959 v 7.92801 h -5.90759 z"
       style="letter-spacing:-2.04333949px;fill:#4e4e4e;fill-opacity:1;stroke-width:1.12441707px"
       id="path3895" />
    <path
       d="m 489.17958,527.33265 h -8.16959 v -5.88562 h 8.16959 v -8.05979 h 5.90758 v 8.05979 h 8.1696 v 5.88562 h -8.1696 v 7.92801 h -5.90758 z"
       style="letter-spacing:-2.04333949px;fill:#4e4e4e;fill-opacity:1;stroke-width:1.12441707px"
       id="path3897" />
  </g>
</svg>
