<?xml version="1.0" encoding="UTF-8" standalone="no"?>
<!-- Generator: Adobe Illustrator 17.0.1, SVG Export Plug-In . SVG Version: 6.00 Build 0)  -->

<svg
   xmlns:dc="http://purl.org/dc/elements/1.1/"
   xmlns:cc="http://creativecommons.org/ns#"
   xmlns:rdf="http://www.w3.org/1999/02/22-rdf-syntax-ns#"
   xmlns:svg="http://www.w3.org/2000/svg"
   xmlns="http://www.w3.org/2000/svg"
   xmlns:sodipodi="http://sodipodi.sourceforge.net/DTD/sodipodi-0.dtd"
   xmlns:inkscape="http://www.inkscape.org/namespaces/inkscape"
   version="1.1"
   id="Layer_1"
   x="0px"
   y="0px"
   width="105.46108"
   height="17"
   viewBox="0 0 105.46108 17"
   enable-background="new 0 0 185 188"
   xml:space="preserve"
   sodipodi:docname="haifa-cpp.svg"
   inkscape:version="0.92.3 (2405546, 2018-03-11)"
   inkscape:export-filename="c:\Users\adish\Work\Fun\CoreC++\zeppelin\img\seo\logo.png"
   inkscape:export-xdpi="477.92676"
   inkscape:export-ydpi="477.92676"><metadata
   id="metadata235"><rdf:RDF><cc:Work
       rdf:about=""><dc:format>image/svg+xml</dc:format><dc:type
         rdf:resource="http://purl.org/dc/dcmitype/StillImage" /><dc:title /></cc:Work></rdf:RDF></metadata><defs
   id="defs233">
	
	
	
	
		<radialGradient
   gradientUnits="userSpaceOnUse"
   gradientTransform="matrix(0.498,0,0,0.498,172.2891,79.7388)"
   r="20.113701"
   cy="-60.055"
   cx="-310.58301"
   id="SVGID_1_">
		<stop
   id="stop48"
   style="stop-color:#FFCF4F"
   offset="0" />
		<stop
   id="stop50"
   style="stop-color:#F4C236"
   offset="1" />
	</radialGradient>
	
	
		<radialGradient
   gradientUnits="userSpaceOnUse"
   gradientTransform="matrix(0.498,0,0,0.498,172.2891,79.7388)"
   r="27.658199"
   cy="-70.269501"
   cx="-322.6347"
   id="SVGID_2_">
		<stop
   id="stop55"
   style="stop-color:#08A960"
   offset="0" />
		<stop
   id="stop57"
   style="stop-color:#07914B"
   offset="1" />
	</radialGradient>
	
	
		<radialGradient
   gradientUnits="userSpaceOnUse"
   gradientTransform="matrix(0.498,0,0,0.498,172.2891,79.7388)"
   r="40.540001"
   cy="-109.9511"
   cx="-313.18311"
   id="SVGID_3_">
		<stop
   id="stop62"
   style="stop-color:#567FC0"
   offset="0" />
		<stop
   id="stop64"
   style="stop-color:#557FC0"
   offset="1" />
	</radialGradient>
	
	
		<radialGradient
   gradientUnits="userSpaceOnUse"
   gradientTransform="matrix(0.498,0,0,0.498,172.2891,79.7388)"
   r="33.058399"
   cy="-119.9164"
   cx="-301.11911"
   id="SVGID_4_">
		<stop
   id="stop69"
   style="stop-color:#E14C40"
   offset="0" />
		<stop
   id="stop71"
   style="stop-color:#CD392D"
   offset="1" />
	</radialGradient>
	
<filter
   style="color-interpolation-filters:sRGB"
   inkscape:label="Greyscale"
   id="filter4319"><feColorMatrix
     values="0.21 0.72 0.072 0 0 0.21 0.72 0.072 0 0 0.21 0.72 0.072 0 0 0 0 0 1 0 "
     id="feColorMatrix4317" /></filter>
	
	
	
	
		<radialGradient
   gradientUnits="userSpaceOnUse"
   gradientTransform="matrix(0.498,0,0,0.498,172.2891,79.7388)"
   r="20.113701"
   cy="66.4552"
   cx="-310.58301"
   id="SVGID_5_">
		<stop
   id="stop124"
   style="stop-color:#CCCCCC"
   offset="0" />
		<stop
   id="stop126"
   style="stop-color:#C0C0C0"
   offset="1" />
	</radialGradient>
	
	
		<radialGradient
   gradientUnits="userSpaceOnUse"
   gradientTransform="matrix(0.498,0,0,0.498,172.2891,79.7388)"
   r="27.658199"
   cy="56.2407"
   cx="-322.6347"
   id="SVGID_6_">
		<stop
   id="stop131"
   style="stop-color:#A0A0A0"
   offset="0" />
		<stop
   id="stop133"
   style="stop-color:#7B7B7B"
   offset="1" />
	</radialGradient>
	
	
		<radialGradient
   gradientUnits="userSpaceOnUse"
   gradientTransform="matrix(0.498,0,0,0.498,172.2891,79.7388)"
   r="40.540001"
   cy="16.559"
   cx="-313.18311"
   id="SVGID_7_">
		<stop
   id="stop138"
   style="stop-color:#848484"
   offset="0" />
		<stop
   id="stop140"
   style="stop-color:#838383"
   offset="1" />
	</radialGradient>
	
	
		<radialGradient
   gradientUnits="userSpaceOnUse"
   gradientTransform="matrix(0.498,0,0,0.498,172.2891,79.7388)"
   r="33.058399"
   cy="6.5938001"
   cx="-301.11911"
   id="SVGID_8_">
		<stop
   id="stop145"
   style="stop-color:#626262"
   offset="0" />
		<stop
   id="stop147"
   style="stop-color:#474747"
   offset="1" />
	</radialGradient>
	

	
	
	
	
		<radialGradient
   gradientUnits="userSpaceOnUse"
   gradientTransform="matrix(0.498,0,0,0.498,172.2891,79.7388)"
   r="20.113701"
   cy="192.9653"
   cx="-310.26501"
   id="SVGID_9_">
		<stop
   id="stop200"
   style="stop-color:#FFCF4F"
   offset="0" />
		<stop
   id="stop202"
   style="stop-color:#F4C236"
   offset="1" />
	</radialGradient>
	
	
		<radialGradient
   gradientUnits="userSpaceOnUse"
   gradientTransform="matrix(0.498,0,0,0.498,172.2891,79.7388)"
   r="27.658199"
   cy="182.75079"
   cx="-322.31671"
   id="SVGID_10_">
		<stop
   id="stop207"
   style="stop-color:#08A960"
   offset="0" />
		<stop
   id="stop209"
   style="stop-color:#07914B"
   offset="1" />
	</radialGradient>
	
	
		<radialGradient
   gradientUnits="userSpaceOnUse"
   gradientTransform="matrix(0.498,0,0,0.498,172.2891,79.7388)"
   r="40.540001"
   cy="143.06911"
   cx="-312.86511"
   id="SVGID_11_">
		<stop
   id="stop214"
   style="stop-color:#567FC0"
   offset="0" />
		<stop
   id="stop216"
   style="stop-color:#557FC0"
   offset="1" />
	</radialGradient>
	
	
		<radialGradient
   gradientUnits="userSpaceOnUse"
   gradientTransform="matrix(0.498,0,0,0.498,172.2891,79.7388)"
   r="33.058399"
   cy="133.1039"
   cx="-300.80109"
   id="SVGID_12_">
		<stop
   id="stop221"
   style="stop-color:#E14C40"
   offset="0" />
		<stop
   id="stop223"
   style="stop-color:#CD392D"
   offset="1" />
	</radialGradient>
	


</defs><sodipodi:namedview
   pagecolor="#ffffff"
   bordercolor="#666666"
   borderopacity="1"
   objecttolerance="10"
   gridtolerance="10"
   guidetolerance="10"
   inkscape:pageopacity="0"
   inkscape:pageshadow="2"
   inkscape:window-width="1920"
   inkscape:window-height="1137"
   id="namedview231"
   showgrid="false"
   inkscape:zoom="2.6167882"
   inkscape:cx="-156.82475"
   inkscape:cy="-32.863576"
   inkscape:window-x="1912"
   inkscape:window-y="-8"
   inkscape:window-maximized="1"
   inkscape:current-layer="Layer_1" />




<text
   id="text112"
   y="1.7670265"
   x="32.090885"
   style="font-style:normal;font-variant:normal;font-weight:normal;font-stretch:normal;font-size:28.61477089px;line-height:125%;font-family:'WLM Idea';-inkscape-font-specification:'WLM Idea';text-align:start;letter-spacing:0px;word-spacing:0px;text-anchor:start;fill:#4e4e4e;fill-opacity:1;stroke:none;stroke-width:0.71536922px;stroke-linecap:butt;stroke-linejoin:miter;stroke-opacity:1"
   xml:space="preserve"><tspan
     id="tspan108"
     style="letter-spacing:-1.29999995px;fill:#4e4e4e;fill-opacity:1;stroke-width:0.71536922px"
     y="27.121119"
     x="32.090885"
     sodipodi:role="line" /><tspan
     id="tspan110"
     style="fill:#4e4e4e;fill-opacity:1;stroke-width:0.71536922px"
     y="62.88958"
     x="32.090885"
     sodipodi:role="line" /></text>



<g
   id="g133"
   transform="matrix(0.8095238,0,0,0.8095238,-60.17535,25.202208)"
   style="fill:#782121"><g
   aria-label=" "
   style="font-style:normal;font-variant:normal;font-weight:normal;font-stretch:normal;font-size:28.61477089px;line-height:125%;font-family:'WLM Idea';-inkscape-font-specification:'WLM Idea';text-align:start;letter-spacing:0px;word-spacing:0px;text-anchor:start;fill:#782121;fill-opacity:1;stroke:none;stroke-width:0.71536922px;stroke-linecap:butt;stroke-linejoin:miter;stroke-opacity:1"
   id="text94" />

<g
   aria-label="Haifa::C++ "
   style="font-style:normal;font-variant:normal;font-weight:normal;font-stretch:normal;font-size:28.61477089px;line-height:125%;font-family:'WLM Idea';-inkscape-font-specification:'WLM Idea';text-align:start;letter-spacing:0px;word-spacing:0px;text-anchor:start;fill:#782121;fill-opacity:1;stroke:none;stroke-width:0.71536922px;stroke-linecap:butt;stroke-linejoin:miter;stroke-opacity:1"
   id="text122"><path
     d="m 93.084757,-11.054295 q 0,0.293413 -0.125749,0.363273 -0.05589,0.04192 -0.391218,0.06986 -0.852295,0.08383 -2.403193,0.08383 -2.193613,0 -2.584831,-0.08383 -0.377245,-0.08383 -0.377245,-0.377246 0,-1.103792 0.0978,-3.311377 0.111777,-2.221557 0.111777,-3.32535 0,-0.54491 -0.307385,-0.628742 -0.47505,-0.111777 -3.381238,-0.111777 -2.92016,0 -3.409182,0.111777 -0.307385,0.06986 -0.307385,0.628742 0,1.089821 0.06986,3.269462 0.06986,2.165668 0.06986,3.255489 0,0.419161 -0.377246,0.489022 -0.447106,0.08383 -2.626746,0.08383 -1.886228,0 -2.403194,-0.08383 -0.40519,-0.06986 -0.40519,-0.433134 0,-1.508982 0.139721,-4.55489 0.153692,-3.045909 0.153692,-4.568863 0,-1.620758 -0.13972,-4.862275 -0.139721,-3.255489 -0.139721,-4.876248 0,-0.307385 0.293414,-0.307385 0.433133,0 1.299401,0.04192 0.880239,0.04192 1.313373,0.04192 0.447106,0 1.341317,-0.04192 0.908184,-0.04192 1.35529,-0.04192 0.237525,0 0.237525,0.251497 0,1.047904 -0.153693,3.143712 -0.153692,2.081837 -0.153692,3.129741 0,0.489022 0.265469,0.572854 0.363273,0.111777 3.576846,0.111777 2.99002,0 3.46507,-0.111777 0.335329,-0.08383 0.335329,-0.572854 0,-1.005988 -0.0978,-3.031936 -0.0978,-2.03992 -0.0978,-3.05988 0,-0.433134 0.349302,-0.433134 0.405189,0 1.229541,0.04192 0.838323,0.04192 1.257485,0.04192 0.405189,0 1.229541,-0.04192 0.838323,-0.04192 1.257485,-0.04192 0.405189,0 0.405189,0.335329 0,1.606787 -0.13972,4.848304 -0.125749,3.241517 -0.125749,4.862275 0,1.522954 0.139721,4.568863 0.153693,3.045908 0.153693,4.55489 z"
     style="font-style:normal;font-variant:normal;font-weight:normal;font-stretch:normal;font-family:'Berlin Sans FB Demi';-inkscape-font-specification:'Berlin Sans FB Demi';letter-spacing:0px;fill:#782121;fill-opacity:1;stroke-width:0.71536922px"
     id="path55" /><path
     d="m 109.62767,-17.60719 q 0,1.075849 0.12575,3.199601 0.12575,2.123753 0.12575,3.185629 0,0.558882 -0.48902,0.600799 -1.73254,0.125748 -3.96807,0.125748 -0.26547,0 -0.36327,-0.796407 -0.0838,-0.810379 -0.20958,-0.824351 -0.11178,0.05589 -0.29341,0.237524 -1.56488,1.578843 -3.3533,1.578843 -2.724549,0 -4.512972,-2.151697 -1.690619,-2.011976 -1.690619,-4.806387 0,-3.227545 1.746507,-5.197605 1.816367,-2.03992 4.974054,-2.03992 2.19361,0 3.46507,1.536926 0.0559,0.06986 0.0978,0.06986 0.12575,0 0.27944,-0.670658 0.16767,-0.684631 0.39122,-0.684631 0.51697,0 1.97006,0.293413 1.38323,0.279441 1.98403,0.47505 0.20958,0.08383 0.20958,0.223553 0,0.05589 -0.0419,0.293413 -0.44711,2.528942 -0.44711,5.351297 z m -4.499,0.08383 q 0,-1.187625 -0.75449,-1.956088 -0.74052,-0.782435 -1.94212,-0.782435 -1.20159,0 -1.94211,0.768463 -0.740522,0.768463 -0.740522,1.97006 0,1.131736 0.782432,1.942116 0.78244,0.810379 1.9002,0.810379 1.18763,0 1.94212,-0.768463 0.75449,-0.782435 0.75449,-1.984032 z"
     style="font-style:normal;font-variant:normal;font-weight:normal;font-stretch:normal;font-family:'Berlin Sans FB Demi';-inkscape-font-specification:'Berlin Sans FB Demi';letter-spacing:0px;fill:#782121;fill-opacity:1;stroke-width:0.71536922px"
     id="path57" /><path
     d="m 117.94104,-27.415573 q 0,2.431138 -2.73852,2.431138 -1.17365,0 -1.94211,-0.614771 -0.83833,-0.670658 -0.83833,-1.816367 0,-1.08982 0.86627,-1.788423 0.79641,-0.642715 1.91417,-0.642715 1.08982,0 1.88623,0.656687 0.85229,0.698603 0.85229,1.774451 z m -0.36327,10.381238 q 0,1.01996 0.0419,3.045908 0.0419,2.011976 0.0419,3.017964 0,0.293413 -0.3493,0.349302 -0.47505,0.08383 -2.13772,0.08383 -1.67665,0 -2.1517,-0.08383 -0.30738,-0.05589 -0.37724,-0.181637 -0.028,-0.05589 -0.028,-0.419162 0,-0.964072 0.0419,-2.892215 0.0419,-1.942116 0.0419,-2.92016 0,-3.968064 -0.30738,-6.31537 -0.0279,-0.223552 -0.0279,-0.293413 0,-0.279441 0.37725,-0.279441 0.39122,0 1.18762,0.08383 0.81038,0.08383 1.21557,0.08383 0.40519,0 1.21557,-0.06986 0.81038,-0.06986 1.21557,-0.06986 0.33533,0 0.33533,0.279441 0,0.05589 -0.0279,0.265469 -0.30739,2.724551 -0.30739,6.31537 z"
     style="font-style:normal;font-variant:normal;font-weight:normal;font-stretch:normal;font-family:'Berlin Sans FB Demi';-inkscape-font-specification:'Berlin Sans FB Demi';letter-spacing:0px;fill:#782121;fill-opacity:1;stroke-width:0.71536922px"
     id="path59" /><path
     d="m 128.88116,-19.633138 q 0,0.33533 -0.36327,0.33533 -1.50898,0 -2.37525,-0.08383 0.0419,1.047905 0.0838,2.92016 0.014,0.796407 0.12575,2.766467 0.0978,1.774451 0.0978,2.766467 0,0.293413 -0.39121,0.33533 -0.47505,0.05589 -2.37525,0.05589 -1.57884,0 -2.05389,-0.08383 -0.47505,-0.08383 -0.47505,-0.572855 v -7.698603 q 0,-0.405189 -0.55889,-0.405189 -0.0978,0 -0.32135,0.01397 -0.20958,0.01397 -0.30739,0.01397 -0.39122,0 -0.40519,-0.223553 -0.12575,-1.215569 -0.12575,-3.53493 0,-0.516966 0.53094,-0.628743 0.47505,-0.04192 0.96407,-0.06986 -0.0699,-1.117765 -0.0699,-1.746507 0,-2.403194 0.93613,-3.493014 1.85828,-2.165669 6.00798,-2.165669 0.27945,0 0.33533,0.167665 0.11178,0.628742 0.32136,1.858283 0.014,0.111777 0.18164,0.782435 0.12575,0.516967 0.12575,0.796408 0,0.335329 -0.99202,0.433133 -1.14571,0.125749 -1.41118,0.419162 -0.46108,0.502994 -0.46108,1.97006 0,0.461078 0.0699,0.866267 0.39122,0 1.21557,-0.02794 0.82436,-0.02794 1.24352,-0.02794 0.41916,0 0.41916,0.307385 0,0.656687 0.014,1.984032 0.014,1.313374 0.014,1.97006 z"
     style="font-style:normal;font-variant:normal;font-weight:normal;font-stretch:normal;font-family:'Berlin Sans FB Demi';-inkscape-font-specification:'Berlin Sans FB Demi';letter-spacing:0px;fill:#782121;fill-opacity:1;stroke-width:0.71536922px"
     id="path61" /><path
     d="m 144.44603,-17.60719 q 0,1.075849 0.12575,3.199601 0.12575,2.123753 0.12575,3.185629 0,0.558882 -0.48902,0.600799 -1.73254,0.125748 -3.96807,0.125748 -0.26547,0 -0.36327,-0.796407 -0.0838,-0.810379 -0.20958,-0.824351 -0.11178,0.05589 -0.29341,0.237524 -1.56487,1.578843 -3.3533,1.578843 -2.72455,0 -4.51297,-2.151697 -1.69062,-2.011976 -1.69062,-4.806387 0,-3.227545 1.74651,-5.197605 1.81636,-2.03992 4.97405,-2.03992 2.19361,0 3.46507,1.536926 0.0559,0.06986 0.0978,0.06986 0.12575,0 0.27944,-0.670658 0.16767,-0.684631 0.39122,-0.684631 0.51697,0 1.97006,0.293413 1.38324,0.279441 1.98403,0.47505 0.20958,0.08383 0.20958,0.223553 0,0.05589 -0.0419,0.293413 -0.44711,2.528942 -0.44711,5.351297 z m -4.499,0.08383 q 0,-1.187625 -0.75449,-1.956088 -0.74052,-0.782435 -1.94212,-0.782435 -1.20159,0 -1.94211,0.768463 -0.74052,0.768463 -0.74052,1.97006 0,1.131736 0.78243,1.942116 0.78244,0.810379 1.9002,0.810379 1.18763,0 1.94212,-0.768463 0.75449,-0.782435 0.75449,-1.984032 z"
     style="font-style:normal;font-variant:normal;font-weight:normal;font-stretch:normal;font-family:'Berlin Sans FB Demi';-inkscape-font-specification:'Berlin Sans FB Demi';letter-spacing:0px;fill:#782121;fill-opacity:1;stroke-width:0.71536922px"
     id="path63" /><path
     d="m 152.42408,-20.12216 q 0,1.215569 -0.82435,1.942116 -0.81038,0.726547 -2.03992,0.726547 -1.14571,0 -1.94212,-0.754491 -0.78243,-0.768463 -0.78243,-1.914172 0,-1.173652 0.81038,-1.998004 0.81037,-0.838323 1.97006,-0.838323 1.17365,0 1.98403,0.838323 0.82435,0.824352 0.82435,1.998004 z m 0,6.874252 q 0,1.187625 -0.81038,2.025948 -0.81038,0.824351 -1.998,0.824351 -1.17366,0 -1.98404,-0.838323 -0.7964,-0.838323 -0.7964,-2.011976 0,-1.257485 0.78243,-2.011976 0.79641,-0.768463 2.05389,-0.768463 1.2016,0 1.97006,0.796407 0.78244,0.782435 0.78244,1.984032 z"
     style="font-style:normal;font-variant:normal;font-weight:normal;font-stretch:normal;font-family:'Berlin Sans FB Demi';-inkscape-font-specification:'Berlin Sans FB Demi';letter-spacing:0px;fill:#782121;fill-opacity:1;stroke-width:0.71536922px"
     id="path65" /><path
     d="m 159.57777,-20.12216 q 0,1.215569 -0.82435,1.942116 -0.81038,0.726547 -2.03992,0.726547 -1.14571,0 -1.94211,-0.754491 -0.78244,-0.768463 -0.78244,-1.914172 0,-1.173652 0.81038,-1.998004 0.81038,-0.838323 1.97006,-0.838323 1.17365,0 1.98403,0.838323 0.82435,0.824352 0.82435,1.998004 z m 0,6.874252 q 0,1.187625 -0.81038,2.025948 -0.81038,0.824351 -1.998,0.824351 -1.17365,0 -1.98403,-0.838323 -0.79641,-0.838323 -0.79641,-2.011976 0,-1.257485 0.78244,-2.011976 0.7964,-0.768463 2.05389,-0.768463 1.20159,0 1.97006,0.796407 0.78243,0.782435 0.78243,1.984032 z"
     style="font-style:normal;font-variant:normal;font-weight:normal;font-stretch:normal;font-family:'Berlin Sans FB Demi';-inkscape-font-specification:'Berlin Sans FB Demi';letter-spacing:0px;fill:#782121;fill-opacity:1;stroke-width:0.71536922px"
     id="path67" /><path
     d="m 177.95103,-13.778846 q 0,0.223553 -0.29342,0.586826 -2.57085,3.059881 -6.83233,3.059881 -4.35928,0 -7.06986,-2.976048 -2.64072,-2.878244 -2.64072,-7.26547 0,-4.247505 2.58483,-7.209581 2.69661,-3.101796 6.86028,-3.101796 4.52695,0 7.0978,2.780439 0.27945,0.307385 0.27945,0.54491 0,0.265469 -0.97805,1.97006 -0.96407,1.704591 -1.21557,1.914172 -0.11177,0.111776 -0.27944,0.111776 -0.0699,0 -0.6986,-0.558882 -0.75449,-0.670659 -1.48104,-1.047904 -1.10379,-0.558882 -2.29142,-0.558882 -2.05389,0 -3.28343,1.536926 -1.13174,1.42515 -1.13174,3.520958 0,2.123753 1.13174,3.562874 1.22954,1.564871 3.28343,1.564871 1.21557,0 2.30539,-0.530939 0.71258,-0.349301 1.4531,-0.978043 0.61477,-0.530939 0.68463,-0.530939 0.13972,0 0.27944,0.153693 0.22355,0.251497 1.21557,1.746507 1.01996,1.550898 1.01996,1.704591 z"
     style="font-style:normal;font-variant:normal;font-weight:normal;font-stretch:normal;font-family:'Berlin Sans FB Demi';-inkscape-font-specification:'Berlin Sans FB Demi';letter-spacing:0px;fill:#782121;fill-opacity:1;stroke-width:0.71536922px"
     id="path69" /><path
     d="m 190.65162,-17.118168 q -0.71257,0 -1.97006,-0.05589 -1.42515,-0.05589 -1.98403,-0.05589 0.014,0.572854 0.0699,2.123753 0.0419,1.327345 0.0419,2.10978 0,0.54491 -2.10978,0.54491 -2.03992,0 -2.03992,-0.349301 0,-0.866268 0.0419,-2.235529 0.0419,-1.886228 0.0559,-2.221557 -3.66068,0.111776 -3.87026,0.111776 -0.2515,0 -0.2515,-0.433133 0,-0.139721 0.13972,-1.592815 0.014,-0.838323 0.0559,-1.718563 0.12575,-0.209581 0.37725,-0.209581 0.68463,0 1.77445,0.04192 1.45309,0.04192 1.77445,0.05589 -0.0279,-1.229541 -0.0279,-2.626747 V -25.1521 q 0,-0.265469 0.36327,-0.265469 0.51697,0 1.52295,-0.02794 1.01996,-0.02794 1.52296,-0.02794 0.68463,0 0.68463,0.237525 0,0.698603 -0.0559,2.123752 -0.0419,1.42515 -0.0419,2.137725 2.99002,-0.05589 4.06587,-0.05589 0.29342,0 0.29342,0.251497 0,0.153692 -0.1537,1.718563 0.0419,0.586826 -0.0838,1.746507 -0.0559,0.195608 -0.19561,0.195608 z"
     style="font-style:normal;font-variant:normal;font-weight:normal;font-stretch:normal;font-family:'Berlin Sans FB Demi';-inkscape-font-specification:'Berlin Sans FB Demi';letter-spacing:0px;fill:#782121;fill-opacity:1;stroke-width:0.71536922px"
     id="path71" /><path
     d="m 204.17658,-17.118168 q -0.71258,0 -1.97006,-0.05589 -1.42515,-0.05589 -1.98403,-0.05589 0.014,0.572854 0.0699,2.123753 0.0419,1.327345 0.0419,2.10978 0,0.54491 -2.10978,0.54491 -2.03992,0 -2.03992,-0.349301 0,-0.866268 0.0419,-2.235529 0.0419,-1.886228 0.0559,-2.221557 -3.66068,0.111776 -3.87026,0.111776 -0.2515,0 -0.2515,-0.433133 0,-0.139721 0.13972,-1.592815 0.014,-0.838323 0.0559,-1.718563 0.12575,-0.209581 0.37724,-0.209581 0.68463,0 1.77445,0.04192 1.4531,0.04192 1.77446,0.05589 -0.0279,-1.229541 -0.0279,-2.626747 V -25.1521 q 0,-0.265469 0.36328,-0.265469 0.51696,0 1.52295,-0.02794 1.01996,-0.02794 1.52295,-0.02794 0.68463,0 0.68463,0.237525 0,0.698603 -0.0559,2.123752 -0.0419,1.42515 -0.0419,2.137725 2.99002,-0.05589 4.06587,-0.05589 0.29341,0 0.29341,0.251497 0,0.153692 -0.15369,1.718563 0.0419,0.586826 -0.0838,1.746507 -0.0559,0.195608 -0.19561,0.195608 z"
     style="font-style:normal;font-variant:normal;font-weight:normal;font-stretch:normal;font-family:'Berlin Sans FB Demi';-inkscape-font-specification:'Berlin Sans FB Demi';letter-spacing:0px;fill:#782121;fill-opacity:1;stroke-width:0.71536922px"
     id="path73" /></g>

</g></svg>